<svg width="1275" height="61" viewBox="0 0 1275 61" fill="none" xmlns="http://www.w3.org/2000/svg">
<path d="M46.8352 23.8483L46.2966 25.9474L45.097 29.5453H48.5757L47.376 25.9474C47.1468 25.2279 46.8375 23.8483 46.8375 23.8483H46.8352ZM49.1726 31.5253H44.5092L43.3691 34.9444H40.8506L45.5885 21.5704H48.107L52.7854 34.9444H50.2669L49.1726 31.5253ZM58.1719 33.1443C59.4323 33.1443 60.5712 32.2448 60.5712 30.085C60.5712 28.5954 59.7921 27.146 58.1719 27.146C56.8519 27.146 55.7725 28.2253 55.7725 30.1446C55.7725 31.9435 56.8038 33.1432 58.1719 33.1432M57.7525 25.1064C59.8516 25.1064 60.5116 26.3668 60.5116 26.3668V21.5693H62.911V34.9432H60.6193V33.5637C60.6193 33.5637 59.7794 35.1827 57.6207 35.1827C55.0426 35.1827 53.3629 33.1432 53.3629 30.1446C53.3629 27.0852 55.1618 25.1064 57.7399 25.1064M68.4876 33.3242C69.748 33.3242 70.6464 31.9446 70.6464 30.8057V30.5765H70.227C68.9666 30.5765 66.9889 30.7564 66.9889 32.0661C67.0485 32.6653 67.5274 33.3265 68.4785 33.3265M70.3347 28.8853H70.6945V28.765C70.6945 27.5046 69.9153 27.0852 68.8348 27.0852C67.4553 27.0852 66.196 27.9847 66.196 27.9847L65.2965 26.2453C65.2965 26.2453 66.7861 25.0457 69.0754 25.0457C71.5939 25.0457 73.0342 26.4252 73.0342 28.8842V34.8814H70.8285V33.4456C70.8285 33.4456 70.109 35.1254 67.8895 35.1254C66.1502 35.1254 64.6514 34.0461 64.6514 32.1268C64.6514 29.1282 68.7901 28.8887 70.3496 28.8887M79.5241 33.1443C80.8441 33.1443 81.9235 32.0649 81.9235 30.1457C81.9235 28.3468 80.9644 27.1471 79.5241 27.1471C78.2637 27.1471 77.1248 28.0466 77.1248 30.2064C77.1844 31.696 77.9647 33.1454 79.5241 33.1454V33.1443ZM74.8458 25.347H77.0045V26.7266C77.0045 26.7266 77.8444 25.1076 80.0638 25.1076C82.6419 25.1076 84.3217 27.1471 84.3217 30.1457C84.3217 33.205 82.462 35.1838 79.9446 35.1838C78.0254 35.1838 77.1855 33.8639 77.1855 33.8639C77.1845 34.1449 77.2044 34.4257 77.2451 34.7038V38.7221H74.8458V25.347Z" fill="#ADADAD"/>
<path d="M86.6598 27.3866H85.3994V25.4674H86.6598V22.6979H88.9973V25.4571H91.156V27.3763H88.9973V31.0945C88.9973 32.7135 90.2577 32.8934 90.9165 32.8934H91.3359V34.9925C91.3359 34.9925 91.0357 35.0521 90.6163 35.0521C89.2963 35.0521 86.6575 34.6923 86.6575 31.4543L86.6598 27.3866Z" fill="#ADADAD"/>
<path d="M96.3158 33.3242C97.5762 33.3242 98.4745 31.9446 98.4745 30.8057V30.5765H98.0551C96.7947 30.5765 94.8171 30.7564 94.8171 32.0661C94.8766 32.6653 95.2983 33.3265 96.3066 33.3265M98.1663 28.8887H98.4665V28.7684C98.4665 27.508 97.6873 27.0887 96.6068 27.0887C95.2273 27.0887 93.968 27.9881 93.968 27.9881L93.0915 26.2499C93.0915 26.2499 94.581 25.0503 96.8704 25.0503C99.3889 25.0503 100.829 26.4298 100.829 28.8887V34.8859H98.6097V33.4456C98.6097 33.4456 97.8901 35.1254 95.6707 35.1254C93.9313 35.1254 92.4326 34.0461 92.4326 32.1268C92.4326 29.1282 96.5713 28.8887 98.1903 28.8887M101.364 25.3367H103.883L105.862 31.2743C106.041 31.8129 106.162 32.7135 106.221 32.7135L106.581 31.2743L108.56 25.3367H111.078L107.659 34.9329H104.781L101.364 25.3367ZM112.341 25.3482H114.74V34.9444H112.341V25.3482ZM112.341 21.5693H114.679V23.6684H112.341V21.5693ZM117.018 32.0649C117.018 32.0649 118.098 33.1443 119.657 33.1443C120.317 33.1443 120.918 32.8441 120.918 32.2448C120.918 30.8057 116.239 30.9844 116.239 27.9251C116.239 26.1262 117.858 25.1064 119.898 25.1064C122.057 25.1064 123.136 26.1858 123.136 26.1858L122.236 27.9847C122.236 27.9847 121.337 27.1448 119.899 27.1448C119.3 27.1448 118.639 27.374 118.639 28.0443C118.639 29.4238 123.317 29.2439 123.317 32.3021C123.317 33.9212 121.937 35.1804 119.658 35.1804C117.259 35.1804 115.94 33.7413 115.94 33.7413L117.018 32.0649Z" fill="#ADADAD"/>
<path d="M125.523 27.3866H124.263V25.4674H125.523V22.6979H127.861V25.4571H130.019V27.3763H127.861V31.0945C127.861 32.7135 129.121 32.8934 129.78 32.8934H130.199V34.9925C130.199 34.9925 129.899 35.0521 129.48 35.0521C128.16 35.0521 125.521 34.6923 125.521 31.4543L125.523 27.3866Z" fill="#ADADAD"/>
<path d="M21.1391 39.1497C21.1391 34.9021 24.5365 31.5048 28.784 31.5048C33.0315 31.5048 36.4289 34.9021 36.4289 39.1497C36.4289 43.3972 33.0315 46.7946 28.784 46.7946C24.5365 46.8793 21.1391 43.3972 21.1391 39.1497ZM22.2426 14.5169C19.9486 13.158 17.0612 12.9884 14.5977 14.3474C13.3463 15.0318 12.3155 16.0582 11.6257 17.3066C10.9359 18.555 10.6155 19.9739 10.7019 21.3976C10.621 23.6058 10.009 25.762 8.91788 27.6835C7.79506 29.5707 6.21839 31.1474 4.33118 32.2702C1.78289 33.5443 0.0836445 36.0926 0 39.0649C0.00474399 40.4179 0.359189 41.7468 1.02893 42.9224C1.69868 44.0981 2.66098 45.0807 3.82244 45.7748C4.98587 46.4699 6.3099 46.851 7.66487 46.8808C9.01984 46.9105 10.3593 46.5878 11.5521 45.9444C12.8035 45.2599 13.8343 44.2336 14.5241 42.9852C15.2139 41.7368 15.5343 40.3179 15.4479 38.8942C15.5288 36.6859 16.1408 34.5297 17.2319 32.6082C18.3547 30.721 19.9314 29.1443 21.8186 28.0215C24.3669 26.7474 26.0661 24.1991 26.1498 21.2268C26.1498 18.4242 24.6213 15.8759 22.3273 14.6017L22.2426 14.5169Z" fill="#ADADAD"/>
<path d="M390.25 25.3593H387.236V26.8627C386.189 25.7062 384.77 25.0471 383.151 25.0471C379.615 25.0471 377.049 27.981 377.049 32.032C377.049 35.935 379.614 38.7949 383.126 38.7949C384.768 38.7949 386.015 38.2479 387.236 36.9307V38.7464C387.236 41.4559 386.165 42.7986 383.924 42.7986C382.728 42.7986 381.532 42.2018 381.01 41.2836C380.711 40.7632 380.611 40.2659 380.512 39.1442H377.575C377.6 43.0472 380.015 45.4838 383.901 45.4838C386.118 45.4838 388.061 44.5887 389.131 42.9743C390.003 41.7312 390.253 40.5874 390.253 38.0513L390.25 25.3593ZM383.7 27.6953C385.867 27.6953 387.361 29.3861 387.361 31.8585C387.361 34.3946 385.915 36.0854 383.749 36.0854C381.558 36.0854 380.138 34.4432 380.138 31.9083C380.112 29.3722 381.532 27.7069 383.7 27.7069V27.6953Z" fill="#ADADAD"/>
<path d="M332.268 25.3592V38.3623H335.256V31.6503C335.256 28.891 336.003 27.6976 337.684 27.6976C339.029 27.6976 339.677 28.8159 339.677 31.153V38.3635H342.665V31.6503C342.665 28.8656 343.412 27.6976 345.094 27.6976C346.539 27.6976 347.086 28.6667 347.086 31.1288V38.3635H350.075V30.332C350.075 26.8626 348.58 25.0123 345.68 25.0123C344.086 25.0123 342.766 25.683 341.844 26.9262C341.035 25.683 339.826 25.0123 338.382 25.0123C337.087 25.0123 336.416 25.3592 335.294 26.5538V25.3592H332.268ZM361.308 25.3592V26.8626C360.013 25.5443 358.88 24.9984 357.261 24.9984C353.774 24.9984 351.108 27.9069 351.108 31.7613C351.108 35.839 353.699 38.7463 357.335 38.7463C358.904 38.7463 359.925 38.2745 361.32 36.9815V38.3485H364.334V25.3592H361.308ZM357.772 27.6952C359.963 27.6952 361.473 29.4357 361.473 31.8723C361.473 34.3818 359.953 36.0737 357.772 36.0737C355.656 36.0737 354.16 34.309 354.16 31.8723C354.16 29.4612 355.704 27.6952 357.772 27.6952ZM369.702 25.3592H366.688V38.3623H369.702V25.3592ZM368.233 18.1245C367.111 18.1245 366.241 18.9941 366.241 20.0638C366.241 21.1336 367.137 22.0518 368.185 22.0518C369.281 22.0518 370.177 21.1567 370.177 20.0627C370.177 18.9687 369.305 18.1233 368.234 18.1233L368.233 18.1245ZM372.466 14.8193H375.479V38.3647H372.466V14.8193Z" fill="#ADADAD"/>
<path d="M395.057 25.3593H392.042V32.8924C392.042 34.9312 392.416 36.0495 393.413 37.1192C394.459 38.1878 395.878 38.7614 397.597 38.7614C399.34 38.7614 400.759 38.2144 401.806 37.1192C402.801 36.0507 403.176 34.9312 403.176 32.8924V25.3593H400.163V32.8415C400.163 35.0538 399.353 36.0738 397.598 36.0738C395.854 36.0738 395.057 35.0561 395.057 32.8415V25.3593ZM405.168 25.3593V38.3624H408.182V32.0968C408.182 28.8899 408.929 27.7208 410.957 27.7208C412.825 27.7208 413.386 28.565 413.386 31.1265V38.3867H416.399V30.4072C416.399 26.7528 414.88 25.0366 411.693 25.0366C410.272 25.0366 409.376 25.4345 408.206 26.5782V25.3847H405.167L405.168 25.3593ZM306.448 22.541C304.419 22.5428 302.473 23.3488 301.037 24.7822C299.602 26.2156 298.792 28.1597 298.787 30.1886C298.792 32.2175 299.602 34.1616 301.037 35.595C302.473 37.0285 304.419 37.8344 306.448 37.8362C308.476 37.8344 310.422 37.0285 311.858 35.595C313.293 34.1616 314.103 32.2175 314.108 30.1886C314.103 28.1597 313.293 26.2156 311.858 24.7822C310.422 23.3488 308.476 22.5428 306.448 22.541ZM294.522 30.1886C294.527 27.0293 295.786 24.001 298.022 21.7689C300.258 19.5369 303.288 18.2835 306.448 18.2841C313.03 18.2841 318.373 23.6038 318.373 30.1886C318.373 30.6431 318.331 31.056 318.29 31.47C318.206 32.6264 319.035 33.4938 320.194 33.4938C322.141 33.4938 322.348 30.9727 322.348 30.1458C322.348 21.3418 315.224 14.2331 306.405 14.2331C297.586 14.2331 290.463 21.3429 290.463 30.147C290.463 38.951 297.587 46.0597 306.406 46.0597C311.085 46.0597 315.268 44.036 318.207 40.8511L321.48 43.5803C317.795 47.7135 312.411 50.3178 306.407 50.3178C295.226 50.3178 286.199 41.2651 286.199 30.1458C286.199 18.9861 295.268 9.97388 306.407 9.97388C317.588 9.97388 326.615 19.0266 326.615 30.1458C326.615 34.6097 324.462 38.2479 320.197 38.2479C318.292 38.2479 317.174 37.3806 316.511 36.4288C314.399 39.8172 310.671 42.0492 306.365 42.0492C299.864 42.0908 294.523 36.7584 294.523 30.1863L294.522 30.1886ZM306.448 26.6753C308.394 26.6753 309.968 28.2458 309.968 30.147C309.968 31.0805 309.597 31.9757 308.937 32.6358C308.277 33.2958 307.382 33.6666 306.448 33.6666C305.515 33.6666 304.619 33.2958 303.959 32.6358C303.299 31.9757 302.928 31.0805 302.928 30.147C302.97 28.2458 304.501 26.6753 306.449 26.6753H306.448Z" fill="#ADADAD"/>
<path d="M591.818 40.1459C591.818 40.1459 585.709 31.4437 590.533 22.8368C594.23 16.63 601.556 13.578 608.569 15.3227C611.84 16.3656 610.557 21.9882 610.557 23.3694C610.507 23.9635 610.557 24.5602 610.702 25.1392C610.884 25.6456 611.379 25.9715 611.914 25.9389C612.469 25.8542 613.019 25.7408 613.563 25.5992C613.487 29.2243 612.14 32.7077 609.757 35.4407C605.879 39.5142 603.261 37.4775 599.818 40.4104C596.375 43.3433 593.467 47.0533 594.534 41.5008C597.952 23.7818 607.381 17.2605 604.23 19.3699C595.093 25.7935 591.819 40.1434 591.819 40.1434L591.818 40.1459Z" fill="#ADADAD"/>
<path d="M583.574 29.1651C582.466 25.8847 580.519 22.9515 577.926 20.6572C581.054 22.4846 583.614 25.1443 585.321 28.3404L586.023 29.649C586.226 27.1009 586.961 24.6236 588.18 22.3768C586.306 20.6509 584.075 19.3603 581.644 18.5976C579.214 17.8349 576.645 17.6189 574.121 17.9649C574.839 18.8924 575.13 20.0832 574.92 21.2363C574.507 23.0787 569.731 28.7503 574.507 34.497C577.524 37.9476 580.912 41.0522 584.615 43.757C585.387 38.8768 585.03 33.8847 583.573 29.1639L583.574 29.1651Z" fill="#ADADAD"/>
<path d="M589.502 20.4867C587.756 19.2058 585.769 18.2905 583.66 17.7957C586.024 16.4486 588.697 15.7385 591.417 15.7352C591.248 16.6802 591.539 17.1891 593.042 17.6741C591.793 18.5216 590.61 19.4613 589.502 20.4855V20.4867ZM584.739 45.4541C584.739 45.4541 574.655 39.3213 572.619 34.571C573.662 38.6921 573.444 43.1516 584.739 45.4553V45.4541ZM598.532 44.3636C598.532 44.3636 601.537 41.1149 602.798 41.1149C604.059 41.1149 607.646 40.072 607.646 40.072C607.646 40.072 605.634 44.0227 598.532 44.3624V44.3636ZM628.529 36.5363L624.049 29.3231L622.257 31.8962V36.5363H619.399V19.5968H622.257V27.7012L627.725 19.5968H630.979L625.943 27.0206L631.944 36.5463L628.529 36.5363ZM639.182 35.2854C638.871 35.7643 638.416 36.1323 637.883 36.337C637.271 36.6078 636.609 36.747 635.94 36.7456C634.866 36.7996 633.812 36.4408 632.994 35.7429C632.623 35.374 632.334 34.9308 632.147 34.4424C631.959 33.954 631.877 33.4314 631.905 32.909C631.876 32.2666 632 31.6266 632.267 31.0415C632.534 30.4565 632.936 29.9431 633.439 29.5437C634.71 28.6509 636.245 28.2148 637.795 28.3066C638.18 28.3153 638.563 28.3743 638.933 28.4795C638.933 27.0198 638.059 26.2899 636.31 26.2899C635.412 26.259 634.521 26.4456 633.711 26.8338L633.12 24.6317C634.174 24.1304 635.331 23.8843 636.498 23.9135C637.927 23.7881 639.352 24.2205 640.446 25.1506C641.271 25.9753 641.683 27.6047 641.683 30.0387V32.6871C641.683 34.3328 641.992 35.3719 642.623 35.793C642.473 36.1317 642.205 36.4042 641.868 36.5601C641.561 36.6623 641.239 36.7123 640.916 36.708C640.512 36.703 640.126 36.5325 639.85 36.238C639.556 35.9802 639.33 35.6527 639.195 35.2854H639.182ZM638.935 30.6943C638.591 30.6103 638.239 30.5614 637.883 30.5464C635.713 30.5464 634.629 31.293 634.629 32.7861C634.629 33.8916 635.239 34.4485 636.459 34.4569C638.108 34.4569 638.933 33.5908 638.933 31.8586L638.935 30.6943ZM646.125 35.8557L645.506 36.7706H643.972V19.5467L646.729 18.8661V24.6317C647.431 24.1729 648.253 23.9298 649.093 23.926C649.869 23.8954 650.642 24.0332 651.36 24.3301C652.078 24.6269 652.723 25.0758 653.25 25.6456C654.332 26.8471 654.9 28.4237 654.835 30.0387C654.94 31.8304 654.371 33.5966 653.239 34.9896C652.699 35.5928 652.031 36.0679 651.284 36.3801C650.537 36.6924 649.73 36.8339 648.921 36.7945C647.913 36.8045 646.932 36.4723 646.139 35.8544L646.125 35.8557ZM646.706 27.1071V33.5532C646.9 33.7982 647.149 33.9942 647.433 34.1253C647.717 34.2563 648.027 34.3188 648.34 34.3078C649.38 34.418 650.416 34.0546 651.16 33.305C651.79 32.3703 652.082 31.2486 651.988 30.1252C651.988 27.6502 650.846 26.4127 648.56 26.4127C647.876 26.3576 647.202 26.607 646.718 27.0933L646.706 27.1071ZM658.758 35.8557L658.139 36.7706H656.592V19.5467L659.337 18.8661V24.6317C660.047 24.1688 660.877 23.9235 661.724 23.926C663.299 23.8633 664.823 24.49 665.894 25.6456C666.976 26.8471 667.544 28.4237 667.479 30.0387C667.583 31.8311 667.015 33.5958 665.883 34.9896C665.343 35.5921 664.675 36.0667 663.928 36.3789C663.181 36.6911 662.374 36.833 661.565 36.7945C660.563 36.8095 659.56 36.4774 658.758 35.8544V35.8557ZM659.339 27.1071V33.5532C659.533 33.7982 659.782 33.9942 660.066 34.1253C660.35 34.2563 660.66 34.3188 660.972 34.3078C662.013 34.418 663.049 34.0546 663.793 33.305C664.423 32.3703 664.715 31.2486 664.621 30.1252C664.621 27.6502 663.478 26.4127 661.193 26.4127C660.853 26.3825 660.51 26.4279 660.189 26.5455C659.869 26.6632 659.578 26.8502 659.338 27.0933L659.339 27.1071ZM676.005 35.2854C675.694 35.7643 675.239 36.1323 674.706 36.337C674.094 36.6081 673.432 36.7473 672.763 36.7456C671.673 36.8087 670.6 36.4497 669.767 35.7429C669.396 35.374 669.107 34.9308 668.92 34.4424C668.732 33.954 668.65 33.4314 668.678 32.909C668.649 32.2666 668.773 31.6266 669.04 31.0415C669.307 30.4565 669.708 29.9431 670.212 29.5437C671.483 28.6518 673.018 28.2158 674.568 28.3066C674.953 28.3163 675.335 28.3745 675.706 28.4795C675.706 27.0198 674.831 26.2899 673.083 26.2899C672.19 26.2615 671.303 26.448 670.497 26.8338L669.903 24.6317C670.957 24.1304 672.114 23.8843 673.281 23.9135C673.988 23.8438 674.702 23.9174 675.381 24.13C676.059 24.3425 676.688 24.6896 677.229 25.1506C678.053 25.9753 678.466 27.6047 678.466 30.0387V32.6871C678.466 34.3328 678.775 35.3719 679.406 35.793C679.255 36.1314 678.987 36.4034 678.651 36.5601C678.344 36.6625 678.022 36.7125 677.699 36.708C677.295 36.7017 676.912 36.5325 676.633 36.238C676.348 35.9769 676.132 35.6498 676.003 35.2854H676.005ZM675.733 30.6943C675.388 30.6099 675.036 30.5603 674.681 30.5464C672.511 30.5464 671.427 31.293 671.427 32.7861C671.427 33.8916 672.037 34.4485 673.257 34.4569C674.906 34.4569 675.731 33.5908 675.731 31.8586L675.733 30.6943ZM680.113 39.7399L681.845 37.4876C682.505 38.1534 683.349 38.606 684.269 38.787C685.189 38.968 686.142 38.869 687.005 38.5028C687.22 38.4304 687.409 38.2948 687.545 38.1137C687.682 37.9325 687.761 37.7143 687.772 37.4876C687.772 36.7581 687.203 36.3846 686.065 36.3846C685.605 36.395 685.147 36.4323 684.691 36.4962C684.236 36.5588 683.776 36.5964 683.318 36.6215C681.429 36.6215 680.485 35.9079 680.485 34.4807C680.49 34.0256 680.657 33.5872 680.955 33.2436C681.248 32.8709 681.625 32.5738 682.057 32.3775C681.412 31.9603 680.886 31.3831 680.53 30.7022C680.174 30.0213 680.001 29.2599 680.026 28.4921C679.991 27.2462 680.496 26.048 681.413 25.2007C681.872 24.7681 682.412 24.4306 683.002 24.2075C683.593 23.9845 684.221 23.8803 684.852 23.9009C685.757 23.8759 686.653 24.0889 687.45 24.5201L688.528 23.1965L690.433 25.0139L689.122 26.0166C689.606 26.7913 689.855 27.6893 689.84 28.6024C689.868 29.2193 689.773 29.8355 689.561 30.4154C689.348 30.9953 689.023 31.5272 688.603 31.9802C687.792 32.81 686.669 33.2587 685.51 33.2173C685.246 33.2324 684.982 33.2324 684.718 33.2173L684.26 33.1546C684.058 33.2154 683.863 33.2982 683.679 33.4016C683.333 33.562 683.171 33.7362 683.171 33.9217C683.171 34.1072 683.43 34.3792 683.926 34.3792C684.309 34.3566 684.678 34.299 685.064 34.2062C685.514 34.1022 685.975 34.0442 686.437 34.0333C689.111 34.0333 690.448 35.1634 690.448 37.4237C690.461 38.0123 690.319 38.5939 690.037 39.1107C689.754 39.6274 689.342 40.0613 688.84 40.3691C687.685 41.1046 686.336 41.4754 684.967 41.4332C683.206 41.4298 681.497 40.8328 680.117 39.7386L680.113 39.7399ZM682.86 28.5297C682.83 29.1672 683.037 29.7932 683.442 30.2869C683.633 30.5072 683.871 30.6817 684.139 30.7973C684.407 30.913 684.697 30.9668 684.988 30.955C685.273 30.9726 685.557 30.9237 685.819 30.812C686.081 30.7004 686.313 30.5292 686.497 30.312C686.877 29.7978 687.065 29.1675 687.029 28.5297C687.044 27.9494 686.841 27.3841 686.46 26.9454C686.281 26.7261 686.054 26.5508 685.796 26.4328C685.539 26.3148 685.258 26.2574 684.975 26.2648C684.689 26.256 684.405 26.3076 684.14 26.4162C683.876 26.5249 683.637 26.6881 683.44 26.8953C683.042 27.3335 682.833 27.9116 682.859 28.5033L682.86 28.5297ZM702.288 31.2282H693.923C693.916 31.659 693.996 32.0867 694.158 32.4862C694.319 32.8857 694.559 33.2489 694.863 33.5545C695.527 34.1273 696.388 34.4318 697.263 34.3717C697.785 34.4118 698.309 34.3411 698.801 34.1642C699.294 33.9872 699.743 33.7081 700.12 33.3452L701.186 35.5473C699.936 36.4622 698.4 36.9008 696.855 36.7844C696.069 36.8249 695.283 36.698 694.549 36.4122C693.815 36.1263 693.151 35.688 692.599 35.1262C691.496 33.8453 690.937 32.1858 691.04 30.4987C690.964 28.7538 691.582 27.0499 692.759 25.7597C693.285 25.1935 693.918 24.7379 694.621 24.4195C695.325 24.1011 696.085 23.9264 696.857 23.9056C697.63 23.8849 698.398 24.0184 699.118 24.2985C699.838 24.5785 700.494 24.9995 701.049 25.5366C701.566 26.0826 701.969 26.7259 702.234 27.4292C702.5 28.1324 702.623 28.8814 702.596 29.6326C702.544 30.1732 702.44 30.7075 702.286 31.2282H702.288ZM693.985 29.0511H699.813C699.841 28.2965 699.544 27.5671 698.999 27.0457C698.453 26.5243 697.708 26.2636 696.956 26.3287C695.371 26.3413 694.406 27.2437 694.01 29.0636L693.985 29.0511Z" fill="#ADADAD"/>
<path d="M871.037 14.6832C870.871 14.1844 870.582 13.7129 870.299 13.2727C869.935 12.7001 869.526 12.1566 869.077 11.6473C868.835 11.3868 868.504 10.9623 868.14 10.8268C868.075 10.8008 868.025 10.7747 867.953 10.7786C867.914 10.7656 867.878 10.7656 867.849 10.7656L865.557 10.1743C864.501 9.86816 863.479 9.45353 862.508 8.93704C862.091 8.71303 861.681 8.47469 861.297 8.20119L861.016 7.99281C860.668 7.52395 860.312 7.00299 859.869 6.6253L859.778 6.57581C859.847 6.9561 860.071 7.30775 860.267 7.63595C860.751 8.45255 861.318 9.22096 861.891 9.97765C862.433 10.694 863.011 11.3999 863.714 11.9794C864.29 12.4639 864.945 12.8455 865.613 13.1867L867.888 14.2625C868.862 14.6402 869.852 14.9372 870.884 15.096L870.75 15.0752C870.806 15.0791 870.859 15.0934 870.911 15.1143C871.221 15.2237 871.093 14.8056 871.054 14.6845L871.037 14.6832Z" fill="#ADADAD"/>
<path d="M868.386 10.9934C868.271 10.4802 868.029 9.9814 867.791 9.51645C867.484 8.91036 867.13 8.32942 866.732 7.77906C866.547 7.51597 866.338 7.2581 866.109 7.04581L865.875 6.87259C865.161 6.68635 864.403 6.76449 863.687 6.57565C863.068 6.41132 862.475 6.16331 861.923 5.83849C861.608 5.63402 861.301 5.41392 861.016 5.17037L860.801 5.00627L860.768 4.97501L860.592 4.78877L860.571 4.75881L859.95 3.92268C859.569 3.46684 859.161 2.90681 858.63 2.62029L858.721 2.67238C858.687 2.63722 858.646 2.61117 858.6 2.59033C858.601 2.6294 858.613 2.66587 858.62 2.70364C858.63 2.74568 858.643 2.78669 858.661 2.82607C858.83 3.35353 859.029 3.86798 859.273 4.36289L859.735 5.23939L859.833 5.41391L860.364 6.30345C860.844 7.01976 861.345 7.6918 861.927 8.32736C862.487 8.93949 863.11 9.51905 863.8 9.97879C864.459 10.4164 865.158 10.8253 865.916 11.0624C866.65 11.2929 867.427 11.315 868.183 11.4349C868.319 11.5 868.394 11.457 868.404 11.3046L868.371 11.0181L868.386 10.9934Z" fill="#ADADAD"/>
<path d="M868.407 11.0963C868.397 10.5701 868.261 10.0336 868.121 9.52953C867.941 8.87834 867.717 8.23105 867.44 7.61502C867.29 7.28161 867.096 6.7893 866.791 6.55227C866.735 6.50929 866.696 6.47022 866.628 6.45068C866.592 6.42724 866.559 6.41421 866.529 6.4077L866.18 6.19281L866.289 6.25793L864.521 5.16392C863.601 4.55179 862.746 3.86153 861.972 3.07098C861.641 2.73236 861.321 2.38462 861.034 2.00823L860.829 1.7217C860.636 1.17079 860.451 0.565177 860.141 0.0741754L860.068 -6.10352e-05C860.021 0.382842 860.129 0.786583 860.218 1.15646C860.439 2.08116 860.749 2.98372 861.071 3.87585C861.374 4.72241 861.715 5.56636 862.201 6.32435C862.605 6.95861 863.118 7.51864 863.655 8.0435L865.507 9.73661C866.323 10.3852 867.18 10.9648 868.119 11.4232L867.998 11.3633C868.05 11.3841 868.097 11.4128 868.141 11.4493C868.402 11.6446 868.408 11.2096 868.406 11.082L868.407 11.0963Z" fill="#ADADAD"/>
<path d="M873.824 17.8297C873.606 17.3504 873.267 16.9128 872.938 16.5064C872.512 15.979 872.049 15.4645 871.545 15.0243C871.31 14.805 871.055 14.608 870.784 14.4356L870.521 14.3145C869.784 14.278 869.06 14.5099 868.32 14.4734C867.682 14.4398 867.051 14.3193 866.445 14.1152C866.092 13.9815 865.749 13.8254 865.417 13.6477L865.179 13.5148L865.142 13.4914L864.934 13.3481L864.908 13.3221L864.126 12.6318C863.657 12.2632 863.146 11.7983 862.563 11.616L862.664 11.6498C862.625 11.6212 862.579 11.6042 862.528 11.5938C862.537 11.6329 862.554 11.6641 862.571 11.698C862.593 11.7462 862.614 11.7801 862.639 11.8152C862.913 12.2971 863.212 12.7568 863.551 13.1918L864.184 13.955L864.314 14.1048L865.017 14.8667C865.633 15.4684 866.262 16.0232 866.962 16.5247C867.635 17.0065 868.364 17.4494 869.137 17.7554C869.871 18.0485 870.64 18.3024 871.429 18.3806C872.193 18.4548 872.96 18.3154 873.724 18.279C873.871 18.3154 873.935 18.2581 873.915 18.1071L873.824 17.831V17.8297Z" fill="#ADADAD"/>
<path d="M877.253 21.4099C876.99 20.954 876.611 20.5503 876.248 20.1765C875.776 19.6883 875.267 19.2373 874.725 18.8272C874.432 18.6058 874.026 18.2711 873.644 18.2099C873.575 18.1995 873.522 18.1838 873.452 18.1995C873.416 18.1958 873.38 18.1989 873.345 18.2086L872.935 18.1878L873.062 18.1917L870.989 18.0875C869.887 17.9963 868.803 17.8036 867.743 17.4858C867.291 17.3503 866.841 17.1992 866.407 17.0078L866.089 16.8593C865.654 16.4686 865.201 16.0297 864.692 15.7497L864.593 15.7197C864.723 16.0779 865.026 16.3787 865.283 16.6601C865.921 17.3633 866.631 18.0015 867.343 18.6267C868.018 19.2193 868.724 19.7949 869.518 20.226C870.179 20.5842 870.899 20.8277 871.62 21.0283L874.066 21.6274C875.108 21.8006 876.127 21.8944 877.169 21.8423L877.033 21.8488C877.088 21.8418 877.144 21.8445 877.199 21.8566C877.524 21.9022 877.329 21.518 877.251 21.4073L877.253 21.4099Z" fill="#ADADAD"/>
<path d="M869.225 21.0103L869.605 21.19L870.065 21.3789C871.299 21.7644 872.622 21.7891 873.884 21.53L873.714 21.5664C874.32 21.43 874.915 21.2493 875.495 21.0259C875.768 20.9243 876.099 21.1926 876.297 21.3333C876.818 21.6941 877.263 22.133 877.691 22.5836C878.118 23.0342 878.528 23.5187 878.859 24.0475C878.864 24.0553 879.336 24.7898 879.119 24.8654C877.523 25.4124 875.861 25.6624 874.209 25.2092C873.624 25.045 873.056 24.8221 872.515 24.5437C871.624 24.0905 870.851 23.4718 870.106 22.8115C869.585 22.3505 869.061 21.8477 868.631 21.3007C868.397 21.0038 868.14 20.6886 868.079 20.3109L868.1 20.4412C868.084 20.3578 868.066 20.3005 868.069 20.2237C868.071 20.1585 868.793 20.6925 868.733 20.643L869.234 21.0233L869.225 21.0103Z" fill="#ADADAD"/>
<path d="M872.505 25.5839L872.918 25.6712L873.409 25.7493C874.711 25.8405 875.99 25.5579 877.159 25.0148L877.003 25.089C877.563 24.8207 878.097 24.499 878.612 24.1513C878.853 23.9898 879.237 24.1747 879.462 24.2646C880.039 24.499 880.586 24.8194 881.106 25.1606C881.625 25.5019 882.135 25.877 882.577 26.3146C882.584 26.3211 883.213 26.9267 883.02 27.0504C881.593 27.9517 880.035 28.5794 878.321 28.5221C877.713 28.4977 877.109 28.4122 876.519 28.2668C875.547 28.0324 874.651 27.6078 873.771 27.139C873.158 26.8134 872.533 26.4409 871.986 26.0085C871.692 25.7741 871.368 25.5266 871.221 25.1711L871.267 25.2805C871.234 25.2023 871.202 25.1502 871.187 25.076C871.174 25.0135 871.999 25.3625 871.929 25.3313L872.505 25.5852V25.5839Z" fill="#ADADAD"/>
<path d="M885.989 28.5928C885.554 28.2972 885.039 28.0979 884.546 27.9221C883.908 27.6889 883.254 27.5056 882.587 27.3738C882.229 27.3035 881.715 27.1784 881.345 27.2904C881.277 27.31 881.224 27.3204 881.168 27.3647C881.129 27.3803 881.099 27.3985 881.077 27.4194L880.686 27.5796L880.803 27.5275L878.893 28.3402C877.861 28.7387 876.802 29.0382 875.71 29.2154C875.243 29.2909 874.772 29.3508 874.299 29.3677L873.95 29.373C873.39 29.2128 872.788 29.0135 872.205 28.9822L872.101 28.9992C872.387 29.2596 872.778 29.3899 873.132 29.5436C874.014 29.8952 874.929 30.1635 875.845 30.4162C876.711 30.6545 877.598 30.8642 878.499 30.9059C879.251 30.9397 880.003 30.846 880.742 30.7105L883.216 30.1817C884.219 29.8887 885.186 29.5227 886.101 29.0226L885.984 29.0877C886.031 29.0572 886.082 29.0347 886.136 29.0213C886.449 28.9197 886.097 28.6644 885.989 28.5915V28.5928Z" fill="#ADADAD"/>
<path d="M877.811 32.2654L878.225 32.1912L878.709 32.0779C879.939 31.6741 881.028 30.9291 881.907 29.9849L881.789 30.1125C882.204 29.6499 882.584 29.1576 882.926 28.6395C883.089 28.3986 883.516 28.4247 883.757 28.4247C884.383 28.4342 885.006 28.5049 885.617 28.6356C886.227 28.7568 886.841 28.9117 887.417 29.1488C887.425 29.1527 888.238 29.477 888.102 29.6645C887.12 31.0372 885.912 32.2042 884.303 32.7955C883.735 33.0039 883.135 33.1471 882.537 33.2357C881.547 33.3842 880.557 33.3269 879.568 33.2253C878.877 33.1536 878.157 33.0468 877.489 32.8502C877.128 32.746 876.734 32.6379 876.464 32.3631L876.549 32.4477C876.487 32.3878 876.439 32.3527 876.398 32.2888C876.361 32.2368 877.257 32.2498 877.179 32.2459L877.808 32.2641L877.811 32.2654Z" fill="#ADADAD"/>
<path d="M880.05 35.0487L880.454 34.925L880.923 34.7557C882.095 34.2126 883.091 33.3413 883.85 32.302L883.749 32.4426C884.109 31.9373 884.419 31.3981 884.703 30.8459C884.836 30.588 885.263 30.5633 885.503 30.5333C886.122 30.4591 886.753 30.476 887.375 30.5242C887.996 30.5724 888.622 30.6544 889.224 30.8237C889.232 30.8263 890.077 31.053 889.966 31.2535C889.152 32.7317 888.091 34.0341 886.562 34.8091C886.023 35.0695 885.442 35.2961 884.86 35.455C883.896 35.7181 882.906 35.7806 881.91 35.7937C881.216 35.8015 880.488 35.7806 879.8 35.6634C879.429 35.6009 879.026 35.541 878.724 35.3014C878.755 35.3274 878.698 35.2935 878.65 35.2362C878.608 35.1867 879.5 35.0956 879.422 35.1008L880.05 35.0448V35.0487Z" fill="#ADADAD"/>
<path d="M891.308 31.8316C890.771 31.7847 890.218 31.8577 889.7 31.9332C889.029 32.0291 888.366 32.1758 887.718 32.3721C887.371 32.4763 886.862 32.6092 886.608 32.8709C886.561 32.9191 886.521 32.9517 886.497 33.0142C886.471 33.0455 886.458 33.0741 886.449 33.1015L886.215 33.4088L886.285 33.3124L885.1 34.8753C884.437 35.686 883.686 36.4199 882.86 37.0633C882.502 37.3407 882.133 37.6064 881.737 37.8357L881.438 37.9998C880.868 38.1235 880.243 38.2316 879.731 38.4725L879.653 38.5337C880.044 38.6197 880.457 38.5598 880.838 38.5155C881.789 38.4048 882.723 38.2081 883.646 37.9998C884.522 37.8018 885.397 37.57 886.191 37.1923C886.856 36.8771 887.447 36.4538 888.002 36.0032L889.817 34.4364C890.511 33.7331 891.138 32.9855 891.644 32.1494L891.579 32.2575C891.603 32.2106 891.634 32.1689 891.673 32.1325C891.884 31.9046 891.439 31.8538 891.308 31.842V31.8316Z" fill="#ADADAD"/>
<path d="M895.965 31.3798C895.913 30.8849 895.801 30.3991 895.626 29.9433C895.483 29.5695 895.34 29.141 895.048 28.8454C895.074 28.8975 895.067 28.891 895.038 28.835C894.829 28.818 894.634 28.8871 894.457 29.0368L894.001 29.3716C893.368 29.8847 892.81 30.4682 892.297 31.0555C891.784 31.6429 891.294 32.2616 890.922 32.9023C890.879 32.9805 890.395 33.7593 890.684 33.827C890.918 33.883 891.033 34.0484 891.126 34.2217C891.494 34.964 891.752 35.7845 891.835 36.6259C891.946 37.755 891.809 38.922 891.601 40.0954L890.988 42.9399L890.785 43.6431L890.681 43.9401L890.609 44.0521L889.659 45.6736C889.659 45.6736 889.33 46.2336 889.639 45.9901C890.199 45.5472 890.595 44.9507 890.991 44.4272C891.75 43.4217 892.411 42.3759 893.053 41.3327C893.515 40.5958 893.915 39.8221 894.251 39.0197L894.59 38.2083L894.962 37.1989L895.436 35.5449C895.788 34.1578 896.109 32.7148 895.965 31.3811V31.3798Z" fill="#ADADAD"/>
<path d="M904.902 22.4166L904.957 22.5078C904.785 22.2122 904.457 22.0429 904.159 21.8827C903.605 21.5831 902.984 21.3513 902.377 21.1572C901.508 20.8785 900.629 20.6428 899.697 20.5894C899.125 20.5536 898.551 20.5741 897.984 20.6506C896.374 20.8746 894.988 21.6886 893.729 22.7266C893.716 22.7357 893.719 22.7501 893.713 22.7631C893.239 23.1642 892.795 23.6266 892.385 24.0915C891.717 24.8534 891.088 25.644 890.624 26.5595C890.372 27.0543 890.164 27.5697 890 28.1003C889.826 27.7708 889.617 27.4491 889.362 27.2667L887.932 26.2509C883.856 23.4729 879.773 20.7157 876.104 17.3998L875.799 17.1185L875.572 16.9075L874.937 16.3006C874.517 15.893 874.103 15.4801 873.7 15.0542C872.853 14.166 872.022 13.2504 871.228 12.3114C870.808 11.8174 870.4 11.3128 870.006 10.798L869.805 10.531L869.756 10.4633C869.59 10.2289 869.434 9.98923 869.278 9.74959L868.924 9.19216L868.819 9.00983C868.413 8.04606 868.65 8.65558 868.624 8.58786C868.259 7.64977 867.842 6.73277 867.375 5.84111C867.115 5.34881 866.812 4.69241 866.377 4.31341C866 3.98521 866.169 4.78878 866.173 4.83437L866.177 4.86693C866.175 5.04767 866.186 5.22831 866.211 5.40742C866.256 5.70697 866.306 6.00652 866.374 6.30346C866.588 7.24639 866.878 8.14244 867.184 9.06062C867.684 10.5584 868.401 11.9936 869.132 13.3872C870.466 15.9294 872.15 18.4066 874.081 20.5243C875.813 22.4127 877.712 24.1527 879.694 25.7768C881.696 27.4178 883.771 28.9807 885.881 30.4915C885.864 30.4915 885.891 30.5045 885.935 30.5305L886.576 30.9864C887.277 31.5881 888.168 32.7472 887.638 34.4924L887.121 35.5239L886.899 35.9902C886.871 36.037 886.86 36.0644 886.86 36.0722C886.666 36.4843 886.479 36.9003 886.301 37.3199C885.763 38 885.109 38.5802 884.37 39.0338C884.19 39.1328 884.005 39.2266 883.819 39.3113C883.689 39.3673 883.559 39.4154 883.428 39.4714C883.346 39.5066 883.423 39.4845 882.81 39.5861C882.888 39.573 882.007 39.7463 882.054 39.7918C882.109 39.8439 882.164 39.87 882.237 39.9156L882.136 39.8504C882.458 40.0614 882.866 40.0849 883.241 40.1109C883.935 40.163 884.673 40.1161 885.351 40.0419C885.099 40.8598 884.914 41.7037 884.778 42.5464L884.686 43.1194C884.168 43.8292 883.615 44.513 882.993 45.146C882.463 45.6891 881.908 46.2087 881.326 46.6958C881.033 46.9563 880.735 47.1842 880.43 47.416L880.011 47.7286L879.784 47.8914C879.136 48.3394 878.486 48.751 877.818 49.1287C877.484 49.3175 877.148 49.5025 876.804 49.6718L876.244 49.9362L876.045 50.0273C876.036 50.0312 876.032 50.0338 876.019 50.0403C875.34 50.3298 874.646 50.5854 873.942 50.8062L873.726 50.8674L873.244 50.9937L872.764 51.1109L872.599 51.15C872.052 51.2581 871.485 51.3662 870.978 51.6058C870.847 51.667 870.408 51.8989 870.738 52.0708C871.123 52.2726 871.707 52.2401 872.118 52.2362C872.873 52.2183 873.625 52.1438 874.369 52.0135C876.837 51.6097 879.259 50.8153 881.519 49.7082L880.946 50.2552C880.601 50.5717 880.249 50.883 879.888 51.1825L879.664 51.3688L879.16 51.7595C878.822 52.0135 878.477 52.2544 878.126 52.4888L877.895 52.6386L877.348 52.9733L877.113 53.1101L876.571 53.4005L876.517 53.4266L876.041 53.648L875.972 53.6792L875.576 53.8381L874.36 54.1598L873.969 54.2575C873.93 54.264 873.886 54.2705 873.836 54.2835C873.039 54.4203 872.245 54.8045 871.534 55.1561C870.914 55.4596 870.296 55.7943 869.736 56.2007C869.71 56.2176 869.684 56.2397 869.661 56.2554C869.637 56.271 869.605 56.2879 869.579 56.3074C869.467 56.383 868.907 56.6956 868.928 56.9261C868.95 57.1644 871.384 56.5796 871.773 56.4781C875.212 55.5794 878.49 54.0165 881.493 52.0942C881.334 52.3365 881.17 52.5761 881.002 52.8131L880.787 53.1036L880.394 53.6076L880.221 53.8212L879.83 54.2809L879.799 54.3148L879.408 54.7016L879.351 54.7589L879.042 55.0389L878 55.7683L877.655 56.0027C877.618 56.0242 877.581 56.0472 877.545 56.0717C876.846 56.4794 876.237 57.1201 875.691 57.6971C875.217 58.1985 874.757 58.7286 874.375 59.3055C874.359 59.3316 874.34 59.3576 874.323 59.3863C874.306 59.415 874.284 59.4358 874.265 59.4618C874.187 59.5725 873.77 60.0609 873.874 60.2693C873.978 60.4842 876.053 59.0841 876.382 58.8367C879.944 56.3283 882.93 52.9759 885.338 49.3553L885.429 49.2185C887.539 47.4772 889.443 45.4755 890.929 43.1885C891.297 42.8238 891.571 42.5034 891.632 42.3055C892.648 38.9687 892.769 37.3954 892.514 36.067C892.686 35.9862 892.866 35.9368 893.061 35.9732C893.394 36.0383 893.553 35.0147 893.573 34.9157C893.618 34.6625 893.653 34.4074 893.677 34.1512C894.018 33.8859 894.337 33.5922 894.629 33.2734C894.681 33.2174 895.212 32.6573 895.027 32.4789C894.876 32.3356 894.836 32.1325 894.814 31.9319C894.734 31.0731 894.766 30.2074 894.912 29.3571C895.113 28.2344 895.498 27.1691 895.938 26.1272L896.276 25.3522C896.592 25.3677 896.906 25.3194 897.202 25.2103C897.535 25.0893 897.836 24.8937 898.082 24.6385C898.099 24.6281 898.117 24.619 898.131 24.606C898.563 24.2257 899.013 23.8675 899.492 23.5458C900.465 22.9285 901.556 22.5039 902.683 22.3567C902.891 22.3385 903.102 22.3242 903.312 22.3242C903.442 22.3255 903.575 22.3346 903.707 22.3372C903.79 22.3385 903.717 22.3294 904.271 22.4713C904.202 22.4531 905.009 22.6341 904.989 22.5807C904.967 22.5156 904.932 22.4739 904.893 22.4114L904.902 22.4166ZM874.052 54.2588C874.03 54.2601 874 54.264 873.974 54.2679C874.209 54.208 874.157 54.2379 874.052 54.2588ZM877.222 53.0645C877.353 52.9929 877.491 52.9108 877.222 53.0645V53.0645ZM879.697 51.3688C879.788 51.2972 880.059 51.0731 879.697 51.3688V51.3688ZM877.759 55.9714C877.738 55.9792 877.713 55.9936 877.69 56.0079C877.891 55.8698 877.85 55.9167 877.759 55.9714ZM880.288 53.7678C880.393 53.6467 880.533 53.4708 880.288 53.7678V53.7678Z" fill="#ADADAD"/>
<path d="M913.026 30.2924H914.722V42.8344H913.026V30.2924ZM918.187 22.3478H919.883V39.4938C919.883 41.14 920.63 41.3888 921.279 41.3888C921.504 41.3888 921.702 41.3627 921.702 41.3627V42.8839C921.702 42.8839 921.403 42.9334 921.08 42.9334C920.031 42.9334 918.189 42.6104 918.189 39.8663V22.3609L918.187 22.3478ZM923.846 22.3478H925.529V39.4938C925.529 41.14 926.278 41.3888 926.925 41.3888C927.149 41.3888 927.348 41.3627 927.348 41.3627V42.8839C927.348 42.8839 927.049 42.9334 926.723 42.9334C925.676 42.9334 923.832 42.6104 923.832 39.8663L923.846 22.3478ZM929.457 30.2924H931.153V37.8228C931.153 39.7934 931.452 41.5386 933.871 41.5386C936.738 41.5386 938.51 39.0197 938.51 36.303V30.2924H940.205V42.8344H938.559V40.9525C938.559 40.4029 938.609 39.9549 938.609 39.9549H938.559C938.134 40.901 937.444 41.7035 936.572 42.2654C935.7 42.8274 934.684 43.1245 933.647 43.121C930.703 43.121 929.458 41.5255 929.458 38.2578V30.2781L929.457 30.2924ZM943.543 30.2924H945.214V32.164C945.214 32.711 945.165 33.1616 945.165 33.1616H945.214C945.814 31.4659 947.806 29.9942 949.752 29.9942C952.07 29.9942 953.268 31.066 953.642 33.1368H953.692C954.365 31.4411 956.186 29.9942 958.305 29.9942C961.347 29.9942 962.47 31.7654 962.47 34.8573V42.8371H960.774V35.2832C960.774 33.2384 960.351 31.5427 958.056 31.5427C956.135 31.5427 954.566 33.2397 954.092 35.0852C953.917 35.6348 953.866 36.2313 953.866 36.906V42.8397H952.17V35.2858C952.17 33.3908 951.91 31.5453 949.527 31.5453C947.482 31.5453 945.936 33.3166 945.411 35.2363C945.289 35.7848 945.231 36.3454 945.237 36.9073V42.841H943.541V30.2989L943.543 30.2924ZM971.594 29.9929C975.261 29.9929 978.227 32.7865 978.227 36.5009C978.227 40.2779 975.258 43.134 971.594 43.134C967.931 43.134 964.961 40.2909 964.961 36.5009C964.961 32.7852 967.931 29.9929 971.594 29.9929ZM971.594 41.6141C974.288 41.6141 976.481 39.4196 976.481 36.5022C976.481 33.6591 974.288 31.5531 971.594 31.5531C968.901 31.5531 966.708 33.6721 966.708 36.5022C966.708 39.4196 968.902 41.6141 971.594 41.6141ZM980.794 40.0942C980.794 40.0942 982.191 41.6154 984.535 41.6154C985.882 41.6154 987.054 40.9421 987.054 39.6201C987.054 36.8773 980.294 37.5493 980.294 33.4598C980.294 31.2158 982.313 29.9929 984.584 29.9929C987.228 29.9929 988.449 31.3643 988.449 31.3643L987.676 32.6615C987.676 32.6615 986.604 31.5154 984.534 31.5154C983.261 31.5154 982.04 32.0624 982.04 33.4598C982.04 36.2274 988.799 35.4785 988.799 39.6201C988.799 41.6649 987.028 43.1366 984.509 43.1366C981.468 43.1366 979.872 41.3159 979.872 41.3159L980.794 40.0942ZM913.872 24.8224C913.15 24.8224 912.563 25.4085 912.563 26.1313C912.563 26.8541 913.15 27.4402 913.872 27.4402C914.595 27.4402 915.181 26.8541 915.181 26.1313C915.181 25.4085 914.595 24.8224 913.872 24.8224Z" fill="#ADADAD"/>
<path d="M1272.52 31.248C1272.06 29.5582 1270.57 28.4825 1268.83 28.4825C1267.25 28.4825 1265.74 29.7114 1265.41 31.248H1272.52ZM1274.56 34.7154C1273.64 36.9536 1271.47 38.4678 1269.03 38.4678C1265.61 38.4678 1262.86 35.7904 1262.86 32.3448C1262.86 28.8774 1265.47 26.0904 1268.96 26.0904C1270.59 26.0904 1272.21 26.8146 1273.35 27.9778C1274.52 29.2066 1275 30.699 1275 32.3666L1274.91 33.3104H1265.43C1265.78 34.9346 1267.27 36.1192 1268.94 36.1192C1270.11 36.1192 1271.11 35.6805 1271.77 34.715H1274.56M1250.42 28.9431H1248.91V26.4414H1253.1V28.1092C1253.8 26.8144 1255.12 26.1778 1256.57 26.1778C1257.84 26.1778 1259.09 26.7047 1259.95 27.6264C1260.91 28.7018 1260.93 29.7333 1260.93 31.0718V35.6586H1262.45V38.1603H1256.74V35.6586H1258.26V31.8618C1258.26 31.1376 1258.26 30.3915 1257.79 29.7549C1257.31 29.1187 1256.52 28.8116 1255.73 28.8116C1254.92 28.8116 1254.09 29.1407 1253.6 29.7988C1253.1 30.457 1253.1 31.4667 1253.1 32.257V35.6586H1254.61V38.1603H1248.91V35.6586H1250.42V28.943M1246.58 25.3222H1243.9V22.4911H1246.58V25.3222ZM1246.58 35.6586H1248.1V38.1603H1242.37V35.6586H1243.9V28.943H1242.39V26.4413H1246.58V35.6583M1222.4 28.9428H1220.88V26.441H1224.83V28.1966C1225.58 26.9678 1226.72 26.1557 1228.21 26.1557C1229.84 26.1557 1231.2 27.1431 1231.86 28.6136C1232.49 27.1214 1234.07 26.1557 1235.7 26.1557C1236.97 26.1557 1238.22 26.6822 1239.08 27.648C1240 28.7235 1240 29.8865 1240 31.225V35.6583H1241.51V38.16H1235.81V35.6583H1237.32V31.8836C1237.32 31.1153 1237.32 30.435 1236.97 29.7546C1236.53 29.1184 1235.81 28.7891 1235.06 28.7891C1234.34 28.7891 1233.55 29.0965 1233.08 29.6667C1232.54 30.3693 1232.54 31.0276 1232.54 31.8836V35.6583H1234.05V38.16H1228.34V35.6583H1229.86V32.0593C1229.86 31.3569 1229.86 30.4792 1229.51 29.8647C1229.13 29.1626 1228.37 28.7892 1227.58 28.7892C1226.83 28.7892 1226.19 29.0527 1225.71 29.6454C1225.12 30.3695 1225.07 31.1375 1225.07 32.0373V35.6584H1226.59V38.1601H1220.88V35.6584H1222.4V28.9428M1213.65 34.7592C1213.73 35.8126 1214.44 36.5146 1215.53 36.5146C1216.35 36.5146 1217.14 35.9445 1217.14 35.0666C1217.14 33.9033 1216.04 33.7059 1215.14 33.4645C1213.1 32.9379 1210.86 32.3012 1210.86 29.7338C1210.86 27.4952 1212.75 26.2006 1214.83 26.2006C1215.89 26.2006 1216.83 26.4202 1217.49 27.2539V26.442H1219.46V29.6241H1216.87C1216.83 28.7899 1216.19 28.2414 1215.36 28.2414C1214.63 28.2414 1213.87 28.6584 1213.87 29.4703C1213.87 30.5676 1214.94 30.8089 1215.8 31.0064C1217.9 31.4892 1220.16 32.1478 1220.16 34.7813C1220.16 37.1513 1218.17 38.4679 1215.97 38.4679C1214.79 38.4679 1213.71 38.095 1212.94 37.1952V38.1606H1210.9V34.759H1213.65M1205.96 32.2358C1205.96 30.3043 1204.36 28.7461 1202.43 28.7461C1200.43 28.7461 1198.9 30.3923 1198.9 32.3672C1198.9 34.2767 1200.5 35.8566 1202.39 35.8566C1204.41 35.8566 1205.96 34.2327 1205.96 32.2358ZM1205.92 36.5808C1205.06 37.8755 1203.68 38.4681 1202.15 38.4681C1198.79 38.4681 1196.13 35.6811 1196.13 32.3672C1196.13 28.9656 1198.85 26.1348 1202.28 26.1348C1203.79 26.1348 1205.11 26.8369 1205.92 28.1098V26.442H1210.11V28.9437H1208.64V35.6593H1210.11V38.161H1205.92V36.581M1187.84 33.7502C1187.86 34.7159 1188.45 35.7031 1189.55 35.7031C1190.21 35.7031 1190.69 35.396 1191.02 34.8474C1191.33 34.2987 1191.33 33.4868 1191.33 32.8723V24.9941H1189.61V22.4921H1196V24.9941H1194.31V33.2454C1194.31 34.6501 1194.22 35.7472 1193.24 36.8885C1192.36 37.898 1190.93 38.4686 1189.57 38.4686C1186.76 38.4686 1184.61 36.6032 1184.72 33.7504H1187.84" fill="#ADADAD"/>
<path d="M1161.09 27.111H1163.82L1164.5 26.1756V18.848H1160.41V26.1762L1161.09 27.111" fill="#ADADAD"/>
<path d="M1161.85 41.4006H1162.99V35.8301H1161.85V41.4006ZM1151.74 34L1151.39 32.921L1156.68 31.2003L1157.03 32.2793L1151.74 34M1158.57 25.521L1155.3 21.0145L1156.22 20.3475L1159.49 24.8543L1158.57 25.5211M1166.39 25.5624L1165.47 24.8955L1168.75 20.3887L1169.67 21.0554L1166.39 25.5625M1173.15 34.0677L1167.85 32.3461L1168.2 31.2669L1173.5 32.9885L1173.15 34.0677M1164.74 27.7775L1165.58 30.3792L1166.68 30.736L1173.65 28.4719L1172.39 24.5784L1165.42 26.8432L1164.74 27.7776M1165.24 31.458L1163.02 33.0657L1163.02 34.2216L1167.33 40.1501L1170.64 37.744L1166.33 31.8152L1165.24 31.458ZM1161.89 33.0663L1159.68 31.458L1158.58 31.8159L1154.27 37.7442L1157.58 40.1502L1161.89 34.2216V33.0663M1159.33 30.3792L1160.17 27.778L1159.49 26.8425L1152.52 24.5781L1151.26 28.4716L1158.23 30.7363L1159.33 30.3792M1162.46 12.4874C1152.72 12.4874 1144.8 20.4076 1144.8 30.1428C1144.8 39.8817 1152.72 47.8043 1162.46 47.8043C1172.19 47.8043 1180.11 39.8817 1180.11 30.1428C1180.11 20.4076 1172.19 12.4874 1162.46 12.4874ZM1162.46 16.0623C1170.23 16.0623 1176.54 22.3655 1176.54 30.1428C1176.54 37.9229 1170.23 44.2288 1162.46 44.2288C1154.68 44.2288 1148.37 37.9229 1148.37 30.1428C1148.37 22.3655 1154.68 16.0623 1162.46 16.0623Z" fill="#ADADAD"/>
</svg>
