<svg width="1920" height="513" viewBox="0 0 1920 513" fill="none" xmlns="http://www.w3.org/2000/svg">
<g clip-path="url(#clip0_133_2)">
<path opacity="0.04" d="M486.798 149.17C433.753 213.309 339.783 227.913 257.573 214.809C175.363 201.705 98.4552 166.286 17.3296 147.744C-54.8265 131.193 -129.864 129.113 -203 140.152V-220H409.132C448.826 -175.429 485.372 -128.123 507.617 -73.1223C536.916 -0.664017 536.53 88.9394 486.798 149.17Z" fill="#192335"/>
<path opacity="0.03" d="M1450.58 255.328C1273.62 211.308 1114.19 114.589 993.36 -22.0401C960.794 -59.0344 930.842 -99.1338 891.37 -128.64C876.189 -139.893 859.939 -149.627 842.855 -157.701L1920 -157.701V243.843C1768.2 288.905 1604.36 293.184 1450.58 255.328Z" fill="#192335"/>
<path opacity="0.02" d="M1545.41 608.527C1496.03 564.713 1434.46 536.901 1370.39 522.638C1337.39 515.391 1303.76 511.356 1269.99 510.589C1247.49 510.024 1225.44 514.392 1202.94 514.273C1183.83 514.184 1163.04 508.33 1152.27 492.597C1145.35 482.434 1143.6 469.419 1145.11 457.207C1156.5 365.182 1284 371.674 1349.83 378.895C1504.05 395.847 1664.58 407.673 1810.39 354.782C1847.12 341.499 1883.34 324.013 1920 309.705V733.728H1646.98C1616.51 688.859 1585.8 644.362 1545.41 608.527Z" fill="#192335"/>
<path opacity="0.02" d="M530.358 449.555C563.8 487.248 587.203 533.662 624.596 567.417C694.836 630.813 799.618 636.978 893.381 624.558C987.144 612.137 1080.4 584.518 1174.61 593.046C1267.89 601.869 1354.48 645.335 1417.32 714.874C1422.77 720.951 1428 727.235 1433 733.669H0.420532V394.881C62.449 370.263 126.037 350.726 192.149 342.539C314.246 327.43 448.712 357.501 530.358 449.555Z" fill="#192335"/>
<path d="M76.2185 72.0446C76.0033 72.0436 75.7901 72.0852 75.5911 72.1668C75.392 72.2485 75.2111 72.3688 75.0586 72.5206C74.9061 72.6725 74.7851 72.853 74.7026 73.0517C74.62 73.2505 74.5776 73.4636 74.5776 73.6789C74.5766 73.8951 74.6183 74.1094 74.7003 74.3094C74.7823 74.5094 74.903 74.6913 75.0555 74.8446C75.208 74.9978 75.3892 75.1194 75.5888 75.2023C75.7884 75.2853 76.0024 75.328 76.2185 75.328C76.4346 75.328 76.6485 75.2853 76.8481 75.2023C77.0477 75.1194 77.229 74.9978 77.3814 74.8446C77.5339 74.6913 77.6546 74.5094 77.7366 74.3094C77.8187 74.1094 77.8603 73.8951 77.8594 73.6789C77.8594 73.4636 77.8168 73.2505 77.7343 73.0517C77.6517 72.853 77.5308 72.6725 77.3783 72.5206C77.2259 72.3688 77.0449 72.2485 76.8459 72.1668C76.6468 72.0852 76.4336 72.0436 76.2185 72.0446ZM76.2185 55.1372C76.0027 55.1362 75.7889 55.178 75.5894 55.2601C75.3898 55.3423 75.2085 55.4632 75.056 55.6158C74.9034 55.7685 74.7826 55.9498 74.7005 56.1494C74.6184 56.3491 74.5766 56.563 74.5776 56.7789C74.5766 56.9951 74.6183 57.2094 74.7003 57.4094C74.7823 57.6095 74.903 57.7913 75.0555 57.9445C75.208 58.0978 75.3892 58.2194 75.5888 58.3023C75.7884 58.3853 76.0024 58.428 76.2185 58.428C76.6543 58.4261 77.0717 58.2514 77.3793 57.9424C77.6868 57.6333 77.8594 57.215 77.8594 56.7789C77.8594 56.3435 77.6865 55.9259 77.3788 55.618C77.0711 55.3101 76.6537 55.1372 76.2185 55.1372ZM76.2185 38.2372C76.0027 38.2362 75.7889 38.278 75.5894 38.3601C75.3898 38.4423 75.2085 38.5632 75.056 38.7158C74.9034 38.8685 74.7826 39.0498 74.7005 39.2495C74.6184 39.4491 74.5766 39.663 74.5776 39.8789C74.5766 40.0947 74.6184 40.3087 74.7005 40.5083C74.7826 40.7079 74.9034 40.8893 75.056 41.0419C75.2085 41.1946 75.3898 41.3155 75.5894 41.3976C75.7889 41.4798 76.0027 41.5216 76.2185 41.5206C76.6537 41.5206 77.0711 41.3476 77.3788 41.0397C77.6865 40.7319 77.8594 40.3143 77.8594 39.8789C77.8603 39.663 77.8186 39.4491 77.7365 39.2495C77.6543 39.0498 77.5335 38.8685 77.381 38.7158C77.2284 38.5632 77.0471 38.4423 76.8476 38.3601C76.648 38.278 76.4342 38.2362 76.2185 38.2372ZM76.2185 21.3297C76.0027 21.3288 75.7889 21.3705 75.5894 21.4527C75.3898 21.5349 75.2085 21.6557 75.056 21.8084C74.9034 21.961 74.7826 22.1424 74.7005 22.342C74.6184 22.5417 74.5766 22.7556 74.5776 22.9714C74.5766 23.1873 74.6184 23.4012 74.7005 23.6009C74.7826 23.8005 74.9034 23.9819 75.056 24.1345C75.2085 24.2871 75.3898 24.408 75.5894 24.4902C75.7889 24.5724 76.0027 24.6141 76.2185 24.6132C76.6537 24.6132 77.0711 24.4402 77.3788 24.1323C77.6865 23.8244 77.8594 23.4069 77.8594 22.9714C77.8603 22.7556 77.8186 22.5417 77.7365 22.342C77.6543 22.1424 77.5335 21.961 77.381 21.8084C77.2284 21.6557 77.0471 21.5349 76.8476 21.4527C76.648 21.3705 76.4342 21.3288 76.2185 21.3297ZM76.2185 4.42229C76.0027 4.42132 75.7889 4.4631 75.5894 4.54527C75.3898 4.62742 75.2085 4.74831 75.056 4.90096C74.9034 5.0536 74.7826 5.23498 74.7005 5.4346C74.6184 5.63423 74.5766 5.84815 74.5776 6.06402C74.5766 6.27988 74.6184 6.4938 74.7005 6.69344C74.7826 6.89306 74.9034 7.07443 75.056 7.22708C75.2085 7.37972 75.3898 7.50061 75.5894 7.58276C75.7889 7.66492 76.0027 7.70671 76.2185 7.70573C76.6537 7.70573 77.0711 7.53276 77.3788 7.22488C77.6865 6.917 77.8594 6.49943 77.8594 6.06402C77.8594 5.62861 77.6865 5.21103 77.3788 4.90314C77.0711 4.59526 76.6537 4.42229 76.2185 4.42229ZM76.2185 -12.4777C76.0027 -12.4787 75.7889 -12.4369 75.5894 -12.3547C75.3898 -12.2726 75.2085 -12.1517 75.056 -11.999C74.9034 -11.8464 74.7826 -11.665 74.7005 -11.4654C74.6184 -11.2658 74.5766 -11.0518 74.5776 -10.836C74.5766 -10.6201 74.6184 -10.4062 74.7005 -10.2066C74.7826 -10.0069 74.9034 -9.82557 75.056 -9.67292C75.2085 -9.52028 75.3898 -9.39939 75.5894 -9.31724C75.7889 -9.23508 76.0027 -9.19329 76.2185 -9.19427C76.6537 -9.19427 77.0711 -9.36724 77.3788 -9.67512C77.6865 -9.983 77.8594 -10.4006 77.8594 -10.836C77.8603 -11.0518 77.8186 -11.2658 77.7365 -11.4654C77.6543 -11.665 77.5335 -11.8464 77.381 -11.999C77.2284 -12.1517 77.0471 -12.2726 76.8476 -12.3547C76.648 -12.4369 76.4342 -12.4787 76.2185 -12.4777ZM76.2185 -29.3851C76.0027 -29.3861 75.7889 -29.3443 75.5894 -29.2622C75.3898 -29.18 75.2085 -29.0591 75.056 -28.9065C74.9034 -28.7538 74.7826 -28.5725 74.7005 -28.3728C74.6184 -28.1732 74.5766 -27.9593 74.5776 -27.7434C74.5766 -27.5275 74.6184 -27.3136 74.7005 -27.114C74.7826 -26.9144 74.9034 -26.733 75.056 -26.5804C75.2085 -26.4277 75.3898 -26.3068 75.5894 -26.2247C75.7889 -26.1425 76.0027 -26.1007 76.2185 -26.1017C76.434 -26.1017 76.6473 -26.1442 76.8464 -26.2267C77.0455 -26.3092 77.2264 -26.4301 77.3788 -26.5825C77.5312 -26.735 77.652 -26.916 77.7345 -27.1152C77.8169 -27.3143 77.8594 -27.5278 77.8594 -27.7434C77.8594 -27.959 77.8169 -28.1725 77.7345 -28.3717C77.652 -28.5708 77.5312 -28.7518 77.3788 -28.9043C77.2264 -29.0567 77.0455 -29.1777 76.8464 -29.2602C76.6473 -29.3427 76.434 -29.3851 76.2185 -29.3851ZM76.2185 -46.2926C76.0024 -46.2926 75.7884 -46.2498 75.5888 -46.1669C75.3892 -46.0839 75.208 -45.9623 75.0555 -45.8091C74.903 -45.6559 74.7823 -45.474 74.7003 -45.274C74.6183 -45.0739 74.5766 -44.8596 74.5776 -44.6434C74.5766 -44.4275 74.6184 -44.2136 74.7005 -44.014C74.7826 -43.8144 74.9034 -43.633 75.056 -43.4804C75.2085 -43.3277 75.3898 -43.2068 75.5894 -43.1247C75.7889 -43.0425 76.0027 -43.0007 76.2185 -43.0017C76.6537 -43.0017 77.0711 -43.1747 77.3788 -43.4825C77.6865 -43.7904 77.8594 -44.208 77.8594 -44.6434C77.8603 -44.8596 77.8187 -45.0739 77.7366 -45.274C77.6546 -45.474 77.5339 -45.6559 77.3814 -45.8091C77.229 -45.9623 77.0477 -46.0839 76.8481 -46.1669C76.6485 -46.2498 76.4346 -46.2926 76.2185 -46.2926ZM76.2185 -63.1926C76.0027 -63.1935 75.7889 -63.1517 75.5894 -63.0696C75.3898 -62.9874 75.2085 -62.8665 75.056 -62.7139C74.9034 -62.5613 74.7826 -62.3799 74.7005 -62.1803C74.6184 -61.9806 74.5766 -61.7667 74.5776 -61.5508C74.5766 -61.335 74.6184 -61.121 74.7005 -60.9214C74.7826 -60.7218 74.9034 -60.5404 75.056 -60.3878C75.2085 -60.2351 75.3898 -60.1142 75.5894 -60.0321C75.7889 -59.9499 76.0027 -59.9081 76.2185 -59.9091C76.6537 -59.9091 77.0711 -60.0821 77.3788 -60.39C77.6865 -60.6979 77.8594 -61.1154 77.8594 -61.5508C77.8603 -61.7667 77.8186 -61.9806 77.7365 -62.1803C77.6543 -62.3799 77.5335 -62.5613 77.381 -62.7139C77.2284 -62.8665 77.0471 -62.9874 76.8476 -63.0696C76.648 -63.1517 76.4342 -63.1935 76.2185 -63.1926ZM76.2185 -80.1C76.0027 -80.101 75.7889 -80.0592 75.5894 -79.977C75.3898 -79.8949 75.2085 -79.774 75.056 -79.6213C74.9034 -79.4687 74.7826 -79.2873 74.7005 -79.0877C74.6184 -78.8881 74.5766 -78.6741 74.5776 -78.4583C74.5766 -78.242 74.6183 -78.0278 74.7003 -77.8277C74.7823 -77.6277 74.903 -77.4458 75.0555 -77.2926C75.208 -77.1394 75.3892 -77.0178 75.5888 -76.9348C75.7884 -76.8518 76.0024 -76.8091 76.2185 -76.8091C76.6543 -76.8111 77.0717 -76.9857 77.3793 -77.2948C77.6868 -77.6038 77.8594 -78.0222 77.8594 -78.4583C77.8594 -78.8937 77.6865 -79.3113 77.3788 -79.6191C77.0711 -79.927 76.6537 -80.1 76.2185 -80.1ZM76.2185 -97C76.0027 -97.001 75.7889 -96.9592 75.5894 -96.877C75.3898 -96.7949 75.2085 -96.674 75.056 -96.5213C74.9034 -96.3687 74.7826 -96.1873 74.7005 -95.9877C74.6184 -95.7881 74.5766 -95.5741 74.5776 -95.3583C74.5766 -95.1424 74.6184 -94.9285 74.7005 -94.7289C74.7826 -94.5292 74.9034 -94.3479 75.056 -94.1952C75.2085 -94.0426 75.3898 -93.9217 75.5894 -93.8395C75.7889 -93.7574 76.0027 -93.7156 76.2185 -93.7166C76.6537 -93.7166 77.0711 -93.8895 77.3788 -94.1974C77.6865 -94.5053 77.8594 -94.9229 77.8594 -95.3583C77.8603 -95.5741 77.8186 -95.7881 77.7365 -95.9877C77.6543 -96.1873 77.5335 -96.3687 77.381 -96.5213C77.2284 -96.674 77.0471 -96.7949 76.8476 -96.877C76.648 -96.9592 76.4342 -97.001 76.2185 -97Z" fill="black"/>
<path d="M95.7111 72.0446C95.4959 72.0436 95.2826 72.0852 95.0836 72.1668C94.8845 72.2485 94.7036 72.3688 94.5512 72.5206C94.3987 72.6725 94.2777 72.853 94.1951 73.0517C94.1126 73.2505 94.0701 73.4636 94.0701 73.6789C94.0691 73.8951 94.1109 74.1094 94.1929 74.3094C94.2749 74.5094 94.3956 74.6913 94.5481 74.8446C94.7006 74.9978 94.8817 75.1194 95.0813 75.2023C95.2809 75.2853 95.4949 75.328 95.7111 75.328C95.9275 75.328 96.1418 75.2854 96.3418 75.2025C96.5418 75.1196 96.7235 74.9981 96.8766 74.845C97.0296 74.6918 97.151 74.5101 97.2338 74.31C97.3167 74.1099 97.3594 73.8954 97.3594 73.6789C97.3584 73.4633 97.3149 73.25 97.2316 73.0512C97.1482 72.8524 97.0265 72.6719 96.8735 72.5202C96.7204 72.3684 96.539 72.2483 96.3395 72.1667C96.1401 72.0851 95.9265 72.0436 95.7111 72.0446ZM95.7111 55.1372C95.2759 55.1372 94.8584 55.3101 94.5507 55.618C94.243 55.9259 94.0701 56.3435 94.0701 56.7789C94.0701 57.215 94.2427 57.6333 94.5503 57.9424C94.8578 58.2514 95.2752 58.4261 95.7111 58.428C96.1476 58.4261 96.5657 58.2517 96.8744 57.9428C97.1831 57.634 97.3574 57.2157 97.3594 56.7789C97.3574 56.3428 97.1828 55.9252 96.8739 55.6176C96.565 55.3099 96.1469 55.1372 95.7111 55.1372ZM95.7111 38.2372C95.4953 38.2362 95.2814 38.278 95.0818 38.3601C94.8823 38.4423 94.7011 38.5632 94.5485 38.7158C94.396 38.8685 94.2751 39.0498 94.193 39.2495C94.1109 39.4491 94.0691 39.663 94.0701 39.8789C94.0701 40.3143 94.243 40.7319 94.5507 41.0397C94.8584 41.3476 95.2759 41.5206 95.7111 41.5206C96.1469 41.5206 96.565 41.3479 96.8739 41.0402C97.1828 40.7325 97.3574 40.315 97.3594 39.8789C97.3594 39.6627 97.3167 39.4486 97.2338 39.2489C97.1508 39.0492 97.0293 38.8679 96.8761 38.7154C96.7229 38.5628 96.5412 38.442 96.3412 38.36C96.1413 38.2779 95.9272 38.2362 95.7111 38.2372ZM95.7111 21.3297C95.4953 21.3288 95.2814 21.3705 95.0818 21.4527C94.8823 21.5349 94.7011 21.6557 94.5485 21.8084C94.396 21.961 94.2751 22.1424 94.193 22.342C94.1109 22.5417 94.0691 22.7556 94.0701 22.9714C94.0701 23.4069 94.243 23.8244 94.5507 24.1323C94.8584 24.4402 95.2759 24.6132 95.7111 24.6132C96.1469 24.6132 96.565 24.4404 96.8739 24.1328C97.1828 23.8251 97.3574 23.4075 97.3594 22.9714C97.3594 22.7552 97.3167 22.5411 97.2338 22.3415C97.1508 22.1418 97.0293 21.9605 96.8761 21.8079C96.7229 21.6554 96.5412 21.5346 96.3412 21.4526C96.1413 21.3705 95.9272 21.3288 95.7111 21.3297ZM95.7111 4.42229C95.2759 4.42229 94.8584 4.59526 94.5507 4.90314C94.243 5.21103 94.0701 5.62861 94.0701 6.06402C94.0701 6.49943 94.243 6.917 94.5507 7.22488C94.8584 7.53276 95.2759 7.70573 95.7111 7.70573C96.1469 7.70573 96.565 7.533 96.8739 7.22533C97.1828 6.91766 97.3574 6.50011 97.3594 6.06402C97.3574 5.62793 97.1828 5.21036 96.8739 4.90269C96.565 4.59502 96.1469 4.42229 95.7111 4.42229ZM95.7111 -12.4777C95.4953 -12.4787 95.2814 -12.4369 95.0818 -12.3547C94.8823 -12.2726 94.7011 -12.1517 94.5485 -11.999C94.396 -11.8464 94.2751 -11.665 94.193 -11.4654C94.1109 -11.2658 94.0691 -11.0518 94.0701 -10.836C94.0701 -10.4006 94.243 -9.983 94.5507 -9.67512C94.8584 -9.36724 95.2759 -9.19427 95.7111 -9.19427C96.1469 -9.19427 96.565 -9.367 96.8739 -9.67467C97.1828 -9.98234 97.3574 -10.3999 97.3594 -10.836C97.3594 -11.0522 97.3167 -11.2663 97.2338 -11.466C97.1508 -11.6656 97.0293 -11.8469 96.8761 -11.9995C96.7229 -12.152 96.5412 -12.2728 96.3412 -12.3549C96.1413 -12.4369 95.9272 -12.4787 95.7111 -12.4777ZM95.7111 -29.3851C95.4956 -29.3851 95.2821 -29.3427 95.083 -29.2602C94.8839 -29.1777 94.7031 -29.0567 94.5507 -28.9043C94.3983 -28.7518 94.2774 -28.5708 94.195 -28.3717C94.1125 -28.1725 94.0701 -27.959 94.0701 -27.7434C94.0701 -27.5278 94.1125 -27.3143 94.195 -27.1152C94.2774 -26.916 94.3983 -26.735 94.5507 -26.5825C94.7031 -26.4301 94.8839 -26.3092 95.083 -26.2267C95.2821 -26.1442 95.4956 -26.1017 95.7111 -26.1017C96.1469 -26.1017 96.565 -26.2744 96.8739 -26.5821C97.1828 -26.8898 97.3574 -27.3073 97.3594 -27.7434C97.3574 -28.1795 97.1828 -28.5971 96.8739 -28.9047C96.565 -29.2124 96.1469 -29.3851 95.7111 -29.3851ZM95.7111 -46.2926C95.4949 -46.2926 95.2809 -46.2498 95.0813 -46.1669C94.8817 -46.0839 94.7006 -45.9623 94.5481 -45.8091C94.3956 -45.6559 94.2749 -45.474 94.1929 -45.274C94.1109 -45.0739 94.0691 -44.8596 94.0701 -44.6434C94.0701 -44.208 94.243 -43.7904 94.5507 -43.4825C94.8584 -43.1747 95.2759 -43.0017 95.7111 -43.0017C96.1469 -43.0017 96.565 -43.1744 96.8739 -43.4821C97.1828 -43.7898 97.3574 -44.2073 97.3594 -44.6434C97.3594 -44.86 97.3167 -45.0744 97.2338 -45.2745C97.151 -45.4746 97.0296 -45.6564 96.8766 -45.8095C96.7235 -45.9627 96.5418 -46.0841 96.3418 -46.167C96.1418 -46.2499 95.9275 -46.2926 95.7111 -46.2926ZM95.7111 -63.1926C95.4953 -63.1935 95.2814 -63.1517 95.0818 -63.0696C94.8823 -62.9874 94.7011 -62.8665 94.5485 -62.7139C94.396 -62.5613 94.2751 -62.3799 94.193 -62.1803C94.1109 -61.9806 94.0691 -61.7667 94.0701 -61.5508C94.0701 -61.1154 94.243 -60.6979 94.5507 -60.39C94.8584 -60.0821 95.2759 -59.9091 95.7111 -59.9091C96.1469 -59.9091 96.565 -60.0819 96.8739 -60.3895C97.1828 -60.6972 97.3574 -61.1147 97.3594 -61.5508C97.3594 -61.7671 97.3167 -61.9812 97.2338 -62.1808C97.1508 -62.3805 97.0293 -62.5618 96.8761 -62.7143C96.7229 -62.8669 96.5412 -62.9877 96.3412 -63.0697C96.1413 -63.1518 95.9272 -63.1935 95.7111 -63.1926ZM95.7111 -80.1C95.2759 -80.1 94.8584 -79.927 94.5507 -79.6191C94.243 -79.3113 94.0701 -78.8937 94.0701 -78.4583C94.0701 -78.0222 94.2427 -77.6038 94.5503 -77.2948C94.8578 -76.9857 95.2752 -76.8111 95.7111 -76.8091C96.1476 -76.8111 96.5657 -76.9855 96.8744 -77.2943C97.1831 -77.6032 97.3574 -78.0215 97.3594 -78.4583C97.3574 -78.8944 97.1828 -79.3119 96.8739 -79.6196C96.565 -79.9273 96.1469 -80.1 95.7111 -80.1ZM95.7111 -97C95.4953 -97.001 95.2814 -96.9592 95.0818 -96.877C94.8823 -96.7949 94.7011 -96.674 94.5485 -96.5213C94.396 -96.3687 94.2751 -96.1873 94.193 -95.9877C94.1109 -95.7881 94.0691 -95.5741 94.0701 -95.3583C94.0701 -94.9229 94.243 -94.5053 94.5507 -94.1974C94.8584 -93.8895 95.2759 -93.7166 95.7111 -93.7166C96.1469 -93.7166 96.565 -93.8893 96.8739 -94.1969C97.1828 -94.5046 97.3574 -94.9222 97.3594 -95.3583C97.3594 -95.5745 97.3167 -95.7886 97.2338 -95.9882C97.1508 -96.1879 97.0293 -96.3692 96.8761 -96.5218C96.7229 -96.6743 96.5412 -96.7951 96.3412 -96.8772C96.1413 -96.9592 95.9272 -97.001 95.7111 -97Z" fill="black"/>
<path d="M115.226 72.0446C115.01 72.0426 114.796 72.0834 114.596 72.1647C114.396 72.2459 114.214 72.366 114.061 72.518C113.908 72.6699 113.786 72.8508 113.703 73.05C113.62 73.2493 113.578 73.463 113.578 73.6789C113.577 73.8957 113.618 74.1106 113.701 74.3111C113.783 74.5117 113.905 74.6938 114.058 74.8472C114.211 75.0005 114.393 75.122 114.594 75.2045C114.794 75.287 115.009 75.329 115.226 75.328C115.442 75.328 115.655 75.2853 115.854 75.2022C116.054 75.1191 116.234 74.9974 116.386 74.8441C116.538 74.6908 116.658 74.5089 116.739 74.3089C116.821 74.1089 116.861 73.8947 116.859 73.6789C116.86 73.464 116.819 73.251 116.737 73.0523C116.655 72.8536 116.535 72.673 116.383 72.5211C116.231 72.3691 116.051 72.2488 115.852 72.167C115.654 72.0852 115.441 72.0436 115.226 72.0446ZM115.226 55.1372C115.01 55.1362 114.796 55.1779 114.596 55.26C114.396 55.3421 114.214 55.4628 114.061 55.6154C113.908 55.7679 113.786 55.9492 113.703 56.1489C113.62 56.3486 113.578 56.5627 113.578 56.7789C113.578 57.2163 113.751 57.6357 114.06 57.945C114.369 58.2543 114.789 58.428 115.226 58.428C115.441 58.427 115.655 58.3836 115.853 58.3002C116.052 58.2168 116.232 58.095 116.384 57.9419C116.536 57.7888 116.656 57.6073 116.737 57.4077C116.819 57.2081 116.86 56.9945 116.859 56.7789C116.86 56.5636 116.819 56.3503 116.737 56.1512C116.655 55.952 116.535 55.771 116.384 55.6185C116.232 55.4659 116.051 55.3449 115.853 55.2623C115.654 55.1797 115.441 55.1372 115.226 55.1372ZM115.226 38.2372C115.01 38.2362 114.796 38.2779 114.596 38.36C114.396 38.442 114.214 38.5628 114.061 38.7154C113.908 38.8679 113.786 39.0492 113.703 39.2489C113.62 39.4486 113.578 39.6627 113.578 39.8789C113.578 40.0951 113.62 40.3092 113.703 40.5089C113.786 40.7085 113.908 40.8898 114.061 41.0424C114.214 41.1949 114.396 41.3157 114.596 41.3978C114.796 41.4798 115.01 41.5216 115.226 41.5206C115.441 41.5206 115.654 41.4781 115.853 41.3955C116.051 41.3129 116.232 41.1918 116.384 41.0393C116.535 40.8867 116.655 40.7057 116.737 40.5066C116.819 40.3074 116.86 40.0941 116.859 39.8789C116.86 39.6636 116.819 39.4503 116.737 39.2512C116.655 39.052 116.535 38.871 116.384 38.7185C116.232 38.5659 116.051 38.4449 115.853 38.3623C115.654 38.2797 115.441 38.2372 115.226 38.2372ZM115.226 21.3297C115.01 21.3288 114.796 21.3705 114.596 21.4526C114.396 21.5346 114.214 21.6554 114.061 21.8079C113.908 21.9605 113.786 22.1418 113.703 22.3415C113.62 22.5411 113.578 22.7552 113.578 22.9714C113.578 23.1877 113.62 23.4018 113.703 23.6014C113.786 23.8011 113.908 23.9824 114.061 24.1349C114.214 24.2875 114.396 24.4083 114.596 24.4903C114.796 24.5724 115.01 24.6141 115.226 24.6132C115.441 24.6132 115.654 24.5706 115.853 24.488C116.051 24.4054 116.232 24.2844 116.384 24.1319C116.535 23.9793 116.655 23.7983 116.737 23.5991C116.819 23.4 116.86 23.1867 116.859 22.9714C116.86 22.7562 116.819 22.5429 116.737 22.3438C116.655 22.1446 116.535 21.9636 116.384 21.811C116.232 21.6585 116.051 21.5374 115.853 21.4548C115.654 21.3722 115.441 21.3297 115.226 21.3297ZM115.226 4.42229C115.01 4.42132 114.796 4.46307 114.596 4.54514C114.396 4.6272 114.214 4.74797 114.061 4.90051C113.908 5.05306 113.786 5.23437 113.703 5.43404C113.62 5.63371 113.578 5.8478 113.578 6.06402C113.578 6.28024 113.62 6.49432 113.703 6.69398C113.786 6.89365 113.908 7.07497 114.061 7.22752C114.214 7.38007 114.396 7.50083 114.596 7.5829C114.796 7.66496 115.01 7.7067 115.226 7.70573C115.441 7.70573 115.654 7.66322 115.853 7.58062C116.051 7.49802 116.232 7.37698 116.384 7.22443C116.535 7.07189 116.655 6.89085 116.737 6.69171C116.819 6.49257 116.86 6.27926 116.859 6.06402C116.86 5.84878 116.819 5.63547 116.737 5.43633C116.655 5.23718 116.535 5.05614 116.384 4.90359C116.232 4.75105 116.051 4.63001 115.853 4.54742C115.654 4.46482 115.441 4.42229 115.226 4.42229ZM115.226 -12.4777C115.01 -12.4787 114.796 -12.4369 114.596 -12.3549C114.396 -12.2728 114.214 -12.152 114.061 -11.9995C113.908 -11.8469 113.786 -11.6656 113.703 -11.466C113.62 -11.2663 113.578 -11.0522 113.578 -10.836C113.578 -10.6198 113.62 -10.4057 113.703 -10.206C113.786 -10.0063 113.908 -9.82503 114.061 -9.67248C114.214 -9.51994 114.396 -9.39917 114.596 -9.3171C114.796 -9.23504 115.01 -9.1933 115.226 -9.19427C115.441 -9.19427 115.654 -9.23679 115.853 -9.31938C116.051 -9.40198 116.232 -9.52302 116.384 -9.67556C116.535 -9.82811 116.655 -10.0091 116.737 -10.2083C116.819 -10.4074 116.86 -10.6207 116.859 -10.836C116.86 -11.0512 116.819 -11.2645 116.737 -11.4637C116.655 -11.6628 116.535 -11.8439 116.384 -11.9964C116.232 -12.1489 116.051 -12.27 115.853 -12.3526C115.654 -12.4352 115.441 -12.4777 115.226 -12.4777ZM115.226 -29.3851C115.01 -29.3861 114.796 -29.3444 114.596 -29.2623C114.396 -29.1802 114.214 -29.0595 114.061 -28.9069C113.908 -28.7544 113.786 -28.5731 113.703 -28.3734C113.62 -28.1737 113.578 -27.9596 113.578 -27.7434C113.578 -27.5272 113.62 -27.3131 113.703 -27.1134C113.786 -26.9138 113.908 -26.7325 114.061 -26.5799C114.214 -26.4274 114.396 -26.3066 114.596 -26.2245C114.796 -26.1425 115.01 -26.1007 115.226 -26.1017C115.441 -26.1017 115.654 -26.1442 115.853 -26.2268C116.051 -26.3094 116.232 -26.4304 116.384 -26.583C116.535 -26.7355 116.655 -26.9166 116.737 -27.1157C116.819 -27.3149 116.86 -27.5282 116.859 -27.7434C116.86 -27.9586 116.819 -28.172 116.737 -28.3711C116.655 -28.5703 116.535 -28.7513 116.384 -28.9038C116.232 -29.0564 116.051 -29.1774 115.853 -29.26C115.654 -29.3426 115.441 -29.3851 115.226 -29.3851ZM115.226 -46.2926C115.009 -46.2935 114.794 -46.2516 114.594 -46.169C114.393 -46.0865 114.211 -45.9651 114.058 -45.8117C113.905 -45.6584 113.783 -45.4762 113.701 -45.2757C113.618 -45.0751 113.577 -44.8603 113.578 -44.6434C113.578 -44.4272 113.62 -44.2131 113.703 -44.0134C113.786 -43.8138 113.908 -43.6325 114.061 -43.4799C114.214 -43.3274 114.396 -43.2066 114.596 -43.1245C114.796 -43.0425 115.01 -43.0007 115.226 -43.0017C115.441 -43.0017 115.654 -43.0442 115.853 -43.1268C116.051 -43.2094 116.232 -43.3304 116.384 -43.483C116.535 -43.6355 116.655 -43.8166 116.737 -44.0157C116.819 -44.2149 116.86 -44.4282 116.859 -44.6434C116.861 -44.8593 116.821 -45.0734 116.739 -45.2734C116.658 -45.4734 116.538 -45.6553 116.386 -45.8086C116.234 -45.962 116.054 -46.0837 115.854 -46.1667C115.655 -46.2498 115.442 -46.2926 115.226 -46.2926ZM115.226 -63.1926C115.01 -63.1935 114.796 -63.1518 114.596 -63.0697C114.396 -62.9877 114.214 -62.8669 114.061 -62.7143C113.908 -62.5618 113.786 -62.3805 113.703 -62.1808C113.62 -61.9812 113.578 -61.7671 113.578 -61.5508C113.578 -61.3346 113.62 -61.1205 113.703 -60.9209C113.786 -60.7212 113.908 -60.5399 114.061 -60.3873C114.214 -60.2348 114.396 -60.114 114.596 -60.032C114.796 -59.9499 115.01 -59.9081 115.226 -59.9091C115.441 -59.9091 115.654 -59.9516 115.853 -60.0342C116.051 -60.1168 116.232 -60.2379 116.384 -60.3904C116.535 -60.543 116.655 -60.724 116.737 -60.9231C116.819 -61.1223 116.86 -61.3356 116.859 -61.5508C116.86 -61.7661 116.819 -61.9794 116.737 -62.1785C116.655 -62.3777 116.535 -62.5587 116.384 -62.7113C116.232 -62.8638 116.051 -62.9848 115.853 -63.0674C115.654 -63.15 115.441 -63.1926 115.226 -63.1926ZM115.226 -80.1C115.01 -80.101 114.796 -80.0592 114.596 -79.9772C114.396 -79.8951 114.214 -79.7743 114.061 -79.6218C113.908 -79.4692 113.786 -79.2879 113.703 -79.0882C113.62 -78.8886 113.578 -78.6745 113.578 -78.4583C113.578 -78.0209 113.751 -77.6014 114.06 -77.2922C114.369 -76.9829 114.789 -76.8091 115.226 -76.8091C115.441 -76.8101 115.655 -76.8535 115.853 -76.9369C116.052 -77.0203 116.232 -77.1421 116.384 -77.2952C116.536 -77.4484 116.656 -77.6299 116.737 -77.8294C116.819 -78.029 116.86 -78.2427 116.859 -78.4583C116.86 -78.6735 116.819 -78.8868 116.737 -79.086C116.655 -79.2851 116.535 -79.4661 116.384 -79.6187C116.232 -79.7712 116.051 -79.8923 115.853 -79.9749C115.654 -80.0575 115.441 -80.1 115.226 -80.1ZM115.226 -97C115.01 -97.001 114.796 -96.9592 114.596 -96.8772C114.396 -96.7951 114.214 -96.6743 114.061 -96.5218C113.908 -96.3692 113.786 -96.1879 113.703 -95.9882C113.62 -95.7886 113.578 -95.5745 113.578 -95.3583C113.578 -95.1421 113.62 -94.928 113.703 -94.7283C113.786 -94.5286 113.908 -94.3473 114.061 -94.1948C114.214 -94.0422 114.396 -93.9214 114.596 -93.8394C114.796 -93.7573 115.01 -93.7156 115.226 -93.7166C115.441 -93.7166 115.654 -93.7591 115.853 -93.8417C116.051 -93.9243 116.232 -94.0453 116.384 -94.1978C116.535 -94.3504 116.655 -94.5314 116.737 -94.7306C116.819 -94.9297 116.86 -95.143 116.859 -95.3583C116.86 -95.5735 116.819 -95.7868 116.737 -95.986C116.655 -96.1851 116.535 -96.3661 116.384 -96.5187C116.232 -96.6712 116.051 -96.7923 115.853 -96.8749C115.654 -96.9575 115.441 -97 115.226 -97Z" fill="black"/>
<path d="M1920 136.174C1880.63 136.13 1842.88 120.464 1815.04 92.6104C1787.2 64.7572 1771.54 26.9926 1771.5 -12.3977H1774.47C1774.51 26.2045 1789.86 63.2133 1817.14 90.5093C1844.43 117.805 1881.42 133.159 1920 133.202C1958.58 133.159 1995.57 117.805 2022.86 90.5093C2050.14 63.2133 2065.49 26.2045 2065.53 -12.3977H2068.5C2068.46 26.9926 2052.8 64.7572 2024.96 92.6104C1997.12 120.464 1959.37 136.13 1920 136.174Z" fill="#2F57EF"/>
<path d="M1548.44 148.683L1560.94 136.174L1548.44 123.679L1558.09 114.022L1570.59 126.517L1583.08 114.022L1592.75 123.679L1580.25 136.174L1592.75 148.683L1583.08 158.341L1570.59 145.846L1558.09 158.341L1548.44 148.683Z" fill="white"/>
<path d="M632.159 -26.2884L657.934 -0.492676L656.295 1.14592L630.521 -24.6498L632.159 -26.2884Z" fill="black"/>
<path d="M606.375 -26.2996L632.149 -0.503906L630.511 1.13468L604.737 -24.661L606.375 -26.2996Z" fill="black"/>
<path d="M580.488 -26.1567L606.267 -0.365479L604.629 1.2734L578.85 -24.5179L580.488 -26.1567Z" fill="black"/>
<path d="M554.812 -26.3028L580.586 -0.50708L578.948 1.13151L553.173 -24.6643L554.812 -26.3028Z" fill="black"/>
<path d="M528.952 -26.21L554.727 -0.414307L553.088 1.22428L527.314 -24.5714L528.952 -26.21Z" fill="black"/>
<path d="M1780.74 357.014L1806.52 382.81L1804.88 384.449L1779.1 358.653L1780.74 357.014Z" fill="#2F57EF"/>
<path d="M1754.96 357.018L1780.73 382.814L1779.09 384.452L1753.32 358.657L1754.96 357.018Z" fill="#2F57EF"/>
<path d="M1729.22 357.095L1755 382.886L1753.36 384.525L1727.58 358.734L1729.22 357.095Z" fill="#2F57EF"/>
<path d="M1703.39 357L1729.17 382.796L1727.53 384.434L1701.75 358.639L1703.39 357Z" fill="#2F57EF"/>
<path d="M1677.64 357.063L1703.41 382.859L1701.77 384.497L1676 358.702L1677.64 357.063Z" fill="#2F57EF"/>
</g>
<defs>
<clipPath id="clip0_133_2">
<rect width="1920" height="513" fill="white" transform="matrix(-1 0 0 1 1920 0)"/>
</clipPath>
</defs>
</svg>
