<svg width="630" height="567" viewBox="0 0 630 567" fill="none" xmlns="http://www.w3.org/2000/svg">
<g clip-path="url(#clip0_54_53)">
<path opacity="0.3" d="M319.381 566.059C472.937 566.059 597.419 560.956 597.419 554.662C597.419 548.368 472.937 543.266 319.381 543.266C165.825 543.266 41.3428 548.368 41.3428 554.662C41.3428 560.956 165.825 566.059 319.381 566.059Z" fill="#D9D9D9"/>
<path d="M289.884 550.161C312.441 543.053 309.532 535.2 365.874 514.602C415.906 496.313 521.76 545.684 584.87 399.541C673.841 193.492 457.987 -9.0334 207.483 65.9506C126.606 90.1573 -2.38734 164.908 9.34896 339.271C15.4109 429.326 73.8214 510.053 157.31 540.329C195.26 554.082 242.586 565.071 289.884 550.161Z" fill="#D9D9D9"/>
<path d="M507.95 340.208C506.039 341.028 502.063 337.783 501.175 336.87C498.217 333.844 495.864 329.244 493.538 323.968C488.985 323.532 486.399 325.065 482.56 325.439C474.995 326.18 475.699 323.141 475.767 322.904C477.064 319.199 486.529 317.875 491.325 318.808C490.097 315.888 488.824 312.859 487.431 309.844C487.095 309.133 486.711 308.445 486.282 307.785C485.921 307.716 485.557 307.667 485.191 307.638C474.474 306.783 471.345 310.777 464.95 312.832C455.091 316.005 455.128 311.758 455.173 311.422C455.859 305.967 468.724 301.366 475.239 301.473C477.191 301.474 479.138 301.68 481.047 302.087C466.6 290.32 436.791 287.26 436.263 309.562C436.143 314.681 431.083 311.398 425.844 316.725C421.384 321.247 422.859 328.733 423.227 331.103C425.069 343.155 435.577 354.737 448.569 358.892C460.971 362.864 474.947 359.852 483.682 353.746C486.718 351.622 495.12 342.579 499.12 342.847C503.96 343.166 506.736 342.37 508.293 341.642C509.59 341.025 509.302 339.625 507.95 340.208ZM490.732 329.426C490.701 329.584 490.56 329.748 489.871 330.006C489.298 330.222 485.678 331.501 482.982 329.426C482.515 329.083 482.025 328.688 482.083 328.277C482.207 327.436 484.529 326.904 486.478 327.131C488.67 327.385 490.869 328.675 490.732 329.426Z" fill="#D9D9D9"/>
<path d="M156.775 403.922C157.365 401.065 156.912 400.464 155.91 398.09C153.78 393.061 142.935 392.279 136.102 382.824C131.755 376.81 120.557 380.632 112.814 375.359C107.305 371.606 112.907 368.497 99.7365 363.067C79.7152 354.782 80.7101 342.692 81.4271 342.284C82.5695 341.628 82.8886 345.165 84.5524 346.744C92.3572 354.116 133.611 332.63 173.976 351.776C191.551 360.109 204.831 373.242 210.509 391.311C214.671 404.554 211.195 412.07 206.211 411.514C200.296 410.856 205.048 414.046 202.231 419.655C190.532 442.98 154.583 414.599 156.775 403.922Z" fill="#D9D9D9"/>
<path d="M238.016 202.759C224.636 216.769 207.781 217.195 207.589 216.639C207.353 215.953 223.127 213.229 234.259 198.8C227.787 192.612 219.865 188.15 211.219 185.821C193.335 180.864 200.797 177.931 186.793 170.02C168.425 159.642 160.493 157.608 155.917 158.157C148.541 159.042 149.443 153.076 148.115 153.954C147.247 154.524 138.633 167.488 146.225 179.022C150.235 185.108 156.671 184.11 162.006 192.944C164.857 197.657 164.034 200.285 165.663 205.956C169.18 218.214 182.981 219.047 182.981 229.171C182.981 289.208 202.93 296.755 221.497 300.605C231.724 302.721 231.789 293.561 237.964 296.021C254.181 302.447 266.984 236.626 238.016 202.759Z" fill="#D9D9D9"/>
<path d="M229.457 162.825C245.639 145.7 251.698 130.426 263.194 127.267C269.517 125.527 269.242 128.368 274.742 122.731C277.274 120.138 279.054 116.409 279.97 116.783C280.886 117.156 279.167 120.381 280.076 123.819C281.493 129.191 287.833 129.891 292.427 134.207C295.857 137.421 297.034 141.449 297.669 145.724C287.116 152.359 267.239 153.453 270.11 154.232C273.064 155.034 288.718 155.875 298.653 154.016C301.103 171.306 309.192 175.052 316.887 194.497C322.764 209.352 322.009 217.195 324.819 238.448C333.396 303.16 351.578 315.061 341.303 343.175C340.161 346.304 324.63 371.804 307.611 374.501C297.391 376.12 293.161 368.456 279.637 369.718C266.436 370.953 263.575 378.899 250.442 382.045C250.442 382.045 241.643 384.717 222.524 375.846C174.271 353.457 187.613 207.112 229.457 162.825Z" fill="#D9D9D9"/>
<path d="M122.265 287.321C122.406 280.003 125.59 276.617 123.377 270.274C122.588 268.01 121.26 265.814 121.96 265.19C122.9 264.366 126.574 267.21 127.672 267.982C136.935 274.501 154.997 268.984 158.788 267.982C181.698 262.02 216.053 283.489 232.76 298.045C240.5 304.793 271.314 331.642 268.641 365.869C268.542 367.139 270.089 391.332 253.618 396.234C243.175 399.346 236.767 387.75 225.518 392.546C218.142 395.692 215.716 401.517 208.653 403.24C199.249 405.535 189.187 395.116 186.878 392.57C178.538 383.38 181.496 377.911 172.535 360.607C168.336 352.5 164.812 345.697 157.69 338.651C151.148 332.174 146.125 329.998 142.733 326.643C148.523 327.59 155.395 326.208 162.665 322.55C167.632 320.053 171.605 315.737 170.977 315.202C170.449 314.756 165.128 319.391 157.416 319.977C146.976 320.77 141.497 318.262 138.153 316.156C137.466 309.703 139.271 304.015 136.846 303.027C134.873 302.227 133.168 305.771 130.238 305.332C125.84 304.663 122.125 295.513 122.265 287.321Z" fill="#D9D9D9"/>
<path d="M152.235 463.503C154.314 463.568 156.819 459.087 157.313 457.911C158.953 454.014 159.45 448.871 159.677 443.107C163.752 441.028 166.72 441.505 170.421 440.449C177.729 438.359 175.976 435.786 175.811 435.598C173.245 432.627 163.955 434.87 159.834 437.498C159.906 434.328 159.975 431.049 160.177 427.731C160.226 426.941 160.329 426.154 160.486 425.378C160.781 425.196 161.093 425.014 161.443 424.843C171.101 420.115 175.478 422.681 182.175 422.246C192.511 421.559 190.916 417.642 190.752 417.34C188.12 412.537 174.452 412.966 168.432 415.453C166.616 416.171 164.881 417.077 163.255 418.156C172.373 401.909 198.982 388.114 207.654 408.667C209.644 413.384 213.143 408.471 219.977 411.504C225.772 414.077 227.154 421.563 227.693 423.92C230.4 435.804 224.88 450.435 214.313 459.077C204.237 467.311 190.131 469.654 179.767 467.177C176.161 466.316 165.015 461.002 161.406 462.717C157.021 464.776 154.146 465.071 152.431 464.968C151.007 464.868 150.764 463.458 152.235 463.503ZM164.291 447.145C164.377 447.283 164.569 447.385 165.303 447.372C165.917 447.372 169.763 447.221 171.499 444.284C171.801 443.78 172.12 443.255 171.91 442.884C171.488 442.15 169.131 442.504 167.406 443.433C165.461 444.497 163.889 446.504 164.291 447.145Z" fill="#D9D9D9"/>
<path d="M340.657 144.856C342.482 146.88 340.122 153.186 339.367 154.675C336.856 159.622 332.132 164.479 326.557 169.588C327.93 175.42 330.928 177.989 333.007 182.59C337.124 191.671 333.048 192.096 332.719 192.093C327.573 192.041 321.943 180.847 321.085 174.5C317.974 177.245 314.749 180.11 311.593 183.111C310.845 183.829 310.147 184.597 309.503 185.41C309.571 185.885 309.662 186.357 309.778 186.823C313.233 200.491 319.507 202.694 324.749 209.764C332.839 220.67 327.552 222.413 327.116 222.502C320.06 223.957 308.934 209.905 306.309 201.774C305.489 199.351 304.925 196.849 304.625 194.309C296.1 217.198 304.855 255.509 332.756 246.764C339.161 244.757 337.216 252.424 346.04 256.685C353.526 260.301 362.185 255.341 364.998 253.883C379.18 246.52 389.139 228.595 388.834 210.708C388.546 193.637 378.919 177.554 367.657 169.282C363.742 166.404 348.977 159.779 347.622 154.706C345.982 148.561 343.824 145.443 342.266 143.823C341 142.479 339.378 143.425 340.657 144.856Z" fill="#D9D9D9"/>
<path d="M360.007 287.383C355.89 284.178 350.037 290.92 341.632 287.42C333.526 284.045 325.851 273.012 328.537 265.152C333.1 251.772 331.035 239.34 334.658 231.302C340.49 218.347 355.286 208.961 392.012 197.513C396.053 196.254 399.662 195.132 402.921 194.165C400.988 196.921 399.317 199.852 397.929 202.92C395.295 208.843 394.149 215.321 394.591 221.788C394.845 225.089 395.343 231.573 399.357 233.387C400.468 233.727 401.666 233.636 402.712 233.13C405.724 231.758 405.799 226.44 405.83 217.167C405.851 202.072 406.571 196.106 407.546 192.834C416.754 190.288 422.826 189.362 428.054 190.607C435.763 192.439 446.353 197.101 451.98 192.751C455.228 190.233 453.736 186.576 455.174 186.576C458.124 186.614 458.21 203.386 462.872 222.029C470.045 250.709 469.328 248.489 468.999 256.177C468.944 257.512 468.834 258.822 468.683 260.109C438.723 274.861 418.623 267.533 411.484 269.173C410.194 269.468 405.446 270.545 405.309 272.452C405.1 275.17 414.479 277.941 416.486 278.549C428.641 282.154 450.793 284.285 464.615 275.252C459.695 286.878 451.451 296.522 443.873 305.38C431.145 320.255 419.515 333.854 400.712 335.944C389.305 337.203 373.953 332.925 366.405 324.379C355.386 311.929 369.918 295.119 360.007 287.383Z" fill="#D9D9D9"/>
<path d="M450.824 198.076C448.981 201.555 446.638 204.725 444.206 207.802C441.773 210.879 439.166 213.819 436.511 216.722C431.186 222.492 425.608 228.019 419.924 233.436C408.544 244.26 396.746 254.637 384.821 264.861C378.856 269.97 372.857 275.042 366.824 280.076L357.787 287.658C356.281 288.927 354.779 290.196 353.279 291.507C352.528 292.155 351.787 292.879 351.046 293.565C350.305 294.251 349.602 295.009 348.933 295.781C347.555 297.301 346.294 298.923 345.159 300.632C344.02 302.331 342.997 304.104 342.095 305.94C340.26 309.579 338.898 313.381 337.67 317.182C337.07 319.093 336.507 320.98 335.979 322.928C335.45 324.877 335.066 326.908 334.723 328.884C334.061 332.832 333.574 336.774 333.117 340.682C332.215 348.521 331.43 356.326 330.49 364.103C329.55 371.88 328.489 379.627 327.186 387.322C324.565 402.698 321.011 417.906 315.844 432.5C310.678 447.094 303.864 461.064 294.917 473.486C285.97 485.909 274.861 496.647 262.048 504.805L266.597 511.776C269.962 509.494 273.246 507.096 276.391 504.523C279.537 501.95 282.567 499.23 285.428 496.369C288.289 493.508 291.034 490.509 293.627 487.401C296.221 484.293 298.643 481.054 300.952 477.744C310.132 464.443 316.911 449.725 321.94 434.593C326.97 419.46 330.28 403.84 332.627 388.186C333.793 380.357 334.713 372.505 335.498 364.655C336.284 356.806 336.922 348.96 337.663 341.166C338.037 337.268 338.442 333.385 339.004 329.57C339.296 327.669 339.629 325.796 340.068 323.971C340.507 322.146 341.039 320.221 341.574 318.372C342.675 314.671 343.89 311.017 345.516 307.597C346.306 305.884 347.212 304.226 348.226 302.636C349.227 301.043 350.348 299.528 351.578 298.104C352.178 297.377 352.84 296.701 353.485 296.008C354.13 295.315 354.82 294.68 355.544 294.025C356.974 292.711 358.439 291.407 359.904 290.107L368.745 282.309C374.643 277.113 380.52 271.887 386.375 266.631C398.06 256.099 409.618 245.409 420.747 234.28C426.308 228.712 431.759 223.034 436.953 217.127C439.54 214.159 442.068 211.14 444.442 208.001C446.816 204.862 449.067 201.599 450.824 198.076Z" fill="#D9D9D9"/>
<path d="M364.161 429.512C367.324 406.835 377.599 390.68 378.182 386.913C378.227 386.625 378.611 383.963 377.297 383.139C375.983 382.316 373.616 383.602 372.837 384.374C354.542 402.378 363.791 431.584 359.152 447.715C358.851 447.299 358.538 446.874 358.202 446.428C351.581 437.694 328.548 412.152 331.58 379.005C331.992 374.48 334.411 361.423 343.831 356.545C356.295 350.085 363.355 350.97 378.196 357.149C384.316 359.698 378.429 346.098 383.438 334.729C383.915 333.645 389.891 320.602 403.288 315.631C424.558 307.74 445.293 327.374 446.154 328.211C451.52 333.45 454.388 338.942 458.309 346.455C461.609 352.774 465.513 360.418 466.961 370.813C468.374 380.988 465.513 380.076 467.266 389.469C469.081 399.195 472.92 404.262 470.526 411.706C470.237 412.598 469.932 413.298 469.682 413.943C465.565 410.272 460.096 406.396 454.069 403.836C451.458 402.721 444.298 399.665 441.945 402.255C441.173 403.106 441.039 404.427 441.259 405.432C442.123 409.164 448.463 410.54 452 411.507C458.442 413.288 464.548 416.116 470.073 419.878C472.069 422.901 476.563 423.899 478.718 428.06C483.607 437.505 471.373 453.506 469.98 455.293C466.669 459.537 465.664 459.214 463.678 462.813C460.199 469.122 460.841 474.536 456.079 477.692C454.995 478.409 452.686 479.901 453.132 478.903C453.698 477.63 453.76 469.808 448.329 465.458C443.423 461.537 413.089 472.59 385.205 464.35C383.884 456.298 381.774 442.644 385.075 425.415C386.231 419.391 388.814 408.897 383.864 404.862C382.526 403.775 380.45 403.003 378.611 403.535C372.999 405.161 372.319 418.135 372.072 422.859C371.304 437.532 374.762 452.384 378.484 461.948C372.501 459.426 367.002 455.882 362.233 451.475C361.726 451 361.255 450.489 360.823 449.945C361.729 445.629 362.813 439.169 364.161 429.512Z" fill="#D9D9D9"/>
<path d="M214.557 226.307C216.671 227.549 218.798 228.681 220.808 229.998C221.837 230.623 222.791 231.346 223.772 232.033C224.753 232.719 225.666 233.501 226.592 234.266C227.518 235.031 228.403 235.837 229.271 236.667L231.841 239.196L234.29 241.848C235.114 242.726 235.858 243.673 236.644 244.592C242.761 252.026 247.735 260.373 252.133 268.95C254.308 273.259 256.329 277.647 258.237 282.082C260.144 286.518 261.894 291.026 263.581 295.555C266.907 304.632 269.88 313.83 272.501 323.147C275.122 332.465 277.513 341.842 279.675 351.279C281.82 360.716 283.764 370.197 285.507 379.723C292.433 417.823 296.667 456.394 298.924 495.034C299.61 506.927 300.099 518.831 300.389 530.747H307.985C307.456 518.674 306.724 506.615 305.789 494.571C302.753 455.732 297.734 417.038 290.008 378.851C288.071 369.312 285.931 359.811 283.589 350.349C281.247 340.887 278.657 331.486 275.819 322.146C272.971 312.823 269.788 303.611 266.268 294.508C264.473 289.976 262.617 285.465 260.607 281.019C258.597 276.573 256.459 272.182 254.175 267.866C249.55 259.289 244.346 250.925 237.965 243.474C237.145 242.561 236.369 241.614 235.512 240.729L232.97 238.084L230.301 235.556C229.398 234.726 228.438 233.954 227.511 233.154C226.585 232.355 225.57 231.645 224.578 230.921C223.587 230.197 222.561 229.518 221.491 228.897C219.408 227.597 217.223 226.495 215.13 225.308C213.029 224.187 211.104 222.761 209.418 221.078C207.76 219.356 206.329 217.428 205.161 215.342C204.55 214.313 203.946 213.253 203.346 212.186C202.746 211.119 202.073 210.1 201.377 209.099C200 207.074 198.439 205.18 196.714 203.441C194.976 201.717 193.045 200.196 190.961 198.909C188.868 197.664 186.699 196.552 184.467 195.578C182.264 194.566 180.055 193.544 178.113 192.093C177.139 191.373 176.243 190.555 175.437 189.65C174.649 188.729 173.944 187.739 173.331 186.693C173.927 187.754 174.615 188.76 175.389 189.698C176.182 190.622 177.067 191.463 178.031 192.206C179.959 193.709 182.168 194.782 184.35 195.839C186.55 196.847 188.683 197.993 190.738 199.27C192.764 200.576 194.634 202.109 196.313 203.839C197.971 205.583 199.464 207.475 200.773 209.493C201.459 210.498 202.053 211.551 202.656 212.581C203.26 213.61 203.802 214.701 204.409 215.771C205.574 217.947 207.013 219.965 208.691 221.775C210.413 223.565 212.39 225.092 214.557 226.307Z" fill="#D9D9D9"/>
<path d="M223.244 357.447L224.342 360.267L225.371 363.111C228.027 370.725 230.02 378.555 231.327 386.512C232.626 394.463 233.297 402.504 233.334 410.561C233.361 414.588 233.231 418.613 232.99 422.637C232.867 424.647 232.706 426.658 232.538 428.688C232.369 430.719 232.225 432.805 232.102 434.843C231.651 443.071 231.669 451.318 232.157 459.544C232.644 467.777 233.574 475.966 234.85 484.104C237.416 500.376 241.45 516.383 246.449 532.044C247.881 536.504 249.389 540.935 250.974 545.338H258.693C256.687 540.224 254.779 535.071 252.967 529.879C247.694 514.616 243.361 499.003 240.486 483.143C239.049 475.212 237.951 467.215 237.286 459.184C236.618 451.153 236.41 443.09 236.661 435.035C236.733 433.018 236.819 431.021 236.946 428.99C237.073 426.959 237.183 424.898 237.262 422.843C237.419 418.726 237.457 414.609 237.33 410.492C237.098 402.245 236.217 394.028 234.695 385.918C233.167 377.817 230.942 369.863 228.047 362.144L226.925 359.266L225.738 356.418C224.935 354.543 224.11 352.67 223.261 350.799C221.546 347.066 219.717 343.388 217.727 339.797C213.766 332.591 209.116 325.786 203.844 319.477C198.577 313.175 192.57 307.531 185.953 302.667C182.643 300.249 179.175 298.055 175.571 296.1L172.827 294.694C171.914 294.227 170.981 293.812 170.058 293.369C168.192 292.536 166.316 291.726 164.401 291.006C156.765 288.099 148.802 286.14 140.688 285.174C148.754 286.328 156.648 288.469 164.192 291.548C166.079 292.306 167.924 293.153 169.756 294.021C170.662 294.484 171.582 294.917 172.474 295.394L175.143 296.848C178.66 298.864 182.038 301.113 185.256 303.579C191.67 308.529 197.464 314.235 202.512 320.571C207.556 326.9 211.975 333.703 215.707 340.884C217.583 344.462 219.306 348.123 220.904 351.842C221.712 353.692 222.491 355.561 223.244 357.447Z" fill="#D9D9D9"/>
<path d="M254.438 495.542C260.669 509.429 266.137 523.673 271.043 538.082C271.866 540.504 272.672 542.93 273.461 545.362H278.131C277.143 542.457 276.133 539.559 275.101 536.668C269.931 522.225 264.195 507.971 257.694 494.063C251.237 480.125 243.868 466.628 235.635 453.66C227.364 440.723 218.084 428.4 207.603 417.165C197.122 405.929 185.393 395.847 172.511 387.486C159.648 379.089 145.651 372.572 130.945 368.134C129.103 367.612 127.264 367.07 125.418 366.566L119.881 365.087C116.2 364.085 112.529 363.029 108.903 361.79C105.283 360.58 101.757 359.109 98.3502 357.389C94.9273 355.682 91.7665 353.494 88.9639 350.891C91.7309 353.542 94.8628 355.783 98.2644 357.547C101.655 359.325 105.171 360.856 108.783 362.127C112.385 363.423 116.049 364.528 119.72 365.602L125.236 367.166C127.068 367.701 128.89 368.267 130.725 368.816C145.266 373.451 159.07 380.14 171.718 388.68C184.357 397.167 195.805 407.353 206.025 418.616C216.245 429.879 225.237 442.246 233.213 455.183C241.168 468.155 248.258 481.637 254.438 495.542Z" fill="#D9D9D9"/>
<path d="M261.347 222.608C261.69 233.017 262.181 243.415 262.699 253.827C264.833 295.417 267.776 336.959 271.207 378.463C274.638 419.967 278.665 461.434 283.557 502.825C285.243 517.005 287.059 531.185 289.005 545.365H296.765C294.478 530.926 292.35 516.456 290.381 501.953C284.734 460.785 279.979 419.432 275.76 378.045C271.54 336.657 267.869 295.201 264.977 253.694C264.267 243.316 263.605 232.938 263.052 222.55L262.675 214.762L262.373 206.975C262.278 204.404 262.341 201.829 262.562 199.266C262.829 196.715 263.364 194.199 264.16 191.76C264.538 190.514 264.881 189.235 265.169 187.948C265.457 186.662 265.656 185.355 265.814 184.051C266.096 181.447 266.241 178.831 266.25 176.212C266.298 171.001 266.219 165.803 266.514 160.62C266.809 155.436 267.505 150.273 268.974 145.288C270.451 140.297 272.684 135.562 275.595 131.246C272.597 135.52 270.271 140.228 268.699 145.206C267.131 150.187 266.322 155.384 265.955 160.582C265.588 165.779 265.546 171.001 265.402 176.195C265.348 178.78 265.157 181.36 264.829 183.924C264.654 185.197 264.425 186.463 264.143 187.698C263.862 188.933 263.481 190.171 263.083 191.41C262.219 193.907 261.621 196.489 261.299 199.112C261.022 201.732 260.907 204.367 260.956 207.002L261.114 214.817L261.347 222.608Z" fill="#D9D9D9"/>
<path d="M205.634 373.825C211.61 359.073 223.669 348.781 236.167 344.853C239.45 343.824 245.087 342.108 249.31 344.887C255.917 349.217 254.017 361.224 256.641 361.577C259.924 362.017 260.899 344.081 271.122 339.621C278.669 336.328 289.284 339.714 295.137 345.525C310.036 360.277 306.712 388.855 298.505 406.759C293.702 417.237 279.27 441.436 260.902 445.773C257.224 446.641 244.308 448.86 241.004 457.262C240.291 459.07 240.38 460.254 239.392 460.785C235.151 463.053 220.688 448.133 212.536 433.148C208.845 426.359 194.803 400.557 205.634 373.825ZM217.055 373.808C217.432 374.175 223.741 369.691 236.352 360.689C238.335 359.272 240.411 357.769 240.095 356.963C239.642 355.81 234.404 356.359 230.462 357.92C221.099 361.632 215.627 372.415 217.055 373.808Z" fill="#D9D9D9"/>
<path d="M266.466 517.299C267.68 516.27 269.179 515.134 270.665 514.005C272.15 512.877 273.687 511.717 275.2 510.53C278.233 508.156 281.224 505.652 284.086 502.983C289.879 497.659 295.025 491.671 299.417 485.143C303.8 478.582 307.298 471.47 309.819 463.993C312.307 456.562 313.894 448.859 314.546 441.049C314.708 439.107 314.835 437.165 314.89 435.217L315.034 429.584C315.148 425.885 315.356 422.197 315.658 418.52C316.226 411.189 317.337 403.911 318.982 396.745C320.663 389.637 323.003 382.68 326.393 376.35C329.782 370.02 334.225 363.557 339.957 359.423C342.812 357.365 345.992 356.432 349.32 355.2C350.988 354.583 352.695 354.072 354.428 353.67C355.313 353.468 356.143 353.299 356.994 353.183C357.851 353.061 358.713 352.982 359.577 352.946C363.124 352.838 366.666 353.266 370.085 354.215C373.586 355.167 376.985 356.459 380.233 358.075C386.789 361.313 392.889 365.578 398.519 370.388C404.157 375.239 409.382 380.552 414.139 386.272C423.717 397.706 431.738 410.465 438.41 423.875C445.064 437.342 450.486 451.382 454.61 465.825C450.886 451.232 445.851 437.006 439.567 423.319C433.237 409.645 425.521 396.56 416.125 384.652C411.431 378.676 406.249 373.1 400.632 367.983C394.985 362.874 388.803 358.27 381.976 354.651C378.541 352.82 374.934 351.331 371.207 350.208C367.401 349.038 363.439 348.45 359.457 348.466C358.449 348.466 357.437 348.541 356.428 348.654C355.419 348.768 354.394 348.942 353.443 349.131C351.503 349.522 349.589 350.037 347.714 350.672C343.936 351.948 340.351 353.736 337.058 355.986C330.434 360.483 325.23 366.761 321.353 373.554C317.476 380.347 314.763 387.73 312.776 395.167C310.846 402.603 309.47 410.171 308.659 417.81C308.231 421.611 307.915 425.419 307.689 429.227C307.568 431.114 307.496 433.09 307.397 434.86C307.297 436.63 307.147 438.479 306.958 440.277C306.21 447.449 304.605 454.504 302.175 461.293C299.746 468.029 296.438 474.415 292.336 480.285C288.203 486.155 283.394 491.517 278.006 496.262C275.31 498.663 272.487 500.928 269.557 503.123C268.092 504.225 266.599 505.305 265.076 506.41C263.553 507.515 261.989 508.612 260.335 509.981C259.359 510.78 258.74 511.934 258.614 513.189C258.489 514.445 258.867 515.698 259.666 516.674C260.465 517.651 261.619 518.27 262.874 518.395C264.129 518.521 265.383 518.142 266.359 517.343L266.425 517.289L266.466 517.299Z" fill="#D9D9D9"/>
<path d="M60.7468 184.36L17.1191 204.868C17.1191 204.868 45.4941 252.692 45.5147 252.743C46.1322 254.054 54.2389 251.543 63.6217 247.131C73.0046 242.719 80.1095 238.081 79.492 236.77C79.4714 236.719 60.7468 184.36 60.7468 184.36Z" fill="#D9D9D9"/>
<path d="M36.0153 188.425C26.4541 192.92 16.1175 196.58 15.325 194.944C14.5325 193.307 23.9703 187.654 33.5315 183.159C43.0928 178.665 53.4293 175.005 54.2218 176.658C55.0143 178.312 45.58 183.924 36.0153 188.425Z" fill="#D9D9D9"/>
<path d="M38.9755 194.704C27.2666 200.193 14.5903 204.697 13.6469 202.69C12.7035 200.683 24.2477 193.77 35.9462 188.281C47.6448 182.792 60.3279 178.284 61.2748 180.295C62.2217 182.305 50.6809 189.197 38.9755 194.704Z" fill="#D9D9D9"/>
<path d="M54.143 176.86C54.1636 178.463 46.2525 183.461 35.9605 188.298C25.5759 193.18 16.6013 196.093 15.5207 194.964H15.4795C15.4795 194.964 16.1313 198.92 16.3337 199.355C17.0199 200.82 26.6875 197.726 37.9195 192.446C49.1515 187.166 57.6972 181.698 57.0111 180.233C56.9013 180.01 54.812 177.622 54.143 176.86Z" fill="#D9D9D9"/>
<path d="M61.3821 180.535L61.2003 180.624C60.9739 182.683 51.3646 188.717 38.901 194.57C26.187 200.546 15.202 204.117 13.8572 202.752L13.792 202.783C13.792 202.783 14.3409 205.49 14.7114 206.279C15.5348 208.028 27.0961 204.33 40.5306 198.014C53.9651 191.698 64.2021 185.156 63.3685 183.403C63.1181 182.861 61.3821 180.535 61.3821 180.535Z" fill="#D9D9D9"/>
<path d="M608.768 211.483L537.04 224.79C533.784 225.449 534.745 231.36 535.475 232.918L546.001 255.282C546.604 256.564 547.617 257.608 548.88 258.25C550.143 258.892 551.584 259.094 552.975 258.826L627.376 244.462C629.997 244.187 630.807 239.597 629.136 236.643L615.345 214.378C614.666 213.291 613.676 212.433 612.503 211.916C611.33 211.4 610.028 211.249 608.768 211.483Z" fill="#D9D9D9"/>
<path d="M608.757 211.25L537.153 224.581C536.758 224.655 536.386 224.818 536.064 225.058C535.742 225.297 535.48 225.608 535.297 225.965C535.114 226.322 535.016 226.717 535.009 227.118C535.003 227.519 535.088 227.916 535.259 228.279L545.784 250.644C546.387 251.926 547.4 252.971 548.663 253.614C549.926 254.256 551.367 254.459 552.759 254.191L627.156 239.824C627.574 239.742 627.965 239.56 628.296 239.293C628.627 239.026 628.889 238.682 629.057 238.292C629.226 237.902 629.297 237.476 629.265 237.052C629.233 236.628 629.098 236.218 628.871 235.858L615.317 214.142C614.64 213.057 613.652 212.201 612.482 211.685C611.313 211.17 610.015 211.018 608.757 211.25Z" fill="#D9D9D9"/>
<path d="M551.764 252.534C550.854 252.579 549.95 252.352 549.17 251.882C548.389 251.411 547.766 250.719 547.38 249.892L536.855 227.535C536.796 227.417 536.766 227.287 536.766 227.156C536.766 227.024 536.796 226.894 536.855 226.777C536.913 226.659 536.999 226.557 537.105 226.478C537.21 226.399 537.332 226.346 537.462 226.324L609.067 212.992C609.275 212.955 609.486 212.931 609.698 212.92C610.514 212.884 611.325 213.065 612.049 213.444C612.772 213.824 613.381 214.389 613.815 215.081L627.369 236.798C627.443 236.916 627.487 237.051 627.497 237.19C627.507 237.329 627.484 237.468 627.428 237.596C627.372 237.724 627.286 237.837 627.177 237.924C627.069 238.011 626.94 238.071 626.803 238.098L552.406 252.462C552.188 252.505 551.966 252.531 551.744 252.541L551.764 252.534Z" fill="#D9D9D9"/>
<path d="M424.312 69.4158L427.598 65.1926L500.949 108.515L496.572 113.05L424.312 69.4158Z" fill="#D9D9D9"/>
<path d="M504.071 120.498L452.319 156.236C451.741 156.636 451.053 156.849 450.349 156.845C449.645 156.842 448.959 156.622 448.384 156.215L367.719 99.1527C366.748 98.4666 366.296 94.7924 367.582 93.5985L418.877 66.311C419.408 65.9485 420.034 65.7505 420.676 65.742C421.319 65.7334 421.95 65.9147 422.49 66.263L503.773 114.635C505.92 115.874 505.409 119.623 504.071 120.498Z" fill="#D9D9D9"/>
<path d="M544.814 46.6084L510.288 111.362C509.543 112.755 507.585 114.899 504.555 113.287L423.372 65.3605C422.773 65.0065 422.329 64.4406 422.128 63.7747C421.926 63.1088 421.982 62.3916 422.285 61.7651L451.102 2.22597C452.536 -0.624913 455.349 -0.175496 456.728 0.510637L543.582 42.8107C543.918 42.9739 544.216 43.203 544.461 43.4842C544.705 43.7655 544.891 44.0932 545.006 44.4478C545.121 44.8023 545.163 45.1764 545.13 45.5476C545.097 45.9189 544.99 46.2797 544.814 46.6084Z" fill="#D9D9D9"/>
<path d="M504.051 117.466L452.299 153.206C451.72 153.606 451.033 153.818 450.33 153.813C449.626 153.809 448.941 153.589 448.368 153.182L367.703 96.12C367.479 95.9627 367.299 95.7506 367.181 95.504C367.063 95.2575 367.009 94.9846 367.027 94.7117C367.044 94.4388 367.131 94.1748 367.279 93.945C367.427 93.7153 367.632 93.5275 367.874 93.3995L419.169 66.112C419.69 65.8347 420.274 65.6966 420.865 65.711C421.455 65.7254 422.031 65.8919 422.538 66.1943L503.958 114.776C504.188 114.913 504.381 115.105 504.517 115.336C504.654 115.566 504.73 115.828 504.739 116.095C504.749 116.363 504.69 116.629 504.57 116.868C504.45 117.108 504.271 117.313 504.051 117.466Z" fill="#D9D9D9"/>
<path d="M492.292 115.441L468.569 132.142C468.411 132.25 468.224 132.308 468.032 132.308C467.841 132.308 467.654 132.25 467.495 132.142L396.995 85.5603C396.859 85.469 396.748 85.3442 396.674 85.1979C396.6 85.0515 396.564 84.8885 396.571 84.7245C396.578 84.5606 396.627 84.4011 396.713 84.2615C396.8 84.1219 396.92 84.0068 397.064 83.9273L420.101 71.3333C420.247 71.2537 420.411 71.2137 420.577 71.2173C420.743 71.2209 420.905 71.268 421.048 71.3539L492.234 113.826C492.374 113.906 492.491 114.021 492.575 114.16C492.658 114.298 492.705 114.456 492.711 114.617C492.716 114.779 492.681 114.939 492.608 115.083C492.535 115.228 492.426 115.351 492.292 115.441Z" fill="#D9D9D9"/>
<path d="M542.763 47.4251L508.233 112.162C508.057 112.492 507.816 112.784 507.524 113.018C507.233 113.253 506.896 113.426 506.536 113.527C506.176 113.628 505.798 113.655 505.427 113.606C505.056 113.557 504.699 113.433 504.377 113.242L423.372 65.3606C422.773 65.0067 422.329 64.4407 422.128 63.7749C421.926 63.109 421.982 62.3918 422.285 61.7653L450.951 2.58979C451.11 2.26148 451.332 1.9677 451.604 1.72528C451.876 1.48285 452.194 1.29654 452.539 1.17703C452.883 1.05752 453.248 1.00716 453.612 1.02882C453.976 1.05049 454.332 1.14377 454.66 1.30329L541.531 43.6102C541.868 43.7737 542.168 44.0036 542.414 44.2863C542.66 44.5689 542.846 44.8983 542.961 45.2548C543.076 45.6112 543.118 45.9872 543.084 46.3602C543.05 46.7332 542.94 47.0955 542.763 47.4251Z" fill="#D9D9D9"/>
<path d="M425.817 62.6606L453.815 4.86084L539.228 46.4542L505.477 109.75L425.817 62.6606Z" fill="#D9D9D9"/>
<path d="M220.641 103.745C237.51 86.8765 237.51 59.5266 220.641 42.6577C203.772 25.7888 176.422 25.7888 159.554 42.6577C142.685 59.5266 142.685 86.8765 159.554 103.745C176.422 120.614 203.772 120.614 220.641 103.745Z" fill="#D9D9D9"/>
<path d="M219.564 102.668C235.838 86.3942 235.838 60.0088 219.564 43.7348C203.29 27.4608 176.905 27.4608 160.631 43.7348C144.357 60.0088 144.357 86.3943 160.631 102.668C176.905 118.942 203.29 118.942 219.564 102.668Z" fill="#D9D9D9"/>
<path d="M190.096 109.019C209.877 109.019 225.913 92.9839 225.913 73.2032C225.913 53.4225 209.877 37.3871 190.096 37.3871C170.316 37.3871 154.28 53.4225 154.28 73.2032C154.28 92.9839 170.316 109.019 190.096 109.019Z" fill="#D9D9D9"/>
<path d="M171.287 88.4731C170.954 88.4725 170.631 88.3668 170.362 88.1713C170.093 87.9758 169.893 87.7003 169.79 87.3843C169.687 87.0683 169.686 86.7278 169.788 86.4114C169.89 86.0949 170.089 85.8188 170.357 85.6223L188.519 72.4005V44.1456C188.509 43.9324 188.542 43.7194 188.617 43.5194C188.692 43.3195 188.806 43.1368 188.954 42.9824C189.101 42.828 189.278 42.7051 189.474 42.6211C189.671 42.5372 189.882 42.4939 190.095 42.4939C190.309 42.4939 190.52 42.5372 190.716 42.6211C190.912 42.7051 191.09 42.828 191.237 42.9824C191.384 43.1368 191.499 43.3195 191.574 43.5194C191.648 43.7194 191.682 43.9324 191.672 44.1456V73.2033C191.672 73.452 191.613 73.6973 191.501 73.9191C191.388 74.1409 191.224 74.3329 191.023 74.4795L172.213 88.1712C171.944 88.3671 171.62 88.4727 171.287 88.4731Z" fill="#D9D9D9"/>
<path d="M194.549 509.926H357.986V503.635V466.439V460.134H194.292C187.768 460.141 181.508 462.705 176.854 467.277C172.201 471.848 169.525 478.062 169.402 484.584C169.155 498.557 180.583 509.926 194.549 509.926Z" fill="#D9D9D9"/>
<path d="M211.48 506.88H369.198V463.393H211.48C205.713 463.393 200.183 465.684 196.105 469.761C192.027 473.839 189.736 479.37 189.736 485.136C189.736 487.992 190.298 490.82 191.391 493.458C192.483 496.096 194.085 498.493 196.104 500.512C198.123 502.532 200.52 504.133 203.158 505.226C205.797 506.318 208.624 506.88 211.48 506.88Z" fill="#D9D9D9"/>
<path d="M211.737 509.926H372.007C372.842 509.926 373.643 509.595 374.234 509.004C374.824 508.413 375.156 507.612 375.156 506.777C375.157 506.363 375.076 505.953 374.917 505.571C374.759 505.188 374.527 504.841 374.235 504.548C373.943 504.255 373.595 504.023 373.213 503.864C372.831 503.706 372.421 503.624 372.007 503.624H211.699C201.266 503.624 192.683 495.14 192.861 484.708C192.953 479.835 194.951 475.193 198.427 471.778C201.902 468.362 206.579 466.446 211.452 466.439H372.007C372.842 466.439 373.643 466.108 374.234 465.517C374.824 464.926 375.156 464.125 375.156 463.29C375.157 462.876 375.076 462.466 374.917 462.084C374.759 461.701 374.527 461.354 374.235 461.061C373.943 460.768 373.595 460.536 373.213 460.377C372.831 460.219 372.421 460.137 372.007 460.137H211.452C204.927 460.144 198.666 462.71 194.012 467.283C189.358 471.855 186.684 478.071 186.562 484.594C186.319 498.557 197.77 509.926 211.737 509.926Z" fill="#D9D9D9"/>
<path d="M198.159 459.945H369.318C369.895 459.945 370.448 459.716 370.856 459.308C371.264 458.9 371.493 458.347 371.493 457.77C371.493 457.193 371.264 456.64 370.856 456.232C370.448 455.824 369.895 455.595 369.318 455.595V441.334C369.895 441.334 370.448 441.105 370.856 440.697C371.264 440.289 371.493 439.736 371.493 439.159C371.493 438.582 371.264 438.029 370.856 437.621C370.448 437.213 369.895 436.984 369.318 436.984H197.943C196.418 436.985 194.908 437.29 193.502 437.881C192.096 438.472 190.822 439.337 189.754 440.425C188.685 441.513 187.844 442.803 187.279 444.219C186.715 445.636 186.437 447.151 186.464 448.675C186.591 454.967 191.867 459.945 198.159 459.945Z" fill="#D9D9D9"/>
<path d="M201.604 439.643H370.512V456.079H201.604C201.188 456.079 200.777 455.997 200.393 455.838C200.009 455.679 199.661 455.446 199.367 455.152C199.073 454.859 198.84 454.51 198.681 454.126C198.522 453.743 198.44 453.331 198.44 452.916V442.806C198.44 442.39 198.522 441.979 198.681 441.595C198.84 441.211 199.073 440.863 199.367 440.569C199.661 440.275 200.009 440.042 200.393 439.883C200.777 439.724 201.188 439.643 201.604 439.643Z" fill="#D9D9D9"/>
<path d="M206.619 459.945H371.736C372.313 459.945 372.867 459.716 373.274 459.308C373.682 458.9 373.911 458.347 373.911 457.77C373.911 457.193 373.682 456.64 373.274 456.232C372.867 455.824 372.313 455.595 371.736 455.595H206.578C202.694 455.595 199.397 452.555 199.287 448.672C199.261 447.719 199.425 446.77 199.772 445.881C200.118 444.993 200.639 444.182 201.303 443.498C201.968 442.814 202.762 442.27 203.641 441.899C204.519 441.527 205.463 441.335 206.416 441.334H371.736C372.313 441.334 372.867 441.105 373.274 440.697C373.682 440.289 373.911 439.736 373.911 439.159C373.911 438.582 373.682 438.029 373.274 437.621C372.867 437.213 372.313 436.984 371.736 436.984H206.416C204.891 436.985 203.382 437.29 201.976 437.881C200.57 438.472 199.296 439.337 198.227 440.425C197.159 441.513 196.318 442.803 195.753 444.219C195.188 445.636 194.911 447.151 194.937 448.675C195.05 454.967 200.344 459.945 206.619 459.945Z" fill="#D9D9D9"/>
<path d="M348.892 385.644H187.514C184.3 385.644 181.218 386.922 178.945 389.195C176.673 391.468 175.396 394.55 175.396 397.764V420.897C175.395 422.49 175.707 424.067 176.315 425.539C176.923 427.011 177.815 428.348 178.94 429.475C180.066 430.602 181.402 431.496 182.873 432.106C184.344 432.717 185.921 433.031 187.514 433.031H348.892" fill="#D9D9D9"/>
<path d="M187.513 436.641H358.809V382.018H187.513C183.337 382.018 179.333 383.678 176.38 386.631C173.428 389.584 171.77 393.589 171.77 397.764V420.897C171.77 425.073 173.428 429.077 176.381 432.029C179.333 434.982 183.337 436.641 187.513 436.641Z" fill="#D9D9D9"/>
<path d="M206.368 436.582H364.127C364.603 436.582 365.074 436.489 365.514 436.306C365.954 436.124 366.353 435.857 366.69 435.52C367.026 435.183 367.293 434.784 367.475 434.344C367.657 433.904 367.75 433.432 367.75 432.956C367.75 432.48 367.657 432.009 367.475 431.569C367.293 431.129 367.026 430.729 366.69 430.392C366.353 430.056 365.954 429.788 365.514 429.606C365.074 429.424 364.603 429.33 364.127 429.33H206.368C205.253 429.33 204.148 429.111 203.117 428.685C202.087 428.258 201.15 427.633 200.362 426.844C199.573 426.056 198.947 425.12 198.52 424.089C198.093 423.059 197.874 421.954 197.874 420.839V397.696C197.874 395.443 198.768 393.283 200.361 391.69C201.954 390.097 204.115 389.202 206.368 389.202H364.127C364.603 389.203 365.075 389.11 365.515 388.929C365.955 388.748 366.355 388.482 366.693 388.147C367.03 387.811 367.298 387.412 367.481 386.972C367.664 386.533 367.759 386.062 367.76 385.586C367.76 385.11 367.667 384.638 367.485 384.198C367.303 383.758 367.037 383.359 366.7 383.022C366.364 382.685 365.964 382.418 365.524 382.236C365.085 382.053 364.613 381.959 364.137 381.959H206.368C204.3 381.959 202.253 382.366 200.342 383.157C198.432 383.948 196.696 385.107 195.233 386.569C193.771 388.031 192.611 389.767 191.82 391.677C191.028 393.588 190.621 395.635 190.621 397.703V420.839C190.622 425.015 192.281 429.019 195.234 431.972C198.187 434.924 202.192 436.582 206.368 436.582Z" fill="#D9D9D9"/>
<path d="M358.81 393.74H206.33C206.063 393.74 205.806 393.634 205.617 393.445C205.428 393.256 205.322 392.999 205.322 392.732V392.57C205.322 392.438 205.348 392.307 205.398 392.184C205.449 392.062 205.524 391.951 205.617 391.857C205.711 391.764 205.822 391.689 205.944 391.639C206.067 391.588 206.198 391.562 206.33 391.562H358.81V393.737V393.74Z" fill="#D9D9D9"/>
<path d="M358.81 399.298H206.33C206.063 399.298 205.806 399.192 205.617 399.002C205.428 398.813 205.322 398.557 205.322 398.289V398.128C205.322 397.86 205.428 397.604 205.617 397.415C205.806 397.226 206.063 397.119 206.33 397.119H358.81V399.294V399.298Z" fill="#D9D9D9"/>
<path d="M358.81 404.859H206.33C206.198 404.859 206.067 404.833 205.944 404.782C205.822 404.732 205.711 404.657 205.617 404.564C205.524 404.47 205.449 404.359 205.398 404.237C205.348 404.114 205.322 403.983 205.322 403.851V403.689C205.322 403.422 205.428 403.165 205.617 402.976C205.806 402.787 206.063 402.681 206.33 402.681H358.81V404.856V404.859Z" fill="#D9D9D9"/>
<path d="M358.81 410.42H206.33C206.063 410.42 205.806 410.314 205.617 410.125C205.428 409.935 205.322 409.679 205.322 409.411V409.25C205.322 408.983 205.428 408.726 205.617 408.537C205.806 408.348 206.063 408.241 206.33 408.241H358.81V410.416V410.42Z" fill="#D9D9D9"/>
<path d="M358.81 415.974H206.33C206.063 415.974 205.806 415.868 205.617 415.679C205.428 415.49 205.322 415.233 205.322 414.966V414.804C205.322 414.537 205.428 414.28 205.617 414.091C205.806 413.902 206.063 413.796 206.33 413.796H358.81V415.971V415.974Z" fill="#D9D9D9"/>
<path d="M358.81 421.535H206.33C206.063 421.535 205.806 421.429 205.617 421.24C205.428 421.051 205.322 420.794 205.322 420.527V420.366C205.322 420.098 205.428 419.841 205.617 419.652C205.806 419.463 206.063 419.357 206.33 419.357H358.81V421.532V421.535Z" fill="#D9D9D9"/>
<path d="M358.81 427.093H206.33C206.063 427.093 205.806 426.987 205.617 426.798C205.428 426.609 205.322 426.352 205.322 426.085V425.923C205.322 425.656 205.428 425.399 205.617 425.21C205.806 425.021 206.063 424.915 206.33 424.915H358.81V427.09V427.093Z" fill="#D9D9D9"/>
<path d="M369.201 472.326H216.732C216.6 472.326 216.469 472.3 216.346 472.249C216.224 472.199 216.113 472.124 216.019 472.031C215.925 471.937 215.851 471.826 215.8 471.704C215.75 471.581 215.724 471.45 215.724 471.318V471.156C215.724 470.889 215.83 470.632 216.019 470.443C216.208 470.254 216.465 470.148 216.732 470.148H369.201V472.323V472.326Z" fill="#D9D9D9"/>
<path d="M369.201 477.884H216.732C216.465 477.884 216.208 477.778 216.019 477.589C215.83 477.399 215.724 477.143 215.724 476.875V476.714C215.724 476.447 215.83 476.19 216.019 476.001C216.208 475.812 216.465 475.706 216.732 475.706H369.201V477.881V477.884Z" fill="#D9D9D9"/>
<path d="M369.201 483.445H216.732C216.465 483.445 216.208 483.339 216.019 483.15C215.83 482.961 215.724 482.704 215.724 482.436V482.275C215.724 482.008 215.83 481.751 216.019 481.562C216.208 481.373 216.465 481.267 216.732 481.267H369.201V483.442V483.445Z" fill="#D9D9D9"/>
<path d="M369.201 489.006H216.732C216.465 489.006 216.208 488.9 216.019 488.711C215.83 488.522 215.724 488.265 215.724 487.998V487.837C215.724 487.569 215.83 487.312 216.019 487.123C216.208 486.934 216.465 486.828 216.732 486.828H369.201V489.003V489.006Z" fill="#D9D9D9"/>
<path d="M369.201 494.571H216.732C216.6 494.571 216.469 494.545 216.346 494.494C216.224 494.443 216.113 494.369 216.019 494.275C215.925 494.182 215.851 494.071 215.8 493.948C215.75 493.826 215.724 493.695 215.724 493.562V493.401C215.724 493.133 215.83 492.877 216.019 492.688C216.208 492.499 216.465 492.392 216.732 492.392H369.201V494.571Z" fill="#D9D9D9"/>
<path d="M369.201 500.122H216.732C216.465 500.122 216.208 500.015 216.019 499.826C215.83 499.637 215.724 499.38 215.724 499.113V498.952C215.724 498.684 215.83 498.428 216.019 498.239C216.208 498.049 216.465 497.943 216.732 497.943H369.201V500.118V500.122Z" fill="#D9D9D9"/>
<path d="M370.525 446.15H218.056C217.924 446.15 217.793 446.124 217.67 446.073C217.548 446.023 217.437 445.948 217.343 445.855C217.25 445.761 217.175 445.65 217.125 445.528C217.074 445.405 217.048 445.274 217.048 445.142V444.98C217.048 444.713 217.154 444.456 217.343 444.267C217.532 444.078 217.789 443.972 218.056 443.972H370.525V446.15Z" fill="#D9D9D9"/>
<path d="M370.525 451.725H218.056C217.789 451.725 217.532 451.619 217.343 451.43C217.154 451.241 217.048 450.984 217.048 450.717V450.556C217.048 450.288 217.154 450.031 217.343 449.842C217.532 449.653 217.789 449.547 218.056 449.547H370.525V451.722V451.725Z" fill="#D9D9D9"/>
<path d="M151.367 557.297H501.899C503.082 557.297 504.216 556.827 505.052 555.991C505.889 555.154 506.359 554.02 506.359 552.837C506.359 551.654 505.889 550.52 505.052 549.684C504.216 548.847 503.082 548.377 501.899 548.377V519.172C503.082 519.172 504.216 518.702 505.052 517.866C505.889 517.03 506.359 515.895 506.359 514.712C506.359 513.529 505.889 512.395 505.052 511.559C504.216 510.722 503.082 510.252 501.899 510.252H150.942C147.819 510.256 144.728 510.881 141.849 512.091C138.97 513.302 136.36 515.073 134.172 517.301C131.985 519.53 130.262 522.172 129.105 525.073C127.949 527.974 127.381 531.076 127.435 534.198C127.675 547.101 138.478 557.297 151.367 557.297Z" fill="#D9D9D9"/>
<path d="M158.418 515.714H504.39V549.376H158.418C156.7 549.376 155.052 548.693 153.838 547.479C152.623 546.264 151.94 544.617 151.94 542.899V522.188C151.941 520.471 152.624 518.824 153.839 517.61C155.053 516.396 156.7 515.714 158.418 515.714Z" fill="#D9D9D9"/>
<path d="M168.693 557.297H506.863C508.046 557.297 509.18 556.827 510.017 555.991C510.853 555.154 511.323 554.02 511.323 552.837C511.323 551.654 510.853 550.52 510.017 549.684C509.18 548.847 508.046 548.377 506.863 548.377H168.6C160.644 548.377 153.896 542.151 153.673 534.195C153.619 532.243 153.957 530.3 154.666 528.481C155.375 526.662 156.441 525.004 157.802 523.603C159.162 522.203 160.79 521.089 162.588 520.328C164.386 519.567 166.318 519.174 168.271 519.172H506.856C508.039 519.172 509.174 518.702 510.01 517.866C510.846 517.03 511.316 515.895 511.316 514.712C511.316 513.529 510.846 512.395 510.01 511.559C509.174 510.722 508.039 510.252 506.856 510.252H168.277C165.154 510.256 162.063 510.881 159.184 512.091C156.304 513.301 153.695 515.072 151.507 517.301C149.319 519.53 147.596 522.171 146.439 525.072C145.282 527.973 144.713 531.076 144.767 534.198C145 547.101 155.804 557.297 168.693 557.297Z" fill="#D9D9D9"/>
<path d="M504.393 529.077H192.123C191.577 529.077 191.054 528.86 190.668 528.474C190.282 528.088 190.065 527.564 190.065 527.018V526.675C190.065 526.129 190.282 525.606 190.668 525.22C191.054 524.834 191.577 524.617 192.123 524.617H504.393V529.077Z" fill="#D9D9D9"/>
<path d="M504.393 540.466H192.123C191.577 540.466 191.054 540.249 190.668 539.863C190.282 539.477 190.065 538.954 190.065 538.408V538.065C190.065 537.519 190.282 536.995 190.668 536.609C191.054 536.223 191.577 536.006 192.123 536.006H504.393V540.466Z" fill="#D9D9D9"/>
<path d="M373.294 509.879L395.199 507.535C395.443 507.509 395.679 507.435 395.895 507.318C396.11 507.2 396.3 507.041 396.454 506.85C396.607 506.659 396.722 506.439 396.79 506.203C396.859 505.968 396.88 505.721 396.853 505.477L382.101 367.564C382.075 367.321 382.001 367.084 381.883 366.869C381.766 366.654 381.606 366.464 381.415 366.31C381.224 366.156 381.004 366.042 380.769 365.973C380.533 365.905 380.286 365.884 380.042 365.911L358.138 368.254C357.894 368.28 357.657 368.354 357.442 368.472C357.227 368.589 357.037 368.748 356.883 368.94C356.73 369.131 356.615 369.351 356.547 369.586C356.478 369.822 356.457 370.069 356.484 370.312L371.236 508.225C371.262 508.469 371.336 508.705 371.454 508.921C371.571 509.136 371.73 509.326 371.922 509.479C372.113 509.633 372.333 509.747 372.568 509.816C372.804 509.884 373.05 509.906 373.294 509.879Z" fill="#D9D9D9"/>
<path d="M359.149 395.291L384.76 392.549L384.437 389.537L358.826 392.279L359.149 395.291Z" fill="#D9D9D9"/>
<path d="M359.858 401.922L385.469 399.181L385.146 396.169L359.535 398.91L359.858 401.922Z" fill="#D9D9D9"/>
<path d="M368.629 483.87L394.24 481.128L393.918 478.116L368.307 480.858L368.629 483.87Z" fill="#D9D9D9"/>
<path d="M369.338 490.501L394.949 487.76L394.627 484.748L369.016 487.489L369.338 490.501Z" fill="#D9D9D9"/>
<path d="M417.24 509.878L435.708 505.267C436.121 505.163 436.477 504.899 436.697 504.533C436.917 504.168 436.983 503.73 436.881 503.315L407.844 387.061C407.739 386.647 407.475 386.291 407.11 386.071C406.744 385.852 406.306 385.785 405.892 385.887L387.425 390.491C387.219 390.542 387.026 390.633 386.856 390.759C386.686 390.885 386.542 391.043 386.433 391.224C386.324 391.405 386.252 391.606 386.221 391.815C386.19 392.025 386.2 392.238 386.251 392.443L415.288 508.705C415.339 508.91 415.43 509.104 415.556 509.274C415.682 509.444 415.84 509.587 416.021 509.696C416.202 509.805 416.403 509.878 416.613 509.909C416.822 509.94 417.035 509.93 417.24 509.878Z" fill="#D9D9D9"/>
<path d="M391.528 413.437L413.12 408.045L412.486 405.506L390.894 410.897L391.528 413.437Z" fill="#D9D9D9"/>
<path d="M392.922 419.029L414.514 413.638L413.88 411.098L392.288 416.49L392.922 419.029Z" fill="#D9D9D9"/>
<path d="M410.183 488.125L431.774 482.733L431.14 480.194L409.548 485.585L410.183 488.125Z" fill="#D9D9D9"/>
<path d="M411.58 493.71L433.172 488.319L432.538 485.779L410.946 491.17L411.58 493.71Z" fill="#D9D9D9"/>
<path d="M440.147 509.878L458.614 505.267C458.819 505.216 459.012 505.125 459.182 504.999C459.352 504.873 459.495 504.715 459.603 504.534C459.712 504.352 459.784 504.152 459.815 503.943C459.846 503.733 459.835 503.52 459.784 503.315L430.744 387.061C430.639 386.647 430.375 386.291 430.009 386.071C429.644 385.852 429.206 385.785 428.791 385.887L410.324 390.491C409.91 390.595 409.554 390.859 409.334 391.225C409.114 391.591 409.048 392.029 409.151 392.443L438.188 508.705C438.239 508.911 438.331 509.104 438.457 509.275C438.583 509.445 438.742 509.589 438.924 509.698C439.106 509.807 439.308 509.879 439.518 509.91C439.727 509.941 439.941 509.93 440.147 509.878Z" fill="#D9D9D9"/>
<path d="M414.431 413.437L436.022 408.046L435.388 405.506L413.797 410.897L414.431 413.437Z" fill="#D9D9D9"/>
<path d="M415.825 419.03L437.417 413.638L436.783 411.099L415.191 416.49L415.825 419.03Z" fill="#D9D9D9"/>
<path d="M433.085 488.121L454.677 482.73L454.043 480.19L432.451 485.582L433.085 488.121Z" fill="#D9D9D9"/>
<path d="M434.482 493.707L456.074 488.315L455.44 485.776L433.848 491.167L434.482 493.707Z" fill="#D9D9D9"/>
<path d="M461.891 498.345L457.863 497.432C457.649 497.383 457.463 497.251 457.346 497.065C457.229 496.879 457.191 496.655 457.239 496.441L474.344 421.117C474.368 421.011 474.413 420.91 474.476 420.821C474.538 420.732 474.618 420.657 474.71 420.599C474.802 420.541 474.905 420.502 475.012 420.483C475.12 420.465 475.23 420.468 475.336 420.493L479.36 421.405C479.575 421.453 479.761 421.585 479.879 421.771C479.997 421.957 480.036 422.182 479.988 422.397L462.882 497.72C462.859 497.826 462.814 497.927 462.751 498.016C462.688 498.105 462.609 498.18 462.516 498.238C462.424 498.296 462.322 498.336 462.214 498.354C462.107 498.372 461.997 498.369 461.891 498.345Z" fill="#D9D9D9"/>
<path d="M478.917 416.953L477.709 416.679C477.334 416.593 476.961 416.828 476.876 417.204L475.438 423.54C475.353 423.915 475.588 424.288 475.963 424.373L477.17 424.647C477.545 424.733 477.919 424.498 478.004 424.123L479.442 417.786C479.527 417.411 479.292 417.038 478.917 416.953Z" fill="#D9D9D9"/>
<path d="M457.78 507.134C457.5 507.071 457.253 506.904 457.089 506.668C456.924 506.432 456.854 506.143 456.892 505.858L458.123 496.636C458.144 496.477 458.198 496.325 458.281 496.188C458.365 496.051 458.475 495.933 458.607 495.842C458.738 495.75 458.887 495.688 459.045 495.657C459.202 495.627 459.364 495.629 459.52 495.665L461.163 496.036C461.319 496.071 461.467 496.139 461.595 496.235C461.724 496.33 461.831 496.452 461.91 496.591C461.99 496.731 462.039 496.885 462.055 497.045C462.071 497.204 462.053 497.365 462.004 497.518L459.132 506.369C459.043 506.642 458.854 506.872 458.604 507.013C458.354 507.155 458.06 507.198 457.78 507.134Z" fill="#D9D9D9"/>
<path d="M470.595 492.921L466.773 491.929C466.57 491.875 466.397 491.743 466.291 491.562C466.185 491.381 466.154 491.165 466.207 490.962L484.746 419.436C484.772 419.335 484.817 419.24 484.879 419.157C484.942 419.074 485.02 419.003 485.11 418.951C485.199 418.898 485.298 418.863 485.401 418.848C485.505 418.834 485.609 418.84 485.71 418.866L489.532 419.858C489.633 419.884 489.728 419.929 489.811 419.992C489.894 420.055 489.965 420.133 490.017 420.223C490.07 420.313 490.105 420.413 490.119 420.516C490.134 420.619 490.128 420.724 490.101 420.825L471.555 492.351C471.502 492.553 471.371 492.726 471.192 492.833C471.012 492.939 470.797 492.971 470.595 492.921Z" fill="#D9D9D9"/>
<path d="M489.155 415.66L488.01 415.363C487.654 415.271 487.29 415.484 487.198 415.84L485.637 421.858C485.545 422.213 485.759 422.577 486.115 422.669L487.26 422.966C487.616 423.058 487.979 422.845 488.072 422.489L489.632 416.472C489.725 416.116 489.511 415.753 489.155 415.66Z" fill="#D9D9D9"/>
<path d="M466.412 501.192C466.146 501.123 465.915 500.957 465.765 500.727C465.614 500.496 465.555 500.218 465.599 499.947L467.047 491.161C467.071 491.009 467.128 490.863 467.212 490.734C467.296 490.605 467.406 490.495 467.536 490.411C467.665 490.328 467.81 490.272 467.963 490.248C468.115 490.224 468.27 490.232 468.419 490.272L469.98 490.677C470.128 490.716 470.267 490.785 470.387 490.88C470.507 490.975 470.607 491.094 470.678 491.23C470.75 491.365 470.792 491.514 470.803 491.667C470.814 491.82 470.793 491.973 470.742 492.118L467.736 500.496C467.644 500.757 467.456 500.974 467.211 501.103C466.965 501.232 466.68 501.264 466.412 501.192Z" fill="#D9D9D9"/>
<path d="M441.543 425.57L445.625 424.945C445.732 424.928 445.842 424.932 445.947 424.958C446.053 424.983 446.152 425.029 446.24 425.093C446.327 425.156 446.402 425.237 446.458 425.329C446.515 425.422 446.552 425.524 446.569 425.632L458.274 501.988C458.291 502.095 458.287 502.204 458.262 502.31C458.237 502.415 458.191 502.514 458.127 502.602C458.063 502.69 457.983 502.764 457.89 502.82C457.798 502.877 457.695 502.914 457.588 502.931L453.509 503.559C453.293 503.592 453.072 503.538 452.895 503.41C452.718 503.281 452.598 503.089 452.562 502.873L440.85 426.513C440.817 426.296 440.872 426.075 441.002 425.899C441.132 425.722 441.326 425.604 441.543 425.57Z" fill="#D9D9D9"/>
<path d="M455.609 507.433L456.833 507.246C457.213 507.187 457.474 506.832 457.416 506.452L456.432 500.029C456.374 499.649 456.018 499.388 455.638 499.446L454.414 499.634C454.034 499.692 453.773 500.047 453.831 500.427L454.815 506.85C454.873 507.23 455.229 507.491 455.609 507.433Z" fill="#D9D9D9"/>
<path d="M442.151 415.899C442.435 415.856 442.725 415.921 442.964 416.08C443.203 416.239 443.374 416.481 443.444 416.76L445.681 425.793C445.72 425.948 445.725 426.11 445.698 426.268C445.67 426.426 445.61 426.576 445.522 426.709C445.433 426.843 445.317 426.956 445.182 427.042C445.047 427.128 444.896 427.185 444.738 427.21L443.07 427.464C442.912 427.488 442.751 427.479 442.596 427.437C442.442 427.395 442.298 427.322 442.173 427.222C442.049 427.121 441.946 426.996 441.873 426.854C441.799 426.712 441.756 426.556 441.746 426.397L441.173 417.11C441.155 416.822 441.246 416.539 441.427 416.314C441.608 416.09 441.866 415.942 442.151 415.899Z" fill="#D9D9D9"/>
<path d="M466.063 415.285L470.179 415.683C470.288 415.693 470.393 415.725 470.489 415.776C470.586 415.827 470.671 415.897 470.74 415.981C470.809 416.065 470.861 416.162 470.893 416.266C470.924 416.371 470.935 416.48 470.924 416.589L463.524 493.473C463.502 493.692 463.395 493.893 463.225 494.033C463.055 494.172 462.837 494.239 462.618 494.218L458.501 493.823C458.393 493.813 458.288 493.781 458.192 493.73C458.095 493.679 458.01 493.609 457.941 493.525C457.872 493.441 457.82 493.344 457.788 493.24C457.757 493.135 457.746 493.026 457.757 492.917L465.157 416.033C465.179 415.814 465.286 415.612 465.456 415.472C465.625 415.332 465.844 415.265 466.063 415.285Z" fill="#D9D9D9"/>
<path d="M459.543 490.929L458.92 497.397C458.883 497.78 459.164 498.12 459.547 498.157L460.78 498.276C461.162 498.312 461.503 498.032 461.539 497.649L462.162 491.181C462.199 490.798 461.919 490.458 461.536 490.421L460.303 490.303C459.92 490.266 459.58 490.546 459.543 490.929Z" fill="#D9D9D9"/>
<path d="M469.022 406.06C469.306 406.09 469.569 406.225 469.759 406.438C469.949 406.651 470.053 406.927 470.052 407.212L470.004 416.52C470.003 416.68 469.968 416.837 469.903 416.983C469.837 417.129 469.742 417.26 469.623 417.367C469.504 417.474 469.365 417.555 469.213 417.606C469.061 417.656 468.9 417.674 468.741 417.659L467.064 417.497C466.902 417.484 466.746 417.436 466.604 417.357C466.462 417.279 466.339 417.171 466.242 417.042C466.144 416.912 466.076 416.764 466.04 416.606C466.004 416.448 466.002 416.284 466.034 416.125L467.75 406.979C467.806 406.693 467.969 406.44 468.205 406.269C468.441 406.099 468.733 406.024 469.022 406.06Z" fill="#D9D9D9"/>
<path d="M457.063 493.384L452.946 493.528C452.837 493.531 452.729 493.513 452.627 493.475C452.524 493.437 452.431 493.379 452.351 493.304C452.271 493.229 452.207 493.14 452.162 493.041C452.117 492.941 452.092 492.834 452.089 492.725L449.392 415.535C449.388 415.426 449.406 415.317 449.443 415.215C449.481 415.112 449.539 415.019 449.613 414.939C449.688 414.859 449.777 414.794 449.876 414.749C449.975 414.703 450.083 414.678 450.192 414.674L454.308 414.53C454.417 414.526 454.526 414.544 454.628 414.582C454.73 414.621 454.824 414.679 454.904 414.753C454.983 414.828 455.047 414.917 455.092 415.017C455.137 415.116 455.162 415.224 455.166 415.333L457.862 492.522C457.867 492.632 457.85 492.741 457.812 492.843C457.774 492.946 457.717 493.04 457.642 493.12C457.568 493.2 457.479 493.264 457.379 493.31C457.28 493.355 457.172 493.38 457.063 493.384Z" fill="#D9D9D9"/>
<path d="M452.725 410.368L451.487 410.411C451.103 410.425 450.802 410.747 450.815 411.132L451.042 417.625C451.056 418.01 451.378 418.31 451.762 418.297L453 418.254C453.385 418.24 453.685 417.918 453.672 417.533L453.445 411.04C453.432 410.655 453.109 410.355 452.725 410.368Z" fill="#D9D9D9"/>
<path d="M455.331 502.918C455.044 502.927 454.763 502.829 454.545 502.642C454.326 502.456 454.184 502.194 454.148 501.909L452.985 492.677C452.965 492.518 452.978 492.357 453.023 492.204C453.069 492.05 453.146 491.908 453.25 491.786C453.353 491.664 453.481 491.565 453.625 491.495C453.769 491.425 453.926 491.386 454.086 491.38L455.77 491.322C455.93 491.316 456.09 491.344 456.238 491.404C456.387 491.463 456.521 491.553 456.633 491.667C456.745 491.781 456.832 491.918 456.888 492.067C456.945 492.217 456.97 492.377 456.961 492.536L456.443 501.83C456.427 502.117 456.304 502.388 456.098 502.59C455.892 502.791 455.619 502.908 455.331 502.918Z" fill="#D9D9D9"/>
<path d="M480.591 458.875H444.425C443.686 458.875 443.087 459.474 443.087 460.212V508.588C443.087 509.327 443.686 509.926 444.425 509.926H480.591C481.33 509.926 481.929 509.327 481.929 508.588V460.212C481.929 459.474 481.33 458.875 480.591 458.875Z" fill="#D9D9D9"/>
<path d="M481.925 467.757H443.083C442.828 467.757 442.575 467.706 442.339 467.608C442.104 467.511 441.889 467.367 441.709 467.187C441.529 467.006 441.386 466.792 441.288 466.556C441.191 466.32 441.141 466.067 441.142 465.811C441.142 465.296 441.346 464.802 441.71 464.438C442.075 464.074 442.568 463.87 443.083 463.87H481.925C482.44 463.87 482.934 464.074 483.298 464.438C483.663 464.802 483.867 465.296 483.867 465.811C483.868 466.067 483.818 466.32 483.72 466.556C483.623 466.792 483.48 467.006 483.3 467.187C483.119 467.367 482.905 467.511 482.669 467.608C482.433 467.706 482.181 467.757 481.925 467.757Z" fill="#D9D9D9"/>
<path d="M397.414 350.654C395.267 341.923 380.704 330.259 368.508 328.228C356.528 326.232 350.325 327.95 340.033 329.052C303.853 332.928 268.826 367.008 230.708 368.134C230.07 368.154 229.013 367.996 227.809 368.477C223.5 370.226 221.438 381.074 223.435 382.844C223.779 383.136 224.216 383.292 224.667 383.283C276.26 377.328 325.83 387.242 370.974 381.225C383.963 379.489 387.616 376.079 391.304 373.026C397.524 367.9 399.287 358.264 397.414 350.654Z" fill="#D9D9D9"/>
<path d="M330.682 350.548C333.117 348.857 335.727 347.432 338.466 346.298C343.948 343.997 349.778 342.633 355.712 342.263C358.67 342.066 361.641 342.189 364.573 342.63C361.657 343.165 358.786 343.611 355.938 344.147C353.091 344.682 350.271 345.248 347.468 345.903C344.665 346.558 341.876 347.275 339.094 348.078C336.311 348.881 333.533 349.732 330.682 350.548Z" fill="#D9D9D9"/>
<path d="M379.05 450.871C365.932 422.184 351.605 359.138 346.459 348.033C341.478 337.258 338.452 333.824 336.294 331.769C329.745 325.532 322.287 323.501 313.93 321.604C292.694 316.78 280.769 317.38 254.078 313.469C242.639 311.779 231.073 311.098 219.514 311.435C210.128 311.71 207.054 314.145 204.265 316.138C192.405 324.626 196.886 345.131 198.165 349.049C199.195 352.171 203.332 362.37 214.433 366.888C218.842 368.689 225.504 369.739 238.829 368.542C248.311 367.688 253.629 367.135 262.085 366.507C269.684 365.941 300.433 363.499 307.713 371.78C311.418 376 311.398 382.587 311.779 387.664C313.837 414.952 335.248 436.325 351.629 457.76C361.372 457.067 371.06 455.211 379.05 450.871Z" fill="#D9D9D9"/>
<path d="M335.879 383.249C324.345 383.249 312.828 382.789 300.632 382.302C288.436 381.815 275.746 381.307 263.036 381.307H261.32L261.248 380.985C259.825 374.421 259.436 367.675 260.096 360.991L260.12 360.734L260.36 360.641C270.007 356.922 279.661 352.016 288.996 347.261C305.641 338.801 322.849 330.053 339.982 328.218C342.082 327.995 343.999 327.744 345.855 327.504C350.109 326.949 353.784 326.475 358.072 326.475C361.586 326.491 365.093 326.8 368.556 327.398C380.539 329.398 395.573 341.083 397.799 350.136C399.538 357.197 398.327 367.338 391.562 372.919L391.106 373.297C387.586 376.216 383.593 379.527 371.023 381.208C360.642 382.601 349.468 383.249 335.879 383.249Z" fill="#D9D9D9"/>
<path d="M404.012 486.591C402.047 481.579 391.604 476.766 379.387 451.629C379.36 451.554 379.336 451.478 379.301 451.406C366.117 422.98 351.63 359.197 346.463 348.02C341.482 337.244 338.456 333.81 336.298 331.755C329.749 325.518 322.291 323.487 313.933 321.59C292.698 316.766 280.773 317.367 254.082 313.456C242.643 311.765 231.077 311.084 219.518 311.421C210.132 311.696 207.058 314.132 204.269 316.125C192.409 324.612 196.89 345.117 198.169 349.035C199.198 352.157 203.336 362.356 214.437 366.875C218.846 368.676 225.508 369.725 238.833 368.528C248.315 367.674 253.633 367.122 262.089 366.494C269.688 365.928 300.437 363.485 307.717 371.767C311.422 375.986 311.402 382.577 311.782 387.651C314.699 426.479 356.834 453.327 367.86 485.425C371.112 494.893 375.236 497.264 378.763 500.176C387.147 507.103 401.594 509.47 405.964 504.063C409.272 499.984 406.201 492.183 404.012 486.591Z" fill="#D9D9D9"/>
<path d="M367.095 484.296C365.277 484.615 361.263 501.72 365.153 507.549C366.525 509.587 384.083 521.766 392.355 526.98C396.047 529.293 399.953 531.246 404.019 532.812C406.729 533.842 414.17 537.399 426.908 536.696C431.433 536.449 438.494 534.095 442.878 531.231C445.643 529.426 446.419 527.972 446.762 527.347C448.597 523.996 445.482 518.332 444.82 517.268C441.907 512.585 438.346 511.614 431.217 507.552C419.601 500.931 413.059 493.178 405.961 484.224C403.992 481.744 404.963 480.159 403.216 479.184C400.341 477.572 392.602 483.184 385.72 490.053C383.778 491.994 381.037 494.094 376.8 492.797C370.275 490.78 369.242 483.919 367.095 484.296Z" fill="#D9D9D9"/>
<path d="M365.152 499.778C368.288 501.796 371.503 503.662 374.717 505.535L384.361 511.144L394.008 516.743C397.222 518.613 400.423 520.517 403.651 522.321C404.451 522.774 405.267 523.251 406.053 523.666C406.431 523.878 406.821 524.07 407.219 524.242C407.617 524.417 408.036 524.585 408.451 524.736C410.147 525.357 411.88 525.869 413.641 526.27C417.172 527.098 420.795 527.466 424.42 527.364C428.056 527.254 431.649 526.547 435.056 525.272C435.488 525.124 435.906 524.928 436.325 524.764C436.743 524.599 437.162 524.404 437.567 524.194C438.38 523.783 439.176 523.316 439.968 522.822C440.761 522.328 441.533 521.834 442.287 521.299C443.063 520.788 443.788 520.203 444.452 519.553C443.306 521.038 441.835 522.239 440.366 523.398C439.625 523.978 438.853 524.52 438.05 525.031C437.649 525.285 437.227 525.525 436.812 525.745C436.397 525.965 435.978 526.201 435.546 526.397C432.083 528.028 428.353 529.019 424.537 529.32C418.792 529.76 413.019 528.985 407.593 527.045C407.14 526.877 406.687 526.702 406.221 526.513C405.761 526.323 405.312 526.107 404.876 525.869C404.008 525.419 403.212 524.966 402.389 524.496C399.155 522.619 395.953 520.711 392.783 518.774C389.623 516.801 386.446 514.849 383.331 512.798C380.216 510.746 377.112 508.681 374.052 506.554C370.991 504.427 367.959 502.245 365.152 499.778Z" fill="#D9D9D9"/>
<path d="M396.485 498.104C397.6 497.325 398.756 496.606 399.947 495.95L403.316 494.035C404.427 493.404 405.532 492.773 406.626 492.111C407.776 491.452 408.872 490.705 409.906 489.877C409.811 490.606 409.567 491.306 409.189 491.936C408.824 492.554 408.391 493.129 407.899 493.651C406.926 494.682 405.802 495.557 404.565 496.248C403.344 496.938 402.037 497.461 400.678 497.802C399.309 498.152 397.89 498.254 396.485 498.104Z" fill="#D9D9D9"/>
<path d="M400.629 502.249C401.744 501.47 402.899 500.751 404.09 500.094L407.459 498.18C408.571 497.549 409.676 496.921 410.77 496.255C411.919 495.596 413.015 494.85 414.05 494.022C413.954 494.75 413.71 495.45 413.333 496.08C412.967 496.698 412.534 497.273 412.043 497.796C411.071 498.827 409.946 499.703 408.708 500.393C407.488 501.083 406.181 501.606 404.821 501.947C403.453 502.297 402.033 502.399 400.629 502.249Z" fill="#D9D9D9"/>
<path d="M404.773 506.393C405.889 505.615 407.044 504.896 408.235 504.238L411.604 502.327C412.715 501.693 413.82 501.065 414.918 500.399C416.066 499.741 417.162 498.994 418.194 498.166C418.102 498.895 417.858 499.596 417.477 500.224C417.111 500.842 416.679 501.417 416.187 501.94C415.215 502.971 414.091 503.847 412.853 504.537C411.634 505.23 410.326 505.753 408.966 506.091C407.598 506.441 406.178 506.543 404.773 506.393Z" fill="#D9D9D9"/>
<path d="M408.928 510.54C410.044 509.761 411.201 509.04 412.393 508.383L415.762 506.472C416.87 505.84 417.974 505.209 419.072 504.547C420.22 503.887 421.317 503.14 422.352 502.314C422.257 503.042 422.013 503.743 421.635 504.372C421.268 504.989 420.834 505.565 420.342 506.087C419.371 507.118 418.247 507.992 417.01 508.681C415.791 509.373 414.484 509.896 413.123 510.235C411.754 510.584 410.333 510.688 408.928 510.54Z" fill="#D9D9D9"/>
<path d="M351.293 458.01C348.443 454.281 345.376 450.463 342.411 446.792C327.982 428.881 313.062 410.359 311.361 387.696C311.319 387.119 311.282 386.522 311.24 385.912C310.935 381.109 310.589 375.688 307.398 372.052C304.005 368.189 294.458 366.148 279.785 366.148C272.464 366.148 265.74 366.648 262.504 366.892L262.12 366.92C256.027 367.372 251.605 367.781 245.996 368.292C243.838 368.491 241.512 368.707 238.864 368.944C235.09 369.287 231.635 369.458 228.644 369.458C222.51 369.458 217.944 368.772 214.273 367.263C202.952 362.638 198.776 352.236 197.771 349.156C197.174 347.327 195.665 341.087 195.871 334.273C196.128 325.806 198.958 319.415 204.022 315.782L204.31 315.576C207.12 313.559 210.307 311.271 219.501 311.003C221.371 310.948 223.275 310.921 225.172 310.921C234.827 310.907 244.47 311.61 254.02 313.024H254.134C264.875 314.598 273.311 315.449 280.752 316.201C291.782 317.316 301.309 318.259 314.03 321.161C322.49 323.083 330.027 325.182 336.59 331.433C338.957 333.683 342.024 337.395 346.844 347.821C348.844 352.147 352.158 364.038 356.354 379.092C363.057 403.154 371.404 433.1 379.432 450.659L379.593 451.002L379.25 451.183C372.162 455.05 363.126 457.324 351.654 458.137H351.431L351.293 458.01Z" fill="#D9D9D9"/>
<path d="M216.468 354.723C213.689 354.723 213.092 356.219 208.337 356.754C206.684 356.939 207.308 356.932 205.936 356.754C203.792 356.476 201.974 353.927 197.181 353.584C185.616 352.757 173.88 370.988 173.787 375.053C173.636 381.674 179.142 384.265 183.952 385.218C190.471 386.508 195.726 385.599 198.186 385.218C216.664 382.357 226.427 386.048 228.681 381.153C229.669 379.005 228.513 376.72 230.716 373.019C231.824 371.156 232.935 370.353 232.747 368.953C232.53 367.341 230.87 367.039 228.681 364.888C226.064 362.312 226.863 361.186 224.616 358.788C224.081 358.243 220.774 354.699 216.468 354.723Z" fill="#D9D9D9"/>
<path d="M208.337 360.819C206.965 361.162 205.592 361.454 204.313 361.886C203.034 362.285 201.806 362.829 200.652 363.509C198.337 364.923 196.155 366.546 194.134 368.356C192.122 370.183 190.263 372.171 188.576 374.302C187.729 375.372 186.906 376.47 186.14 377.619C185.375 378.768 184.631 379.931 183.928 381.153C184.235 379.771 184.686 378.424 185.273 377.135C185.554 376.487 185.883 375.859 186.202 375.225C186.521 374.59 186.888 373.983 187.283 373.389C188.801 370.966 190.649 368.766 192.772 366.85C194.903 364.929 197.306 363.333 199.904 362.116C201.229 361.51 202.638 361.107 204.083 360.922C205.494 360.75 206.919 360.716 208.337 360.819Z" fill="#D9D9D9"/>
<path d="M210.801 372.587C210.87 373.767 210.715 374.95 210.344 376.072C209.983 377.193 209.463 378.257 208.8 379.232C208.141 380.209 207.344 381.084 206.433 381.832C205.525 382.599 204.476 383.181 203.346 383.548C203.977 382.518 204.639 381.64 205.267 380.748C205.895 379.856 206.512 378.988 207.116 378.107C207.72 377.225 208.303 376.333 208.893 375.417C209.483 374.501 210.087 373.547 210.801 372.587Z" fill="#D9D9D9"/>
<path d="M215.343 372.587C215.416 373.767 215.261 374.95 214.887 376.072C214.162 378.326 212.806 380.325 210.979 381.832C210.071 382.598 209.022 383.181 207.892 383.548C208.526 382.518 209.185 381.64 209.816 380.748C210.447 379.856 211.058 378.988 211.662 378.107C212.266 377.225 212.849 376.333 213.442 375.417C214.036 374.501 214.629 373.547 215.343 372.587Z" fill="#D9D9D9"/>
<path d="M219.899 372.587C219.972 373.767 219.818 374.95 219.446 376.072C219.084 377.193 218.564 378.257 217.902 379.232C217.243 380.209 216.445 381.084 215.535 381.832C214.627 382.599 213.578 383.181 212.447 383.548C213.079 382.518 213.737 381.64 214.368 380.748C215 379.856 215.614 378.988 216.218 378.107C216.821 377.225 217.405 376.333 217.995 375.417C218.585 374.501 219.175 373.547 219.899 372.587Z" fill="#D9D9D9"/>
<path d="M224.431 372.587C224.503 373.767 224.348 374.95 223.975 376.072C223.25 378.326 221.893 380.325 220.067 381.832C219.159 382.598 218.11 383.181 216.979 383.548C217.614 382.518 218.273 381.64 218.901 380.748C219.528 379.856 220.146 378.988 220.75 378.107C221.354 377.225 221.937 376.333 222.53 375.417C223.124 374.501 223.717 373.547 224.431 372.587Z" fill="#D9D9D9"/>
<path d="M292.381 233.158C291.04 221.494 292.58 207.771 298.996 208.186C300.426 208.275 310.818 213.452 316.451 242.218C321.682 268.936 323.182 279.235 315.226 286.426C308.708 292.306 298.11 293.953 291.839 288.892C282.141 281.07 295.795 262.871 292.381 233.158Z" fill="#D9D9D9"/>
<path d="M211.322 252.97C208.296 239.676 198.972 219.126 208.08 202.309C211.768 195.499 219.868 193.592 232.397 194.607C239.896 195.214 245.165 191.176 254.284 190.552C262.991 189.972 269.31 192.137 285.503 199.472C314.887 212.79 290.162 213.575 302.931 242.012C313.254 265.018 273.544 277.478 288.34 308.889C293.939 320.78 275.743 318.9 252.977 320.629C219.641 323.161 207.48 334.221 196.944 325.302C191.966 321.092 197.63 306.886 203.414 294.031C208.8 282.034 215.528 271.471 211.322 252.97Z" fill="#D9D9D9"/>
<path d="M275.716 182.322C273.801 188.154 271.668 194.985 274.512 201.565C274.735 202.079 277.064 205.918 281.716 213.593C284.557 218.272 285.833 220.324 285.623 223.216C285.37 226.928 283.02 227.518 282.917 230.732C282.731 236.653 290.485 242.355 292.238 241.254C293.445 240.496 290.711 237.192 292.238 233.137C293.83 228.907 298.173 228.876 301.844 224.718C302.29 224.214 306.163 219.363 306.053 212.992C306.053 212.025 305.906 209.795 302.142 202.168C297.528 192.81 295.576 191.804 294.625 187.417C293.404 181.777 295.312 177.289 296.43 173.886C297.912 169.351 302.262 166.826 301.796 162.054C300.523 149.36 297.024 134.481 294.025 133.898C291.727 133.463 286.388 149.748 275.716 182.322Z" fill="#D9D9D9"/>
<path d="M277.97 178.682C277.139 184.394 275.753 191.609 271.225 198.648C269.914 200.683 268.933 201.791 267.451 202.422C262.734 204.45 255.725 200.566 252.61 195.41C250.511 191.935 250.524 188.449 250.723 184.089C251.574 165.261 256.679 155.848 261.067 153.333C267.657 149.559 274.909 153.645 278.783 161.155C280.138 163.783 279.414 168.75 277.97 178.682Z" fill="#D9D9D9"/>
<path d="M248.03 146.681C245.841 141.738 240.348 128.656 253.646 119.497C261.667 113.973 272.034 113.376 280.24 116.838C290.278 121.075 294.347 129.909 295.308 132.204C298.21 139.123 298.522 147.724 296.491 152.297C296.189 152.983 295.222 154.38 295.308 156.435C295.901 170.322 285.921 185.455 284.673 186.868C283.043 188.717 280.432 188.871 279.352 188.926C273.036 189.307 261.025 183.002 257.189 173.859C254.857 168.294 257.553 167.358 255.131 160.267C252.788 153.484 251.721 155.038 248.03 146.681Z" fill="#D9D9D9"/>
<path d="M265.794 151.052C262.892 160.517 259.413 159.773 256.106 165.804C252.332 172.689 255.42 178.699 252.864 186.247C251.149 191.28 246.548 197.373 238.431 197.976C229.213 198.662 220.431 189.743 215.881 193.465C214.787 194.36 213.902 196.083 213.48 195.866C213 195.63 213.353 193.071 214.382 191.355C217.988 185.345 220.393 186.847 224.304 183.54C229.474 179.163 230.846 174.542 231.22 172.716C232.465 166.582 229.714 164.596 231.518 158.284C233.179 152.451 238.181 151.422 238.435 142.949C239.035 122.804 253.186 108.673 276.018 112.278C283.592 113.476 286.913 116.258 290.769 119.483C297.343 125.02 299.271 137.514 299.49 142.334C300.091 155.563 303.998 154.661 303.398 162.177C302.777 169.955 295.449 175.423 295.281 183.225C294.979 197.057 309.11 196.453 309.71 210.886C310.437 228.321 295.281 228.327 294.979 238.249C294.842 242.709 298.138 246.139 297.082 246.966C296.231 247.621 288.965 242.458 288.663 237.36C288.142 228.441 303.593 225.24 303.398 213.908C303.096 196.467 284.148 192.175 298.65 166.099C303.998 156.493 296.591 155.838 297.339 148.945C298.588 137.545 291.071 137.247 289.267 128.828C288.728 126.313 287.421 122.629 287.551 126.708C288.042 140.228 271.506 132.41 265.794 151.052Z" fill="#D9D9D9"/>
<path d="M221.243 183.729C221.99 182.994 222.696 182.22 223.36 181.41C224.021 180.616 224.622 179.775 225.158 178.891C226.233 177.183 227.007 175.301 227.446 173.33C227.542 172.857 227.6 172.356 227.676 171.869C227.751 171.382 227.768 170.891 227.758 170.404C227.765 169.422 227.689 168.44 227.532 167.471C227.374 166.476 227.188 165.412 227.072 164.284C226.955 163.133 226.976 161.972 227.134 160.826C227.161 160.531 227.23 160.256 227.278 159.971C227.326 159.687 227.377 159.402 227.453 159.127L227.662 158.297C227.741 158.019 227.847 157.735 227.94 157.453C228.336 156.335 228.876 155.273 229.545 154.294C230.187 153.336 230.87 152.475 231.501 151.673C232.101 150.928 232.642 150.136 233.117 149.305C233.996 147.695 234.507 145.909 234.612 144.077L234.674 143.357L234.739 142.537C234.781 141.991 234.815 141.446 234.894 140.9C235.007 139.809 235.189 138.722 235.384 137.638C235.816 135.469 236.436 133.342 237.237 131.281C238.055 129.211 239.079 127.228 240.294 125.363C242.736 121.611 246.036 118.494 249.92 116.268C253.759 114.11 258.041 112.858 262.439 112.608C264.581 112.477 266.732 112.535 268.864 112.783C269.921 112.937 270.974 113.074 272.01 113.304C273.046 113.534 274.068 113.788 275.098 114.066C274.041 114.011 273.002 113.894 271.952 113.887C270.905 113.829 269.862 113.853 268.826 113.86C266.766 113.916 264.713 114.133 262.686 114.508C258.708 115.19 254.914 116.684 251.539 118.896C248.243 121.088 245.468 123.977 243.412 127.36C242.381 129.044 241.516 130.825 240.829 132.677C240.124 134.536 239.58 136.451 239.203 138.403C239.024 139.384 238.86 140.369 238.736 141.363C238.664 141.857 238.626 142.358 238.585 142.859L238.52 143.607L238.434 144.454L238.342 145.312C238.294 145.6 238.235 145.889 238.18 146.177C238.125 146.465 238.088 146.75 238.002 147.038L237.758 147.895C237.68 148.185 237.584 148.469 237.47 148.746C237.36 149.024 237.268 149.312 237.127 149.583L236.733 150.393C236.602 150.664 236.438 150.911 236.29 151.172C235.689 152.139 235.012 153.057 234.266 153.916C233.58 154.743 232.894 155.494 232.341 156.253C231.786 156.981 231.325 157.776 230.969 158.62C230.883 158.832 230.791 159.035 230.712 159.254L230.489 159.94C230.41 160.167 230.355 160.397 230.297 160.627C230.238 160.856 230.17 161.086 230.135 161.313C229.944 162.238 229.855 163.181 229.871 164.126C229.871 165.09 229.991 166.112 230.053 167.214C230.134 168.33 230.112 169.452 229.988 170.565C229.923 171.123 229.831 171.677 229.71 172.226C229.566 172.768 229.456 173.303 229.267 173.842C227.789 178.078 224.777 181.451 221.243 183.729Z" fill="#D9D9D9"/>
<path d="M202.971 300.426C201.211 295.06 220.601 287.691 225.01 289.355C228.097 290.515 234.893 297.901 240.581 301.122C261.141 312.766 265.996 306.862 267.955 316.077C269.783 324.653 261.93 326.218 233.353 318.849C229.387 317.826 205.246 307.366 202.971 300.426Z" fill="#D9D9D9"/>
<path d="M227.529 234.327C224.956 220.975 220.211 192.707 209.899 199.678C202.403 204.741 183.959 239.816 188.217 262.298C188.46 266.805 189.562 271.656 186.999 277.293C185.987 279.523 183.671 282.782 183.352 286.614C182.954 291.355 185.177 295.057 187.404 298.772C190.43 303.815 193.61 309.116 199.566 310.526C205.703 311.98 211.858 310.227 211.724 309.311C211.614 308.563 207.298 307.846 206.454 306.069C205.645 304.354 209.034 302.296 212.938 296.34C216.636 290.714 217.793 289.866 219.83 287.829C223.68 283.979 229.152 287.424 230.366 287.424C231.862 287.424 230.575 283.55 230.366 282.964C229.086 279.358 225.158 279.636 223.477 276.476C223.031 275.639 222.544 274.192 223.882 268.778C225.409 262.603 225.714 256.019 226.719 253.374C228.62 248.379 229.337 243.696 227.529 234.327Z" fill="#D9D9D9"/>
<path d="M193.891 305.661C194.079 303.901 194.357 302.179 194.639 300.45C194.786 299.586 194.944 298.735 195.119 297.863L195.253 297.222C195.294 297.009 195.342 296.796 195.41 296.536C195.466 296.303 195.535 296.074 195.616 295.85C195.695 295.62 195.767 295.39 195.863 295.163C196.601 293.464 197.572 291.875 198.748 290.443C199.876 289.042 201.101 287.724 202.416 286.498C203.716 285.28 205.083 284.135 206.509 283.067C207.229 282.542 207.949 282.017 208.701 281.533C209.463 281.032 210.252 280.574 211.065 280.161L211.408 279.997C211.531 279.938 211.658 279.887 211.788 279.846C212.022 279.767 212.252 279.695 212.475 279.633C212.926 279.509 213.384 279.411 213.847 279.341C214.741 279.207 215.643 279.128 216.547 279.105C218.313 279.069 220.079 279.139 221.837 279.314C220.121 279.801 218.406 280.134 216.746 280.569C215.912 280.775 215.092 280.998 214.31 281.256C213.922 281.393 213.538 281.527 213.181 281.688C212.999 281.767 212.838 281.853 212.656 281.942C212.583 281.977 212.512 282.016 212.444 282.058L212.214 282.206C210.903 283.118 209.548 284.223 208.255 285.293C206.961 286.364 205.672 287.513 204.433 288.669C203.195 289.825 201.997 291.016 200.875 292.251C199.759 293.445 198.77 294.752 197.925 296.152C197.726 296.482 197.549 296.826 197.397 297.181C197.318 297.345 197.246 297.548 197.167 297.757L196.934 298.364L195.983 300.8C195.345 302.454 194.683 304.08 193.891 305.661Z" fill="#D9D9D9"/>
<path d="M231.463 287.455C231.417 286.581 231.225 285.722 230.894 284.913C230.643 284.102 230.257 283.34 229.751 282.659C228.722 281.348 227.202 280.58 225.689 279.571C224.888 279.037 224.175 278.381 223.576 277.626C223.422 277.427 223.28 277.22 223.151 277.005L222.969 276.7C222.898 276.581 222.835 276.459 222.78 276.333C222.561 275.813 222.444 275.256 222.437 274.693C222.427 273.747 222.507 272.803 222.677 271.873C222.818 270.97 223 270.092 223.181 269.221L224.272 264.075C224.615 262.359 224.959 260.644 225.257 258.929C225.907 255.524 226.385 252.089 226.691 248.637C226.852 246.922 226.931 245.206 226.924 243.511C226.932 241.836 226.797 240.162 226.519 238.51C225.933 235.045 225.267 231.61 224.609 228.169C223.95 224.729 223.185 221.308 222.286 217.939C221.448 214.529 220.309 211.2 218.883 207.99C220.941 210.876 222.382 214.166 223.686 217.48C224.922 220.807 225.988 224.195 226.88 227.631C227.82 231.062 228.55 234.516 229.281 237.964C230.039 241.638 229.943 245.306 229.655 248.88C229.306 252.437 228.761 255.971 228.022 259.467C227.264 262.939 226.423 266.39 225.439 269.759C225.206 270.596 224.976 271.427 224.787 272.257C224.596 273.047 224.463 273.849 224.389 274.658C224.358 274.976 224.386 275.297 224.471 275.605C224.495 275.674 224.523 275.746 224.564 275.835L224.698 276.11C224.779 276.281 224.871 276.447 224.972 276.607C225.416 277.275 225.957 277.873 226.578 278.381C227.212 278.936 227.923 279.468 228.609 280.072C229.325 280.672 229.939 281.385 230.427 282.182C230.869 282.989 231.17 283.866 231.316 284.775C231.526 285.652 231.575 286.56 231.463 287.455Z" fill="#D9D9D9"/>
<path d="M289.317 118.677C290.454 119.492 291.49 120.438 292.405 121.497C293.322 122.564 294.152 123.705 294.885 124.907C295.228 125.511 295.595 126.121 295.915 126.746C296.234 127.37 296.563 128.001 296.834 128.646C297.105 129.291 297.414 129.933 297.664 130.591C297.915 131.25 298.172 131.905 298.409 132.571C298.645 133.236 298.841 133.912 299.06 134.585C299.28 135.257 299.455 135.957 299.62 136.643C299.979 138.025 300.259 139.425 300.46 140.839C300.844 143.532 301.297 146.191 302.155 148.657C302.572 149.899 303.086 151.105 303.692 152.266L304.158 153.193C304.316 153.536 304.477 153.831 304.628 154.184C304.779 154.537 304.941 154.87 305.068 155.254L305.267 155.81L305.428 156.386C305.629 157.15 305.764 157.929 305.833 158.716L305.887 159.296V159.862C305.908 160.242 305.908 160.624 305.887 161.004L305.809 162.174C305.778 162.562 305.689 162.939 305.63 163.32L305.531 163.893C305.49 164.081 305.438 164.263 305.39 164.449C305.294 164.816 305.205 165.19 305.095 165.55C304.639 166.949 304.089 168.315 303.448 169.639C302.831 170.922 302.193 172.164 301.592 173.379C300.998 174.546 300.466 175.744 299.997 176.967C299.87 177.265 299.798 177.564 299.699 177.859C299.597 178.15 299.512 178.447 299.445 178.748L299.242 179.636L299.129 180.521C299.088 180.813 299.068 181.108 299.071 181.403C299.054 181.7 299.054 181.998 299.071 182.295L299.129 183.221L299.246 184.13C299.439 185.316 299.792 186.47 300.296 187.561C300.815 188.67 301.475 189.707 302.258 190.648C303.097 191.64 303.999 192.576 304.958 193.451C306.903 195.297 309.15 197.105 311.006 199.5C311.958 200.707 312.739 202.041 313.325 203.462C313.893 204.89 314.251 206.392 314.389 207.922C314.416 208.296 314.457 208.68 314.464 209.047V210.138C314.464 210.481 314.464 210.865 314.433 211.229C314.402 211.593 314.409 211.956 314.368 212.323C314.246 213.79 313.98 215.241 313.576 216.656C313.17 218.077 312.594 219.443 311.86 220.725C311.135 221.987 310.282 223.171 309.315 224.259C307.397 226.406 305.198 228.135 303.256 230.026C302.275 230.95 301.431 232.011 300.752 233.175C300.096 234.375 299.716 235.707 299.64 237.072C299.508 235.663 299.707 234.243 300.22 232.925C300.786 231.615 301.538 230.395 302.453 229.302C303.339 228.197 304.306 227.192 305.229 226.17C306.15 225.177 307.017 224.136 307.826 223.051C309.414 220.972 310.529 218.57 311.092 216.015C311.357 214.747 311.507 213.457 311.541 212.162C311.541 211.819 311.541 211.507 311.541 211.181C311.541 210.855 311.541 210.529 311.51 210.2L311.445 209.219C311.421 208.893 311.37 208.591 311.335 208.279C310.988 205.825 309.941 203.524 308.32 201.651C306.697 199.726 304.58 198.062 302.453 196.162C301.353 195.199 300.321 194.16 299.366 193.053C298.358 191.88 297.504 190.583 296.824 189.194C296.152 187.78 295.682 186.279 295.427 184.734L295.273 183.588C295.239 183.207 295.218 182.827 295.194 182.442C295.173 182.049 295.173 181.655 295.194 181.262C295.192 180.866 295.217 180.471 295.27 180.079L295.431 178.909L295.695 177.773C295.782 177.401 295.888 177.033 296.014 176.672C296.134 176.329 296.234 175.938 296.381 175.598L296.789 174.569C296.933 174.226 297.088 173.903 297.235 173.571C297.53 172.885 297.856 172.27 298.175 171.636C298.824 170.38 299.469 169.173 300.073 167.975C300.651 166.817 301.161 165.626 301.599 164.407C301.702 164.109 301.774 163.81 301.867 163.512L301.994 163.066L302.083 162.617C302.134 162.318 302.22 162.02 302.248 161.721L302.337 160.826C302.428 159.615 302.351 158.397 302.11 157.206C301.867 156.071 301.342 154.952 300.755 153.649C300.146 152.318 299.642 150.942 299.249 149.532L299.095 149.004L298.971 148.475L298.728 147.415C298.608 146.705 298.46 145.998 298.364 145.292C298.268 144.585 298.168 143.878 298.107 143.172L297.932 141.065C297.833 139.729 297.666 138.398 297.431 137.079C297.328 136.393 297.18 135.748 297.054 135.082C296.927 134.417 296.765 133.754 296.594 133.099C295.955 130.454 295.066 127.877 293.938 125.401C293.366 124.174 292.698 122.993 291.942 121.871C291.185 120.714 290.305 119.643 289.317 118.677Z" fill="#D9D9D9"/>
<path d="M273.452 176.853C273.419 176.8 273.401 176.738 273.399 176.675C273.397 176.612 273.411 176.55 273.44 176.494C273.47 176.439 273.513 176.392 273.566 176.358C273.619 176.324 273.68 176.304 273.743 176.301C276.17 176.159 278.604 176.206 281.023 176.442C282.776 176.637 284.508 176.992 286.196 177.502C286.249 177.519 286.298 177.547 286.338 177.585C286.379 177.623 286.41 177.669 286.43 177.721C286.45 177.773 286.459 177.828 286.454 177.883C286.45 177.939 286.433 177.992 286.406 178.04C285.792 179.107 283.798 181.879 279.839 181.44C276.275 181.042 274.169 178.064 273.452 176.853Z" fill="#D9D9D9"/>
<path d="M288.968 151.676C289.23 151.038 289.627 150.463 290.131 149.992C290.616 149.511 291.172 149.108 291.781 148.798C293.013 148.149 294.481 148.146 295.826 148.283C296.165 148.31 296.501 148.359 296.834 148.427L297.328 148.53C297.5 148.575 297.671 148.633 297.853 148.688C298.504 148.942 299.104 149.309 299.627 149.772C300.632 150.661 301.318 151.745 302.028 152.722L301.87 152.897C301.342 152.52 300.903 152.095 300.426 151.717C299.97 151.343 299.48 151.012 298.961 150.729C298.49 150.461 297.976 150.278 297.442 150.187L297.064 150.146H296.642C296.364 150.137 296.086 150.145 295.809 150.17C295.534 150.195 295.261 150.237 294.992 150.297C294.724 150.376 294.46 150.434 294.203 150.534C293.682 150.702 293.174 150.877 292.639 150.993L290.975 151.422C290.402 151.577 289.805 151.731 289.129 151.868L288.968 151.676Z" fill="#D9D9D9"/>
<path d="M263.159 147.649C264.446 146.724 265.883 146.028 267.406 145.59C268.994 145.127 270.658 144.984 272.302 145.168C272.724 145.202 273.136 145.292 273.564 145.34C273.993 145.388 274.401 145.515 274.823 145.611C275.657 145.844 276.434 146.247 277.105 146.794C278.426 147.892 279.448 149.364 279.678 151.11L279.434 151.288C277.873 150.575 276.669 149.916 275.444 149.33C274.841 149.041 274.271 148.733 273.691 148.393C273.4 148.235 273.105 148.05 272.799 147.913C272.487 147.774 272.168 147.652 271.842 147.549C271.178 147.35 270.495 147.217 269.804 147.151C269.094 147.064 268.378 147.042 267.664 147.086C266.176 147.152 264.707 147.437 263.303 147.933L263.159 147.649Z" fill="#D9D9D9"/>
<path d="M268.511 155.491C268.511 155.893 269.78 157.042 273.389 156.891C274.992 156.822 276.577 156.352 276.542 155.55C276.508 154.747 275.424 153.419 274.038 153.248C271.616 152.932 268.477 154.671 268.511 155.491Z" fill="#D9D9D9"/>
<path d="M271.262 154.462C272.089 152.345 275.866 153.058 275.125 155.926C274.384 158.794 269.938 157.858 271.262 154.462Z" fill="#D9D9D9"/>
<path d="M276.93 156.126C276.567 155.741 276.14 155.422 275.668 155.182C275.269 154.995 274.835 154.892 274.395 154.88C273.439 154.888 272.487 154.996 271.554 155.203C270.488 155.426 269.407 155.572 268.319 155.642C267.718 155.677 267.115 155.626 266.528 155.491C266.214 155.418 265.916 155.289 265.647 155.11C265.383 154.935 265.183 154.678 265.077 154.379C265.318 154.489 265.581 154.543 265.846 154.537C266.089 154.523 266.331 154.483 266.566 154.417C267.043 154.297 267.52 154.126 268.014 153.954C269.038 153.572 270.091 153.271 271.163 153.055C272.366 152.791 273.618 152.846 274.793 153.216C275.428 153.442 275.983 153.85 276.388 154.39C276.75 154.896 276.94 155.504 276.93 156.126Z" fill="#D9D9D9"/>
<path d="M289.596 157.302C289.596 157.663 290.577 158.702 293.332 158.585C294.557 158.534 295.126 157.899 295.095 157.182C295.064 156.465 294.869 155.467 293.805 155.319C291.943 155.038 289.565 156.582 289.596 157.302Z" fill="#D9D9D9"/>
<path d="M291.867 156.52C292.553 154.736 295.747 155.34 295.123 157.755C294.498 160.17 290.752 159.391 291.867 156.52Z" fill="#D9D9D9"/>
<path d="M296.923 157.457C296.515 157.227 296.165 157.001 295.812 156.846C295.501 156.705 295.168 156.617 294.827 156.585C294.175 156.575 293.528 156.692 292.92 156.929C292.139 157.222 291.336 157.451 290.518 157.615C290.034 157.701 289.537 157.689 289.057 157.58C288.812 157.527 288.583 157.42 288.385 157.267C288.186 157.114 288.025 156.918 287.911 156.695C288.298 156.783 288.702 156.756 289.074 156.62C289.414 156.49 289.743 156.334 290.059 156.153C290.781 155.728 291.541 155.372 292.33 155.09C292.794 154.939 293.276 154.853 293.764 154.836C294.299 154.816 294.831 154.926 295.314 155.155C295.779 155.384 296.174 155.732 296.46 156.164C296.707 156.556 296.865 156.997 296.923 157.457Z" fill="#D9D9D9"/>
<path d="M392.338 493.96C393.454 493.18 394.611 492.46 395.803 491.802L399.172 489.891C400.283 489.26 401.388 488.629 402.482 487.967C403.63 487.306 404.727 486.559 405.762 485.733C405.667 486.461 405.423 487.162 405.045 487.792C404.678 488.409 404.244 488.984 403.752 489.507C402.781 490.537 401.657 491.412 400.421 492.1C399.201 492.792 397.894 493.315 396.534 493.655C395.164 494.004 393.744 494.107 392.338 493.96Z" fill="#D9D9D9"/>
<path d="M247.367 308.989C249.127 307.308 251.618 307.442 253.134 307.658C262.486 308.999 264.514 308.972 267.423 307.888C268.919 307.329 273.626 305.27 276.212 305.462C281.804 305.877 303.521 315.658 303.737 318.307C303.737 318.307 303.901 320.41 303.02 320.784C302.677 320.924 302.677 320.917 302.677 320.935C302.172 321.322 303.202 322.177 302.419 323.092C302.1 323.47 301.596 323.569 300.752 323.652C299.037 323.823 297.685 323.346 296.471 323.562C295.582 323.72 295.441 324.081 294.412 324.592C294.412 324.592 293.356 325.436 291.047 325.278C290.391 325.237 289.654 325.316 284.871 322.773C279.962 320.166 271.722 318.677 271.753 319.103C271.784 319.528 280.947 321.799 283.204 323.333C283.387 323.48 283.53 323.67 283.622 323.886C283.713 324.102 283.75 324.337 283.729 324.571C283.616 325.377 282.94 325.439 282.1 325.58C279.674 325.978 273.866 324.372 267.804 323.261C264.68 322.768 261.515 322.588 258.356 322.722C242.908 323.161 239.254 316.732 247.367 308.989Z" fill="#D9D9D9"/>
<path d="M296.012 323.367C296.141 323.357 296.263 323.308 296.363 323.225C296.462 323.142 296.533 323.031 296.566 322.906C296.599 322.781 296.592 322.649 296.546 322.528C296.5 322.407 296.418 322.303 296.31 322.231C294.44 320.93 292.466 319.782 290.409 318.801C286.574 316.914 281.057 315.051 277.102 313.82C276.945 313.77 276.774 313.786 276.628 313.862C276.482 313.939 276.372 314.07 276.323 314.228C276.274 314.385 276.289 314.556 276.366 314.702C276.443 314.848 276.574 314.957 276.731 315.006C280.646 316.224 286.097 318.067 289.861 319.919C291.865 320.878 293.789 321.997 295.614 323.264C295.731 323.343 295.871 323.379 296.012 323.367Z" fill="#D9D9D9"/>
<path d="M300.584 321.58C300.669 321.574 300.751 321.55 300.826 321.511C300.901 321.471 300.967 321.416 301.02 321.35C301.071 321.286 301.109 321.213 301.132 321.134C301.155 321.056 301.162 320.974 301.154 320.892C301.145 320.811 301.12 320.732 301.08 320.661C301.041 320.589 300.988 320.526 300.924 320.475C299.161 319.028 297.284 317.727 295.311 316.585C291.637 314.399 286.285 312.104 282.443 310.564C282.292 310.513 282.127 310.521 281.982 310.588C281.837 310.654 281.723 310.774 281.664 310.921C281.604 311.069 281.603 311.234 281.661 311.383C281.719 311.531 281.832 311.652 281.976 311.72C285.781 313.243 291.071 315.494 294.67 317.655C296.591 318.763 298.42 320.025 300.138 321.429C300.199 321.482 300.269 321.523 300.346 321.549C300.423 321.575 300.504 321.585 300.584 321.58Z" fill="#D9D9D9"/>
<path d="M225.025 326.472H330.583V321.504H227.392C226.671 321.504 224.153 324.835 224.153 324.835C223.597 325.48 224.074 326.458 225.004 326.472H225.025Z" fill="#D9D9D9"/>
<path d="M287.314 325.899H370.933C372.65 325.897 374.32 325.336 375.689 324.299C377.058 323.263 378.051 321.808 378.519 320.156L398.262 249.971C398.415 249.427 398.44 248.855 398.335 248.299C398.23 247.744 397.998 247.22 397.656 246.77C397.315 246.319 396.874 245.954 396.368 245.702C395.862 245.45 395.304 245.319 394.739 245.319H310.173C308.441 245.319 306.756 245.885 305.376 246.931C303.995 247.977 302.994 249.446 302.526 251.114L283.064 320.29C282.88 320.946 282.85 321.636 282.977 322.306C283.104 322.976 283.384 323.607 283.796 324.15C284.207 324.693 284.739 325.134 285.35 325.437C285.96 325.741 286.633 325.899 287.314 325.899Z" fill="#D9D9D9"/>
<path d="M287.338 326.472H371.238C372.936 326.472 374.588 325.917 375.942 324.891C377.296 323.865 378.278 322.425 378.737 320.791L398.357 251.038C398.465 250.654 398.483 250.25 398.409 249.858C398.335 249.466 398.171 249.097 397.93 248.779C397.689 248.46 397.378 248.202 397.02 248.025C396.663 247.847 396.269 247.755 395.87 247.755H311.973C310.275 247.754 308.622 248.309 307.268 249.335C305.914 250.36 304.933 251.801 304.474 253.436L284.85 323.189C284.742 323.573 284.725 323.977 284.799 324.369C284.873 324.761 285.037 325.13 285.278 325.448C285.519 325.766 285.83 326.024 286.188 326.202C286.545 326.379 286.939 326.472 287.338 326.472Z" fill="#D9D9D9"/>
<path d="M381.257 39.25C375.14 39.7749 370.182 38.1933 366.532 34.5431C364.1 32.1176 362.299 28.8036 361.016 24.4192L365.777 23.0264C367.445 28.7384 370.666 35.1812 380.831 34.3064L381.257 39.25Z" fill="#D9D9D9"/>
<path d="M596.788 324.42C589.042 325.086 582.767 323.082 578.146 318.465C575.058 315.377 572.784 311.198 571.161 305.648L577.189 303.884C579.302 311.113 583.364 319.271 596.25 318.163L596.788 324.42Z" fill="#D9D9D9"/>
<path d="M584.475 380.36C586.77 375.962 589.998 373.273 594.08 372.367C596.787 371.763 599.827 371.969 603.371 372.995L602.256 376.844C597.642 375.506 591.854 374.906 588.043 382.213L584.475 380.36Z" fill="#D9D9D9"/>
<path d="M582.76 177.838C585.055 173.44 588.283 170.75 592.366 169.845C595.072 169.241 598.112 169.447 601.656 170.476L600.541 174.322C595.923 172.984 590.139 172.383 586.324 179.691L582.76 177.838Z" fill="#D9D9D9"/>
<path d="M21.5107 296.512C29.2572 297.177 35.5285 295.174 40.153 290.556C43.2406 287.469 45.5117 283.29 47.1378 277.739L41.1101 275.976C38.9968 283.208 34.9349 291.362 22.0494 290.258L21.5107 296.512Z" fill="#D9D9D9"/>
<path d="M18.8795 335.021C16.5844 330.623 13.3596 327.933 9.27366 327.027C6.56344 326.424 3.52727 326.629 -0.0166016 327.659L1.09836 331.504C5.7126 330.167 11.5001 329.57 15.3116 336.873L18.8795 335.021Z" fill="#D9D9D9"/>
<path d="M29.463 360.806C23.95 363.509 20.5227 367.423 19.2739 372.432C18.4437 375.763 18.5878 379.53 19.768 383.949L24.5709 382.686C23.0545 376.933 22.4919 369.753 31.6518 365.259L29.463 360.806Z" fill="#D9D9D9"/>
<path d="M547.825 169.395C540.562 163.954 536.655 157.288 536.212 149.587C535.921 144.523 537.169 139.137 540.027 133.119L549.372 137.579C544.446 147.936 545.839 154.973 554.031 161.11L547.825 169.395Z" fill="#D9D9D9"/>
<path d="M304.581 69.9233C308.032 63.3124 312.883 59.2677 318.99 57.916C323.062 57.0103 327.628 57.319 332.96 58.8663L331.282 64.6504C324.342 62.64 315.642 61.7377 309.909 72.7227L304.581 69.9233Z" fill="#D9D9D9"/>
<path d="M270.075 64.1048C262.812 58.6638 258.905 51.998 258.462 44.2962C258.171 39.2325 259.419 33.8464 262.277 27.829L271.626 32.2888C266.696 42.646 268.089 49.6823 276.281 55.8197L270.075 64.1048Z" fill="#D9D9D9"/>
<path d="M105.657 67.4739C100.141 70.1738 96.7103 74.0813 95.4581 79.0901C94.6278 82.4247 94.7719 86.1916 95.9452 90.6103L100.748 89.3512C99.2386 83.5946 98.6897 76.4142 107.846 71.9269L105.657 67.4739Z" fill="#D9D9D9"/>
<path d="M67.4707 136.145C73.7145 142.732 80.7851 145.844 88.4869 145.408C93.554 145.113 98.755 143.25 104.392 139.717L98.9025 130.948C89.1834 137.041 82.0305 136.468 74.9907 129.041L67.4707 136.145Z" fill="#D9D9D9"/>
</g>
<defs>
<clipPath id="clip0_54_53">
<rect width="630" height="566.059" fill="white"/>
</clipPath>
</defs>
</svg>
