<svg width="548" height="548" viewBox="0 0 548 548" fill="none" xmlns="http://www.w3.org/2000/svg">
<g clip-path="url(#clip0_86_81)">
<path d="M243.16 206.638C230.668 173.383 193.389 156.913 160.457 170.185C137.928 130.058 77.5779 140.198 69.3107 185.326C56.9731 181.291 43.6923 181.174 31.2853 184.988C18.8784 188.803 7.95159 196.365 0 206.638H243.16Z" fill="#D9D9D9"/>
<path d="M168.404 494.55H24.5235C24.3997 494.55 24.2785 494.515 24.1736 494.45C24.0687 494.384 23.9843 494.29 23.9301 494.179C23.8759 494.067 23.854 493.943 23.8669 493.819C23.8798 493.696 23.9271 493.579 24.0032 493.481C28.7344 487.421 35.1822 482.932 42.5027 480.603C49.8233 478.273 57.6754 478.211 65.0317 480.425C67.5672 468.165 76.7733 459.311 89.2236 457.229C101.743 455.133 113.386 460.595 119.757 471.492C124.443 469.684 129.44 468.823 134.459 468.959C139.479 469.096 144.422 470.227 149.002 472.287C153.583 474.347 157.711 477.296 161.147 480.963C164.583 484.63 167.26 488.943 169.023 493.652C169.061 493.752 169.074 493.86 169.06 493.967C169.047 494.073 169.009 494.175 168.948 494.263C168.887 494.351 168.806 494.424 168.711 494.474C168.617 494.524 168.511 494.55 168.404 494.55ZM25.9078 493.227H167.438C163.792 484.201 156.718 476.995 147.77 473.19C138.822 469.385 128.731 469.292 119.715 472.933C119.565 472.992 119.399 472.994 119.248 472.939C119.096 472.884 118.97 472.775 118.893 472.633C111.69 459.805 98.953 456.93 89.4389 458.523C77.3085 460.553 68.3984 469.303 66.1858 481.386C66.1701 481.478 66.1354 481.565 66.0839 481.643C66.0324 481.72 65.9652 481.786 65.8868 481.836C65.8062 481.884 65.7162 481.914 65.6228 481.925C65.5293 481.935 65.4348 481.925 65.3456 481.895C58.3911 479.654 50.928 479.534 43.9054 481.552C36.8828 483.57 30.6181 487.633 25.9078 493.227Z" fill="#D9D9D9"/>
<path d="M546.807 275.38H395.275C395.152 275.38 395.031 275.345 394.927 275.279C394.822 275.213 394.738 275.12 394.684 275.009C394.63 274.898 394.608 274.774 394.621 274.652C394.633 274.529 394.68 274.412 394.755 274.314C399.737 267.932 406.529 263.207 414.239 260.757C421.949 258.307 430.219 258.248 437.963 260.587C440.618 247.672 450.312 238.338 463.42 236.146C476.596 233.945 488.855 239.694 495.556 251.178C500.487 249.27 505.748 248.359 511.033 248.499C516.318 248.639 521.523 249.827 526.347 251.995C531.17 254.163 535.517 257.267 539.135 261.128C542.753 264.988 545.571 269.529 547.426 274.488C547.465 274.588 547.479 274.697 547.467 274.804C547.454 274.911 547.416 275.013 547.355 275.102C547.294 275.19 547.212 275.263 547.116 275.312C547.021 275.362 546.915 275.387 546.807 275.386V275.38ZM396.656 274.06H545.841C543.943 269.342 541.136 265.044 537.579 261.413C534.022 257.782 529.786 254.888 525.113 252.897C520.439 250.906 515.42 249.856 510.341 249.808C505.263 249.759 500.224 250.714 495.514 252.616C495.364 252.675 495.198 252.677 495.046 252.622C494.895 252.567 494.769 252.458 494.692 252.316C487.1 238.787 473.669 235.763 463.638 237.439C450.847 239.578 441.449 248.819 439.12 261.545C439.105 261.637 439.07 261.725 439.019 261.802C438.967 261.88 438.9 261.945 438.821 261.995C438.74 262.042 438.65 262.072 438.557 262.082C438.464 262.092 438.369 262.083 438.28 262.055C430.936 259.688 423.055 259.566 415.641 261.704C408.228 263.842 401.619 268.144 396.656 274.06Z" fill="#D9D9D9"/>
<path d="M278.663 269.625H243.859V313.519H278.663V269.625Z" fill="#D9D9D9"/>
<path d="M243.859 288.164V272.892H278.66V304.11C273.14 305.224 267.427 304.894 262.071 303.152C250.82 299.453 245.295 290.634 243.859 288.164Z" fill="#D9D9D9"/>
<path d="M265.976 290.311C281.434 290.311 293.966 276.442 293.966 259.333C293.966 242.224 281.434 228.354 265.976 228.354C250.518 228.354 237.987 242.224 237.987 259.333C237.987 276.442 250.518 290.311 265.976 290.311Z" fill="#D9D9D9"/>
<path d="M281.626 285.678C281.486 285.68 281.349 285.637 281.235 285.555C281.12 285.473 281.035 285.357 280.991 285.224C280.947 285.091 280.947 284.947 280.99 284.813C281.033 284.679 281.118 284.563 281.231 284.481C288.793 278.827 293.305 269.424 293.305 259.327C293.305 251.217 290.455 243.593 285.277 237.865C285.218 237.8 285.172 237.725 285.142 237.643C285.113 237.56 285.099 237.473 285.103 237.386C285.107 237.299 285.128 237.213 285.165 237.134C285.202 237.055 285.254 236.983 285.319 236.924C285.383 236.865 285.458 236.82 285.54 236.79C285.622 236.76 285.71 236.747 285.797 236.751C285.884 236.755 285.969 236.776 286.048 236.813C286.128 236.85 286.199 236.902 286.257 236.966C291.639 242.937 294.629 250.876 294.629 259.315C294.629 269.828 289.917 279.629 282.024 285.532C281.911 285.624 281.771 285.675 281.626 285.678Z" fill="#D9D9D9"/>
<path d="M265.977 228.354C251.625 228.354 239.82 240.293 238.17 255.679L292.74 250.289C289.263 237.601 278.597 228.354 265.977 228.354Z" fill="#D9D9D9"/>
<path d="M253.996 272.778C256.233 274.836 258.963 276.279 261.921 276.968C264.879 277.658 267.964 277.569 270.878 276.712C273.792 275.855 276.435 274.258 278.551 272.076C280.667 269.894 282.184 267.201 282.954 264.259L253.996 272.778Z" fill="#D9D9D9"/>
<path d="M346.437 190.174L264.834 251.972L164.76 230.648L246.365 168.853L346.437 190.174Z" fill="#D9D9D9"/>
<path d="M287.782 210.514L226.49 224.168L233.277 254.726L294.568 241.072L287.782 210.514Z" fill="#D9D9D9"/>
<path d="M233.282 255.386C233.132 255.386 232.986 255.334 232.869 255.24C232.752 255.146 232.671 255.014 232.639 254.868L225.849 224.323C225.811 224.153 225.842 223.974 225.935 223.826C226.028 223.676 226.177 223.569 226.348 223.527L287.643 209.872C287.814 209.835 287.992 209.867 288.14 209.961C288.288 210.055 288.393 210.204 288.432 210.375L295.219 240.919C295.239 241.004 295.241 241.092 295.226 241.178C295.211 241.264 295.18 241.346 295.132 241.419C295.087 241.494 295.027 241.559 294.956 241.61C294.885 241.662 294.805 241.698 294.72 241.719L233.425 255.371C233.378 255.382 233.33 255.387 233.282 255.386ZM227.281 224.668L233.784 253.936L293.787 240.572L287.284 211.303L227.281 224.668Z" fill="#D9D9D9"/>
<path d="M363.709 291.674H329.163L346.436 219.685L363.709 291.674Z" fill="#D9D9D9"/>
<path d="M363.698 292.335H329.561C329.386 292.335 329.218 292.266 329.094 292.141C328.97 292.017 328.9 291.849 328.9 291.674C328.9 291.498 328.97 291.33 329.094 291.206C329.218 291.081 329.386 291.012 329.561 291.012H362.873L345.797 219.838C345.784 219.788 345.777 219.736 345.776 219.685V190.177C345.776 190.001 345.845 189.833 345.969 189.709C346.093 189.585 346.261 189.515 346.437 189.515C346.612 189.515 346.78 189.585 346.904 189.709C347.028 189.833 347.097 190.001 347.097 190.177V219.607L364.353 291.521C364.376 291.618 364.377 291.719 364.356 291.817C364.335 291.915 364.291 292.007 364.229 292.085C364.167 292.164 364.088 292.227 363.998 292.27C363.908 292.314 363.81 292.336 363.71 292.335H363.698Z" fill="#D9D9D9"/>
<path d="M360.453 278.102L329.166 291.668L329.163 291.674H363.709L360.453 278.102Z" fill="#D9D9D9"/>
<path d="M368.129 548H188.746V474.211H145.66V405.388C145.66 353.514 187.654 311.461 239.462 311.461H311.927C342.966 311.461 368.138 336.657 368.138 367.738L368.129 548Z" fill="#D9D9D9"/>
<path d="M312.868 270.331L255.735 295.102L261.67 308.826L318.803 284.055C319.66 283.683 320.436 283.146 321.087 282.474C321.737 281.801 322.248 281.007 322.592 280.137C322.936 279.266 323.105 278.337 323.09 277.401C323.075 276.465 322.876 275.541 322.505 274.682L322.226 274.039C321.855 273.18 321.318 272.403 320.647 271.751C319.976 271.1 319.183 270.588 318.314 270.244C317.445 269.9 316.517 269.73 315.582 269.745C314.648 269.76 313.725 269.959 312.868 270.331Z" fill="#D9D9D9"/>
<path d="M265.728 290.772L235.625 303.825L227.238 330.585L242.305 365.704L289.215 345.366L265.728 290.772Z" fill="#D9D9D9"/>
<path d="M304.55 304.963L301.387 297.657L287.683 303.598L291.271 311.917L269.965 321.155L275.897 334.879L296.202 326.075C298.135 325.238 299.884 324.029 301.35 322.515C302.816 321.001 303.969 319.213 304.745 317.252C305.52 315.291 305.902 313.197 305.869 311.088C305.835 308.98 305.387 306.898 304.55 304.963Z" fill="#D9D9D9"/>
<path d="M302.613 323.781L298.776 315.049L285.061 320.993L288.649 329.312L267.343 338.55L273.278 352.274L295.066 342.91C296.822 342.158 298.411 341.065 299.743 339.694C301.074 338.322 302.121 336.701 302.823 334.922C303.524 333.143 303.867 331.243 303.831 329.33C303.795 327.418 303.381 325.532 302.613 323.781Z" fill="#D9D9D9"/>
<path d="M279.777 317.848L235.583 303.833L211.61 379.658L255.804 393.673L279.777 317.848Z" fill="#D9D9D9"/>
<path d="M243.324 318.732L261.805 313.342C261.805 313.342 249.406 290.622 246.493 285.029C245.919 284.163 243.629 277.695 235.344 271.718C235.137 271.64 228.06 265.319 219.198 269.945L218.971 270.065C218.12 270.509 217.396 271.164 216.87 271.968C216.344 272.771 216.032 273.696 215.964 274.655C215.896 275.614 216.075 276.574 216.483 277.443C216.891 278.313 217.515 279.064 218.295 279.624C222.325 282.504 225.432 284.358 228.006 289.305L243.324 318.732Z" fill="#D9D9D9"/>
<path d="M264.353 307.372L304.706 289.874L306.3 293.56C307.45 296.222 307.498 299.233 306.432 301.931C305.366 304.629 303.274 306.792 300.616 307.944L270.285 321.096L264.353 307.372Z" fill="#D9D9D9"/>
<path d="M221.046 349.92L211.646 379.647L255.84 393.658L267.424 357.898L221.046 349.92Z" fill="#D9D9D9"/>
<path d="M255.841 394.32C255.773 394.32 255.705 394.308 255.64 394.287L211.445 380.276C211.279 380.223 211.14 380.106 211.059 379.95C210.978 379.795 210.962 379.614 211.015 379.446L234.866 303.909L227.418 289.601C225.169 285.28 222.475 283.379 219.064 280.971C218.693 280.708 218.31 280.441 217.922 280.163C217.048 279.539 216.349 278.701 215.89 277.729C215.432 276.757 215.23 275.684 215.303 274.612C215.377 273.54 215.723 272.505 216.31 271.605C216.897 270.705 217.704 269.971 218.654 269.472L218.893 269.349C226.617 265.319 233.135 269.206 235.578 271.065L235.682 271.143L235.73 271.173C242.966 276.392 245.696 281.953 246.724 284.032C246.859 284.307 246.984 284.565 247.044 284.651L247.08 284.714C248.031 286.541 250.094 290.386 253.206 296.135C253.252 296.212 253.282 296.297 253.293 296.385C253.305 296.474 253.299 296.563 253.276 296.649C253.252 296.735 253.212 296.815 253.157 296.885C253.101 296.955 253.033 297.013 252.954 297.055C252.876 297.098 252.79 297.124 252.702 297.133C252.613 297.141 252.524 297.132 252.439 297.105C252.354 297.078 252.276 297.034 252.208 296.976C252.141 296.918 252.086 296.847 252.046 296.767C248.946 291.036 246.886 287.185 245.923 285.352C245.824 285.193 245.708 284.96 245.54 284.615C244.553 282.609 241.934 277.288 234.986 272.266C234.914 272.22 234.845 272.17 234.779 272.116C232.537 270.409 226.557 266.84 219.5 270.523L219.264 270.646C218.511 271.038 217.872 271.617 217.407 272.328C216.942 273.039 216.667 273.857 216.609 274.705C216.551 275.553 216.711 276.402 217.074 277.17C217.438 277.937 217.992 278.599 218.684 279.091C219.07 279.369 219.45 279.636 219.817 279.896C223.375 282.405 226.186 284.388 228.584 288.996L236.158 303.55C236.238 303.705 236.254 303.886 236.202 304.053L212.468 379.216L255.407 392.829L267.965 354.119C267.993 354.029 268.041 353.946 268.104 353.876C268.168 353.806 268.246 353.751 268.333 353.714L294.899 342.275C296.566 341.557 298.076 340.516 299.341 339.212C300.607 337.908 301.603 336.367 302.272 334.677C302.941 332.987 303.271 331.182 303.242 329.364C303.214 327.546 302.827 325.751 302.104 324.083L301.312 322.257C301.251 322.098 301.254 321.921 301.32 321.764C301.385 321.606 301.509 321.48 301.666 321.412C301.822 321.344 301.998 321.34 302.158 321.399C302.318 321.458 302.449 321.576 302.523 321.73L303.315 323.559C304.108 325.387 304.532 327.353 304.563 329.345C304.595 331.337 304.233 333.316 303.5 335.167C302.766 337.019 301.675 338.708 300.288 340.136C298.901 341.565 297.247 342.705 295.419 343.491L269.107 354.807L256.457 393.859C256.414 393.991 256.332 394.106 256.222 394.188C256.112 394.271 255.978 394.317 255.841 394.32Z" fill="#D9D9D9"/>
<path d="M275.909 335.534C275.758 335.533 275.612 335.48 275.495 335.384C275.378 335.289 275.298 335.156 275.267 335.007C275.236 334.859 275.257 334.705 275.326 334.571C275.395 334.436 275.508 334.329 275.646 334.268L295.948 325.464C299.659 323.843 302.584 320.824 304.091 317.06C305.597 313.296 305.563 309.089 303.997 305.349C303.934 305.189 303.936 305.01 304.003 304.851C304.07 304.692 304.196 304.565 304.355 304.498C304.513 304.431 304.692 304.429 304.852 304.491C305.013 304.554 305.142 304.677 305.214 304.834C306.911 308.896 306.946 313.463 305.31 317.549C303.674 321.636 300.499 324.914 296.471 326.677L276.169 335.481C276.087 335.516 275.998 335.534 275.909 335.534Z" fill="#D9D9D9"/>
<path d="M271.262 321.337C271.11 321.338 270.962 321.286 270.844 321.19C270.726 321.093 270.644 320.959 270.613 320.81C270.582 320.661 270.604 320.505 270.674 320.37C270.745 320.235 270.859 320.128 270.999 320.068L300.352 307.344C301.589 306.808 302.708 306.033 303.646 305.063C304.584 304.094 305.322 302.948 305.818 301.693C306.314 300.438 306.558 299.097 306.536 297.747C306.515 296.398 306.228 295.065 305.692 293.827L304.197 290.386C304.156 290.233 304.17 290.07 304.239 289.928C304.307 289.785 304.424 289.671 304.569 289.607C304.713 289.544 304.876 289.534 305.027 289.58C305.179 289.626 305.308 289.725 305.393 289.859L306.888 293.303C308.108 296.126 308.159 299.319 307.028 302.18C305.898 305.041 303.679 307.334 300.86 308.557L271.511 321.284C271.432 321.317 271.348 321.335 271.262 321.337Z" fill="#D9D9D9"/>
<path d="M263.488 308.7C263.337 308.699 263.191 308.646 263.074 308.551C262.958 308.455 262.877 308.322 262.846 308.173C262.816 308.025 262.836 307.871 262.905 307.737C262.974 307.602 263.087 307.495 263.225 307.434L318.54 283.448C319.318 283.11 320.022 282.623 320.612 282.013C321.202 281.404 321.666 280.683 321.978 279.894C322.29 279.104 322.444 278.261 322.431 277.412C322.417 276.563 322.237 275.725 321.901 274.946L321.622 274.302C320.94 272.73 319.663 271.493 318.071 270.862C316.479 270.232 314.702 270.26 313.131 270.939L247.011 299.609C246.85 299.679 246.668 299.682 246.504 299.617C246.341 299.553 246.21 299.426 246.14 299.265C246.071 299.103 246.068 298.921 246.132 298.758C246.197 298.594 246.323 298.463 246.484 298.393L312.605 269.724C314.498 268.906 316.638 268.874 318.556 269.634C320.473 270.394 322.011 271.884 322.833 273.778L323.111 274.419C323.518 275.358 323.736 276.368 323.752 277.391C323.769 278.414 323.584 279.43 323.208 280.382C322.832 281.333 322.272 282.201 321.561 282.936C320.85 283.67 320.001 284.257 319.063 284.663L263.748 308.647C263.666 308.682 263.578 308.7 263.488 308.7Z" fill="#D9D9D9"/>
<path d="M280.329 373.101L202.126 348.42L196.684 365.704L145.66 405.388V494.398C145.661 505.9 150.223 516.931 158.343 525.065C166.463 533.199 177.476 537.77 188.961 537.773H198.167C206.962 537.777 215.529 534.971 222.622 529.764C229.716 524.557 234.966 517.22 237.611 508.819L280.329 373.101Z" fill="#D9D9D9"/>
<path d="M250.883 439.699L198.453 415.824L178.968 458.772L231.4 482.641L250.883 439.699Z" fill="#D9D9D9"/>
<path d="M145.307 407.763L138.37 410.679C136.67 411.395 135.269 412.677 134.406 414.308C133.542 415.939 133.268 417.82 133.631 419.63L135.317 428.063L152.007 420.732L221.596 452.39L228.21 437.807L162.729 408.023C159.999 406.781 157.043 406.116 154.045 406.071C151.047 406.027 148.072 406.602 145.307 407.763Z" fill="#D9D9D9"/>
<path d="M151.58 399.642L147.655 401.295C145.953 402.009 144.551 403.292 143.687 404.925C142.823 406.558 142.551 408.44 142.915 410.251L144.602 418.684L161.295 411.347L226.715 441.107L231.32 430.964L220.215 425.913C215.623 423.816 209.451 415.656 199.076 410.94L175.001 399.98C171.331 398.31 167.356 397.419 163.326 397.36C159.296 397.302 155.297 398.079 151.58 399.642Z" fill="#D9D9D9"/>
<path d="M139.235 416.839L130.911 420.34C129.211 421.054 127.811 422.336 126.947 423.967C126.083 425.597 125.809 427.477 126.172 429.287L127.858 437.72L144.551 430.383L187.663 449.998L194.28 435.405L153.916 417.046C151.615 416 149.123 415.442 146.597 415.407C144.07 415.371 141.564 415.859 139.235 416.839Z" fill="#D9D9D9"/>
<path d="M136.459 428.371L127.788 432.024C126.884 432.392 126.063 432.937 125.372 433.627C124.68 434.316 124.134 435.137 123.763 436.041C123.392 436.945 123.205 437.914 123.213 438.891C123.221 439.868 123.423 440.834 123.808 441.732C124.193 442.63 124.753 443.442 125.455 444.12C126.157 444.799 126.987 445.33 127.897 445.684C128.806 446.037 129.777 446.205 130.753 446.178C131.728 446.151 132.688 445.93 133.577 445.527L138.343 443.431C139.468 442.936 140.685 442.684 141.913 442.692C143.142 442.699 144.355 442.966 145.474 443.475L181.677 459.945C191.143 464.252 198.05 466.74 213.544 456.834L151.409 428.59C149.067 427.523 146.53 426.952 143.957 426.915C141.384 426.877 138.832 427.373 136.459 428.371Z" fill="#D9D9D9"/>
<path d="M234.621 432.294L250.883 439.699L231.4 482.641L209.319 472.588L234.621 432.294Z" fill="#D9D9D9"/>
<path d="M133.557 419.873C133.404 419.873 133.257 419.82 133.139 419.723C133.021 419.627 132.941 419.492 132.911 419.342C132.131 415.45 134.221 411.709 138.114 410.059L145.053 407.143C147.904 405.948 150.97 405.354 154.06 405.399C157.151 405.443 160.198 406.124 163.014 407.4L175.823 413.246C175.91 413.276 175.99 413.324 176.058 413.386C176.126 413.449 176.179 413.526 176.216 413.61C176.252 413.695 176.27 413.787 176.269 413.879C176.268 413.972 176.248 414.063 176.209 414.147C176.171 414.231 176.115 414.306 176.046 414.367C175.977 414.428 175.896 414.474 175.808 414.502C175.72 414.53 175.628 414.539 175.536 414.529C175.444 414.519 175.356 414.49 175.276 414.443L162.473 408.616C159.823 407.416 156.955 406.775 154.047 406.733C151.139 406.691 148.254 407.25 145.57 408.373L138.631 411.29C135.282 412.698 133.548 415.758 134.212 419.076C134.246 419.248 134.211 419.426 134.114 419.572C134.017 419.718 133.866 419.82 133.694 419.855C133.649 419.865 133.603 419.871 133.557 419.873Z" fill="#D9D9D9"/>
<path d="M126.826 433.219C126.674 433.219 126.526 433.165 126.408 433.068C126.291 432.971 126.21 432.836 126.18 432.686L125.523 429.392C125.135 427.433 125.434 425.399 126.369 423.634C127.305 421.87 128.819 420.482 130.656 419.705L138.977 416.204C141.392 415.191 143.989 414.688 146.607 414.726C149.224 414.763 151.806 415.341 154.19 416.423L171.039 424.086C171.126 424.116 171.206 424.164 171.274 424.227C171.341 424.29 171.395 424.366 171.431 424.451C171.468 424.536 171.486 424.627 171.485 424.72C171.484 424.812 171.464 424.903 171.425 424.987C171.387 425.071 171.331 425.146 171.262 425.207C171.193 425.269 171.112 425.315 171.024 425.343C170.936 425.371 170.843 425.38 170.752 425.37C170.66 425.359 170.572 425.33 170.492 425.284L153.646 417.621C151.427 416.615 149.025 416.077 146.589 416.042C144.153 416.007 141.736 416.475 139.489 417.417L131.168 420.918C129.611 421.576 128.328 422.752 127.536 424.247C126.743 425.742 126.489 427.465 126.817 429.126L127.475 432.42C127.492 432.516 127.489 432.614 127.464 432.708C127.44 432.803 127.395 432.89 127.333 432.966C127.272 433.041 127.194 433.102 127.107 433.144C127.019 433.186 126.923 433.209 126.826 433.21V433.219Z" fill="#D9D9D9"/>
<path d="M195.037 464.422C191.654 464.422 188.31 463.697 185.23 462.296L145.191 444.089C144.156 443.619 143.034 443.373 141.897 443.365C140.761 443.358 139.636 443.591 138.595 444.047L133.832 446.144C132.863 446.581 131.818 446.82 130.756 446.848C129.694 446.876 128.637 446.692 127.647 446.306C126.657 445.921 125.754 445.341 124.99 444.602C124.226 443.863 123.616 442.979 123.197 442.002C122.778 441.024 122.557 439.973 122.548 438.909C122.539 437.845 122.742 436.79 123.144 435.806C123.547 434.821 124.141 433.927 124.892 433.175C125.643 432.422 126.537 431.828 127.52 431.425L136.191 427.775C138.647 426.745 141.289 426.234 143.951 426.272C146.613 426.311 149.239 426.899 151.664 428L165.684 434.375C165.771 434.405 165.851 434.453 165.919 434.516C165.987 434.579 166.04 434.655 166.077 434.74C166.113 434.825 166.131 434.916 166.13 435.009C166.129 435.101 166.109 435.192 166.07 435.276C166.032 435.36 165.976 435.435 165.907 435.496C165.838 435.558 165.757 435.604 165.669 435.632C165.581 435.66 165.489 435.669 165.397 435.659C165.305 435.649 165.217 435.619 165.137 435.573L151.12 429.194C148.86 428.171 146.413 427.624 143.933 427.589C141.452 427.553 138.991 428.029 136.702 428.988L128.031 432.638C127.194 432.963 126.431 433.453 125.788 434.079C125.144 434.706 124.633 435.456 124.286 436.284C123.938 437.113 123.761 438.003 123.765 438.902C123.769 439.801 123.953 440.69 124.308 441.516C124.662 442.341 125.179 443.087 125.828 443.708C126.477 444.329 127.244 444.813 128.084 445.13C128.923 445.448 129.818 445.592 130.715 445.555C131.612 445.518 132.492 445.301 133.303 444.916L138.066 442.82C139.277 442.294 140.585 442.028 141.905 442.04C143.225 442.053 144.528 442.343 145.729 442.891L185.771 461.107C189.103 462.623 192.755 463.299 196.408 463.074C200.061 462.849 203.603 461.73 206.725 459.817C206.799 459.767 206.882 459.733 206.969 459.716C207.057 459.7 207.147 459.701 207.234 459.72C207.321 459.74 207.403 459.776 207.476 459.828C207.548 459.88 207.609 459.946 207.656 460.022C207.702 460.098 207.733 460.183 207.746 460.271C207.759 460.36 207.753 460.45 207.731 460.536C207.708 460.622 207.668 460.703 207.613 460.773C207.559 460.844 207.49 460.902 207.412 460.946C203.685 463.222 199.403 464.425 195.037 464.422Z" fill="#D9D9D9"/>
<path d="M231.398 483.318C231.304 483.317 231.211 483.297 231.126 483.258L171.383 456.068C171.295 456.038 171.214 455.991 171.146 455.928C171.077 455.866 171.022 455.789 170.985 455.704C170.948 455.619 170.929 455.527 170.93 455.434C170.931 455.341 170.951 455.25 170.989 455.165C171.028 455.081 171.083 455.005 171.153 454.944C171.222 454.882 171.304 454.836 171.392 454.808C171.481 454.78 171.574 454.771 171.666 454.782C171.759 454.792 171.847 454.822 171.927 454.87L231.072 481.773L250.007 440.035L222.078 427.32C217.808 425.377 214.884 422.933 211.79 420.346C208.202 417.351 204.147 413.958 197.196 410.799L174.732 400.582C171.143 398.955 167.259 398.086 163.32 398.03C159.382 397.973 155.474 398.73 151.841 400.252L147.918 401.902C146.571 402.466 145.425 403.42 144.625 404.642C143.826 405.865 143.41 407.299 143.433 408.76C143.434 408.847 143.418 408.933 143.386 409.013C143.354 409.094 143.306 409.167 143.245 409.229C143.185 409.291 143.113 409.341 143.033 409.375C142.953 409.409 142.868 409.427 142.781 409.428C142.607 409.426 142.441 409.357 142.316 409.236C142.192 409.114 142.12 408.949 142.114 408.775C142.09 407.051 142.582 405.359 143.526 403.918C144.471 402.477 145.826 401.352 147.415 400.69L151.338 399.04C155.14 397.447 159.228 396.655 163.349 396.714C167.469 396.773 171.534 397.682 175.288 399.384L197.755 409.601C204.865 412.835 209 416.291 212.648 419.337C215.671 421.864 218.529 424.254 222.637 426.122L251.168 439.1C251.326 439.174 251.449 439.306 251.511 439.469C251.543 439.55 251.557 439.637 251.554 439.724C251.551 439.811 251.53 439.896 251.493 439.975L232.011 482.92C231.959 483.039 231.873 483.14 231.764 483.211C231.655 483.282 231.528 483.319 231.398 483.318Z" fill="#D9D9D9"/>
<path d="M320.517 311.545H307.188L344.263 381.504L353.831 447.982L242.852 408.392L212.794 490.418L328.207 531.605C377.329 549.135 427.501 508.208 420.298 456.49L411.095 390.481C404.789 345.207 366.141 311.536 320.517 311.545Z" fill="#D9D9D9"/>
<path d="M246.207 502.309L281.847 422.271L242.858 408.362L212.8 490.388L246.207 502.309Z" fill="#D9D9D9"/>
<path d="M351.705 536.321C343.624 536.311 335.605 534.913 327.997 532.186L212.584 490.999C212.502 490.969 212.426 490.924 212.362 490.865C212.297 490.806 212.244 490.735 212.207 490.655C212.17 490.576 212.15 490.49 212.146 490.402C212.142 490.315 212.156 490.228 212.187 490.145L242.242 408.122C242.303 407.959 242.425 407.825 242.583 407.752C242.74 407.678 242.921 407.669 243.085 407.727L353.036 446.955L343.626 381.578C343.61 381.409 343.659 381.24 343.764 381.106C343.869 380.972 344.021 380.884 344.19 380.86C344.358 380.835 344.529 380.877 344.667 380.976C344.806 381.074 344.901 381.223 344.933 381.39L354.501 447.851C354.516 447.963 354.503 448.078 354.461 448.184C354.42 448.29 354.352 448.384 354.264 448.456C354.176 448.528 354.071 448.576 353.959 448.596C353.847 448.616 353.732 448.607 353.625 448.569L243.25 409.203L213.649 489.987L328.44 530.952C351.295 539.109 376.169 534.815 394.976 519.468C413.783 504.121 423.001 480.608 419.649 456.553L410.443 390.544C404.218 345.884 365.561 312.204 320.529 312.204H306.126C305.951 312.204 305.782 312.134 305.659 312.01C305.535 311.886 305.465 311.718 305.465 311.542C305.465 311.367 305.535 311.198 305.659 311.074C305.782 310.95 305.951 310.88 306.126 310.88H320.529C342.75 310.876 364.223 318.919 380.988 333.526C397.753 348.132 408.68 368.317 411.753 390.358L420.956 456.367C424.373 480.883 414.976 504.854 395.81 520.489C383.374 530.708 367.791 536.302 351.705 536.321Z" fill="#D9D9D9"/>
<path d="M280.328 373.101L202.125 348.42L196.683 365.704L155.577 495.871C149.026 516.617 164.49 537.761 186.218 537.767H197.006C206.139 537.773 215.036 534.861 222.403 529.455C229.77 524.048 235.223 516.429 237.969 507.705L280.328 373.101Z" fill="#D9D9D9"/>
<path d="M196.51 538.417H189.265C164.864 538.417 144.999 518.528 144.999 494.098V443.61C144.992 443.52 145.005 443.429 145.035 443.344C145.066 443.258 145.113 443.18 145.175 443.114C145.237 443.048 145.312 442.995 145.395 442.959C145.478 442.923 145.567 442.904 145.658 442.904C145.748 442.904 145.838 442.923 145.921 442.959C146.004 442.995 146.079 443.048 146.141 443.114C146.202 443.18 146.25 443.258 146.28 443.344C146.311 443.429 146.323 443.52 146.317 443.61V494.098C146.317 517.812 165.585 537.112 189.265 537.118H196.51C205.652 537.143 214.561 534.236 221.933 528.821C229.304 523.406 234.75 515.769 237.473 507.029L279.491 373.541L202.547 349.258L166.272 464.521C166.214 464.681 166.096 464.812 165.943 464.886C165.791 464.961 165.615 464.975 165.453 464.923C165.291 464.872 165.155 464.76 165.073 464.611C164.991 464.462 164.97 464.287 165.013 464.123L201.491 348.234C201.544 348.067 201.661 347.928 201.816 347.846C201.971 347.765 202.152 347.748 202.319 347.8L280.522 372.484C280.689 372.536 280.829 372.652 280.911 372.807C280.99 372.964 281.005 373.146 280.953 373.314L238.737 507.43C235.926 516.435 230.31 524.301 222.711 529.878C215.112 535.454 205.93 538.447 196.51 538.417Z" fill="#D9D9D9"/>
<path d="M94.1768 281.447C105.455 281.417 114.574 272.237 114.545 260.943C114.515 249.649 105.348 240.518 94.0699 240.547C82.7914 240.577 73.6724 249.757 73.7019 261.051C73.7314 272.345 82.8983 281.476 94.1768 281.447Z" fill="#D9D9D9"/>
<path d="M91.1766 278.739C102.455 278.712 111.576 269.534 111.548 258.24C111.521 246.946 102.355 237.812 91.0768 237.84C79.7983 237.868 70.6776 247.045 70.7052 258.34C70.7327 269.634 79.8981 278.767 91.1766 278.739Z" fill="#D9D9D9"/>
<path d="M84.0542 268.732L85.4086 266.169C83.6356 265.196 82.1196 263.842 81.417 262.743L83.8957 259.985C84.8797 261.425 86.2104 262.593 87.7647 263.381C89.3076 264.142 90.6799 264.067 91.248 262.986C91.7892 261.962 91.266 260.89 89.6185 259.228C87.2265 256.832 85.9707 254.508 87.3521 251.888C88.6049 249.513 91.269 248.474 94.4653 249.334L95.8197 246.767L98.4748 248.073L97.219 250.448C98.5589 251.132 99.7373 252.094 100.675 253.272L98.2835 255.937C97.3792 254.74 96.2105 253.769 94.8689 253.101C93.1078 252.235 92.1391 252.712 91.7414 253.466C91.269 254.365 91.9178 255.392 93.7656 257.386C96.3878 260.105 96.9051 262.228 95.6224 264.66C94.3397 267.091 91.565 268.274 88.1654 267.283L86.7122 270.038L84.0571 268.732H84.0542Z" fill="#D9D9D9"/>
<path d="M98.3703 358.107H1.28872C1.11347 358.107 0.945395 358.038 0.821473 357.913C0.697552 357.789 0.62793 357.621 0.62793 357.445V289.946C0.62793 289.77 0.697552 289.602 0.821473 289.478C0.945395 289.354 1.11347 289.284 1.28872 289.284H98.3703C98.457 289.284 98.543 289.301 98.6231 289.334C98.7033 289.368 98.7762 289.416 98.8375 289.478C98.8989 289.539 98.9476 289.612 98.9808 289.692C99.014 289.773 99.0311 289.859 99.0311 289.946V357.445C99.0311 357.532 99.014 357.618 98.9808 357.699C98.9476 357.779 98.8989 357.852 98.8375 357.913C98.7762 357.975 98.7033 358.024 98.6231 358.057C98.543 358.09 98.457 358.107 98.3703 358.107ZM1.9495 356.787H97.7125V290.607H1.9495V356.787Z" fill="#D9D9D9"/>
<path d="M12.675 340.113C12.5078 340.102 12.3511 340.027 12.2367 339.905C12.1223 339.782 12.0586 339.621 12.0586 339.453C12.0586 339.285 12.1223 339.123 12.2367 339.001C12.3511 338.878 12.5078 338.804 12.675 338.793C13.1504 338.793 60.4129 338.568 77.5575 319.487C82.3175 314.189 84.3447 307.862 83.5882 300.672C83.5743 300.583 83.5785 300.493 83.6006 300.406C83.6227 300.319 83.6623 300.237 83.7169 300.166C83.7716 300.095 83.8401 300.035 83.9183 299.991C83.9966 299.948 84.0829 299.92 84.1721 299.911C84.2613 299.901 84.3514 299.91 84.437 299.937C84.5227 299.964 84.602 300.008 84.6702 300.066C84.7383 300.124 84.794 300.196 84.8336 300.276C84.8733 300.357 84.8961 300.445 84.9008 300.534C85.6992 308.111 83.5583 314.785 78.5382 320.37C60.984 339.88 14.6274 340.113 12.675 340.113Z" fill="#D9D9D9"/>
<path d="M80.1342 308.47C80.0198 308.47 79.9073 308.44 79.8083 308.383C79.657 308.296 79.546 308.153 79.4995 307.985C79.453 307.817 79.4748 307.637 79.5601 307.485L83.6534 300.277C83.7165 300.182 83.8019 300.105 83.9021 300.051C84.0022 299.998 84.114 299.97 84.2275 299.97C84.341 299.97 84.4528 299.998 84.5529 300.051C84.653 300.105 84.7384 300.182 84.8016 300.277L88.8948 307.485C88.9817 307.637 89.0045 307.818 88.9582 307.987C88.9119 308.157 88.8004 308.3 88.6482 308.387C88.4959 308.474 88.3154 308.497 88.1463 308.451C87.9773 308.405 87.8335 308.293 87.7467 308.14L84.2275 301.942L80.7083 308.137C80.6501 308.238 80.5664 308.322 80.4657 308.381C80.3649 308.439 80.2506 308.47 80.1342 308.47Z" fill="#D9D9D9"/>
<path d="M16.7554 304.867C16.6386 304.868 16.5237 304.837 16.4227 304.778C16.3218 304.719 16.2384 304.634 16.1813 304.532L12.6741 298.333L9.13995 304.544C9.09937 304.624 9.04312 304.694 8.97458 304.752C8.90604 304.809 8.82663 304.851 8.74114 304.877C8.65566 304.903 8.56587 304.911 8.47719 304.901C8.38852 304.891 8.30279 304.863 8.22518 304.819C8.14757 304.775 8.0797 304.715 8.02564 304.644C7.97158 304.573 7.93247 304.492 7.91066 304.405C7.88885 304.318 7.8848 304.228 7.89874 304.14C7.91269 304.052 7.94434 303.967 7.9918 303.891L12.0881 296.683C12.1504 296.588 12.2353 296.51 12.3353 296.456C12.4352 296.402 12.547 296.374 12.6606 296.374C12.7742 296.374 12.8861 296.402 12.986 296.456C13.086 296.51 13.1709 296.588 13.2332 296.683L17.3295 303.891C17.4148 304.044 17.4366 304.223 17.3901 304.392C17.3436 304.56 17.2326 304.703 17.0813 304.79C16.9808 304.842 16.8688 304.869 16.7554 304.867Z" fill="#D9D9D9"/>
<path d="M84.7332 350.555C84.6164 350.556 84.5015 350.525 84.4005 350.466C84.2996 350.407 84.2163 350.322 84.1592 350.22C84.0738 350.068 84.0521 349.888 84.0985 349.719C84.145 349.551 84.256 349.408 84.4073 349.321L90.5966 345.797L84.3984 342.275C84.2465 342.189 84.1352 342.045 84.0889 341.876C84.0427 341.708 84.0652 341.528 84.1517 341.375C84.2381 341.223 84.3813 341.112 84.5498 341.066C84.7183 341.019 84.8983 341.042 85.0502 341.128L92.247 345.225C92.3482 345.283 92.4324 345.367 92.4911 345.468C92.5499 345.568 92.5812 345.683 92.5819 345.8C92.5821 345.917 92.5512 346.032 92.4923 346.133C92.4335 346.234 92.3488 346.317 92.247 346.375L85.0502 350.474C84.9532 350.528 84.844 350.556 84.7332 350.555Z" fill="#D9D9D9"/>
<path d="M12.6749 353.46C12.5002 353.459 12.3329 353.389 12.2096 353.265C12.0863 353.141 12.0171 352.973 12.0171 352.798V297.908C12.011 297.818 12.0236 297.727 12.0539 297.642C12.0843 297.556 12.1319 297.478 12.1937 297.412C12.2555 297.345 12.3303 297.293 12.4133 297.257C12.4963 297.22 12.5859 297.202 12.6764 297.202C12.7669 297.202 12.8565 297.22 12.9395 297.257C13.0225 297.293 13.0973 297.345 13.1591 297.412C13.2209 297.478 13.2685 297.556 13.2989 297.642C13.3293 297.727 13.3418 297.818 13.3357 297.908V352.798C13.3357 352.885 13.3186 352.971 13.2854 353.051C13.2522 353.131 13.2035 353.204 13.1422 353.266C13.0808 353.327 13.008 353.376 12.9278 353.409C12.8476 353.443 12.7617 353.46 12.6749 353.46Z" fill="#D9D9D9"/>
<path d="M89.744 346.468H6.84095C6.75064 346.474 6.66004 346.461 6.57478 346.431C6.48951 346.4 6.41139 346.353 6.34526 346.291C6.27914 346.229 6.22642 346.154 6.19038 346.071C6.15434 345.988 6.13574 345.898 6.13574 345.807C6.13574 345.717 6.15434 345.627 6.19038 345.544C6.22642 345.461 6.27914 345.386 6.34526 345.324C6.41139 345.262 6.48951 345.214 6.57478 345.184C6.66004 345.153 6.75064 345.141 6.84095 345.147H89.744C89.8344 345.141 89.925 345.153 90.0102 345.184C90.0955 345.214 90.1736 345.262 90.2397 345.324C90.3059 345.386 90.3586 345.461 90.3946 345.544C90.4307 345.627 90.4492 345.717 90.4492 345.807C90.4492 345.898 90.4307 345.988 90.3946 346.071C90.3586 346.154 90.3059 346.229 90.2397 346.291C90.1736 346.353 90.0955 346.4 90.0102 346.431C89.925 346.461 89.8344 346.474 89.744 346.468Z" fill="#D9D9D9"/>
<path d="M35.7305 289.946C36.9593 293.969 39.4451 297.49 42.8221 299.993C46.1991 302.495 50.2889 303.845 54.4896 303.845C58.6903 303.845 62.7801 302.495 66.1571 299.993C69.5341 297.49 72.0199 293.969 73.2487 289.946H35.7305Z" fill="#D9D9D9"/>
<path d="M70.6744 280.789C70.6915 269.94 61.9223 261.131 51.088 261.114C40.2538 261.097 31.457 269.878 31.44 280.727C31.423 291.577 40.1921 300.385 51.0264 300.402C61.8607 300.42 70.6574 291.638 70.6744 280.789Z" fill="#D9D9D9"/>
<path d="M51.0542 301.052C46.377 301.048 41.8454 299.423 38.2281 296.454C34.6109 293.484 32.1307 289.353 31.2084 284.76C30.2861 280.168 30.9785 275.397 33.1681 271.258C35.3577 267.119 38.9097 263.865 43.2214 262.05C47.5332 260.235 52.3392 259.97 56.8241 261.299C61.309 262.628 65.1966 265.471 67.8274 269.344C70.4582 273.217 71.6702 277.882 71.2578 282.548C70.8453 287.214 68.8339 291.594 65.5646 294.944C63.6765 296.882 61.4196 298.421 58.9273 299.47C56.4349 300.519 53.7578 301.057 51.0542 301.052ZM51.0542 261.782C46.6626 261.786 42.4088 263.318 39.0205 266.116C35.6323 268.915 33.3202 272.805 32.4797 277.122C31.6393 281.439 32.3227 285.914 34.4131 289.782C36.5036 293.651 39.8711 296.671 43.9395 298.327C48.008 299.983 52.5246 300.172 56.7166 298.861C60.9086 297.55 64.5156 294.821 66.9204 291.14C69.3252 287.46 70.3784 283.057 69.8998 278.685C69.4212 274.313 67.4406 270.243 64.2968 267.172C60.7589 263.71 56.0067 261.775 51.0602 261.782H51.0542Z" fill="#D9D9D9"/>
<path d="M56.2986 291.65L54.8335 289.272C53.171 290.275 51.3232 290.871 50.0495 290.937L48.9611 287.541C50.6306 287.421 52.2425 286.879 53.6464 285.966C55.0218 285.05 55.6228 283.87 55.0039 282.879C54.4059 281.932 53.2697 281.851 51.096 282.417C47.9565 283.241 45.415 283.172 43.92 280.755C42.5566 278.563 42.9842 275.85 45.2386 273.608L43.7675 271.242L46.1326 269.667L47.496 271.856C48.7114 271.077 50.0782 270.567 51.5056 270.358L52.5581 273.652C51.1296 273.823 49.7596 274.321 48.5545 275.108C46.9848 276.153 46.913 277.186 47.3585 277.884C47.8698 278.707 49.0389 278.665 51.5863 278.096C55.1085 277.228 57.1178 277.827 58.5141 280.067C59.9104 282.307 59.5516 285.187 57.0849 287.535L58.6666 290.074L56.2986 291.65Z" fill="#D9D9D9"/>
<path d="M125.154 304.122C135.989 304.122 144.772 295.327 144.772 284.478C144.772 273.629 135.989 264.834 125.154 264.834C114.32 264.834 105.537 273.629 105.537 284.478C105.537 295.327 114.32 304.122 125.154 304.122Z" fill="#D9D9D9"/>
<path d="M125.163 304.775C120.434 304.773 115.855 303.116 112.218 300.089C108.58 297.062 106.115 292.856 105.248 288.2C104.382 283.544 105.169 278.731 107.472 274.594C109.776 270.458 113.452 267.259 117.863 265.552C122.274 263.844 127.142 263.735 131.625 265.244C136.107 266.753 139.922 269.785 142.407 273.815C144.893 277.844 145.893 282.617 145.234 287.307C144.575 291.997 142.3 296.309 138.801 299.495C135.071 302.897 130.208 304.78 125.163 304.775ZM125.145 265.504C120.801 265.509 116.591 267.009 113.22 269.753C109.849 272.497 107.521 276.317 106.628 280.575C105.734 284.833 106.329 289.268 108.312 293.139C110.295 297.01 113.546 300.081 117.521 301.837C121.495 303.593 125.951 303.928 130.143 302.785C134.334 301.642 138.006 299.092 140.544 295.561C143.081 292.03 144.33 287.732 144.081 283.389C143.831 279.045 142.099 274.92 139.174 271.703C137.399 269.745 135.233 268.181 132.816 267.113C130.4 266.046 127.787 265.498 125.145 265.504Z" fill="#D9D9D9"/>
<path d="M143.337 274.946C142.541 274.071 141.669 273.269 140.73 272.55C143.626 276.33 145.051 281.034 144.741 285.788C144.432 290.541 142.407 295.02 139.045 298.39C135.683 301.76 131.213 303.792 126.467 304.106C121.721 304.421 117.022 302.997 113.246 300.1C113.584 300.543 113.937 300.974 114.32 301.394C117.855 305.107 122.701 307.287 127.821 307.468C132.941 307.65 137.928 305.817 141.717 302.364C145.505 298.91 147.794 294.109 148.094 288.987C148.394 283.865 146.682 278.829 143.322 274.955L143.337 274.946Z" fill="#D9D9D9"/>
<path d="M129.744 295.662L128.414 293.213C126.694 294.111 124.826 294.602 123.558 294.593L122.661 291.138C124.339 291.119 125.985 290.674 127.445 289.844C128.871 289.011 129.538 287.874 128.979 286.849C128.446 285.87 127.31 285.72 125.092 286.158C121.91 286.795 119.381 286.574 118.023 284.061C116.791 281.795 117.378 279.109 119.761 277.003L118.43 274.554L120.885 273.122L122.117 275.389C123.374 274.679 124.769 274.246 126.207 274.12L127.065 277.456C125.628 277.544 124.231 277.966 122.984 278.686C121.357 279.636 121.223 280.666 121.614 281.381C122.078 282.232 123.247 282.259 125.824 281.843C129.391 281.184 131.362 281.899 132.623 284.217C133.885 286.535 133.356 289.392 130.758 291.59L132.187 294.216L129.744 295.662Z" fill="#D9D9D9"/>
<path d="M525.252 413.997H455.912C455.825 413.997 455.739 413.98 455.659 413.947C455.579 413.914 455.507 413.865 455.446 413.803C455.384 413.742 455.336 413.669 455.303 413.589C455.27 413.508 455.254 413.422 455.254 413.336V343.904C455.254 343.817 455.27 343.731 455.303 343.651C455.336 343.571 455.384 343.498 455.446 343.436C455.507 343.375 455.579 343.326 455.659 343.293C455.739 343.26 455.825 343.242 455.912 343.242H525.252C525.427 343.243 525.594 343.313 525.718 343.437C525.841 343.561 525.91 343.729 525.91 343.904V413.336C525.91 413.511 525.841 413.678 525.718 413.802C525.594 413.926 525.427 413.997 525.252 413.997ZM456.573 412.674H524.592V344.566H456.573V412.674Z" fill="#D9D9D9"/>
<path d="M546.466 392.754H477.129C476.953 392.754 476.785 392.684 476.661 392.56C476.537 392.436 476.468 392.268 476.468 392.092V322.661C476.468 322.485 476.537 322.317 476.661 322.193C476.785 322.069 476.953 321.999 477.129 321.999H546.466C546.641 321.999 546.809 322.069 546.933 322.193C547.057 322.317 547.127 322.485 547.127 322.661V392.092C547.127 392.268 547.057 392.436 546.933 392.56C546.809 392.684 546.641 392.754 546.466 392.754ZM477.786 391.43H545.805V323.323H477.786V391.43Z" fill="#D9D9D9"/>
<path d="M525.252 344.566C525.076 344.565 524.907 344.495 524.783 344.371C524.659 344.247 524.59 344.079 524.59 343.904C524.59 343.729 524.659 343.561 524.783 343.437L546.011 322.194C546.137 322.082 546.301 322.022 546.47 322.027C546.638 322.032 546.798 322.101 546.918 322.22C547.037 322.34 547.106 322.5 547.111 322.669C547.116 322.838 547.056 323.002 546.944 323.128L525.718 344.371C525.594 344.495 525.427 344.565 525.252 344.566Z" fill="#D9D9D9"/>
<path d="M525.252 413.997C525.076 413.997 524.907 413.927 524.783 413.803C524.659 413.679 524.59 413.511 524.59 413.336C524.59 413.16 524.659 412.992 524.783 412.868L546.011 391.625C546.137 391.513 546.301 391.453 546.47 391.458C546.638 391.463 546.798 391.532 546.918 391.652C547.037 391.771 547.106 391.932 547.111 392.1C547.116 392.269 547.056 392.433 546.944 392.559L525.73 413.803C525.668 413.865 525.593 413.915 525.511 413.948C525.429 413.982 525.341 413.998 525.252 413.997Z" fill="#D9D9D9"/>
<path d="M455.911 344.566C455.781 344.566 455.653 344.527 455.545 344.454C455.437 344.381 455.352 344.278 455.302 344.157C455.252 344.036 455.239 343.904 455.265 343.775C455.29 343.647 455.353 343.53 455.445 343.437L476.674 322.194C476.799 322.082 476.963 322.022 477.132 322.027C477.3 322.032 477.461 322.101 477.58 322.22C477.699 322.34 477.768 322.5 477.773 322.669C477.778 322.838 477.718 323.002 477.606 323.128L456.387 344.371C456.324 344.434 456.25 344.484 456.169 344.517C456.087 344.55 455.999 344.567 455.911 344.566Z" fill="#D9D9D9"/>
<path d="M455.911 413.997C455.781 413.997 455.653 413.958 455.545 413.885C455.437 413.813 455.352 413.709 455.302 413.589C455.252 413.468 455.239 413.335 455.265 413.207C455.29 413.079 455.353 412.961 455.445 412.868L476.674 391.625C476.799 391.513 476.963 391.453 477.132 391.458C477.3 391.463 477.461 391.532 477.58 391.652C477.699 391.771 477.768 391.932 477.773 392.1C477.778 392.269 477.718 392.433 477.606 392.559L456.378 413.803C456.316 413.864 456.244 413.913 456.164 413.947C456.084 413.98 455.998 413.997 455.911 413.997Z" fill="#D9D9D9"/>
<path d="M432.467 310.307L420.026 322.753L499.349 402.28L511.789 389.833L432.467 310.307Z" fill="#D9D9D9"/>
<path d="M499.356 402.989C499.27 402.99 499.184 402.973 499.104 402.94C499.024 402.907 498.951 402.859 498.89 402.798L419.557 323.278C419.434 323.153 419.366 322.985 419.365 322.811C419.365 322.724 419.382 322.638 419.414 322.558C419.447 322.478 419.496 322.405 419.557 322.343L431.998 309.898C432.122 309.775 432.289 309.705 432.464 309.705C432.639 309.705 432.807 309.775 432.931 309.898L512.264 389.418C512.325 389.479 512.374 389.552 512.407 389.632C512.441 389.712 512.458 389.798 512.458 389.885C512.458 389.972 512.441 390.058 512.407 390.138C512.374 390.218 512.325 390.291 512.264 390.352L499.823 402.798C499.761 402.859 499.688 402.907 499.608 402.94C499.528 402.973 499.443 402.99 499.356 402.989ZM420.959 322.811L499.356 401.393L510.864 389.888L432.467 311.3L420.959 322.811Z" fill="#D9D9D9"/>
<path d="M499.356 402.989C499.269 402.99 499.184 402.973 499.104 402.94C499.024 402.907 498.951 402.859 498.89 402.798L419.556 323.278C419.445 323.152 419.385 322.987 419.39 322.819C419.395 322.65 419.464 322.49 419.583 322.37C419.702 322.251 419.863 322.182 420.031 322.177C420.199 322.172 420.363 322.231 420.489 322.344L499.822 401.866C499.915 401.959 499.977 402.077 500.003 402.205C500.028 402.333 500.015 402.466 499.965 402.587C499.915 402.707 499.831 402.811 499.722 402.883C499.614 402.956 499.486 402.995 499.356 402.995V402.989Z" fill="#D9D9D9"/>
<path d="M505.575 396.776C505.488 396.776 505.402 396.759 505.322 396.726C505.242 396.694 505.17 396.645 505.108 396.584L425.778 317.064C425.666 316.938 425.607 316.774 425.612 316.605C425.617 316.436 425.686 316.276 425.805 316.157C425.924 316.037 426.084 315.968 426.253 315.963C426.421 315.958 426.585 316.018 426.711 316.13L506.044 395.65C506.137 395.742 506.2 395.86 506.225 395.988C506.251 396.117 506.238 396.25 506.187 396.371C506.137 396.492 506.052 396.595 505.943 396.667C505.834 396.739 505.705 396.777 505.575 396.776Z" fill="#D9D9D9"/>
<path d="M499.355 402.331L511.797 389.885L516.587 407.143L499.355 402.331Z" fill="#D9D9D9"/>
<path d="M511.447 405.706L515.158 401.992L516.587 407.143L511.447 405.706Z" fill="#D9D9D9"/>
<path d="M426.245 325.392C431.101 325.392 435.038 321.45 435.038 316.588C435.038 311.726 431.101 307.784 426.245 307.784C421.388 307.784 417.451 311.726 417.451 316.588C417.451 321.45 421.388 325.392 426.245 325.392Z" fill="#D9D9D9"/>
<path d="M426.245 326.048C424.061 326.046 421.944 325.285 420.257 323.896C418.57 322.506 417.416 320.574 416.991 318.428C416.567 316.281 416.899 314.054 417.931 312.126C418.962 310.197 420.629 308.686 422.648 307.851C424.667 307.016 426.913 306.907 429.003 307.544C431.093 308.181 432.898 309.524 434.11 311.344C435.322 313.164 435.866 315.349 435.65 317.526C435.434 319.703 434.471 321.738 432.925 323.284C432.048 324.162 431.006 324.858 429.86 325.332C428.714 325.807 427.485 326.05 426.245 326.048ZM426.245 308.449C424.365 308.448 422.543 309.099 421.089 310.292C419.635 311.485 418.639 313.146 418.271 314.992C417.902 316.838 418.184 318.755 419.068 320.416C419.952 322.078 421.384 323.381 423.12 324.103C424.855 324.826 426.787 324.924 428.587 324.38C430.386 323.837 431.942 322.685 432.989 321.121C434.036 319.558 434.51 317.679 434.329 315.805C434.148 313.932 433.324 312.178 431.998 310.845C431.245 310.083 430.349 309.478 429.362 309.065C428.374 308.652 427.315 308.438 426.245 308.437V308.449Z" fill="#D9D9D9"/>
<path d="M430.27 316.626C430.302 314.387 428.517 312.546 426.281 312.513C424.045 312.48 422.206 314.268 422.174 316.508C422.141 318.747 423.927 320.588 426.162 320.621C428.398 320.654 430.237 318.865 430.27 316.626Z" fill="#D9D9D9"/>
<path d="M516.587 407.804C516.527 407.804 516.466 407.796 516.408 407.781L499.18 402.965C499.067 402.936 498.964 402.878 498.882 402.796C498.799 402.714 498.74 402.612 498.709 402.5C498.679 402.388 498.679 402.269 498.709 402.157C498.739 402.045 498.798 401.942 498.881 401.86L511.322 389.415C511.404 389.333 511.506 389.275 511.617 389.245C511.729 389.215 511.847 389.216 511.958 389.246C512.07 389.277 512.172 389.336 512.253 389.418C512.334 389.5 512.393 389.603 512.422 389.715L517.206 406.972C517.238 407.085 517.239 407.204 517.21 407.317C517.181 407.43 517.121 407.533 517.039 407.616C516.918 407.734 516.756 407.801 516.587 407.804ZM500.621 401.998L515.636 406.19L511.45 391.152L500.621 401.998Z" fill="#D9D9D9"/>
<path d="M122.135 163.636C110.857 163.636 102.021 138.895 102.021 107.312C102.021 75.7286 110.857 50.9847 122.135 50.9847C133.413 50.9847 142.252 75.7256 142.252 107.312C142.252 138.898 133.416 163.636 122.135 163.636ZM122.135 52.3083C111.772 52.3083 103.34 76.9833 103.34 107.312C103.34 137.641 111.772 162.304 122.135 162.304C132.498 162.304 140.945 137.641 140.945 107.312C140.945 76.9833 132.501 52.3083 122.135 52.3083Z" fill="#D9D9D9"/>
<path d="M158.11 142.318C146.778 142.318 129.233 135.847 111.245 124.246C98.6874 116.161 88.0012 106.833 81.1183 97.99C74.0948 88.9644 71.8673 81.4452 74.8393 76.8156C80.9449 67.3169 106.503 73.2761 133.021 90.3749C145.579 98.4601 156.265 107.791 163.148 116.634C170.172 125.659 172.399 133.179 169.427 137.808C167.463 140.863 163.486 142.318 158.11 142.318ZM86.0817 73.5935C81.2349 73.5935 77.6739 74.8602 75.9546 77.5313C73.3414 81.5919 75.6048 88.7518 82.1588 97.1755C88.952 105.905 99.5366 115.125 111.96 123.135C137.426 139.545 162.709 145.834 168.318 137.093C170.931 133.029 168.668 125.869 162.114 117.445C155.321 108.716 144.736 99.4992 132.313 91.4858C114.633 80.0946 97.0668 73.5935 86.0817 73.5935Z" fill="#D9D9D9"/>
<path d="M86.1624 142.318C80.7805 142.318 76.8098 140.863 74.8453 137.808C71.8554 133.179 74.0949 125.659 81.1243 116.634C88.0012 107.791 98.7054 98.4661 111.251 90.3749C137.769 73.2761 163.328 67.3169 169.433 76.8156C172.423 81.4452 170.184 88.9644 163.154 97.99C156.277 106.833 145.573 116.158 133.027 124.246C115.04 135.847 97.4944 142.318 86.1624 142.318ZM158.191 73.5935C147.206 73.5935 129.628 80.0946 111.96 91.4858C99.5366 99.4992 88.9521 108.716 82.1588 117.445C75.6048 125.869 73.3414 133.017 75.9546 137.093C77.6709 139.764 81.2379 141.03 86.0817 141.03C97.0669 141.03 114.645 134.529 132.313 123.135C144.736 115.125 155.336 105.905 162.114 97.1755C168.668 88.7518 170.931 81.6039 168.318 77.5313C166.602 74.8632 163.035 73.5935 158.191 73.5935Z" fill="#D9D9D9"/>
<path d="M140.5 60.7313C140.511 56.4793 137.078 53.0234 132.833 53.0122C128.587 53.0011 125.137 56.439 125.126 60.691C125.114 64.943 128.547 68.3989 132.793 68.4101C137.038 68.4212 140.489 64.9833 140.5 60.7313Z" fill="#D9D9D9"/>
<path d="M88.0654 118.188C88.0765 113.936 84.6439 110.48 80.3983 110.469C76.1528 110.458 72.7021 113.896 72.691 118.148C72.6799 122.4 76.1126 125.856 80.3581 125.867C84.6036 125.878 88.0543 122.44 88.0654 118.188Z" fill="#D9D9D9"/>
<path d="M170.482 115.048C170.494 110.796 167.062 107.339 162.816 107.327C158.571 107.316 155.119 110.753 155.107 115.005C155.096 119.257 158.528 122.713 162.773 122.725C167.019 122.737 170.47 119.3 170.482 115.048Z" fill="#D9D9D9"/>
<path d="M319.32 9.01636C316.693 6.13873 313.489 3.84837 309.917 2.29474C306.346 0.741107 302.487 -0.0408737 298.594 -0.000183519C292.671 -0.00421903 286.922 2.00721 282.29 5.7044C279.771 7.68922 277.549 10.0247 275.691 12.6397C273.84 10.039 271.625 7.71927 269.113 5.75232C264.482 2.07956 258.736 0.101736 252.829 0.146546C248.924 0.132858 245.059 0.938781 241.483 2.51238C237.908 4.08598 234.701 6.39236 232.07 9.28288C226.757 15.0833 223.824 22.9979 223.809 31.5652C223.794 40.3811 227.05 48.4454 234.052 56.9379C240.316 64.5351 249.325 72.237 259.766 81.1577C263.327 84.2062 267.367 87.6589 271.559 91.3391C272.669 92.312 274.095 92.8464 275.571 92.8425C277.046 92.8387 278.469 92.2968 279.575 91.3182C283.782 87.6139 287.833 84.1313 291.406 81.0649C301.871 72.0813 310.901 64.3284 317.192 56.6924C324.221 48.1579 327.504 40.0757 327.519 31.2568C327.519 22.6834 324.616 14.7868 319.32 9.01636Z" fill="#D9D9D9"/>
<path d="M345.518 52.2514H312.969C312.843 52.2503 312.72 52.213 312.614 52.1441C312.508 52.0751 312.424 51.9773 312.371 51.8622L300.567 25.5791L288.009 51.8771C287.954 51.9893 287.869 52.0838 287.764 52.1499C287.658 52.2161 287.536 52.2513 287.411 52.2514H283.443C283.317 52.2509 283.194 52.2142 283.088 52.1458C282.982 52.0774 282.898 51.98 282.845 51.8652L276.919 38.8509L270.583 51.8801C270.529 51.9924 270.444 52.0869 270.338 52.1526C270.232 52.2183 270.11 52.2526 269.985 52.2514H262.672C262.545 52.2505 262.421 52.2127 262.315 52.1425C262.208 52.0723 262.125 51.9729 262.074 51.8562L251.941 28.8192L241.204 51.8771C241.151 51.9908 241.066 52.087 240.96 52.1543C240.854 52.2217 240.731 52.2574 240.606 52.2574H202.134C202.044 52.2635 201.953 52.251 201.868 52.2206C201.782 52.1901 201.704 52.1425 201.638 52.0806C201.572 52.0187 201.519 51.9438 201.483 51.8606C201.447 51.7775 201.429 51.6878 201.429 51.5971C201.429 51.5065 201.447 51.4168 201.483 51.3336C201.519 51.2505 201.572 51.1756 201.638 51.1137C201.704 51.0518 201.782 51.0042 201.868 50.9737C201.953 50.9433 202.044 50.9307 202.134 50.9368H240.187L251.361 26.9506C251.416 26.8386 251.502 26.744 251.607 26.677C251.712 26.61 251.834 26.5731 251.959 26.5703C252.086 26.5713 252.21 26.6091 252.316 26.6793C252.422 26.7494 252.506 26.8489 252.557 26.9656L263.106 50.9428H269.576L276.342 37.0242C276.395 36.911 276.48 36.8155 276.586 36.7491C276.692 36.6827 276.815 36.6483 276.94 36.6499C277.066 36.6505 277.19 36.6871 277.295 36.7556C277.401 36.824 277.486 36.9214 277.538 37.0362L283.865 50.9309H286.992L299.978 23.7225C300.034 23.6112 300.119 23.5175 300.225 23.4515C300.33 23.3855 300.452 23.3497 300.576 23.3482C300.702 23.349 300.826 23.3861 300.932 23.4551C301.038 23.5241 301.122 23.6221 301.174 23.7375L313.385 50.9309H345.518C345.609 50.9248 345.699 50.9373 345.784 50.9677C345.87 50.9982 345.948 51.0458 346.014 51.1077C346.08 51.1696 346.133 51.2445 346.169 51.3276C346.205 51.4108 346.223 51.5005 346.223 51.5912C346.223 51.6818 346.205 51.7715 346.169 51.8547C346.133 51.9378 346.08 52.0127 346.014 52.0746C345.948 52.1365 345.87 52.1841 345.784 52.2146C345.699 52.245 345.609 52.2575 345.518 52.2514Z" fill="#D9D9D9"/>
<path d="M547.339 116.598H304.176C304.053 116.597 303.933 116.562 303.828 116.497C303.724 116.431 303.64 116.338 303.586 116.227C303.532 116.116 303.509 115.992 303.522 115.869C303.534 115.747 303.581 115.63 303.656 115.532C311.612 105.255 322.516 97.6611 334.906 93.7707C347.295 89.8802 360.577 89.8792 372.967 93.7677C375.039 83.2868 380.083 74.0756 387.585 67.0983C394.821 60.4126 403.861 56.0073 413.58 54.4314C434.683 50.9069 454.294 60.1899 464.924 78.6572C472.798 75.5608 481.209 74.0643 489.666 74.2548C498.124 74.4454 506.459 76.3192 514.186 79.7671C521.913 83.215 528.879 88.1681 534.676 94.3381C540.474 100.508 544.988 107.772 547.955 115.706C547.994 115.806 548.008 115.914 547.996 116.021C547.984 116.127 547.945 116.23 547.885 116.318C547.824 116.407 547.742 116.479 547.647 116.529C547.552 116.579 547.447 116.605 547.339 116.604V116.598ZM305.546 115.289H546.385C543.374 107.593 538.87 100.571 533.133 94.6284C527.396 88.6861 520.539 83.9416 512.96 80.6692C505.381 77.3968 497.229 75.6614 488.977 75.5633C480.724 75.4651 472.533 77.0063 464.879 80.0976C464.729 80.1558 464.563 80.1576 464.413 80.1025C464.262 80.0474 464.136 79.9392 464.059 79.7981C453.78 61.4866 434.524 52.2664 413.81 55.7251C393.095 59.1838 377.912 74.1295 374.139 94.7319C374.123 94.8234 374.088 94.9105 374.036 94.9878C373.985 95.0651 373.918 95.1309 373.84 95.1811C373.758 95.2283 373.668 95.2581 373.574 95.2684C373.48 95.2787 373.386 95.2694 373.296 95.241C348.811 87.2965 321.772 95.3398 305.546 115.289Z" fill="#D9D9D9"/>
<path d="M277.772 166.96C276.406 166.96 275.071 166.554 273.935 165.794C272.799 165.034 271.914 163.954 271.391 162.69C270.868 161.426 270.731 160.035 270.998 158.693C271.264 157.351 271.922 156.119 272.888 155.151C273.854 154.184 275.085 153.525 276.425 153.258C277.764 152.991 279.153 153.128 280.415 153.652C281.677 154.175 282.756 155.062 283.515 156.2C284.274 157.337 284.679 158.675 284.679 160.043C284.677 161.877 283.949 163.635 282.654 164.932C281.359 166.229 279.603 166.959 277.772 166.96ZM277.772 154.449C276.668 154.45 275.588 154.778 274.67 155.393C273.752 156.008 273.036 156.882 272.614 157.904C272.192 158.926 272.082 160.051 272.297 161.136C272.513 162.221 273.046 163.217 273.827 163.999C274.608 164.781 275.603 165.314 276.687 165.529C277.77 165.745 278.893 165.634 279.913 165.21C280.934 164.787 281.806 164.07 282.419 163.15C283.033 162.23 283.36 161.149 283.36 160.043C283.359 158.559 282.769 157.137 281.722 156.088C280.674 155.039 279.253 154.45 277.772 154.449Z" fill="#D9D9D9"/>
<path d="M296.597 154.817C293.906 154.817 291.276 154.017 289.039 152.52C286.802 151.022 285.059 148.894 284.03 146.404C283.001 143.914 282.732 141.175 283.257 138.532C283.782 135.889 285.078 133.462 286.981 131.557C288.884 129.651 291.308 128.354 293.947 127.829C296.585 127.303 299.321 127.573 301.806 128.604C304.292 129.636 306.417 131.382 307.911 133.623C309.406 135.863 310.204 138.497 310.204 141.192C310.199 144.805 308.764 148.268 306.213 150.822C303.662 153.377 300.204 154.813 296.597 154.817ZM296.597 128.888C294.167 128.888 291.792 129.61 289.772 130.963C287.752 132.315 286.177 134.237 285.248 136.485C284.319 138.734 284.076 141.208 284.55 143.594C285.025 145.981 286.195 148.173 287.913 149.894C289.632 151.614 291.821 152.786 294.204 153.26C296.587 153.735 299.057 153.491 301.302 152.56C303.547 151.628 305.465 150.051 306.815 148.028C308.165 146.004 308.885 143.626 308.885 141.192C308.882 137.929 307.586 134.801 305.282 132.494C302.978 130.187 299.854 128.89 296.597 128.888Z" fill="#D9D9D9"/>
<path d="M490.581 481.075C487.89 481.074 485.261 480.274 483.024 478.776C480.788 477.278 479.045 475.149 478.016 472.66C476.988 470.17 476.719 467.431 477.245 464.788C477.77 462.145 479.066 459.718 480.969 457.813C482.872 455.908 485.296 454.611 487.935 454.086C490.574 453.561 493.309 453.831 495.794 454.862C498.28 455.894 500.404 457.64 501.899 459.881C503.393 462.121 504.191 464.755 504.191 467.45C504.186 471.063 502.751 474.527 500.199 477.081C497.648 479.635 494.189 481.072 490.581 481.075ZM490.581 455.145C488.151 455.146 485.776 455.868 483.756 457.22C481.736 458.573 480.162 460.495 479.232 462.743C478.303 464.991 478.06 467.465 478.534 469.852C479.009 472.239 480.179 474.431 481.897 476.151C483.616 477.872 485.805 479.043 488.188 479.518C490.571 479.993 493.041 479.749 495.286 478.817C497.531 477.886 499.449 476.309 500.799 474.285C502.149 472.262 502.87 469.883 502.87 467.45C502.866 464.187 501.571 461.058 499.267 458.752C496.963 456.445 493.839 455.148 490.581 455.145Z" fill="#D9D9D9"/>
<path d="M439.314 202.73C421.889 202.73 406.455 195.315 399.03 181.517C393.212 170.703 393.119 157.647 398.773 144.753C404.4 131.918 415.06 120.766 428.787 113.361C439.993 107.315 452.138 104.344 463.919 104.767C465.115 104.808 466.284 105.135 467.329 105.72C468.374 106.304 469.265 107.13 469.928 108.128C470.591 109.126 471.007 110.268 471.141 111.459C471.275 112.651 471.124 113.857 470.7 114.978C469.803 117.314 469.803 119.452 470.736 121.159C473.34 125.998 482.358 126.214 490.838 121.638L490.897 121.605C492.602 120.665 494.601 120.416 496.483 120.909C498.366 121.401 499.988 122.598 501.016 124.252C501.359 124.815 501.688 125.387 501.996 125.959C507.815 136.772 507.904 149.828 502.25 162.723C496.623 175.56 485.964 186.709 472.24 194.115C461.443 199.939 450.004 202.73 439.314 202.73ZM461.703 106.048C450.844 106.048 439.727 108.962 429.412 114.526C415.957 121.794 405.492 132.718 399.981 145.286C394.495 157.8 394.569 170.44 400.191 180.888C407.366 194.246 422.355 201.415 439.293 201.418C449.776 201.418 461.007 198.672 471.612 192.95C485.067 185.685 495.532 174.761 501.042 162.19C506.529 149.679 506.454 137.036 500.833 126.588C500.534 126.037 500.22 125.483 499.891 124.941C499.039 123.574 497.695 122.587 496.137 122.183C494.579 121.78 492.926 121.991 491.519 122.773L491.46 122.806C482.343 127.723 472.524 127.268 469.573 121.785C468.467 119.727 468.431 117.209 469.465 114.502C469.821 113.585 469.951 112.596 469.844 111.618C469.736 110.641 469.394 109.704 468.846 108.887C468.304 108.054 467.568 107.364 466.701 106.876C465.835 106.389 464.864 106.118 463.871 106.087C463.151 106.061 462.429 106.048 461.703 106.048Z" fill="#D9D9D9"/>
<path d="M453.376 152.497C449.301 152.497 445.677 150.748 443.931 147.499C442.555 144.944 442.528 141.869 443.853 138.844C445.157 135.877 447.614 133.302 450.778 131.598C457.356 128.043 464.998 129.4 467.821 134.616C469.193 137.17 469.22 140.243 467.895 143.267C466.592 146.235 464.134 148.81 460.974 150.517C458.643 151.795 456.033 152.475 453.376 152.497ZM445.091 146.87C447.552 151.445 454.39 152.559 460.34 149.352C463.246 147.786 465.497 145.435 466.681 142.737C467.839 140.093 467.83 137.431 466.651 135.251C464.191 130.675 457.353 129.561 451.403 132.769C448.499 134.335 446.245 136.685 445.064 139.386C443.904 142.022 443.913 144.684 445.091 146.87Z" fill="#D9D9D9"/>
<path d="M410.115 163.639C413.875 163.627 416.913 160.565 416.901 156.801C416.888 153.037 413.83 149.996 410.07 150.008C406.31 150.021 403.272 153.082 403.284 156.846C403.297 160.611 406.355 163.652 410.115 163.639Z" fill="#D9D9D9"/>
<path d="M418.992 145.203C422.752 145.19 425.79 142.128 425.778 138.364C425.765 134.6 422.707 131.559 418.947 131.571C415.187 131.584 412.149 134.645 412.161 138.41C412.174 142.174 415.232 145.215 418.992 145.203Z" fill="#D9D9D9"/>
<path d="M435.682 131.575C439.442 131.531 442.454 128.443 442.409 124.679C442.364 120.915 439.28 117.9 435.521 117.945C431.761 117.99 428.749 121.077 428.794 124.841C428.838 128.605 431.922 131.62 435.682 131.575Z" fill="#D9D9D9"/>
<path d="M414.1 183.379C417.86 183.353 420.887 180.28 420.861 176.516C420.835 172.752 417.765 169.722 414.005 169.748C410.245 169.775 407.219 172.847 407.245 176.611C407.271 180.375 410.34 183.405 414.1 183.379Z" fill="#D9D9D9"/>
<path d="M500.453 124.596C499.581 123.186 498.231 122.136 496.65 121.639C495.07 121.141 493.363 121.229 491.842 121.886C490.117 124.144 488.97 126.791 488.501 129.595C488.032 132.399 488.255 135.275 489.151 137.973L431.492 201.565C439.266 202.622 445.306 202.676 453.759 200.418C453.759 200.418 503.951 150.478 505.129 150.502C506.044 138.928 505.33 133.538 501.419 126.273C501.11 125.704 500.788 125.145 500.453 124.596Z" fill="#D9D9D9"/>
<path d="M424.266 201.088L436.91 212.587L481.887 162.978L469.243 151.48L424.266 201.088Z" fill="#D9D9D9"/>
<path d="M430.557 215.406C435.273 215.406 439.096 211.577 439.096 206.853C439.096 202.13 435.273 198.301 430.557 198.301C425.841 198.301 422.018 202.13 422.018 206.853C422.018 211.577 425.841 215.406 430.557 215.406Z" fill="#D9D9D9"/>
<path d="M491.86 114.184C488.809 117.616 487.234 122.116 487.478 126.705C487.721 131.294 489.763 135.601 493.16 138.689C496.557 141.778 501.035 143.399 505.619 143.2C510.202 143.001 514.523 140.998 517.64 137.626C524.104 130.499 529.079 99.08 529.079 99.08C529.079 99.08 498.324 107.057 491.86 114.184Z" fill="#D9D9D9"/>
<path d="M504.744 143.992C500.254 144 495.924 142.327 492.602 139.303C492.472 139.183 492.395 139.018 492.387 138.842C492.38 138.665 492.442 138.494 492.561 138.364C492.68 138.234 492.846 138.157 493.022 138.149C493.197 138.142 493.369 138.204 493.499 138.323C496.791 141.308 501.13 142.864 505.565 142.651C510.001 142.437 514.171 140.47 517.161 137.182C523.419 130.28 528.386 99.2896 528.437 98.9782C528.446 98.8889 528.474 98.8025 528.517 98.7243C528.561 98.646 528.621 98.5775 528.692 98.5229C528.763 98.4683 528.844 98.4288 528.931 98.4067C529.018 98.3846 529.108 98.3805 529.197 98.3945C529.285 98.4085 529.37 98.4404 529.446 98.4883C529.522 98.5361 529.587 98.599 529.638 98.6729C529.689 98.7468 529.724 98.8303 529.742 98.9183C529.759 99.0063 529.759 99.0969 529.74 99.1848C529.534 100.475 524.657 130.879 518.139 138.072C516.444 139.942 514.376 141.435 512.068 142.454C509.761 143.474 507.266 143.998 504.744 143.992Z" fill="#D9D9D9"/>
<path d="M500.683 142.205L488.039 130.706L469.179 151.508L481.823 163.006L500.683 142.205Z" fill="#D9D9D9"/>
<path d="M430.55 216.062C428.264 216.063 426.06 215.208 424.37 213.666C424.241 213.547 424.163 213.381 424.156 213.205C424.148 213.029 424.211 212.857 424.33 212.727C424.449 212.597 424.614 212.52 424.79 212.512C424.966 212.505 425.138 212.568 425.267 212.687C426.815 214.092 428.857 214.825 430.944 214.725C433.031 214.624 434.993 213.698 436.399 212.151L499.795 142.24C499.854 142.176 499.925 142.124 500.004 142.088C500.083 142.051 500.168 142.03 500.255 142.027C500.342 142.023 500.429 142.037 500.511 142.067C500.592 142.097 500.667 142.142 500.731 142.201C500.795 142.26 500.847 142.331 500.884 142.41C500.92 142.489 500.941 142.575 500.944 142.662C500.948 142.749 500.935 142.836 500.905 142.918C500.875 142.999 500.829 143.074 500.77 143.139L437.383 213.067C436.516 214.017 435.461 214.774 434.284 215.29C433.107 215.806 431.835 216.069 430.55 216.062Z" fill="#D9D9D9"/>
</g>
<defs>
<clipPath id="clip0_86_81">
<rect width="548" height="548" fill="white"/>
</clipPath>
</defs>
</svg>
