<svg width="257" height="163" viewBox="0 0 257 163" fill="none" xmlns="http://www.w3.org/2000/svg">
<g clip-path="url(#clip0_182_337)">
<path d="M235.04 0.79541H21.9604C9.83199 0.79541 0 10.6274 0 22.7558V140.534C0 152.663 9.83199 162.495 21.9604 162.495H235.04C247.168 162.495 257 152.663 257 140.534V22.7558C257 10.6274 247.168 0.79541 235.04 0.79541Z" fill="white"/>
<path d="M238.282 135.641H20.2298C20.0821 135.641 19.9404 135.582 19.836 135.478C19.7315 135.373 19.6729 135.232 19.6729 135.084C19.6729 134.936 19.7315 134.794 19.836 134.69C19.9404 134.586 20.0821 134.527 20.2298 134.527H238.282C238.43 134.527 238.571 134.586 238.676 134.69C238.78 134.794 238.839 134.936 238.839 135.084C238.839 135.232 238.78 135.373 238.676 135.478C238.571 135.582 238.43 135.641 238.282 135.641Z" fill="#E9E2EF"/>
<path d="M20.2295 135.641C20.0852 135.636 19.9486 135.575 19.8484 135.471C19.7482 135.367 19.6923 135.228 19.6924 135.084V48.8734C19.6923 48.729 19.7482 48.5903 19.8484 48.4864C19.9486 48.3825 20.0852 48.3216 20.2295 48.3164C20.3756 48.3214 20.5144 48.3816 20.6178 48.485C20.7212 48.5884 20.7815 48.7272 20.7864 48.8734V135.084C20.7815 135.23 20.7212 135.369 20.6178 135.472C20.5144 135.575 20.3756 135.636 20.2295 135.641Z" fill="#E9E2EF"/>
<path d="M44.4375 101.049C44.2932 101.044 44.1566 100.983 44.0564 100.879C43.9562 100.775 43.9003 100.637 43.9004 100.492V99.4978C43.9004 99.4272 43.9143 99.3574 43.9413 99.2922C43.9683 99.2271 44.0078 99.1679 44.0577 99.118C44.1076 99.0681 44.1668 99.0286 44.232 99.0016C44.2971 98.9746 44.3669 98.9607 44.4375 98.9607C44.5818 98.9606 44.7205 99.0165 44.8244 99.1167C44.9283 99.2169 44.9893 99.3535 44.9944 99.4978V100.492C44.9895 100.638 44.9292 100.777 44.8258 100.881C44.7224 100.984 44.5836 101.044 44.4375 101.049Z" fill="#E9E2EF"/>
<path d="M44.4378 130.688C44.3656 130.688 44.2941 130.673 44.2276 130.645C44.1611 130.617 44.101 130.576 44.0509 130.524C44.0007 130.472 43.9616 130.41 43.9358 130.343C43.91 130.275 43.8981 130.203 43.9008 130.131V128.142C43.9007 127.997 43.9566 127.859 44.0568 127.755C44.157 127.651 44.2936 127.59 44.4378 127.585C44.584 127.59 44.7228 127.65 44.8262 127.753C44.9296 127.857 44.9898 127.996 44.9948 128.142V130.131C44.9948 130.279 44.9361 130.42 44.8317 130.525C44.7272 130.629 44.5856 130.688 44.4378 130.688ZM44.4378 124.72C44.3656 124.72 44.2941 124.706 44.2276 124.678C44.1611 124.649 44.101 124.608 44.0509 124.556C44.0007 124.504 43.9616 124.443 43.9358 124.375C43.91 124.308 43.8981 124.236 43.9008 124.163V122.174C43.9007 122.03 43.9566 121.891 44.0568 121.787C44.157 121.683 44.2936 121.622 44.4378 121.617C44.584 121.622 44.7228 121.683 44.8262 121.786C44.9296 121.889 44.9898 122.028 44.9948 122.174V124.163C45.0003 124.24 44.9899 124.317 44.9644 124.389C44.9389 124.461 44.8987 124.527 44.8464 124.583C44.7942 124.639 44.7309 124.684 44.6606 124.714C44.5903 124.745 44.5145 124.76 44.4378 124.76V124.72ZM44.4378 118.753C44.3656 118.753 44.2941 118.738 44.2276 118.71C44.1611 118.682 44.101 118.641 44.0509 118.589C44.0007 118.537 43.9616 118.475 43.9358 118.408C43.91 118.34 43.8981 118.268 43.9008 118.196V116.207C43.9007 116.062 43.9566 115.924 44.0568 115.82C44.157 115.716 44.2936 115.655 44.4378 115.65C44.584 115.655 44.7228 115.715 44.8262 115.818C44.9296 115.922 44.9898 116.061 44.9948 116.207V118.196C45.0063 118.275 45.0004 118.357 44.9776 118.434C44.9548 118.511 44.9156 118.582 44.8627 118.642C44.8098 118.703 44.7444 118.751 44.6711 118.784C44.5978 118.817 44.5182 118.833 44.4378 118.833V118.753ZM44.4378 112.785C44.3656 112.785 44.2941 112.771 44.2276 112.743C44.1611 112.715 44.101 112.673 44.0509 112.621C44.0007 112.569 43.9616 112.508 43.9358 112.44C43.91 112.373 43.8981 112.301 43.9008 112.228V110.239C43.9007 110.095 43.9566 109.956 44.0568 109.852C44.157 109.748 44.2936 109.687 44.4378 109.682C44.584 109.687 44.7228 109.748 44.8262 109.851C44.9296 109.954 44.9898 110.093 44.9948 110.239V112.228C45.0129 112.311 45.012 112.396 44.9923 112.478C44.9725 112.56 44.9344 112.637 44.8807 112.702C44.8271 112.767 44.7594 112.819 44.6826 112.854C44.6059 112.89 44.5222 112.907 44.4378 112.905V112.785ZM44.4378 106.818C44.3656 106.818 44.2941 106.803 44.2276 106.775C44.1611 106.747 44.101 106.706 44.0509 106.654C44.0007 106.602 43.9616 106.54 43.9358 106.473C43.91 106.405 43.8981 106.333 43.9008 106.261V104.272C43.9007 104.127 43.9566 103.989 44.0568 103.885C44.157 103.781 44.2936 103.72 44.4378 103.715C44.584 103.72 44.7228 103.78 44.8262 103.883C44.9296 103.987 44.9898 104.126 44.9948 104.272V106.261C45.0202 106.346 45.025 106.436 45.0086 106.523C44.9923 106.61 44.9554 106.692 44.9009 106.763C44.8464 106.833 44.7759 106.889 44.6954 106.926C44.6148 106.963 44.5265 106.981 44.4378 106.977V106.818Z" fill="#E9E2EF"/>
<path d="M44.4375 135.641C44.2932 135.636 44.1566 135.575 44.0564 135.471C43.9562 135.367 43.9003 135.228 43.9004 135.084V134.089C43.9003 133.945 43.9562 133.806 44.0564 133.702C44.1566 133.598 44.2932 133.537 44.4375 133.532C44.5836 133.537 44.7224 133.597 44.8258 133.701C44.9292 133.804 44.9895 133.943 44.9944 134.089V135.084C44.9895 135.23 44.9292 135.369 44.8258 135.472C44.7224 135.576 44.5836 135.636 44.4375 135.641Z" fill="#E9E2EF"/>
<path d="M70.7339 79.8051C70.5862 79.8051 70.4445 79.7464 70.3401 79.642C70.2356 79.5375 70.1769 79.3959 70.1769 79.2481V78.2536C70.1615 78.173 70.1641 78.09 70.1844 78.0106C70.2048 77.9311 70.2424 77.8571 70.2947 77.7939C70.3469 77.7307 70.4125 77.6798 70.4867 77.6449C70.5609 77.6099 70.6419 77.5918 70.7239 77.5918C70.806 77.5918 70.887 77.6099 70.9612 77.6449C71.0354 77.6798 71.101 77.7307 71.1533 77.7939C71.2055 77.8571 71.2431 77.9311 71.2635 78.0106C71.2838 78.09 71.2864 78.173 71.271 78.2536V79.2481C71.271 79.3925 71.2151 79.5312 71.1149 79.6351C71.0148 79.739 70.8781 79.7999 70.7339 79.8051Z" fill="#E9E2EF"/>
<path d="M70.7339 130.867C70.5862 130.867 70.4445 130.808 70.3401 130.704C70.2356 130.599 70.1769 130.458 70.1769 130.31V128.321C70.1615 128.24 70.1641 128.157 70.1844 128.078C70.2048 127.998 70.2424 127.924 70.2947 127.861C70.3469 127.798 70.4125 127.747 70.4867 127.712C70.5609 127.677 70.6419 127.659 70.7239 127.659C70.806 127.659 70.887 127.677 70.9612 127.712C71.0354 127.747 71.101 127.798 71.1533 127.861C71.2055 127.924 71.2431 127.998 71.2635 128.078C71.2838 128.157 71.2864 128.24 71.271 128.321V130.31C71.271 130.454 71.2151 130.593 71.1149 130.697C71.0148 130.801 70.8781 130.862 70.7339 130.867ZM70.7339 125.198C70.5862 125.198 70.4445 125.139 70.3401 125.035C70.2356 124.93 70.1769 124.789 70.1769 124.641V122.652C70.1615 122.571 70.1641 122.488 70.1844 122.409C70.2048 122.329 70.2424 122.255 70.2947 122.192C70.3469 122.129 70.4125 122.078 70.4867 122.043C70.5609 122.008 70.6419 121.99 70.7239 121.99C70.806 121.99 70.887 122.008 70.9612 122.043C71.0354 122.078 71.101 122.129 71.1533 122.192C71.2055 122.255 71.2431 122.329 71.2635 122.409C71.2838 122.488 71.2864 122.571 71.271 122.652V124.641C71.271 124.785 71.2151 124.924 71.1149 125.028C71.0148 125.132 70.8781 125.193 70.7339 125.198ZM70.7339 119.529C70.5862 119.529 70.4445 119.47 70.3401 119.366C70.2356 119.261 70.1769 119.119 70.1769 118.972V116.983C70.1615 116.902 70.1641 116.819 70.1844 116.74C70.2048 116.66 70.2424 116.586 70.2947 116.523C70.3469 116.46 70.4125 116.409 70.4867 116.374C70.5609 116.339 70.6419 116.321 70.7239 116.321C70.806 116.321 70.887 116.339 70.9612 116.374C71.0354 116.409 71.101 116.46 71.1533 116.523C71.2055 116.586 71.2431 116.66 71.2635 116.74C71.2838 116.819 71.2864 116.902 71.271 116.983V118.972C71.2792 119.048 71.2716 119.125 71.2486 119.199C71.2256 119.272 71.1877 119.34 71.1372 119.397C71.0868 119.455 71.0249 119.502 70.9555 119.535C70.8861 119.568 70.8107 119.586 70.7339 119.588V119.529ZM70.7339 113.86C70.5862 113.86 70.4445 113.801 70.3401 113.696C70.2356 113.592 70.1769 113.45 70.1769 113.303V111.313C70.1615 111.233 70.1641 111.15 70.1844 111.07C70.2048 110.991 70.2424 110.917 70.2947 110.854C70.3469 110.791 70.4125 110.74 70.4867 110.705C70.5609 110.67 70.6419 110.652 70.7239 110.652C70.806 110.652 70.887 110.67 70.9612 110.705C71.0354 110.74 71.101 110.791 71.1533 110.854C71.2055 110.917 71.2431 110.991 71.2635 111.07C71.2838 111.15 71.2864 111.233 71.271 111.313V113.303C71.271 113.447 71.2151 113.586 71.1149 113.69C71.0148 113.794 70.8781 113.854 70.7339 113.86ZM70.7339 108.19C70.5862 108.19 70.4445 108.132 70.3401 108.027C70.2356 107.923 70.1769 107.781 70.1769 107.634V105.664C70.1615 105.584 70.1641 105.501 70.1844 105.421C70.2048 105.342 70.2424 105.268 70.2947 105.205C70.3469 105.141 70.4125 105.09 70.4867 105.056C70.5609 105.021 70.6419 105.003 70.7239 105.003C70.806 105.003 70.887 105.021 70.9612 105.056C71.0354 105.09 71.101 105.141 71.1533 105.205C71.2055 105.268 71.2431 105.342 71.2635 105.421C71.2838 105.501 71.2864 105.584 71.271 105.664V107.653C71.266 107.794 71.2079 107.928 71.1082 108.028C71.0085 108.127 70.8748 108.186 70.7339 108.19ZM70.7339 102.521C70.5862 102.521 70.4445 102.463 70.3401 102.358C70.2356 102.254 70.1769 102.112 70.1769 101.964V99.9753C70.1615 99.8947 70.1641 99.8117 70.1844 99.7323C70.2048 99.6528 70.2424 99.5788 70.2947 99.5156C70.3469 99.4524 70.4125 99.4015 70.4867 99.3666C70.5609 99.3316 70.6419 99.3135 70.7239 99.3135C70.806 99.3135 70.887 99.3316 70.9612 99.3666C71.0354 99.4015 71.101 99.4524 71.1533 99.5156C71.2055 99.5788 71.2431 99.6528 71.2635 99.7323C71.2838 99.8117 71.2864 99.8947 71.271 99.9753V101.964C71.271 102.109 71.2151 102.247 71.1149 102.351C71.0148 102.455 70.8781 102.516 70.7339 102.521ZM70.7339 96.8523C70.5862 96.8523 70.4445 96.7936 70.3401 96.6891C70.2356 96.5847 70.1769 96.443 70.1769 96.2953V94.3061C70.1615 94.2256 70.1641 94.1426 70.1844 94.0632C70.2048 93.9837 70.2424 93.9097 70.2947 93.8465C70.3469 93.7833 70.4125 93.7324 70.4867 93.6974C70.5609 93.6625 70.6419 93.6444 70.7239 93.6444C70.806 93.6444 70.887 93.6625 70.9612 93.6974C71.0354 93.7324 71.101 93.7833 71.1533 93.8465C71.2055 93.9097 71.2431 93.9837 71.2635 94.0632C71.2838 94.1426 71.2864 94.2256 71.271 94.3061V96.2953C71.271 96.4396 71.2151 96.5784 71.1149 96.6823C71.0148 96.7862 70.8781 96.8471 70.7339 96.8523ZM70.7339 91.1831C70.5862 91.1831 70.4445 91.1245 70.3401 91.02C70.2356 90.9156 70.1769 90.7739 70.1769 90.6262V88.637C70.1615 88.5565 70.1641 88.4735 70.1844 88.394C70.2048 88.3146 70.2424 88.2406 70.2947 88.1774C70.3469 88.1141 70.4125 88.0633 70.4867 88.0283C70.5609 87.9934 70.6419 87.9753 70.7239 87.9753C70.806 87.9753 70.887 87.9934 70.9612 88.0283C71.0354 88.0633 71.101 88.1141 71.1533 88.1774C71.2055 88.2406 71.2431 88.3146 71.2635 88.394C71.2838 88.4735 71.2864 88.5565 71.271 88.637V90.6262C71.271 90.7705 71.2151 90.9092 71.1149 91.0131C71.0148 91.117 70.8781 91.178 70.7339 91.1831ZM70.7339 85.514C70.5862 85.514 70.4445 85.4553 70.3401 85.3509C70.2356 85.2464 70.1769 85.1048 70.1769 84.9571V82.9679C70.1615 82.8873 70.1641 82.8044 70.1844 82.7249C70.2048 82.6454 70.2424 82.5715 70.2947 82.5083C70.3469 82.445 70.4125 82.3941 70.4867 82.3592C70.5609 82.3243 70.6419 82.3062 70.7239 82.3062C70.806 82.3062 70.887 82.3243 70.9612 82.3592C71.0354 82.3941 71.101 82.445 71.1533 82.5083C71.2055 82.5715 71.2431 82.6454 71.2635 82.7249C71.2838 82.8044 71.2864 82.8873 71.271 82.9679V84.9571C71.271 85.1014 71.2151 85.2401 71.1149 85.344C71.0148 85.4479 70.8781 85.5089 70.7339 85.514Z" fill="#E9E2EF"/>
<path d="M70.7339 135.641C70.5862 135.641 70.4445 135.582 70.3401 135.478C70.2356 135.373 70.1769 135.232 70.1769 135.084V134.089C70.1615 134.009 70.1641 133.926 70.1844 133.846C70.2048 133.767 70.2424 133.693 70.2947 133.63C70.3469 133.566 70.4125 133.515 70.4867 133.481C70.5609 133.446 70.6419 133.427 70.7239 133.427C70.806 133.427 70.887 133.446 70.9612 133.481C71.0354 133.515 71.101 133.566 71.1533 133.63C71.2055 133.693 71.2431 133.767 71.2635 133.846C71.2838 133.926 71.2864 134.009 71.271 134.089V135.084C71.271 135.228 71.2151 135.367 71.1149 135.471C71.0148 135.575 70.8781 135.636 70.7339 135.641Z" fill="#E9E2EF"/>
<path d="M97.1702 123.428C97.0241 123.423 96.8853 123.362 96.7819 123.259C96.6785 123.156 96.6182 123.017 96.6133 122.871V121.876C96.6133 121.728 96.6719 121.587 96.7764 121.482C96.8808 121.378 97.0225 121.319 97.1702 121.319C97.318 121.319 97.4596 121.378 97.564 121.482C97.6685 121.587 97.7272 121.728 97.7272 121.876V122.871C97.7223 123.017 97.662 123.156 97.5586 123.259C97.4552 123.362 97.3164 123.423 97.1702 123.428Z" fill="#E9E2EF"/>
<path d="M97.171 130.151C97.0909 130.154 97.0109 130.14 96.9368 130.11C96.8626 130.08 96.7958 130.034 96.741 129.975C96.6863 129.916 96.6448 129.847 96.6194 129.771C96.5941 129.695 96.5854 129.614 96.5941 129.534V127.306C96.5941 127.159 96.6527 127.017 96.7572 126.913C96.8616 126.808 97.0033 126.75 97.151 126.75C97.2988 126.75 97.4404 126.808 97.5449 126.913C97.6493 127.017 97.708 127.159 97.708 127.306V129.534C97.7163 129.611 97.7087 129.688 97.6857 129.761C97.6626 129.834 97.6247 129.902 97.5743 129.96C97.5238 130.018 97.462 130.065 97.3926 130.098C97.3232 130.131 97.2477 130.149 97.171 130.151Z" fill="#E9E2EF"/>
<path d="M97.1702 135.641C97.0241 135.636 96.8853 135.576 96.7819 135.472C96.6785 135.369 96.6182 135.23 96.6133 135.084V134.089C96.6133 133.941 96.6719 133.8 96.7764 133.695C96.8808 133.591 97.0225 133.532 97.1702 133.532C97.318 133.532 97.4596 133.591 97.564 133.695C97.6685 133.8 97.7272 133.941 97.7272 134.089V135.084C97.7223 135.23 97.662 135.369 97.5586 135.472C97.4552 135.576 97.3164 135.636 97.1702 135.641Z" fill="#E9E2EF"/>
<path d="M123.527 66.9749C123.455 66.975 123.383 66.9604 123.317 66.9322C123.25 66.904 123.19 66.8626 123.14 66.8106C123.09 66.7586 123.05 66.6971 123.025 66.6296C122.999 66.5621 122.987 66.4901 122.99 66.4179V65.4234C123.014 65.2961 123.082 65.1814 123.182 65.0989C123.282 65.0163 123.407 64.9712 123.537 64.9712C123.666 64.9712 123.792 65.0163 123.892 65.0989C123.991 65.1814 124.059 65.2961 124.084 65.4234V66.4179C124.086 66.4918 124.074 66.5655 124.047 66.6344C124.02 66.7032 123.979 66.7657 123.927 66.818C123.874 66.8703 123.812 66.9112 123.743 66.9382C123.674 66.9652 123.601 66.9777 123.527 66.9749Z" fill="#E9E2EF"/>
<path d="M123.528 130.767C123.385 130.767 123.248 130.711 123.148 130.61C123.047 130.509 122.99 130.373 122.99 130.23V128.241C123.015 128.114 123.083 127.999 123.183 127.917C123.282 127.834 123.408 127.789 123.537 127.789C123.667 127.789 123.792 127.834 123.892 127.917C123.992 127.999 124.06 128.114 124.084 128.241V130.23C124.085 130.303 124.07 130.374 124.042 130.441C124.014 130.507 123.972 130.567 123.92 130.617C123.868 130.667 123.807 130.707 123.739 130.732C123.672 130.758 123.6 130.77 123.528 130.767ZM123.528 124.979C123.383 124.974 123.247 124.913 123.146 124.809C123.046 124.705 122.99 124.566 122.99 124.422V122.433C122.975 122.352 122.978 122.269 122.998 122.19C123.018 122.11 123.056 122.036 123.108 121.973C123.16 121.91 123.226 121.859 123.3 121.824C123.374 121.789 123.455 121.771 123.537 121.771C123.62 121.771 123.701 121.789 123.775 121.824C123.849 121.859 123.914 121.91 123.967 121.973C124.019 122.036 124.057 122.11 124.077 122.19C124.097 122.269 124.1 122.352 124.084 122.433V124.422C124.084 124.495 124.07 124.568 124.042 124.635C124.014 124.703 123.973 124.764 123.921 124.816C123.87 124.868 123.808 124.909 123.741 124.937C123.673 124.965 123.601 124.979 123.528 124.979ZM123.528 119.171C123.385 119.171 123.248 119.114 123.148 119.013C123.047 118.913 122.99 118.776 122.99 118.634V116.644C123.015 116.517 123.083 116.402 123.183 116.32C123.282 116.237 123.408 116.192 123.537 116.192C123.667 116.192 123.792 116.237 123.892 116.32C123.992 116.402 124.06 116.517 124.084 116.644V118.634C124.085 118.706 124.07 118.777 124.042 118.844C124.014 118.91 123.972 118.97 123.92 119.021C123.868 119.071 123.807 119.11 123.739 119.136C123.672 119.161 123.6 119.173 123.528 119.171ZM123.528 113.382C123.383 113.377 123.247 113.316 123.146 113.212C123.046 113.108 122.99 112.97 122.99 112.825V110.836C122.975 110.755 122.978 110.672 122.998 110.593C123.018 110.514 123.056 110.44 123.108 110.376C123.16 110.313 123.226 110.262 123.3 110.227C123.374 110.192 123.455 110.174 123.537 110.174C123.62 110.174 123.701 110.192 123.775 110.227C123.849 110.262 123.914 110.313 123.967 110.376C124.019 110.44 124.057 110.514 124.077 110.593C124.097 110.672 124.1 110.755 124.084 110.836V112.825C124.084 112.898 124.07 112.971 124.042 113.038C124.014 113.106 123.973 113.167 123.921 113.219C123.87 113.271 123.808 113.312 123.741 113.34C123.673 113.368 123.601 113.382 123.528 113.382ZM123.528 107.574C123.455 107.574 123.384 107.559 123.317 107.531C123.251 107.503 123.191 107.462 123.141 107.41C123.09 107.358 123.051 107.296 123.025 107.228C123 107.161 122.988 107.089 122.99 107.017V105.028C123.015 104.9 123.083 104.786 123.183 104.703C123.282 104.621 123.408 104.575 123.537 104.575C123.667 104.575 123.792 104.621 123.892 104.703C123.992 104.786 124.06 104.9 124.084 105.028V107.017C124.1 107.097 124.096 107.179 124.075 107.258C124.054 107.337 124.015 107.409 123.961 107.471C123.907 107.532 123.84 107.58 123.765 107.612C123.69 107.644 123.609 107.658 123.528 107.653V107.574ZM123.528 101.765C123.385 101.765 123.248 101.709 123.148 101.608C123.047 101.507 122.99 101.371 122.99 101.228V99.2392C122.975 99.1586 122.978 99.0757 122.998 98.9962C123.018 98.9168 123.056 98.8428 123.108 98.7796C123.16 98.7163 123.226 98.6654 123.3 98.6305C123.374 98.5956 123.455 98.5775 123.537 98.5775C123.62 98.5775 123.701 98.5956 123.775 98.6305C123.849 98.6654 123.914 98.7163 123.967 98.7796C124.019 98.8428 124.057 98.9168 124.077 98.9962C124.097 99.0757 124.1 99.1586 124.084 99.2392V101.228C124.065 101.36 123.997 101.48 123.894 101.564C123.791 101.649 123.661 101.692 123.528 101.686V101.765ZM123.528 95.977C123.383 95.9718 123.247 95.9109 123.146 95.807C123.046 95.7031 122.99 95.5643 122.99 95.42V93.4308C122.975 93.3503 122.978 93.2673 122.998 93.1879C123.018 93.1084 123.056 93.0344 123.108 92.9712C123.16 92.908 123.226 92.8571 123.3 92.8221C123.374 92.7872 123.455 92.7691 123.537 92.7691C123.62 92.7691 123.701 92.7872 123.775 92.8221C123.849 92.8571 123.914 92.908 123.967 92.9712C124.019 93.0344 124.057 93.1084 124.077 93.1879C124.097 93.2673 124.1 93.3503 124.084 93.4308V95.42C124.084 95.4931 124.07 95.5656 124.042 95.6332C124.014 95.7007 123.973 95.7621 123.921 95.8138C123.87 95.8656 123.808 95.9066 123.741 95.9346C123.673 95.9626 123.601 95.977 123.528 95.977ZM123.528 90.1686C123.385 90.1686 123.248 90.112 123.148 90.0113C123.047 89.9106 122.99 89.774 122.99 89.6315V87.7617C123.015 87.6345 123.083 87.5198 123.183 87.4372C123.282 87.3547 123.408 87.3095 123.537 87.3095C123.667 87.3095 123.792 87.3547 123.892 87.4372C123.992 87.5198 124.06 87.6345 124.084 87.7617V89.7509C124.056 89.8753 123.985 89.9857 123.883 90.0622C123.781 90.1388 123.655 90.1765 123.528 90.1686ZM123.528 84.3802C123.383 84.375 123.247 84.314 123.146 84.2101C123.046 84.1063 122.99 83.9675 122.99 83.8232V81.834C122.975 81.7535 122.978 81.6705 122.998 81.591C123.018 81.5116 123.056 81.4376 123.108 81.3744C123.16 81.3112 123.226 81.2603 123.3 81.2253C123.374 81.1904 123.455 81.1723 123.537 81.1723C123.62 81.1723 123.701 81.1904 123.775 81.2253C123.849 81.2603 123.914 81.3112 123.967 81.3744C124.019 81.4376 124.057 81.5116 124.077 81.591C124.097 81.6705 124.1 81.7535 124.084 81.834V83.8232C124.084 83.8963 124.07 83.9687 124.042 84.0363C124.014 84.1039 123.973 84.1653 123.921 84.217C123.87 84.2687 123.808 84.3098 123.741 84.3378C123.673 84.3657 123.601 84.3802 123.528 84.3802ZM123.528 78.5718C123.455 78.5718 123.384 78.5573 123.317 78.5291C123.251 78.5009 123.191 78.4595 123.141 78.4075C123.09 78.3555 123.051 78.2939 123.025 78.2265C123 78.159 122.988 78.087 122.99 78.0148V76.0257C123.015 75.8984 123.083 75.7837 123.183 75.7012C123.282 75.6186 123.408 75.5735 123.537 75.5735C123.667 75.5735 123.792 75.6186 123.892 75.7012C123.992 75.7837 124.06 75.8984 124.084 76.0257V78.0148C124.087 78.0887 124.075 78.1624 124.048 78.2312C124.021 78.3001 123.98 78.3626 123.928 78.4149C123.875 78.4671 123.813 78.5081 123.744 78.5351C123.675 78.5621 123.601 78.5746 123.528 78.5718ZM123.528 72.7634C123.385 72.7634 123.248 72.7068 123.148 72.6061C123.047 72.5054 122.99 72.3688 122.99 72.2264V70.2372C122.975 70.1566 122.978 70.0737 122.998 69.9942C123.018 69.9148 123.056 69.8408 123.108 69.7775C123.16 69.7143 123.226 69.6634 123.3 69.6285C123.374 69.5936 123.455 69.5754 123.537 69.5754C123.62 69.5754 123.701 69.5936 123.775 69.6285C123.849 69.6634 123.914 69.7143 123.967 69.7775C124.019 69.8408 124.057 69.9148 124.077 69.9942C124.097 70.0737 124.1 70.1566 124.084 70.2372V72.2264C124.085 72.2986 124.07 72.3701 124.042 72.4366C124.014 72.5031 123.972 72.5632 123.92 72.6133C123.868 72.6635 123.807 72.7026 123.739 72.7284C123.672 72.7542 123.6 72.7661 123.528 72.7634Z" fill="#E9E2EF"/>
<path d="M123.528 135.641C123.383 135.636 123.247 135.575 123.146 135.471C123.046 135.367 122.99 135.228 122.99 135.084V134.089C122.975 134.009 122.978 133.926 122.998 133.846C123.018 133.767 123.056 133.693 123.108 133.63C123.16 133.566 123.226 133.515 123.3 133.481C123.374 133.446 123.455 133.427 123.537 133.427C123.62 133.427 123.701 133.446 123.775 133.481C123.849 133.515 123.914 133.566 123.967 133.63C124.019 133.693 124.057 133.767 124.077 133.846C124.097 133.926 124.1 134.009 124.084 134.089V135.084C124.084 135.157 124.07 135.229 124.042 135.297C124.014 135.365 123.973 135.426 123.921 135.478C123.87 135.529 123.808 135.57 123.741 135.598C123.673 135.626 123.601 135.641 123.528 135.641Z" fill="#E9E2EF"/>
<path d="M149.904 104.311C149.758 104.306 149.619 104.246 149.515 104.143C149.412 104.039 149.352 103.9 149.347 103.754V102.76C149.352 102.615 149.413 102.479 149.517 102.379C149.621 102.279 149.759 102.223 149.904 102.223C150.046 102.223 150.183 102.279 150.283 102.38C150.384 102.481 150.441 102.617 150.441 102.76V103.675C150.452 103.753 150.447 103.832 150.425 103.908C150.403 103.983 150.366 104.054 150.315 104.114C150.264 104.174 150.202 104.223 150.131 104.257C150.06 104.291 149.982 104.309 149.904 104.311Z" fill="#E9E2EF"/>
<path d="M149.904 130.31C149.758 130.305 149.619 130.244 149.515 130.141C149.412 130.038 149.352 129.899 149.347 129.753V127.545C149.352 127.4 149.413 127.264 149.517 127.164C149.621 127.063 149.759 127.008 149.904 127.008C150.046 127.008 150.183 127.064 150.283 127.165C150.384 127.266 150.441 127.402 150.441 127.545V129.713C150.446 129.788 150.436 129.863 150.412 129.934C150.388 130.005 150.349 130.07 150.299 130.126C150.249 130.181 150.188 130.226 150.12 130.258C150.052 130.29 149.979 130.307 149.904 130.31ZM149.904 123.805C149.756 123.805 149.614 123.746 149.51 123.642C149.405 123.537 149.347 123.396 149.347 123.248V121.1C149.347 120.952 149.405 120.81 149.51 120.706C149.614 120.602 149.756 120.543 149.904 120.543C149.976 120.543 150.047 120.557 150.114 120.586C150.18 120.614 150.24 120.655 150.291 120.707C150.341 120.759 150.38 120.821 150.406 120.888C150.432 120.956 150.443 121.028 150.441 121.1V123.248C150.443 123.32 150.432 123.392 150.406 123.46C150.38 123.527 150.341 123.589 150.291 123.641C150.24 123.693 150.18 123.734 150.114 123.762C150.047 123.791 149.976 123.805 149.904 123.805ZM149.904 117.3C149.759 117.301 149.621 117.245 149.517 117.144C149.413 117.044 149.352 116.908 149.347 116.763V114.595C149.352 114.449 149.412 114.31 149.515 114.207C149.619 114.103 149.758 114.043 149.904 114.038C150.048 114.043 150.184 114.104 150.285 114.208C150.385 114.312 150.441 114.451 150.441 114.595V116.763C150.441 116.906 150.384 117.042 150.283 117.143C150.183 117.244 150.046 117.3 149.904 117.3ZM149.904 110.816C149.758 110.811 149.619 110.751 149.515 110.647C149.412 110.544 149.352 110.405 149.347 110.259V108.091C149.352 107.945 149.412 107.806 149.515 107.702C149.619 107.599 149.758 107.539 149.904 107.534C150.048 107.539 150.184 107.6 150.285 107.704C150.385 107.808 150.441 107.946 150.441 108.091V110.259C150.441 110.403 150.385 110.542 150.285 110.646C150.184 110.75 150.048 110.811 149.904 110.816Z" fill="#E9E2EF"/>
<path d="M149.904 135.641C149.758 135.636 149.619 135.576 149.515 135.472C149.412 135.369 149.352 135.23 149.347 135.084V134.089C149.352 133.943 149.412 133.804 149.515 133.701C149.619 133.597 149.758 133.537 149.904 133.532C150.048 133.537 150.184 133.598 150.285 133.702C150.385 133.806 150.441 133.945 150.441 134.089V135.084C150.441 135.228 150.385 135.367 150.285 135.471C150.184 135.575 150.048 135.636 149.904 135.641Z" fill="#E9E2EF"/>
<path d="M176.26 88.4977C176.115 88.4925 175.979 88.4316 175.879 88.3277C175.778 88.2238 175.723 88.085 175.723 87.9407V86.9461C175.723 86.8018 175.778 86.6631 175.879 86.5592C175.979 86.4553 176.115 86.3943 176.26 86.3892C176.406 86.3941 176.545 86.4544 176.648 86.5578C176.751 86.6612 176.812 86.8 176.817 86.9461V87.9407C176.812 88.0868 176.751 88.2257 176.648 88.329C176.545 88.4324 176.406 88.4927 176.26 88.4977Z" fill="#E9E2EF"/>
<path d="M176.26 130.628C176.188 130.628 176.116 130.614 176.05 130.585C175.983 130.557 175.923 130.516 175.873 130.464C175.823 130.412 175.784 130.35 175.758 130.283C175.732 130.215 175.72 130.143 175.723 130.071V128.082C175.723 127.94 175.78 127.803 175.88 127.702C175.981 127.602 176.118 127.545 176.26 127.545C176.404 127.545 176.543 127.601 176.647 127.701C176.751 127.801 176.812 127.938 176.817 128.082V130.071C176.817 130.219 176.758 130.361 176.654 130.465C176.549 130.569 176.408 130.628 176.26 130.628ZM176.26 124.661C176.118 124.661 175.981 124.604 175.88 124.503C175.78 124.403 175.723 124.266 175.723 124.124V122.134C175.723 121.99 175.779 121.851 175.879 121.747C175.979 121.644 176.116 121.583 176.26 121.577C176.406 121.582 176.545 121.643 176.648 121.746C176.752 121.849 176.812 121.988 176.817 122.134V124.124C176.798 124.257 176.731 124.379 176.628 124.467C176.526 124.555 176.395 124.602 176.26 124.601V124.661ZM176.26 118.693C176.116 118.688 175.979 118.627 175.879 118.523C175.779 118.419 175.723 118.281 175.723 118.136V116.147C175.723 116.005 175.78 115.868 175.88 115.767C175.981 115.667 176.118 115.61 176.26 115.61C176.404 115.61 176.543 115.666 176.647 115.766C176.751 115.866 176.812 116.003 176.817 116.147V118.136C176.79 118.264 176.72 118.379 176.619 118.463C176.518 118.546 176.391 118.592 176.26 118.594V118.693ZM176.26 112.726C176.188 112.726 176.116 112.711 176.05 112.683C175.983 112.655 175.923 112.613 175.873 112.561C175.823 112.509 175.784 112.448 175.758 112.38C175.732 112.313 175.72 112.241 175.723 112.169V110.18C175.72 110.107 175.732 110.035 175.758 109.968C175.784 109.9 175.823 109.839 175.873 109.787C175.923 109.735 175.983 109.694 176.05 109.665C176.116 109.637 176.188 109.623 176.26 109.623C176.408 109.623 176.549 109.681 176.654 109.786C176.758 109.89 176.817 110.032 176.817 110.18V112.169C176.782 112.288 176.708 112.391 176.607 112.463C176.506 112.535 176.384 112.572 176.26 112.567V112.726ZM176.26 106.758C176.118 106.758 175.981 106.702 175.88 106.601C175.78 106.5 175.723 106.364 175.723 106.221V104.232C175.723 104.088 175.779 103.949 175.879 103.845C175.979 103.741 176.116 103.68 176.26 103.675C176.406 103.68 176.545 103.74 176.648 103.844C176.752 103.947 176.812 104.086 176.817 104.232V106.221C176.768 106.325 176.689 106.412 176.589 106.468C176.489 106.525 176.374 106.55 176.26 106.539V106.758ZM176.26 100.791C176.116 100.786 175.979 100.725 175.879 100.621C175.779 100.517 175.723 100.378 175.723 100.234V98.2446C175.723 98.1021 175.78 97.9655 175.88 97.8648C175.981 97.7641 176.118 97.7075 176.26 97.7075C176.404 97.7074 176.543 97.7633 176.647 97.8635C176.751 97.9637 176.812 98.1003 176.817 98.2446V100.234C176.763 100.332 176.682 100.413 176.583 100.466C176.484 100.519 176.372 100.542 176.26 100.532V100.791ZM176.26 94.8232C176.118 94.8232 175.981 94.7666 175.88 94.6659C175.78 94.5652 175.723 94.4286 175.723 94.2861V92.297C175.723 92.1526 175.779 92.0139 175.879 91.91C175.979 91.8061 176.116 91.7451 176.26 91.74C176.406 91.7449 176.545 91.8052 176.648 91.9086C176.752 92.012 176.812 92.1508 176.817 92.297V94.2861C176.755 94.3718 176.669 94.4379 176.57 94.4767C176.472 94.5154 176.364 94.5252 176.26 94.5049V94.8232Z" fill="#E9E2EF"/>
<path d="M176.26 135.641C176.115 135.636 175.979 135.575 175.879 135.471C175.778 135.367 175.723 135.228 175.723 135.084V134.089C175.723 133.945 175.778 133.806 175.879 133.702C175.979 133.598 176.115 133.537 176.26 133.532C176.406 133.537 176.545 133.597 176.648 133.701C176.751 133.804 176.812 133.943 176.817 134.089V135.084C176.812 135.23 176.751 135.369 176.648 135.472C176.545 135.576 176.406 135.636 176.26 135.641Z" fill="#E9E2EF"/>
<path d="M228.993 80.1832C228.846 80.1783 228.708 80.118 228.604 80.0146C228.501 79.9112 228.441 79.7724 228.436 79.6263V78.6317C228.436 78.484 228.494 78.3423 228.599 78.2379C228.703 78.1334 228.845 78.0747 228.993 78.0747C229.14 78.0747 229.282 78.1334 229.386 78.2379C229.491 78.3423 229.549 78.484 229.549 78.6317V79.6263C229.545 79.7724 229.484 79.9112 229.381 80.0146C229.277 80.118 229.139 80.1783 228.993 80.1832Z" fill="#E9E2EF"/>
<path d="M228.993 130.449C228.845 130.449 228.703 130.39 228.599 130.286C228.494 130.181 228.436 130.04 228.436 129.892V127.803C228.436 127.656 228.494 127.514 228.599 127.41C228.703 127.305 228.845 127.247 228.993 127.247C229.14 127.247 229.282 127.305 229.386 127.41C229.491 127.514 229.549 127.656 229.549 127.803V129.892C229.549 129.965 229.535 130.038 229.507 130.105C229.479 130.173 229.438 130.234 229.386 130.286C229.335 130.338 229.273 130.379 229.206 130.407C229.138 130.435 229.066 130.449 228.993 130.449ZM228.993 124.163C228.848 124.163 228.709 124.107 228.606 124.007C228.502 123.907 228.441 123.77 228.436 123.626V121.577C228.436 121.43 228.494 121.288 228.599 121.184C228.703 121.079 228.845 121.02 228.993 121.02C229.14 121.02 229.282 121.079 229.386 121.184C229.491 121.288 229.549 121.43 229.549 121.577V123.567C229.555 123.643 229.545 123.72 229.519 123.792C229.494 123.864 229.453 123.93 229.401 123.986C229.349 124.042 229.286 124.087 229.215 124.117C229.145 124.148 229.069 124.164 228.993 124.163ZM228.993 117.878C228.848 117.878 228.709 117.822 228.606 117.722C228.502 117.621 228.441 117.485 228.436 117.34V115.232C228.436 115.084 228.494 114.943 228.599 114.838C228.703 114.734 228.845 114.675 228.993 114.675C229.14 114.675 229.282 114.734 229.386 114.838C229.491 114.943 229.549 115.084 229.549 115.232V117.34C229.544 117.485 229.483 117.621 229.38 117.722C229.276 117.822 229.137 117.878 228.993 117.878ZM228.993 111.592C228.848 111.592 228.709 111.536 228.606 111.436C228.502 111.336 228.441 111.199 228.436 111.055V108.946C228.436 108.798 228.494 108.657 228.599 108.552C228.703 108.448 228.845 108.389 228.993 108.389C229.14 108.389 229.282 108.448 229.386 108.552C229.491 108.657 229.549 108.798 229.549 108.946V111.055C229.552 111.13 229.54 111.204 229.513 111.274C229.486 111.344 229.446 111.408 229.394 111.461C229.342 111.515 229.279 111.558 229.21 111.587C229.141 111.617 229.067 111.632 228.993 111.632V111.592ZM228.993 105.306C228.848 105.306 228.709 105.25 228.606 105.15C228.502 105.05 228.441 104.913 228.436 104.769V102.78C228.436 102.632 228.494 102.49 228.599 102.386C228.703 102.282 228.845 102.223 228.993 102.223C229.14 102.223 229.282 102.282 229.386 102.386C229.491 102.49 229.549 102.632 229.549 102.78V104.769C229.544 104.913 229.483 105.05 229.38 105.15C229.276 105.25 229.137 105.306 228.993 105.306ZM228.993 99.0203C228.848 99.0204 228.709 98.9644 228.606 98.8642C228.502 98.7641 228.441 98.6274 228.436 98.4832V96.494C228.436 96.3463 228.494 96.2047 228.599 96.1002C228.703 95.9958 228.845 95.9371 228.993 95.9371C229.14 95.9371 229.282 95.9958 229.386 96.1002C229.491 96.2047 229.549 96.3463 229.549 96.494V98.4832C229.544 98.6274 229.483 98.7641 229.38 98.8642C229.276 98.9644 229.137 99.0204 228.993 99.0203ZM228.993 92.7544C228.846 92.7495 228.708 92.6892 228.604 92.5858C228.501 92.4824 228.441 92.3436 228.436 92.1975V90.2083C228.436 90.0606 228.494 89.9189 228.599 89.8145C228.703 89.71 228.845 89.6513 228.993 89.6513C229.14 89.6513 229.282 89.71 229.386 89.8145C229.491 89.9189 229.549 90.0606 229.549 90.2083V92.1975C229.545 92.3436 229.484 92.4824 229.381 92.5858C229.277 92.6892 229.139 92.7495 228.993 92.7544ZM228.993 86.4687C228.846 86.4637 228.708 86.4034 228.604 86.3C228.501 86.1966 228.441 86.0578 228.436 85.9117V83.7833C228.436 83.6356 228.494 83.4939 228.599 83.3894C228.703 83.285 228.845 83.2263 228.993 83.2263C229.14 83.2263 229.282 83.285 229.386 83.3894C229.491 83.4939 229.549 83.6356 229.549 83.7833V85.7724C229.567 85.8559 229.566 85.9422 229.546 86.0251C229.527 86.1081 229.489 86.1856 229.436 86.2522C229.382 86.3188 229.315 86.3727 229.238 86.4101C229.162 86.4476 229.078 86.4676 228.993 86.4687Z" fill="#E9E2EF"/>
<path d="M228.993 135.641C228.846 135.636 228.708 135.576 228.604 135.472C228.501 135.369 228.441 135.23 228.436 135.084V134.089C228.436 133.941 228.494 133.8 228.599 133.695C228.703 133.591 228.845 133.532 228.993 133.532C229.14 133.532 229.282 133.591 229.386 133.695C229.491 133.8 229.549 133.941 229.549 134.089V135.084C229.545 135.23 229.484 135.369 229.381 135.472C229.277 135.576 229.139 135.636 228.993 135.641Z" fill="#E9E2EF"/>
<path d="M202.636 110.299C202.564 110.302 202.492 110.29 202.425 110.264C202.357 110.238 202.296 110.199 202.244 110.149C202.192 110.099 202.15 110.039 202.122 109.972C202.094 109.906 202.079 109.834 202.079 109.762V108.767C202.064 108.687 202.066 108.604 202.087 108.524C202.107 108.445 202.145 108.371 202.197 108.308C202.249 108.244 202.315 108.193 202.389 108.159C202.463 108.124 202.544 108.105 202.626 108.105C202.708 108.105 202.789 108.124 202.864 108.159C202.938 108.193 203.003 108.244 203.056 108.308C203.108 108.371 203.145 108.445 203.166 108.524C203.186 108.604 203.189 108.687 203.173 108.767V109.762C203.173 109.904 203.117 110.041 203.016 110.142C202.915 110.242 202.779 110.299 202.636 110.299Z" fill="#E9E2EF"/>
<path d="M202.636 130.21C202.564 130.213 202.492 130.201 202.425 130.175C202.357 130.149 202.296 130.11 202.244 130.06C202.192 130.01 202.15 129.95 202.122 129.883C202.094 129.817 202.079 129.745 202.079 129.673V127.545C202.104 127.418 202.172 127.303 202.271 127.22C202.371 127.138 202.497 127.093 202.626 127.093C202.756 127.093 202.881 127.138 202.981 127.22C203.081 127.303 203.149 127.418 203.173 127.545V129.773C203.15 129.897 203.083 130.01 202.985 130.09C202.886 130.17 202.763 130.212 202.636 130.21ZM202.636 123.566C202.564 123.569 202.492 123.557 202.425 123.531C202.357 123.506 202.296 123.467 202.244 123.416C202.192 123.366 202.15 123.306 202.122 123.24C202.094 123.173 202.079 123.102 202.079 123.029V120.821C202.064 120.741 202.066 120.658 202.087 120.578C202.107 120.499 202.145 120.425 202.197 120.362C202.249 120.299 202.315 120.248 202.389 120.213C202.463 120.178 202.544 120.16 202.626 120.16C202.708 120.16 202.789 120.178 202.864 120.213C202.938 120.248 203.003 120.299 203.056 120.362C203.108 120.425 203.145 120.499 203.166 120.578C203.186 120.658 203.189 120.741 203.173 120.821V123.029C203.173 123.172 203.117 123.308 203.016 123.409C202.915 123.51 202.779 123.566 202.636 123.566ZM202.636 116.943C202.489 116.943 202.347 116.884 202.242 116.779C202.138 116.675 202.079 116.533 202.079 116.386V114.178C202.064 114.097 202.066 114.014 202.087 113.935C202.107 113.855 202.145 113.781 202.197 113.718C202.249 113.655 202.315 113.604 202.389 113.569C202.463 113.534 202.544 113.516 202.626 113.516C202.708 113.516 202.789 113.534 202.864 113.569C202.938 113.604 203.003 113.655 203.056 113.718C203.108 113.781 203.145 113.855 203.166 113.935C203.186 114.014 203.189 114.097 203.173 114.178V116.386C203.173 116.53 203.117 116.669 203.017 116.773C202.917 116.876 202.78 116.937 202.636 116.943Z" fill="#E9E2EF"/>
<path d="M202.636 135.641C202.489 135.641 202.347 135.582 202.242 135.478C202.138 135.373 202.079 135.232 202.079 135.084V134.089C202.064 134.009 202.066 133.926 202.087 133.846C202.107 133.767 202.145 133.693 202.197 133.63C202.249 133.566 202.315 133.515 202.389 133.481C202.463 133.446 202.544 133.427 202.626 133.427C202.708 133.427 202.789 133.446 202.864 133.481C202.938 133.515 203.003 133.566 203.056 133.63C203.108 133.693 203.145 133.767 203.166 133.846C203.186 133.926 203.189 134.009 203.173 134.089V135.084C203.173 135.228 203.117 135.367 203.017 135.471C202.917 135.575 202.78 135.636 202.636 135.641Z" fill="#E9E2EF"/>
<path d="M97.1708 122.97C96.9841 122.969 96.8007 122.921 96.6373 122.831C96.4739 122.74 96.3359 122.61 96.2359 122.453L70.516 79.9442L45.1343 100.353C44.9437 100.492 44.7138 100.567 44.4779 100.567C44.2419 100.567 44.0121 100.492 43.8214 100.353L26.0582 87.9605C25.8181 87.7943 25.654 87.5396 25.6017 87.2523C25.5495 86.9651 25.6135 86.6689 25.7797 86.4288C25.9459 86.1888 26.2006 86.0246 26.4879 85.9724C26.7751 85.9201 27.0713 85.9842 27.3114 86.1504L44.3983 98.0853L70.1182 77.398C70.2388 77.2991 70.3799 77.2281 70.5312 77.1903C70.6826 77.1524 70.8404 77.1487 70.9934 77.1792C71.1507 77.2016 71.3006 77.2599 71.4317 77.3496C71.5628 77.4393 71.6715 77.558 71.7493 77.6964L97.0515 119.469L122.453 64.9658C122.539 64.791 122.669 64.641 122.829 64.5297C122.989 64.4183 123.174 64.3494 123.368 64.3292C123.561 64.3175 123.753 64.3553 123.927 64.4388C124.101 64.5223 124.251 64.649 124.363 64.8066L150.301 101.308L175.802 86.0111C176.001 85.8872 176.236 85.8318 176.469 85.8533C176.702 85.8749 176.922 85.9722 177.095 86.1305L202.616 108.628L228.257 77.9351C228.345 77.8215 228.456 77.7272 228.583 77.6582C228.709 77.5892 228.849 77.5468 228.992 77.5338C229.136 77.5207 229.281 77.5373 229.418 77.5823C229.554 77.6274 229.681 77.7001 229.788 77.7959C229.903 77.8864 229.997 77.9992 230.066 78.1274C230.136 78.2556 230.178 78.3966 230.191 78.5417C230.204 78.6869 230.188 78.8332 230.142 78.9717C230.097 79.1102 230.024 79.238 229.928 79.3474L203.472 110.896C203.38 111.011 203.266 111.106 203.136 111.174C203.006 111.243 202.863 111.283 202.716 111.293C202.568 111.303 202.42 111.284 202.28 111.236C202.14 111.188 202.011 111.113 201.9 111.015L176.161 88.2986L150.46 103.675C150.224 103.819 149.941 103.867 149.671 103.808C149.4 103.748 149.163 103.587 149.008 103.357L123.726 67.5517L98.1654 122.274C98.0824 122.455 97.9513 122.61 97.7866 122.722C97.6218 122.834 97.4295 122.899 97.2305 122.91L97.1708 122.97Z" fill="#FFD465"/>
<path d="M74.1164 78.2934C74.1203 78.9487 73.9301 79.5905 73.5701 80.138C73.21 80.6855 72.6961 81.1143 72.093 81.3704C71.4898 81.6266 70.8244 81.6986 70.1804 81.5774C69.5364 81.4563 68.9426 81.1474 68.4737 80.6895C68.0049 80.2317 67.6819 79.6455 67.5455 79.0045C67.409 78.3636 67.4652 77.6967 67.7069 77.0876C67.9486 76.4785 68.365 75.9545 68.9038 75.5815C69.4426 75.2085 70.0796 75.0032 70.7348 74.9914C71.1751 74.9808 71.6131 75.0584 72.0229 75.2196C72.4328 75.3808 72.8062 75.6223 73.1213 75.93C73.4364 76.2377 73.6868 76.6053 73.8577 77.0112C74.0285 77.4171 74.1166 77.853 74.1164 78.2934Z" fill="#FF9C53"/>
<path d="M70.7349 82.6893C69.8655 82.6893 69.0155 82.4315 68.2926 81.9485C67.5697 81.4654 67.0062 80.7788 66.6735 79.9756C66.3408 79.1723 66.2537 78.2884 66.4233 77.4357C66.593 76.5829 67.0117 75.7996 67.6265 75.1848C68.2413 74.57 69.0245 74.1513 69.8773 73.9817C70.7301 73.8121 71.614 73.8991 72.4172 74.2319C73.2205 74.5646 73.9071 75.128 74.3901 75.851C74.8732 76.5739 75.131 77.4238 75.131 78.2933C75.1257 79.4576 74.6609 80.5727 73.8377 81.396C73.0144 82.2193 71.8992 82.6841 70.7349 82.6893ZM70.7349 76.0853C70.2974 76.0814 69.8686 76.2075 69.5029 76.4477C69.1372 76.6879 68.8511 77.0313 68.6809 77.4344C68.5107 77.8375 68.4641 78.2821 68.5471 78.7117C68.63 79.1413 68.8387 79.5366 69.1467 79.8474C69.4547 80.1582 69.8481 80.3704 70.2769 80.4572C70.7058 80.5441 71.1507 80.5015 71.5554 80.335C71.96 80.1685 72.3059 79.8855 72.5495 79.522C72.793 79.1585 72.923 78.7308 72.923 78.2933C72.923 77.7111 72.6932 77.1525 72.2834 76.739C71.8736 76.3255 71.3171 76.0905 70.7349 76.0853Z" fill="#FF9C53"/>
<path d="M153.206 101.845C153.206 102.498 153.012 103.136 152.649 103.679C152.286 104.222 151.771 104.645 151.167 104.895C150.564 105.145 149.9 105.211 149.259 105.083C148.619 104.956 148.03 104.641 147.569 104.18C147.107 103.718 146.792 103.129 146.665 102.489C146.538 101.848 146.603 101.184 146.853 100.581C147.103 99.9778 147.526 99.462 148.069 99.0992C148.612 98.7364 149.25 98.5427 149.904 98.5427C150.779 98.5427 151.619 98.8906 152.238 99.5099C152.858 100.129 153.206 100.969 153.206 101.845Z" fill="#FF9C53"/>
<path d="M149.903 106.241C149.033 106.245 148.181 105.991 147.456 105.51C146.73 105.029 146.163 104.344 145.828 103.541C145.492 102.738 145.402 101.854 145.569 101C145.737 100.146 146.154 99.3606 146.768 98.7439C147.382 98.1271 148.165 97.7064 149.018 97.5352C149.872 97.3639 150.757 97.4498 151.561 97.7819C152.365 98.1141 153.053 98.6775 153.537 99.4009C154.021 100.124 154.279 100.975 154.279 101.845C154.274 103.006 153.812 104.118 152.993 104.941C152.174 105.764 151.064 106.231 149.903 106.241ZM149.903 99.6373C149.467 99.6373 149.04 99.7668 148.677 100.009C148.313 100.252 148.031 100.597 147.863 101C147.696 101.404 147.653 101.848 147.738 102.276C147.823 102.704 148.033 103.098 148.342 103.407C148.651 103.715 149.044 103.926 149.472 104.011C149.901 104.096 150.345 104.052 150.748 103.885C151.152 103.718 151.497 103.435 151.739 103.072C151.982 102.709 152.111 102.282 152.111 101.845C152.096 101.27 151.856 100.724 151.444 100.322C151.031 99.9211 150.479 99.6967 149.903 99.6969V99.6373Z" fill="#FF9C53"/>
<path d="M232.294 78.6314C232.294 79.2844 232.101 79.9228 231.738 80.4659C231.375 81.0089 230.859 81.4321 230.256 81.682C229.653 81.9319 228.989 81.9973 228.348 81.8699C227.708 81.7425 227.119 81.428 226.658 80.9662C226.196 80.5044 225.881 79.9161 225.754 79.2755C225.626 78.635 225.692 77.9711 225.942 77.3677C226.192 76.7644 226.615 76.2487 227.158 75.8858C227.701 75.523 228.339 75.3293 228.992 75.3293C229.868 75.3293 230.708 75.6772 231.327 76.2965C231.947 76.9157 232.294 77.7556 232.294 78.6314Z" fill="#FF9C53"/>
<path d="M228.993 83.0272C228.123 83.0272 227.273 82.7694 226.55 82.2864C225.827 81.8033 225.264 81.1167 224.931 80.3135C224.599 79.5102 224.512 78.6263 224.681 77.7735C224.851 76.9208 225.269 76.1375 225.884 75.5227C226.499 74.9079 227.282 74.4892 228.135 74.3196C228.988 74.15 229.872 74.237 230.675 74.5697C231.478 74.9025 232.165 75.4659 232.648 76.1889C233.131 76.9118 233.389 77.7617 233.389 78.6312C233.389 79.7971 232.926 80.9152 232.101 81.7397C231.277 82.5641 230.159 83.0272 228.993 83.0272ZM228.993 76.4232C228.556 76.4232 228.129 76.5527 227.766 76.7953C227.403 77.0379 227.12 77.3828 226.953 77.7862C226.786 78.1897 226.742 78.6336 226.827 79.0619C226.912 79.4902 227.123 79.8836 227.431 80.1924C227.74 80.5012 228.134 80.7115 228.562 80.7967C228.99 80.8819 229.434 80.8382 229.838 80.6711C230.241 80.504 230.586 80.2209 230.829 79.8578C231.071 79.4947 231.201 79.0679 231.201 78.6312C231.201 78.3412 231.144 78.0541 231.033 77.7862C230.922 77.5183 230.759 77.2749 230.554 77.0699C230.349 76.8649 230.106 76.7022 229.838 76.5913C229.57 76.4803 229.283 76.4232 228.993 76.4232Z" fill="#FF9C53"/>
<path d="M47.7398 99.4976C47.7398 100.151 47.5461 100.789 47.1833 101.332C46.8204 101.875 46.3047 102.298 45.7014 102.548C45.098 102.798 44.4341 102.864 43.7936 102.736C43.153 102.609 42.5647 102.294 42.1029 101.832C41.6411 101.371 41.3266 100.782 41.1992 100.142C41.0718 99.5012 41.1372 98.8373 41.3871 98.234C41.637 97.6306 42.0602 97.1149 42.6033 96.752C43.1463 96.3892 43.7847 96.1956 44.4377 96.1956C45.3135 96.1956 46.1534 96.5435 46.7726 97.1627C47.3919 97.7819 47.7398 98.6218 47.7398 99.4976Z" fill="#686AF3"/>
<path d="M44.4384 103.913C43.565 103.913 42.7112 103.654 41.985 103.169C41.2588 102.684 40.6928 101.994 40.3586 101.187C40.0244 100.38 39.9369 99.4926 40.1073 98.636C40.2777 97.7794 40.6983 96.9925 41.3159 96.3749C41.9334 95.7574 42.7203 95.3368 43.5769 95.1664C44.4335 94.996 45.3214 95.0835 46.1283 95.4177C46.9352 95.7519 47.6249 96.3179 48.1101 97.0441C48.5954 97.7703 48.8543 98.6241 48.8543 99.4975C48.8543 100.669 48.3891 101.792 47.5609 102.62C46.7328 103.448 45.6096 103.913 44.4384 103.913ZM44.4384 97.2895C44.0017 97.2895 43.5748 97.419 43.2117 97.6616C42.8486 97.9042 42.5656 98.2491 42.3985 98.6525C42.2314 99.056 42.1877 99.4999 42.2729 99.9282C42.3581 100.357 42.5683 100.75 42.8771 101.059C43.1859 101.368 43.5793 101.578 44.0076 101.663C44.4359 101.748 44.8799 101.705 45.2833 101.537C45.6868 101.37 46.0316 101.087 46.2743 100.724C46.5169 100.361 46.6464 99.9342 46.6464 99.4975C46.6464 98.9119 46.4138 98.3503 45.9997 97.9362C45.5856 97.5221 45.024 97.2895 44.4384 97.2895Z" fill="#686AF3"/>
<path d="M126.85 65.4234C126.854 66.0812 126.662 66.7254 126.3 67.2743C125.937 67.8232 125.42 68.2521 124.813 68.5066C124.206 68.7611 123.538 68.8297 122.892 68.7038C122.246 68.5779 121.653 68.2631 121.186 67.7993C120.719 67.3355 120.401 66.7436 120.271 66.0987C120.142 65.4538 120.206 64.7849 120.457 64.1767C120.708 63.5685 121.134 63.0486 121.68 62.6827C122.227 62.3168 122.87 62.1214 123.528 62.1214C123.963 62.1188 124.395 62.2022 124.798 62.367C125.201 62.5318 125.567 62.7746 125.876 63.0815C126.184 63.3884 126.429 63.7533 126.597 64.1552C126.764 64.5571 126.85 64.9881 126.85 65.4234Z" fill="#686AF3"/>
<path d="M123.527 69.8592C122.654 69.8592 121.8 69.6002 121.074 69.115C120.348 68.6298 119.782 67.9401 119.447 67.1332C119.113 66.3263 119.026 65.4384 119.196 64.5818C119.367 63.7252 119.787 62.9383 120.405 62.3207C121.022 61.7032 121.809 61.2826 122.666 61.1122C123.522 60.9418 124.41 61.0293 125.217 61.3635C126.024 61.6977 126.714 62.2637 127.199 62.9899C127.684 63.7161 127.943 64.5699 127.943 65.4433C127.943 66.0232 127.829 66.5974 127.607 67.1332C127.385 67.669 127.06 68.1558 126.65 68.5658C126.24 68.9759 125.753 69.3012 125.217 69.5231C124.681 69.745 124.107 69.8592 123.527 69.8592ZM123.527 63.2353C123.091 63.2353 122.664 63.3648 122.301 63.6074C121.937 63.8501 121.654 64.1949 121.487 64.5983C121.32 65.0018 121.277 65.4457 121.362 65.8741C121.447 66.3024 121.657 66.6958 121.966 67.0046C122.275 67.3134 122.668 67.5237 123.097 67.6088C123.525 67.694 123.969 67.6503 124.372 67.4832C124.776 67.3161 125.12 67.0331 125.363 66.67C125.606 66.3069 125.735 65.88 125.735 65.4433C125.738 65.1517 125.683 64.8624 125.573 64.5922C125.463 64.322 125.301 64.0763 125.096 63.8691C124.89 63.662 124.646 63.4976 124.377 63.3854C124.108 63.2732 123.819 63.2154 123.527 63.2154V63.2353Z" fill="#686AF3"/>
<path d="M205.999 109.841C205.999 110.494 205.805 111.133 205.442 111.676C205.079 112.219 204.564 112.642 203.96 112.892C203.357 113.142 202.693 113.207 202.052 113.08C201.412 112.952 200.823 112.638 200.362 112.176C199.9 111.714 199.585 111.126 199.458 110.485C199.331 109.845 199.396 109.181 199.646 108.577C199.896 107.974 200.319 107.458 200.862 107.096C201.405 106.733 202.043 106.539 202.697 106.539C203.13 106.539 203.56 106.624 203.96 106.79C204.361 106.956 204.725 107.2 205.031 107.506C205.338 107.813 205.581 108.177 205.747 108.577C205.913 108.978 205.999 109.407 205.999 109.841Z" fill="#686AF3"/>
<path d="M202.636 114.238C201.767 114.238 200.917 113.98 200.194 113.497C199.471 113.014 198.908 112.327 198.575 111.524C198.242 110.721 198.155 109.837 198.325 108.984C198.494 108.131 198.913 107.348 199.528 106.733C200.143 106.118 200.926 105.7 201.779 105.53C202.631 105.36 203.515 105.447 204.319 105.78C205.122 106.113 205.808 106.676 206.291 107.399C206.775 108.122 207.032 108.972 207.032 109.842C207.027 111.006 206.562 112.121 205.739 112.944C204.916 113.768 203.801 114.232 202.636 114.238ZM202.636 107.634C202.2 107.634 201.773 107.763 201.41 108.006C201.047 108.248 200.764 108.593 200.596 108.997C200.429 109.4 200.386 109.844 200.471 110.272C200.556 110.701 200.766 111.094 201.075 111.403C201.384 111.712 201.777 111.922 202.206 112.007C202.634 112.092 203.078 112.049 203.481 111.882C203.885 111.714 204.23 111.431 204.472 111.068C204.715 110.705 204.844 110.278 204.844 109.842C204.839 109.259 204.604 108.703 204.191 108.293C203.777 107.883 203.218 107.654 202.636 107.654V107.634Z" fill="#686AF3"/>
<path d="M100.573 121.876C100.573 122.529 100.379 123.167 100.016 123.71C99.6535 124.253 99.1378 124.676 98.5344 124.926C97.931 125.176 97.2671 125.242 96.6266 125.114C95.986 124.987 95.3977 124.672 94.9359 124.211C94.4741 123.749 94.1596 123.16 94.0322 122.52C93.9048 121.879 93.9702 121.215 94.2201 120.612C94.4701 120.009 94.8933 119.493 95.4363 119.13C95.9793 118.767 96.6177 118.574 97.2708 118.574C98.1465 118.574 98.9864 118.922 99.6056 119.541C100.225 120.16 100.573 121 100.573 121.876Z" fill="#33E7D2"/>
<path d="M97.1705 126.272C96.301 126.272 95.4511 126.014 94.7282 125.531C94.0052 125.048 93.4418 124.361 93.109 123.558C92.7763 122.755 92.6893 121.871 92.8589 121.018C93.0285 120.165 93.4472 119.382 94.062 118.767C94.6768 118.152 95.4601 117.734 96.3128 117.564C97.1656 117.394 98.0495 117.481 98.8528 117.814C99.6561 118.147 100.343 118.71 100.826 119.433C101.309 120.156 101.567 121.006 101.567 121.876C101.567 123.041 101.103 124.16 100.279 124.984C99.4545 125.808 98.3364 126.272 97.1705 126.272ZM97.1705 119.668C96.7338 119.668 96.3069 119.797 95.9438 120.04C95.5807 120.282 95.2977 120.627 95.1306 121.031C94.9635 121.434 94.9197 121.878 95.0049 122.306C95.0901 122.735 95.3004 123.128 95.6092 123.437C95.918 123.746 96.3114 123.956 96.7397 124.041C97.168 124.126 97.612 124.083 98.0154 123.915C98.4189 123.748 98.7637 123.465 99.0063 123.102C99.2489 122.739 99.3784 122.312 99.3784 121.876C99.3891 121.579 99.3399 121.283 99.2338 121.006C99.1276 120.729 98.9667 120.476 98.7606 120.263C98.5545 120.049 98.3074 119.879 98.0342 119.763C97.761 119.647 97.4673 119.588 97.1705 119.588V119.668Z" fill="#33E7D2"/>
<path d="M179.562 86.946C179.562 87.5991 179.368 88.2375 179.006 88.7806C178.643 89.3236 178.127 89.7468 177.524 89.9967C176.92 90.2466 176.256 90.312 175.616 90.1846C174.975 90.0572 174.387 89.7427 173.925 89.2809C173.463 88.8191 173.149 88.2308 173.021 87.5902C172.894 86.9497 172.959 86.2858 173.209 85.6824C173.459 85.0791 173.882 84.5634 174.425 84.2005C174.969 83.8377 175.607 83.644 176.26 83.644C177.136 83.644 177.976 83.9919 178.595 84.6112C179.214 85.2304 179.562 86.0703 179.562 86.946Z" fill="#33E7D2"/>
<path d="M176.26 91.3424C175.391 91.3384 174.543 91.0773 173.823 90.5918C173.103 90.1064 172.542 89.4185 172.213 88.6149C171.883 87.8113 171.799 86.928 171.971 86.0766C172.143 85.2251 172.563 84.4437 173.178 83.8309C173.794 83.2181 174.577 82.8013 175.43 82.6333C176.282 82.4653 177.165 82.5535 177.967 82.8868C178.769 83.2201 179.454 83.7836 179.936 84.5061C180.419 85.2286 180.676 86.0777 180.676 86.9463C180.676 87.5253 180.562 88.0986 180.339 88.6332C180.117 89.1679 179.792 89.6534 179.381 90.0618C178.971 90.4703 178.484 90.7937 177.948 91.0134C177.413 91.2332 176.839 91.345 176.26 91.3424ZM176.26 84.7383C175.823 84.7383 175.396 84.8678 175.033 85.1104C174.67 85.3531 174.387 85.6979 174.22 86.1014C174.053 86.5048 174.009 86.9488 174.094 87.3771C174.18 87.8054 174.39 88.1988 174.699 88.5076C175.007 88.8164 175.401 89.0267 175.829 89.1119C176.257 89.197 176.701 89.1533 177.105 88.9862C177.508 88.8191 177.853 88.5361 178.096 88.173C178.338 87.8099 178.468 87.383 178.468 86.9463C178.468 86.3607 178.235 85.7991 177.821 85.385C177.407 84.971 176.846 84.7383 176.26 84.7383Z" fill="#33E7D2"/>
<path d="M34.9296 33.0397C34.9292 33.1148 34.9131 33.189 34.8823 33.2576C34.8515 33.3261 34.8066 33.3874 34.7506 33.4375C34.6332 33.5337 34.4845 33.5833 34.3328 33.5767C34.2166 33.5833 34.1014 33.552 34.0045 33.4874C33.9077 33.4228 33.8344 33.3285 33.7958 33.2187L32.7017 30.7322H26.9729L25.859 33.2187C25.8204 33.3285 25.7471 33.4228 25.6503 33.4874C25.5534 33.552 25.4382 33.5833 25.3219 33.5767C25.2451 33.5805 25.1683 33.5683 25.0964 33.5409C25.0245 33.5135 24.9591 33.4715 24.9042 33.4176C24.8487 33.3714 24.804 33.3136 24.773 33.2484C24.7421 33.1831 24.7258 33.1119 24.7252 33.0397C24.7049 32.9547 24.7049 32.8661 24.7252 32.7811L29.1212 23.0143C29.1678 22.8703 29.2674 22.7495 29.3997 22.6761C29.5231 22.6133 29.6591 22.5793 29.7976 22.5767C29.9449 22.5789 30.089 22.6201 30.2153 22.696C30.3327 22.7777 30.4284 22.887 30.4938 23.0143L34.9296 32.7811C34.9479 32.8663 34.9479 32.9544 34.9296 33.0397ZM27.3708 29.678H32.2442L29.8174 24.1083L27.3708 29.678Z" fill="#233A45"/>
<path d="M43.0064 22.7561C43.0655 22.8122 43.112 22.8803 43.1428 22.9557C43.1737 23.0311 43.1882 23.1122 43.1855 23.1937V32.9605C43.1898 33.0451 43.1761 33.1296 43.1452 33.2085C43.1143 33.2874 43.067 33.3588 43.0064 33.418C42.9471 33.4773 42.8751 33.5223 42.7959 33.5499C42.7167 33.5775 42.6323 33.5868 42.5489 33.5771C42.4659 33.5829 42.3825 33.5717 42.3039 33.5444C42.2253 33.517 42.153 33.474 42.0914 33.418C41.9837 33.2904 41.927 33.1274 41.9323 32.9605V32.0654C41.7187 32.5158 41.3805 32.8955 40.9576 33.1594C40.4869 33.4119 39.9601 33.5419 39.4259 33.5374C38.8059 33.5502 38.1962 33.377 37.6755 33.0401C37.161 32.7097 36.7587 32.2312 36.5218 31.6675C36.2414 31.0422 36.0989 30.3637 36.104 29.6784C36.0937 28.9925 36.2364 28.313 36.5218 27.6892C36.76 27.1316 37.1624 26.6597 37.6755 26.3366C38.2021 26.0151 38.809 25.8496 39.4259 25.8592C39.9613 25.8445 40.4906 25.9751 40.9576 26.2371C41.385 26.4956 41.7247 26.8769 41.9323 27.3312V23.1937C41.926 23.112 41.9377 23.0299 41.9667 22.9532C41.9958 22.8766 42.0414 22.8073 42.1003 22.7503C42.1592 22.6933 42.2299 22.65 42.3075 22.6235C42.385 22.597 42.4675 22.5879 42.5489 22.5969C42.6323 22.5873 42.7167 22.5966 42.7959 22.6242C42.8751 22.6517 42.9471 22.6968 43.0064 22.7561ZM41.3554 31.8466C41.7733 31.2184 41.9758 30.4714 41.9323 29.7182C41.9773 28.971 41.7745 28.2299 41.3554 27.6096C41.1395 27.3771 40.8778 27.1916 40.5869 27.0647C40.296 26.9379 39.982 26.8724 39.6647 26.8724C39.3473 26.8724 39.0333 26.9379 38.7424 27.0647C38.4515 27.1916 38.1898 27.3771 37.9739 27.6096C37.526 28.2101 37.3073 28.9508 37.3572 29.6983C37.3081 30.458 37.5263 31.2109 37.9739 31.8267C38.1882 32.0619 38.4493 32.2498 38.7405 32.3784C39.0316 32.507 39.3464 32.5734 39.6647 32.5734C39.9829 32.5734 40.2977 32.507 40.5888 32.3784C40.88 32.2498 41.1411 32.0619 41.3554 31.8267V31.8466Z" fill="#233A45"/>
<path d="M45.5317 24.1086C45.4571 24.0363 45.3978 23.9497 45.3573 23.854C45.3168 23.7584 45.2959 23.6555 45.2959 23.5516C45.2959 23.4478 45.3168 23.3449 45.3573 23.2492C45.3978 23.1536 45.4571 23.067 45.5317 22.9947C45.6114 22.9201 45.7053 22.8623 45.8078 22.8247C45.9104 22.7872 46.0194 22.7705 46.1284 22.7759C46.3477 22.7715 46.5607 22.8495 46.7252 22.9947C46.8664 23.1457 46.945 23.3448 46.945 23.5516C46.945 23.7585 46.8664 23.9575 46.7252 24.1086C46.6461 24.1841 46.5523 24.2425 46.4496 24.2802C46.3469 24.3178 46.2376 24.3339 46.1284 24.3274C46.0189 24.3379 45.9085 24.3236 45.8052 24.2858C45.7019 24.2479 45.6085 24.1874 45.5317 24.1086ZM45.6709 33.4975C45.6092 33.4391 45.5612 33.3678 45.5302 33.2887C45.4993 33.2096 45.4862 33.1247 45.4919 33.04V26.4757C45.4875 26.3911 45.5013 26.3066 45.5321 26.2277C45.563 26.1488 45.6103 26.0774 45.6709 26.0182C45.7985 25.9105 45.9615 25.8538 46.1284 25.8591C46.2888 25.8569 46.4445 25.9135 46.566 26.0182C46.6267 26.0774 46.674 26.1488 46.7048 26.2277C46.7357 26.3066 46.7494 26.3911 46.7451 26.4757V32.9604C46.751 33.0481 46.7381 33.1361 46.7072 33.2185C46.6763 33.3008 46.6282 33.3756 46.566 33.4378C46.4426 33.537 46.2865 33.5867 46.1284 33.577C46.0453 33.584 45.9616 33.5734 45.8828 33.546C45.804 33.5186 45.7318 33.4749 45.6709 33.4179V33.4975Z" fill="#233A45"/>
<path d="M54.5624 26.3165C55.0743 26.6638 55.4804 27.1456 55.736 27.7089C56.0183 28.3337 56.1608 29.0125 56.1538 29.6981C56.1641 30.3839 56.0214 31.0634 55.736 31.6872C55.4787 32.2387 55.0721 32.7073 54.5624 33.0399C54.0725 33.3339 53.5154 33.4975 52.9443 33.5149C52.3732 33.5323 51.8071 33.403 51.3002 33.1393C50.867 32.882 50.5206 32.501 50.3056 32.0453V35.6457C50.2793 35.7927 50.2021 35.9258 50.0876 36.0217C49.973 36.1176 49.8284 36.1701 49.679 36.1701C49.5296 36.1701 49.385 36.1176 49.2705 36.0217C49.1559 35.9258 49.0788 35.7927 49.0525 35.6457V26.4756C49.0484 26.394 49.0623 26.3125 49.0932 26.2369C49.1242 26.1612 49.1714 26.0933 49.2315 26.038C49.3563 25.9234 49.5195 25.8598 49.689 25.8598C49.8584 25.8598 50.0217 25.9234 50.1465 26.038C50.2547 26.1575 50.3118 26.3145 50.3056 26.4756V27.3111C50.5141 26.8511 50.8621 26.4683 51.3002 26.217C51.7665 25.9531 52.2963 25.8223 52.8319 25.8391C53.4429 25.8266 54.0442 25.9925 54.5624 26.3165ZM54.2641 31.8463C54.6553 31.2163 54.8626 30.4894 54.8626 29.7478C54.8626 29.0061 54.6553 28.2793 54.2641 27.6492C54.0668 27.3919 53.8096 27.1867 53.5149 27.0515C53.2202 26.9163 52.897 26.8552 52.5733 26.8734C52.2562 26.8538 51.9391 26.9104 51.6484 27.0384C51.3577 27.1664 51.1019 27.3622 50.9024 27.6094C50.4678 28.2231 50.2571 28.9675 50.3056 29.7179C50.2573 30.4746 50.4678 31.2251 50.9024 31.8463C51.1166 32.0784 51.3765 32.2636 51.6658 32.3902C51.9551 32.5169 52.2674 32.5822 52.5832 32.5822C52.899 32.5822 53.2114 32.5169 53.5006 32.3902C53.7899 32.2636 54.0499 32.0784 54.2641 31.8463Z" fill="#233A45"/>
<path d="M58.0434 24.1088C57.9688 24.0364 57.9095 23.9499 57.869 23.8542C57.8285 23.7585 57.8076 23.6557 57.8076 23.5518C57.8076 23.4479 57.8285 23.3451 57.869 23.2494C57.9095 23.1537 57.9688 23.0671 58.0434 22.9948C58.2057 22.8461 58.4201 22.7675 58.6401 22.776C58.8594 22.7716 59.0724 22.8497 59.2369 22.9948C59.3115 23.0671 59.3708 23.1537 59.4113 23.2494C59.4518 23.3451 59.4726 23.4479 59.4726 23.5518C59.4726 23.6557 59.4518 23.7585 59.4113 23.8542C59.3708 23.9499 59.3115 24.0364 59.2369 24.1088C59.1578 24.1843 59.064 24.2427 58.9613 24.2803C58.8586 24.318 58.7493 24.3341 58.6401 24.3276C58.5308 24.3353 58.4212 24.3198 58.3183 24.2821C58.2155 24.2444 58.1217 24.1853 58.0434 24.1088ZM58.1826 33.4976C58.1209 33.4392 58.0729 33.368 58.042 33.2889C58.011 33.2098 57.9979 33.1248 58.0036 33.0401V26.4759C57.9993 26.3913 58.013 26.3067 58.0438 26.2278C58.0747 26.1489 58.122 26.0775 58.1826 26.0184C58.312 25.9138 58.4738 25.8575 58.6401 25.8592C58.8012 25.853 58.9583 25.9102 59.0777 26.0184C59.1383 26.0775 59.1856 26.1489 59.2165 26.2278C59.2474 26.3067 59.2611 26.3913 59.2568 26.4759V32.9605C59.248 33.0809 59.2063 33.1965 59.1362 33.2946C59.0661 33.3928 58.9703 33.4698 58.8593 33.517C58.7483 33.5643 58.6264 33.5801 58.5071 33.5626C58.3877 33.5452 58.2754 33.4951 58.1826 33.418V33.4976Z" fill="#233A45"/>
<path d="M62.7775 33.4377C62.3726 33.3524 61.9877 33.1904 61.6437 32.9603C61.4956 32.8672 61.3616 32.7533 61.2459 32.6222C61.1627 32.5066 61.1207 32.3666 61.1265 32.2243C61.1239 32.1069 61.1667 31.9929 61.2459 31.9061C61.2808 31.8607 61.3262 31.8244 61.3781 31.8001C61.43 31.7759 61.487 31.7645 61.5442 31.7668C61.7409 31.7987 61.9259 31.8809 62.0813 32.0055C62.3762 32.1717 62.6819 32.3179 62.9963 32.4432C63.3634 32.556 63.7461 32.6097 64.1301 32.6023C64.5808 32.6293 65.0298 32.5257 65.4231 32.3039C65.6457 32.1575 65.8018 31.9294 65.8577 31.6689C65.9135 31.4083 65.8646 31.1363 65.7215 30.9115C65.5561 30.7436 65.3507 30.6204 65.1247 30.5535C64.7305 30.4067 64.3246 30.2936 63.9114 30.2153C63.1975 30.1129 62.5169 29.8475 61.9222 29.4395C61.7281 29.274 61.5749 29.0657 61.4748 28.831C61.3747 28.5963 61.3304 28.3416 61.3453 28.0869C61.3422 27.6745 61.4673 27.2713 61.7034 26.9332C61.9811 26.5645 62.3518 26.2761 62.7775 26.0977C63.2523 25.91 63.7588 25.8155 64.2694 25.8192C64.66 25.8107 65.0494 25.8644 65.4231 25.9784C65.7796 26.0695 66.1165 26.2245 66.4177 26.4359C66.5629 26.5074 66.6881 26.6139 66.7819 26.7459C66.8756 26.8778 66.9351 27.0311 66.9548 27.1918C66.9549 27.2545 66.9427 27.3167 66.9188 27.3747C66.8949 27.4327 66.8598 27.4855 66.8155 27.5299C66.7837 27.5737 66.7417 27.6093 66.6933 27.6335C66.6448 27.6577 66.5912 27.67 66.537 27.6692C66.3305 27.6379 66.1372 27.5482 65.9801 27.4106C65.7208 27.2481 65.4479 27.1083 65.1645 26.9928C64.8612 26.8723 64.5357 26.818 64.2097 26.8337C63.8005 26.809 63.3947 26.921 63.056 27.152C62.9168 27.246 62.8036 27.3737 62.7271 27.5233C62.6505 27.6729 62.6131 27.8394 62.6184 28.0073C62.6015 28.2062 62.6581 28.4044 62.7775 28.5643C62.9188 28.7323 63.1052 28.8565 63.3146 28.9223C63.6598 29.0678 64.02 29.1745 64.3887 29.2406C64.9503 29.3505 65.4976 29.524 66.0199 29.7578C66.3544 29.8947 66.639 30.1307 66.8354 30.4341C67.0106 30.7431 67.0999 31.0934 67.094 31.4486C67.0969 31.7545 67.024 32.0563 66.8817 32.3271C66.7393 32.5978 66.5321 32.8291 66.2784 33.0001C65.6368 33.4229 64.8779 33.6318 64.1103 33.5969C63.6608 33.6053 63.2123 33.5517 62.7775 33.4377Z" fill="#233A45"/>
<path d="M70.1976 33.1392C69.6599 32.8164 69.2253 32.3473 68.9445 31.7865C68.6542 31.1637 68.5048 30.4845 68.5069 29.7974C68.5048 29.108 68.6614 28.4274 68.9644 27.8082C69.2452 27.2308 69.6874 26.7471 70.2374 26.4158C70.8064 26.0913 71.4524 25.9264 72.1072 25.9384C72.4977 25.9312 72.887 25.9849 73.2609 26.0975C73.6248 26.1851 73.9689 26.3403 74.2754 26.555C74.4261 26.6605 74.5602 26.7879 74.6733 26.933C74.7536 27.0424 74.7955 27.1752 74.7926 27.3109C74.7957 27.4405 74.7535 27.5671 74.6733 27.669C74.6383 27.7144 74.5929 27.7507 74.541 27.7749C74.4891 27.7991 74.4321 27.8106 74.3749 27.8082H74.1362L73.9372 27.6889H73.8179C73.5787 27.5277 73.3258 27.3879 73.0621 27.2711C72.7765 27.1617 72.4727 27.1077 72.1669 27.112C71.835 27.0971 71.5042 27.1595 71.2005 27.2941C70.8968 27.4287 70.6284 27.6319 70.4164 27.8878C70.0252 28.5178 69.8179 29.2447 69.8179 29.9863C69.8179 30.728 70.0252 31.4548 70.4164 32.0849C70.6333 32.3323 70.9035 32.5272 71.2068 32.6547C71.5101 32.7822 71.8384 32.8391 72.1669 32.8209C72.4736 32.8377 72.78 32.7832 73.0621 32.6618C73.3364 32.5539 73.5968 32.4137 73.8378 32.244L74.1561 32.065C74.2416 32.0502 74.3291 32.0502 74.4147 32.065C74.4683 32.0671 74.5209 32.0806 74.5689 32.1046C74.6169 32.1286 74.6593 32.1626 74.6931 32.2043C74.7734 32.3061 74.8156 32.4327 74.8125 32.5623C74.8124 32.6885 74.778 32.8122 74.713 32.9204C74.6041 33.0636 74.4691 33.1851 74.3152 33.2784C73.9911 33.4921 73.6353 33.6533 73.2609 33.7558C72.8675 33.8749 72.4586 33.9352 72.0476 33.9348C71.3672 33.8531 70.7249 33.5769 70.1976 33.1392Z" fill="#233A45"/>
<path d="M76.3438 24.1086C76.2026 23.9575 76.124 23.7585 76.124 23.5517C76.124 23.3448 76.2026 23.1458 76.3438 22.9947C76.5144 22.8465 76.7347 22.7684 76.9605 22.7759C77.1798 22.7715 77.3927 22.8495 77.5572 22.9947C77.6984 23.1458 77.777 23.3448 77.777 23.5517C77.777 23.7585 77.6984 23.9575 77.5572 24.1086C77.4781 24.1841 77.3843 24.2426 77.2817 24.2802C77.179 24.3178 77.0696 24.3339 76.9605 24.3274C76.8481 24.3355 76.7353 24.3202 76.6292 24.2826C76.5231 24.2449 76.4259 24.1857 76.3438 24.1086ZM76.5029 33.4975C76.4413 33.4391 76.3932 33.3678 76.3623 33.2887C76.3313 33.2096 76.3182 33.1247 76.3239 33.04V26.4757C76.3196 26.3911 76.3333 26.3066 76.3642 26.2277C76.395 26.1488 76.4423 26.0774 76.5029 26.0182C76.6306 25.9105 76.7936 25.8538 76.9605 25.8591C77.1209 25.8569 77.2766 25.9135 77.3981 26.0182C77.4587 26.0774 77.506 26.1488 77.5369 26.2277C77.5677 26.3066 77.5814 26.3911 77.5771 26.4757V32.9604C77.583 33.0481 77.5701 33.1361 77.5392 33.2185C77.5083 33.3008 77.4602 33.3756 77.3981 33.4378C77.2746 33.537 77.1186 33.5867 76.9605 33.577C76.8773 33.584 76.7937 33.5734 76.7149 33.546C76.6361 33.5186 76.5638 33.4749 76.5029 33.4179V33.4975Z" fill="#233A45"/>
<path d="M86.3489 28.8027V32.9601C86.3582 33.1276 86.301 33.292 86.1897 33.4176C86.1288 33.4746 86.0567 33.5183 85.9779 33.5457C85.8991 33.5731 85.8154 33.5837 85.7323 33.5767C85.6489 33.5864 85.5645 33.5771 85.4852 33.5495C85.406 33.522 85.3341 33.4769 85.2747 33.4176C85.213 33.3592 85.165 33.288 85.1341 33.2089C85.1031 33.1298 85.09 33.0448 85.0957 32.9601V28.8823C85.138 28.3417 84.9979 27.8024 84.6978 27.3507C84.5272 27.18 84.3213 27.0487 84.0944 26.9663C83.8676 26.8838 83.6254 26.852 83.385 26.8733C83.0838 26.8601 82.7832 26.91 82.5023 27.0196C82.2215 27.1292 81.9666 27.2961 81.7539 27.5098C81.5406 27.7383 81.376 28.0078 81.27 28.3018C81.164 28.5959 81.1188 28.9084 81.1373 29.2205V32.9601C81.1466 33.1276 81.0894 33.292 80.9781 33.4176C80.9172 33.4746 80.8451 33.5183 80.7663 33.5457C80.6875 33.5731 80.6038 33.5837 80.5207 33.5767C80.4373 33.5864 80.3529 33.5771 80.2736 33.5495C80.1944 33.522 80.1225 33.4769 80.0631 33.4176C80.0014 33.3592 79.9534 33.288 79.9225 33.2089C79.8915 33.1298 79.8784 33.0448 79.8841 32.9601V26.4754C79.88 26.3938 79.8939 26.3123 79.9248 26.2367C79.9558 26.1611 80.003 26.0932 80.0631 26.0378C80.1215 25.9761 80.1928 25.9281 80.2719 25.8972C80.351 25.8662 80.4359 25.8531 80.5207 25.8588C80.6023 25.8547 80.6838 25.8686 80.7594 25.8996C80.835 25.9305 80.9029 25.9777 80.9583 26.0378C81.0634 26.1512 81.1205 26.3009 81.1174 26.4555V27.2512C81.3494 26.8046 81.7096 26.4375 82.1517 26.1969C82.6168 25.9505 83.1373 25.8272 83.6635 25.8389C85.4538 25.8389 86.3489 26.8136 86.3489 28.8027Z" fill="#233A45"/>
<path d="M95.1615 26.0975C95.2192 26.1538 95.2634 26.2224 95.291 26.2982C95.3185 26.3739 95.3286 26.4549 95.3206 26.5351V33.0596C95.3568 33.5166 95.2996 33.9763 95.1525 34.4106C95.0055 34.8449 94.7717 35.2447 94.4653 35.5858C94.1193 35.8908 93.7158 36.1236 93.2786 36.2705C92.8413 36.4174 92.3791 36.4754 91.9192 36.4411C90.9644 36.4714 90.0182 36.252 89.1741 35.8046C88.8161 35.5858 88.6171 35.3471 88.6171 35.0885C88.614 34.9589 88.6562 34.8323 88.7365 34.7305C88.7742 34.6882 88.8201 34.6541 88.8714 34.6302C88.9227 34.6063 88.9783 34.593 89.0349 34.5912C89.2327 34.6283 89.4217 34.7025 89.5919 34.81C89.9336 34.9839 90.2857 35.1367 90.6461 35.2675C91.0547 35.377 91.4763 35.4306 91.8993 35.4267C92.1992 35.4468 92.5 35.4061 92.7838 35.307C93.0675 35.2079 93.3282 35.0524 93.5503 34.8498C93.9399 34.3761 94.1322 33.7707 94.0873 33.159V31.8462C93.8978 32.312 93.5536 32.6984 93.1127 32.9402C92.6268 33.2113 92.0777 33.3486 91.5214 33.338C90.9134 33.3478 90.3145 33.1895 89.7907 32.8805C89.2765 32.5649 88.8626 32.1096 88.5973 31.5677C88.3099 30.9439 88.1611 30.2653 88.1611 29.5785C88.1611 28.8917 88.3099 28.2131 88.5973 27.5894C88.8507 27.0394 89.2674 26.581 89.7907 26.2765C90.3106 25.9584 90.9122 25.7994 91.5214 25.819C92.0633 25.8017 92.5997 25.9323 93.0729 26.1969C93.5159 26.4482 93.8702 26.8303 94.0873 27.291V26.4555C94.0793 26.3753 94.0895 26.2943 94.117 26.2186C94.1446 26.1428 94.1888 26.0742 94.2465 26.0179C94.3049 25.9562 94.3761 25.9082 94.4552 25.8773C94.5343 25.8463 94.6192 25.8332 94.704 25.8389C94.7943 25.8469 94.8818 25.8742 94.9607 25.9188C95.0396 25.9634 95.1081 26.0243 95.1615 26.0975ZM93.4707 31.5876C93.9085 31.0201 94.1274 30.314 94.0873 29.5984C94.1367 28.8817 93.9168 28.1724 93.4707 27.6092C93.2486 27.3837 92.9839 27.2046 92.6919 27.0824C92.3999 26.9601 92.0866 26.8971 91.77 26.8971C91.4535 26.8971 91.1401 26.9601 90.8481 27.0824C90.5561 27.2046 90.2914 27.3837 90.0693 27.6092C89.6459 28.1861 89.4176 28.8829 89.4176 29.5984C89.4176 30.3139 89.6459 31.0108 90.0693 31.5876C90.2914 31.8131 90.5561 31.9922 90.8481 32.1145C91.1401 32.2367 91.4535 32.2997 91.77 32.2997C92.0866 32.2997 92.3999 32.2367 92.6919 32.1145C92.9839 31.9922 93.2486 31.8131 93.4707 31.5876Z" fill="#233A45"/>
<path d="M235.418 138.505C235.271 138.5 235.13 138.444 235.02 138.346C234.924 138.24 234.87 138.102 234.87 137.958C234.87 137.815 234.924 137.677 235.02 137.571L237.506 135.084L235.02 132.598C234.924 132.491 234.87 132.353 234.87 132.21C234.87 132.066 234.924 131.928 235.02 131.822C235.07 131.77 235.13 131.728 235.197 131.699C235.264 131.671 235.335 131.656 235.408 131.656C235.48 131.656 235.552 131.671 235.619 131.699C235.685 131.728 235.746 131.77 235.796 131.822L239.058 135.084L235.836 138.346C235.781 138.401 235.716 138.444 235.644 138.471C235.572 138.499 235.495 138.51 235.418 138.505Z" fill="#E9E2EF"/>
<path d="M148.849 142.723C149.068 142.842 149.247 143.021 149.366 143.24C149.488 143.473 149.55 143.733 149.545 143.996C149.553 144.268 149.484 144.537 149.346 144.771C149.219 144.991 149.033 145.17 148.809 145.289C148.57 145.413 148.303 145.475 148.033 145.468C147.755 145.472 147.479 145.424 147.218 145.328C146.975 145.242 146.757 145.099 146.581 144.911C146.568 144.879 146.562 144.845 146.562 144.811C146.562 144.777 146.568 144.743 146.581 144.712C146.572 144.673 146.572 144.632 146.581 144.592C146.634 144.582 146.688 144.582 146.741 144.592C146.921 144.755 147.13 144.883 147.357 144.97C147.553 145.05 147.762 145.091 147.974 145.09C148.123 145.102 148.273 145.081 148.414 145.029C148.555 144.978 148.682 144.896 148.788 144.79C148.894 144.684 148.976 144.556 149.027 144.416C149.079 144.275 149.1 144.125 149.088 143.976C149.094 143.83 149.07 143.684 149.019 143.548C148.968 143.411 148.89 143.286 148.789 143.18C148.687 143.08 148.565 143.003 148.432 142.951C148.299 142.9 148.156 142.876 148.014 142.882C147.811 142.871 147.61 142.913 147.428 143.004C147.247 143.095 147.092 143.231 146.979 143.399C146.915 143.423 146.844 143.423 146.78 143.399H146.641C146.629 143.353 146.629 143.305 146.641 143.26V140.893C146.629 140.847 146.629 140.799 146.641 140.753C146.692 140.733 146.749 140.733 146.8 140.753H149.167C149.189 140.743 149.213 140.737 149.237 140.737C149.261 140.737 149.285 140.743 149.307 140.753C149.327 140.766 149.344 140.783 149.356 140.804C149.368 140.825 149.374 140.849 149.374 140.873C149.374 140.897 149.368 140.92 149.356 140.941C149.344 140.962 149.327 140.98 149.307 140.992C149.285 141.003 149.261 141.008 149.237 141.008C149.213 141.008 149.189 141.003 149.167 140.992H146.999V142.842C147.125 142.697 147.281 142.582 147.457 142.504C147.648 142.472 147.843 142.472 148.033 142.504C148.32 142.502 148.602 142.578 148.849 142.723Z" fill="#7C7D93"/>
<path d="M150.679 144.871C150.417 144.317 150.281 143.713 150.281 143.101C150.281 142.488 150.417 141.884 150.679 141.33C150.818 141.145 150.998 140.994 151.205 140.891C151.413 140.787 151.641 140.733 151.873 140.733C152.104 140.733 152.333 140.787 152.54 140.891C152.747 140.994 152.927 141.145 153.066 141.33C153.34 141.88 153.482 142.486 153.482 143.101C153.482 143.715 153.34 144.321 153.066 144.871C152.93 145.06 152.75 145.214 152.543 145.32C152.335 145.426 152.106 145.481 151.873 145.481C151.64 145.481 151.41 145.426 151.202 145.32C150.995 145.214 150.816 145.06 150.679 144.871ZM152.768 144.632C153.139 143.645 153.139 142.556 152.768 141.569C152.677 141.415 152.545 141.289 152.387 141.205C152.229 141.12 152.051 141.081 151.873 141.091C151.694 141.083 151.517 141.123 151.36 141.207C151.202 141.291 151.07 141.416 150.978 141.569C150.765 142.05 150.669 142.575 150.699 143.101C150.669 143.619 150.765 144.138 150.978 144.612C151.076 144.76 151.209 144.881 151.365 144.965C151.521 145.049 151.695 145.093 151.873 145.093C152.05 145.093 152.224 145.049 152.381 144.965C152.537 144.881 152.67 144.76 152.768 144.612V144.632Z" fill="#7C7D93"/>
<path d="M175.206 142.722C175.424 142.841 175.604 143.021 175.723 143.24C175.84 143.474 175.901 143.733 175.901 143.995C175.901 144.258 175.84 144.517 175.723 144.751C175.591 144.972 175.407 145.157 175.186 145.288C174.955 145.416 174.695 145.485 174.43 145.487C174.185 145.5 173.941 145.452 173.719 145.348C173.497 145.244 173.304 145.087 173.157 144.891C172.831 144.404 172.677 143.823 172.719 143.24C172.674 142.59 172.834 141.943 173.177 141.39C173.316 141.181 173.505 141.011 173.728 140.896C173.951 140.781 174.2 140.725 174.45 140.733C174.709 140.73 174.965 140.777 175.206 140.872C175.446 140.964 175.663 141.106 175.842 141.29C175.858 141.349 175.858 141.41 175.842 141.469C175.854 141.515 175.854 141.563 175.842 141.608C175.842 141.608 175.842 141.608 175.743 141.608H175.604C175.28 141.303 174.855 141.126 174.41 141.111C174.213 141.107 174.018 141.157 173.846 141.255C173.674 141.353 173.533 141.496 173.436 141.668C173.172 142.155 173.048 142.706 173.078 143.259V143.458C173.174 143.189 173.355 142.959 173.595 142.802C173.836 142.641 174.12 142.557 174.41 142.563C174.685 142.536 174.962 142.591 175.206 142.722ZM175.206 144.811C175.397 144.583 175.496 144.292 175.484 143.995C175.491 143.849 175.469 143.704 175.417 143.567C175.366 143.43 175.287 143.305 175.186 143.2C175.084 143.1 174.962 143.022 174.829 142.971C174.695 142.92 174.553 142.896 174.41 142.901C174.262 142.89 174.113 142.91 173.973 142.961C173.833 143.011 173.705 143.091 173.598 143.194C173.491 143.297 173.407 143.422 173.351 143.56C173.296 143.698 173.27 143.847 173.276 143.995C173.273 144.146 173.299 144.295 173.354 144.435C173.408 144.575 173.49 144.703 173.595 144.811C173.814 145.02 174.107 145.134 174.41 145.129C174.558 145.134 174.704 145.108 174.841 145.053C174.978 144.998 175.102 144.916 175.206 144.811Z" fill="#7C7D93"/>
<path d="M177.056 144.87C176.783 144.32 176.641 143.714 176.641 143.1C176.641 142.486 176.783 141.88 177.056 141.33C177.182 141.136 177.357 140.978 177.563 140.874C177.769 140.769 177.999 140.72 178.23 140.733C178.466 140.719 178.703 140.767 178.915 140.872C179.128 140.976 179.31 141.134 179.443 141.33C179.705 141.883 179.841 142.488 179.841 143.1C179.841 143.712 179.705 144.317 179.443 144.87C179.311 145.069 179.129 145.229 178.917 145.337C178.705 145.445 178.468 145.497 178.23 145.487C177.997 145.496 177.767 145.443 177.561 145.335C177.355 145.227 177.181 145.067 177.056 144.87ZM179.045 144.632C179.444 143.649 179.444 142.551 179.045 141.568C178.958 141.411 178.827 141.282 178.668 141.198C178.509 141.113 178.33 141.076 178.15 141.091C177.974 141.08 177.799 141.119 177.644 141.203C177.489 141.288 177.361 141.414 177.275 141.568C177.045 142.045 176.942 142.572 176.977 143.1C176.942 143.621 177.045 144.143 177.275 144.612C177.356 144.771 177.483 144.903 177.638 144.992C177.794 145.08 177.972 145.121 178.15 145.109C178.342 145.141 178.539 145.112 178.714 145.026C178.889 144.941 179.032 144.803 179.125 144.632H179.045Z" fill="#7C7D93"/>
<path d="M202.14 140.833C202.14 140.833 202.14 140.833 202.14 140.952C202.154 141.004 202.154 141.059 202.14 141.111L199.912 145.447C199.897 145.482 199.872 145.512 199.84 145.533C199.808 145.555 199.771 145.566 199.733 145.567C199.68 145.567 199.629 145.546 199.592 145.508C199.555 145.471 199.534 145.421 199.534 145.368L201.662 141.389H199.255H199.116C199.104 141.344 199.104 141.296 199.116 141.25C199.101 141.212 199.101 141.169 199.116 141.131C199.138 141.122 199.162 141.117 199.186 141.117C199.21 141.117 199.233 141.122 199.255 141.131H202.02C201.998 141.106 201.983 141.075 201.977 141.042C201.971 141.01 201.975 140.976 201.987 140.945C201.999 140.913 202.02 140.887 202.047 140.867C202.074 140.847 202.106 140.835 202.14 140.833Z" fill="#7C7D93"/>
<path d="M203.412 144.871C203.15 144.317 203.014 143.713 203.014 143.101C203.014 142.488 203.15 141.884 203.412 141.33C203.551 141.145 203.731 140.994 203.938 140.891C204.145 140.787 204.373 140.733 204.605 140.733C204.837 140.733 205.065 140.787 205.272 140.891C205.479 140.994 205.66 141.145 205.799 141.33C206.061 141.884 206.196 142.488 206.196 143.101C206.196 143.713 206.061 144.317 205.799 144.871C205.662 145.06 205.483 145.214 205.275 145.32C205.068 145.426 204.838 145.481 204.605 145.481C204.372 145.481 204.142 145.426 203.935 145.32C203.727 145.214 203.548 145.06 203.412 144.871ZM205.5 144.632C205.871 143.645 205.871 142.556 205.5 141.569C205.402 141.421 205.269 141.3 205.113 141.216C204.957 141.132 204.782 141.088 204.605 141.088C204.428 141.088 204.253 141.132 204.097 141.216C203.941 141.3 203.808 141.421 203.71 141.569C203.488 142.047 203.392 142.575 203.431 143.101C203.402 143.619 203.497 144.138 203.71 144.612C203.797 144.772 203.927 144.903 204.085 144.991C204.244 145.079 204.424 145.12 204.605 145.11C204.783 145.118 204.961 145.078 205.118 144.994C205.276 144.91 205.408 144.785 205.5 144.632Z" fill="#7C7D93"/>
<path d="M228.416 143.458C228.579 143.668 228.664 143.928 228.654 144.194C228.662 144.371 228.627 144.547 228.55 144.707C228.474 144.866 228.359 145.005 228.217 145.109C227.873 145.362 227.449 145.482 227.023 145.447C226.591 145.484 226.161 145.364 225.81 145.109C225.673 145 225.564 144.861 225.492 144.702C225.419 144.543 225.385 144.369 225.392 144.194C225.379 143.925 225.456 143.659 225.611 143.438C225.78 143.233 226.01 143.087 226.267 143.021C226.075 142.952 225.903 142.834 225.77 142.678C225.637 142.523 225.547 142.335 225.509 142.134C225.47 141.933 225.485 141.726 225.552 141.532C225.619 141.339 225.735 141.166 225.889 141.031C226.218 140.795 226.619 140.682 227.023 140.713C227.42 140.685 227.815 140.797 228.137 141.031C228.273 141.136 228.382 141.272 228.455 141.428C228.528 141.584 228.562 141.755 228.555 141.927C228.555 142.169 228.478 142.406 228.336 142.603C228.202 142.8 228.006 142.947 227.779 143.021C228.034 143.092 228.258 143.246 228.416 143.458ZM228.237 144.174C228.237 143.538 227.839 143.239 227.023 143.239C226.208 143.239 225.79 143.538 225.79 144.174C225.79 144.811 226.208 145.089 227.023 145.089C227.839 145.089 228.237 144.811 228.237 144.194V144.174ZM226.247 142.623C226.363 142.719 226.496 142.791 226.639 142.836C226.783 142.88 226.933 142.896 227.083 142.881C227.229 142.894 227.377 142.878 227.516 142.833C227.656 142.789 227.786 142.717 227.898 142.623C227.998 142.542 228.077 142.438 228.129 142.32C228.18 142.203 228.204 142.075 228.197 141.946C228.202 141.821 228.178 141.697 228.126 141.582C228.074 141.468 227.996 141.368 227.898 141.29C227.657 141.131 227.371 141.054 227.083 141.071C226.788 141.051 226.494 141.128 226.247 141.29C226.152 141.369 226.077 141.47 226.028 141.584C225.98 141.699 225.959 141.823 225.969 141.946C225.947 142.072 225.956 142.2 225.994 142.321C226.032 142.442 226.098 142.552 226.188 142.643L226.247 142.623Z" fill="#7C7D93"/>
<path d="M229.868 144.871C229.606 144.317 229.47 143.713 229.47 143.1C229.47 142.488 229.606 141.883 229.868 141.33C229.999 141.137 230.178 140.981 230.387 140.877C230.596 140.772 230.828 140.723 231.061 140.733C231.295 140.719 231.528 140.767 231.738 140.871C231.947 140.976 232.126 141.134 232.255 141.33C232.528 141.88 232.67 142.486 232.67 143.1C232.67 143.715 232.528 144.321 232.255 144.871C232.128 145.07 231.951 145.232 231.741 145.34C231.532 145.449 231.297 145.499 231.061 145.487C230.826 145.493 230.594 145.44 230.385 145.332C230.176 145.225 229.998 145.066 229.868 144.871ZM231.956 144.632C232.354 143.65 232.354 142.551 231.956 141.569C231.869 141.411 231.738 141.283 231.579 141.198C231.42 141.113 231.24 141.076 231.061 141.091C230.885 141.08 230.709 141.119 230.555 141.204C230.4 141.288 230.272 141.415 230.186 141.569C229.956 142.045 229.853 142.573 229.887 143.1C229.853 143.622 229.956 144.143 230.186 144.612C230.267 144.771 230.393 144.903 230.549 144.992C230.704 145.08 230.883 145.121 231.061 145.109C231.224 145.106 231.383 145.06 231.522 144.976C231.662 144.893 231.777 144.774 231.857 144.632H231.956Z" fill="#7C7D93"/>
<path d="M123.248 144.075C123.257 144.094 123.262 144.114 123.262 144.135C123.262 144.155 123.257 144.176 123.248 144.194C123.258 144.216 123.262 144.24 123.262 144.264C123.262 144.288 123.258 144.311 123.248 144.334H123.129H122.552V145.209C122.563 145.23 122.568 145.254 122.568 145.278C122.568 145.302 122.563 145.326 122.552 145.348C122.552 145.348 122.552 145.348 122.413 145.348C122.389 145.362 122.361 145.369 122.333 145.369C122.305 145.369 122.278 145.362 122.254 145.348C122.243 145.326 122.238 145.302 122.238 145.278C122.238 145.254 122.243 145.23 122.254 145.209V144.334H120.265C120.243 144.344 120.219 144.35 120.195 144.35C120.171 144.35 120.147 144.344 120.125 144.334C120.115 144.315 120.109 144.295 120.109 144.274C120.109 144.253 120.115 144.232 120.125 144.214C120.112 144.162 120.112 144.107 120.125 144.055L122.333 140.852H122.453C122.474 140.842 122.498 140.836 122.522 140.836C122.546 140.836 122.57 140.842 122.592 140.852C122.612 140.904 122.612 140.96 122.592 141.012V144.075H123.169C123.195 144.067 123.222 144.067 123.248 144.075ZM120.404 144.075H122.134V141.469L120.404 144.075Z" fill="#7C7D93"/>
<path d="M124.323 144.871C124.05 144.321 123.907 143.715 123.907 143.1C123.907 142.486 124.05 141.88 124.323 141.33C124.453 141.136 124.632 140.979 124.841 140.874C125.05 140.77 125.283 140.721 125.516 140.733C125.75 140.723 125.982 140.772 126.191 140.877C126.399 140.981 126.578 141.137 126.71 141.33C126.972 141.883 127.108 142.488 127.108 143.1C127.108 143.713 126.972 144.317 126.71 144.871C126.578 145.064 126.399 145.22 126.191 145.324C125.982 145.428 125.75 145.478 125.516 145.468C125.283 145.48 125.05 145.431 124.841 145.327C124.632 145.222 124.453 145.065 124.323 144.871ZM126.411 144.632C126.782 143.645 126.782 142.556 126.411 141.569C126.319 141.416 126.187 141.291 126.029 141.207C125.872 141.123 125.695 141.083 125.516 141.091C125.338 141.081 125.16 141.12 125.002 141.204C124.844 141.289 124.712 141.415 124.621 141.569C124.391 142.045 124.288 142.573 124.323 143.1C124.288 143.622 124.391 144.143 124.621 144.612C124.708 144.772 124.838 144.903 124.997 144.991C125.155 145.079 125.335 145.12 125.516 145.109C125.698 145.121 125.879 145.083 126.041 144.999C126.202 144.915 126.337 144.788 126.431 144.632H126.411Z" fill="#7C7D93"/>
<path d="M96.4141 143.458C96.5634 143.674 96.6401 143.932 96.6328 144.194C96.6439 144.373 96.6138 144.552 96.5448 144.718C96.4758 144.883 96.3699 145.031 96.235 145.149C95.9293 145.387 95.5479 145.507 95.1609 145.487C94.8828 145.491 94.6063 145.444 94.3453 145.348C94.1033 145.249 93.881 145.107 93.6889 144.93C93.6758 144.899 93.669 144.865 93.669 144.831C93.669 144.796 93.6758 144.763 93.6889 144.731C93.6801 144.712 93.6754 144.692 93.6754 144.671C93.6754 144.651 93.6801 144.63 93.6889 144.612C93.7404 144.594 93.7965 144.594 93.848 144.612C94.0287 144.774 94.2377 144.902 94.4647 144.99C94.6738 145.071 94.8967 145.112 95.1211 145.109C95.406 145.124 95.6871 145.04 95.9168 144.87C96.0108 144.781 96.0843 144.673 96.1324 144.553C96.1805 144.433 96.2019 144.303 96.1952 144.174C96.1952 143.558 95.7974 143.239 95.0415 143.239H94.7033H94.5641C94.5548 143.217 94.55 143.194 94.55 143.17C94.55 143.146 94.5548 143.122 94.5641 143.1C94.5505 143.061 94.5505 143.019 94.5641 142.981C94.5862 142.971 94.6099 142.967 94.6338 142.967C94.6577 142.967 94.6813 142.971 94.7033 142.981H94.9421C95.2455 142.995 95.5454 142.911 95.7974 142.742C95.8981 142.649 95.9771 142.534 96.0286 142.407C96.0802 142.28 96.1031 142.143 96.0958 142.006C96.1013 141.892 96.0829 141.779 96.0418 141.672C96.0006 141.566 95.9377 141.47 95.8571 141.389C95.6638 141.24 95.4248 141.163 95.1808 141.17C94.9615 141.174 94.7451 141.222 94.5442 141.31C94.3173 141.397 94.1083 141.525 93.9276 141.688C93.8759 141.704 93.8202 141.704 93.7684 141.688C93.7528 141.695 93.7359 141.699 93.7187 141.699C93.7016 141.699 93.6846 141.695 93.669 141.688C93.6572 141.642 93.6572 141.594 93.669 141.548C93.6713 141.513 93.6814 141.479 93.6986 141.448C93.7158 141.417 93.7396 141.39 93.7684 141.369C93.9442 141.181 94.1625 141.038 94.405 140.952C94.666 140.856 94.9425 140.808 95.2205 140.812C95.5679 140.792 95.9099 140.906 96.1754 141.131C96.2951 141.237 96.3895 141.37 96.4514 141.518C96.5134 141.666 96.5414 141.826 96.5334 141.986C96.5316 142.232 96.4628 142.473 96.3345 142.682C96.1941 142.886 95.9919 143.04 95.7576 143.12C96.009 143.153 96.241 143.273 96.4141 143.458Z" fill="#7C7D93"/>
<path d="M97.9467 144.871C97.6847 144.317 97.5488 143.713 97.5488 143.1C97.5488 142.488 97.6847 141.883 97.9467 141.33C98.0784 141.137 98.2572 140.981 98.4661 140.877C98.6749 140.772 98.9069 140.723 99.1402 140.733C99.374 140.719 99.6075 140.767 99.817 140.871C100.027 140.976 100.205 141.134 100.334 141.33C100.607 141.88 100.749 142.486 100.749 143.1C100.749 143.715 100.607 144.321 100.334 144.871C100.205 145.066 100.027 145.224 99.817 145.329C99.6075 145.434 99.374 145.482 99.1402 145.467C98.9069 145.478 98.6749 145.428 98.4661 145.324C98.2572 145.219 98.0784 145.063 97.9467 144.871ZM100.035 144.632C100.433 143.65 100.433 142.551 100.035 141.569C99.9479 141.411 99.8169 141.283 99.6581 141.198C99.4993 141.113 99.3195 141.076 99.1402 141.091C98.9619 141.083 98.7847 141.123 98.6272 141.207C98.4697 141.291 98.3377 141.416 98.245 141.569C98.0322 142.05 97.9368 142.575 97.9666 143.1C97.932 143.622 98.0348 144.143 98.265 144.612C98.3463 144.771 98.4725 144.903 98.628 144.992C98.7836 145.08 98.9617 145.121 99.1402 145.109C99.3195 145.124 99.4993 145.087 99.6581 145.003C99.8169 144.918 99.9479 144.789 100.035 144.632Z" fill="#7C7D93"/>
<path d="M70.3564 145.109C70.3657 145.131 70.3705 145.155 70.3705 145.179C70.3705 145.203 70.3657 145.226 70.3564 145.248C70.3564 145.368 70.3564 145.428 70.1575 145.428H67.5517C67.5266 145.438 67.4995 145.444 67.4721 145.444C67.4447 145.444 67.4177 145.438 67.3926 145.428C67.384 145.388 67.384 145.347 67.3926 145.308C67.3726 145.257 67.3726 145.2 67.3926 145.149L69.0237 143.339C69.211 143.116 69.3775 142.876 69.521 142.623C69.6289 142.435 69.6839 142.222 69.6801 142.006C69.6884 141.889 69.6714 141.772 69.6302 141.662C69.589 141.552 69.5246 141.452 69.4414 141.37C69.3512 141.285 69.2446 141.221 69.1282 141.18C69.0118 141.139 68.8882 141.122 68.7651 141.131C68.5461 141.137 68.3302 141.184 68.1286 141.27C67.9047 141.364 67.6967 141.491 67.5119 141.648C67.4667 141.663 67.4178 141.663 67.3727 141.648C67.3609 141.602 67.3609 141.555 67.3727 141.509C67.36 141.481 67.3535 141.45 67.3535 141.419C67.3535 141.388 67.36 141.358 67.3727 141.33C67.5594 141.146 67.7831 141.003 68.0291 140.912C68.2833 140.816 68.5531 140.769 68.8247 140.773C69.1786 140.749 69.5279 140.863 69.7995 141.091C69.922 141.2 70.0179 141.336 70.08 141.487C70.142 141.639 70.1686 141.803 70.1575 141.966C70.1576 142.238 70.0891 142.504 69.9586 142.742C69.8044 143.05 69.6031 143.332 69.3618 143.578L67.9694 145.109H70.1973H70.3564Z" fill="#7C7D93"/>
<path d="M71.5904 144.871C71.317 144.321 71.1748 143.715 71.1748 143.101C71.1748 142.486 71.317 141.88 71.5904 141.33C71.7294 141.145 71.9095 140.994 72.1167 140.891C72.3238 140.787 72.5523 140.733 72.7839 140.733C73.0155 140.733 73.2439 140.787 73.4511 140.891C73.6583 140.994 73.8384 141.145 73.9774 141.33C74.2394 141.884 74.3753 142.488 74.3753 143.101C74.3753 143.713 74.2394 144.317 73.9774 144.871C73.8384 145.056 73.6583 145.207 73.4511 145.31C73.2439 145.414 73.0155 145.468 72.7839 145.468C72.5523 145.468 72.3238 145.414 72.1167 145.31C71.9095 145.207 71.7294 145.056 71.5904 144.871ZM73.679 144.632C74.0499 143.645 74.0499 142.556 73.679 141.569C73.5811 141.421 73.4481 141.3 73.2919 141.216C73.1357 141.132 72.9612 141.088 72.7839 141.088C72.6066 141.088 72.4322 141.132 72.276 141.216C72.1198 141.3 71.9867 141.421 71.8887 141.569C71.6664 142.047 71.5706 142.575 71.6103 143.101C71.5704 143.62 71.6664 144.141 71.8887 144.612C71.9753 144.772 72.1055 144.903 72.264 144.991C72.4225 145.079 72.6029 145.12 72.7839 145.11C72.9622 145.118 73.1394 145.078 73.2969 144.994C73.4544 144.91 73.5864 144.785 73.679 144.632Z" fill="#7C7D93"/>
<path d="M43.8411 145.109C43.8528 145.155 43.8528 145.203 43.8411 145.248C43.8516 145.27 43.8571 145.294 43.8571 145.318C43.8571 145.342 43.8516 145.366 43.8411 145.388H43.7018H41.5336H41.4143C41.3778 145.351 41.3574 145.301 41.3574 145.248C41.3574 145.196 41.3778 145.146 41.4143 145.109H41.5336H42.4089V141.35L41.653 141.847C41.5336 141.847 41.474 141.847 41.4541 141.847C41.4373 141.795 41.4373 141.74 41.4541 141.688C41.4418 141.663 41.4354 141.636 41.4354 141.608C41.4354 141.581 41.4418 141.553 41.4541 141.529L42.4486 140.872H42.6078H42.747C42.767 140.923 42.767 140.98 42.747 141.031V145.149H43.6222L43.8411 145.109Z" fill="#7C7D93"/>
<path d="M45.234 144.871C44.9606 144.321 44.8184 143.715 44.8184 143.1C44.8184 142.486 44.9606 141.88 45.234 141.33C45.3629 141.134 45.5412 140.976 45.7507 140.871C45.9602 140.767 46.1936 140.719 46.4275 140.733C46.6608 140.723 46.8928 140.772 47.1016 140.877C47.3105 140.981 47.4892 141.137 47.621 141.33C47.883 141.883 48.0189 142.488 48.0189 143.1C48.0189 143.713 47.883 144.317 47.621 144.871C47.4902 145.066 47.3122 145.225 47.1035 145.332C46.8948 145.44 46.6623 145.493 46.4275 145.487C46.1918 145.499 45.957 145.449 45.7474 145.34C45.5377 145.232 45.3605 145.07 45.234 144.871ZM47.2231 144.632C47.6212 143.65 47.6212 142.551 47.2231 141.569C47.1372 141.415 47.0094 141.288 46.8545 141.204C46.6996 141.119 46.524 141.08 46.3479 141.091C46.1686 141.076 45.9887 141.113 45.83 141.198C45.6712 141.283 45.5402 141.411 45.4528 141.569C45.2228 142.045 45.12 142.573 45.1544 143.1C45.1198 143.622 45.2227 144.143 45.4528 144.612C45.5374 144.773 45.6672 144.906 45.8262 144.994C45.9852 145.082 46.1665 145.122 46.3479 145.109C46.5368 145.137 46.7295 145.106 46.9002 145.02C47.0708 144.935 47.2113 144.799 47.3027 144.632H47.2231Z" fill="#7C7D93"/>
<path d="M224.935 41.4937H160.466C157.301 41.4937 154.265 40.2363 152.027 37.9981C149.789 35.7598 148.531 32.7241 148.531 29.5588C148.531 26.3934 149.789 23.3577 152.027 21.1195C154.265 18.8812 157.301 17.6238 160.466 17.6238H224.935C228.1 17.6238 231.136 18.8812 233.374 21.1195C235.613 23.3577 236.87 26.3934 236.87 29.5588C236.87 32.7241 235.613 35.7598 233.374 37.9981C231.136 40.2363 228.1 41.4937 224.935 41.4937ZM160.466 18.678C159.002 18.6153 157.541 18.8496 156.17 19.3666C154.798 19.8836 153.546 20.6728 152.488 21.6866C151.43 22.7004 150.588 23.9178 150.012 25.2655C149.437 26.6133 149.141 28.0635 149.141 29.5289C149.141 30.9943 149.437 32.4445 150.012 33.7923C150.588 35.1401 151.43 36.3575 152.488 37.3713C153.546 38.385 154.798 39.1742 156.17 39.6912C157.541 40.2083 159.002 40.4425 160.466 40.3798H224.935C226.399 40.4425 227.861 40.2083 229.232 39.6912C230.603 39.1742 231.855 38.385 232.913 37.3713C233.972 36.3575 234.814 35.1401 235.389 33.7923C235.964 32.4445 236.261 30.9943 236.261 29.5289C236.261 28.0635 235.964 26.6133 235.389 25.2655C234.814 23.9178 233.972 22.7004 232.913 21.6866C231.855 20.6728 230.603 19.8836 229.232 19.3666C227.861 18.8496 226.399 18.6153 224.935 18.678H160.466Z" fill="#E9E2EF"/>
<path d="M179.662 25.2618C179.746 25.233 179.837 25.233 179.92 25.2618C179.981 25.319 180.016 25.3975 180.02 25.4806C180.026 25.5201 180.026 25.5605 180.02 25.6L177.394 33.0196C177.368 33.0992 177.317 33.1685 177.249 33.2176C177.182 33.2667 177.1 33.2932 177.016 33.2932C176.932 33.2932 176.851 33.2667 176.783 33.2176C176.715 33.1685 176.664 33.0992 176.638 33.0196L174.172 26.4155L171.785 33.0991C171.763 33.1796 171.714 33.25 171.645 33.298C171.595 33.3318 171.537 33.3536 171.477 33.3617C171.417 33.3699 171.356 33.3641 171.298 33.3449C171.241 33.3257 171.188 33.2936 171.145 33.251C171.102 33.2084 171.069 33.1564 171.049 33.0991L168.423 25.6796C168.426 25.6398 168.426 25.5999 168.423 25.5602C168.422 25.5186 168.431 25.4774 168.448 25.4395C168.465 25.4016 168.491 25.3681 168.522 25.3414C168.6 25.3156 168.684 25.3156 168.761 25.3414C168.761 25.3414 168.9 25.3414 168.94 25.3414C168.997 25.3847 169.044 25.4388 169.079 25.5005L171.466 32.3631L173.833 25.6C173.858 25.5208 173.907 25.4512 173.973 25.4011C174.044 25.3768 174.121 25.3768 174.192 25.4011C174.262 25.3734 174.34 25.3734 174.41 25.4011C174.484 25.4481 174.54 25.518 174.569 25.6L176.937 32.3631L179.324 25.5005C179.325 25.4604 179.335 25.421 179.354 25.3856C179.373 25.3502 179.4 25.3197 179.433 25.2966C179.466 25.2734 179.504 25.2582 179.543 25.2522C179.583 25.2461 179.624 25.2495 179.662 25.2618Z" fill="#7C7D93"/>
<path d="M185.112 32.2044C185.126 32.236 185.132 32.2698 185.132 32.3039C185.132 32.338 185.126 32.3718 185.112 32.4034C185.112 32.5625 184.993 32.7415 184.734 32.8808C184.217 33.2076 183.616 33.3801 183.004 33.3781C182.638 33.3991 182.271 33.3427 181.929 33.2124C181.586 33.0822 181.274 32.881 181.015 32.6222C180.759 32.3409 180.562 32.0112 180.435 31.6524C180.309 31.2937 180.256 30.9132 180.279 30.5335C180.276 30.0192 180.385 29.5103 180.597 29.0417C180.797 28.6216 181.115 28.269 181.512 28.0272C181.913 27.7835 182.375 27.6593 182.845 27.6692C183.16 27.655 183.475 27.71 183.767 27.8303C184.059 27.9506 184.321 28.1332 184.536 28.3654C184.965 28.8909 185.185 29.5571 185.152 30.2352C185.159 30.3438 185.123 30.4508 185.053 30.5335C185.015 30.5731 184.968 30.6028 184.916 30.6201C184.864 30.6374 184.808 30.6418 184.754 30.633H180.995C180.971 31.2115 181.163 31.7783 181.532 32.2243C181.726 32.4064 181.954 32.5477 182.204 32.6399C182.453 32.7322 182.718 32.7735 182.984 32.7614C183.261 32.7684 183.536 32.7281 183.8 32.6421C184.039 32.5384 184.272 32.4188 184.496 32.284C184.596 32.2083 184.711 32.1541 184.834 32.1249C184.857 32.111 184.883 32.102 184.91 32.0985C184.937 32.095 184.964 32.0971 184.99 32.1045C185.016 32.112 185.041 32.1247 185.062 32.1419C185.083 32.1591 185.1 32.1803 185.112 32.2044ZM181.691 28.7433C181.344 29.1272 181.14 29.619 181.114 30.1357H184.615C184.635 29.6255 184.473 29.1249 184.158 28.7234C184.002 28.5606 183.813 28.4335 183.603 28.3511C183.394 28.2686 183.169 28.2328 182.944 28.246C182.712 28.2348 182.48 28.2733 182.264 28.3591C182.048 28.4449 181.852 28.5759 181.691 28.7433Z" fill="#7C7D93"/>
<path d="M191.079 32.2044C191.099 32.2692 191.099 32.3385 191.079 32.4033C191.079 32.5625 190.96 32.7415 190.701 32.8807C190.184 33.2096 189.583 33.3823 188.971 33.378C188.604 33.3991 188.238 33.3426 187.895 33.2124C187.553 33.0821 187.241 32.881 186.981 32.6221C186.474 32.0482 186.21 31.299 186.245 30.5335C186.24 30.0166 186.356 29.5056 186.584 29.0416C186.776 28.623 187.087 28.2701 187.479 28.0272C187.887 27.7838 188.356 27.6598 188.831 27.6691C189.144 27.6579 189.455 27.7143 189.743 27.8345C190.031 27.9547 190.29 28.1357 190.502 28.3653C190.941 28.886 191.161 29.5557 191.119 30.2351C191.126 30.3438 191.09 30.4508 191.019 30.5335C191.019 30.5335 190.88 30.633 190.741 30.633H186.961C186.944 31.2141 187.142 31.7811 187.518 32.2243C187.706 32.4097 187.93 32.5534 188.177 32.646C188.424 32.7385 188.688 32.7779 188.951 32.7614C189.227 32.7684 189.503 32.728 189.766 32.642C190.008 32.5424 190.241 32.4227 190.462 32.284C190.567 32.2033 190.69 32.1488 190.82 32.1248C190.867 32.1104 190.916 32.1102 190.962 32.1245C191.008 32.1387 191.049 32.1665 191.079 32.2044ZM187.638 28.7433C187.291 29.1272 187.087 29.619 187.061 30.1357H190.562C190.582 29.6255 190.42 29.1248 190.104 28.7234C189.954 28.5599 189.768 28.4321 189.562 28.3495C189.355 28.2669 189.133 28.2316 188.911 28.246C188.675 28.2332 188.44 28.2709 188.22 28.3567C188.001 28.4425 187.802 28.5743 187.638 28.7433Z" fill="#7C7D93"/>
<path d="M196.948 33.0401C196.95 33.0819 196.942 33.1236 196.925 33.1618C196.908 33.1999 196.881 33.2332 196.848 33.2589C196.784 33.2834 196.714 33.2834 196.649 33.2589C196.572 33.2821 196.489 33.2821 196.411 33.2589L193.328 30.6332V33.0003C193.33 33.048 193.323 33.0957 193.306 33.1403C193.288 33.1848 193.262 33.2253 193.228 33.2589C193.151 33.2879 193.066 33.2879 192.989 33.2589C192.906 33.2893 192.814 33.2893 192.731 33.2589C192.697 33.2253 192.671 33.1848 192.653 33.1403C192.636 33.0957 192.629 33.048 192.631 33.0003V25.6205C192.629 25.5728 192.636 25.5251 192.653 25.4806C192.671 25.436 192.697 25.3956 192.731 25.3619C192.801 25.2972 192.894 25.2617 192.989 25.2625C193.079 25.2627 193.165 25.2985 193.228 25.3619C193.262 25.3956 193.288 25.436 193.306 25.4806C193.323 25.5251 193.33 25.5728 193.328 25.6205V30.3348L196.152 27.8086C196.23 27.7854 196.313 27.7854 196.391 27.8086C196.474 27.8133 196.552 27.8484 196.611 27.9071C196.669 27.9658 196.704 28.044 196.709 28.1269C196.714 28.1816 196.703 28.2366 196.679 28.2857C196.654 28.3348 196.617 28.3762 196.57 28.4053L194.064 30.4741L196.749 32.7616C196.804 32.7861 196.851 32.8249 196.886 32.8738C196.921 32.9228 196.942 32.9802 196.948 33.0401Z" fill="#7C7D93"/>
<path d="M222.348 33.3181L216.44 27.4103L217.216 26.6345L222.348 31.7666L227.48 26.6345L228.256 27.4103L222.348 33.3181Z" fill="#E9E2EF"/>
</g>
<defs>
<clipPath id="clip0_182_337">
<rect width="257" height="161.699" fill="white" transform="translate(0 0.79541)"/>
</clipPath>
</defs>
</svg>
