<svg width="306" height="125" viewBox="0 0 306 125" fill="none" xmlns="http://www.w3.org/2000/svg">
<g filter="url(#filter0_dd_8_162)">
<rect x="19" y="14" width="268" height="87" rx="5" fill="white"/>
</g>
<circle opacity="0.1" cx="62.5" cy="57.5" r="31.5" fill="#2F57EF"/>
<path d="M77.4049 59.0345C77.6025 67.8649 69.8057 75.6541 60.9828 75.4717C52.388 75.5173 44.994 68.5033 44.5608 59.9161C43.8768 50.7588 51.8028 42.3996 60.9752 42.5972C61.188 42.5972 61.3552 42.772 61.3552 42.9772V58.6545H77.0325C77.2377 58.6545 77.4049 58.8217 77.4049 59.0345Z" fill="#2F57EF"/>
<path d="M79.4816 56.9646C79.4816 57.1698 79.3144 57.337 79.1016 57.337H63.0443C62.8391 57.337 62.6719 57.1698 62.6719 56.9646V40.9073C62.6719 40.6945 62.8391 40.5273 63.0443 40.5273C72.1103 40.5273 79.4816 47.8986 79.4816 56.9646Z" fill="#2F57EF"/>
<path d="M115.741 51H110.327V35.7273H115.786C117.322 35.7273 118.645 36.033 119.754 36.6445C120.862 37.2511 121.715 38.1236 122.311 39.2621C122.913 40.4006 123.214 41.7628 123.214 43.3487C123.214 44.9396 122.913 46.3068 122.311 47.4503C121.715 48.5937 120.857 49.4712 119.739 50.0827C118.625 50.6942 117.293 51 115.741 51ZM113.556 48.2333H115.607C116.562 48.2333 117.365 48.0643 118.016 47.7262C118.672 47.3832 119.164 46.8537 119.493 46.1378C119.826 45.4169 119.992 44.4872 119.992 43.3487C119.992 42.2202 119.826 41.2979 119.493 40.582C119.164 39.8661 118.675 39.3391 118.023 39.0011C117.372 38.663 116.569 38.494 115.615 38.494H113.556V48.2333ZM128.512 51.2163C127.782 51.2163 127.13 51.0895 126.559 50.8359C125.987 50.5774 125.534 50.1971 125.201 49.695C124.873 49.1879 124.709 48.5565 124.709 47.8008C124.709 47.1644 124.826 46.63 125.06 46.1974C125.293 45.7649 125.611 45.4169 126.014 45.1534C126.417 44.8899 126.874 44.6911 127.386 44.5568C127.903 44.4226 128.445 44.3281 129.012 44.2734C129.678 44.2038 130.215 44.1392 130.623 44.0795C131.031 44.0149 131.326 43.9205 131.51 43.7962C131.694 43.6719 131.786 43.4879 131.786 43.2443V43.1996C131.786 42.7273 131.637 42.3619 131.339 42.1033C131.045 41.8448 130.628 41.7156 130.086 41.7156C129.514 41.7156 129.059 41.8423 128.721 42.0959C128.383 42.3445 128.159 42.6577 128.05 43.0355L125.112 42.7969C125.261 42.1009 125.554 41.4993 125.992 40.9922C126.429 40.4801 126.994 40.0874 127.685 39.8139C128.381 39.5355 129.186 39.3963 130.101 39.3963C130.737 39.3963 131.346 39.4709 131.928 39.62C132.515 39.7692 133.034 40.0004 133.486 40.3136C133.944 40.6268 134.304 41.0295 134.568 41.5217C134.831 42.0089 134.963 42.593 134.963 43.2741V51H131.95V49.4116H131.861C131.677 49.7695 131.431 50.0852 131.122 50.3587C130.814 50.6271 130.444 50.8384 130.011 50.9925C129.579 51.1417 129.079 51.2163 128.512 51.2163ZM129.422 49.0238C129.89 49.0238 130.302 48.9318 130.66 48.7479C131.018 48.5589 131.299 48.3054 131.503 47.9872C131.707 47.669 131.809 47.3086 131.809 46.9059V45.6903C131.709 45.755 131.572 45.8146 131.398 45.8693C131.229 45.919 131.038 45.9663 130.824 46.011C130.61 46.0508 130.397 46.0881 130.183 46.1229C129.969 46.1527 129.775 46.18 129.601 46.2049C129.228 46.2596 128.903 46.3466 128.624 46.4659C128.346 46.5852 128.13 46.7468 127.975 46.9506C127.821 47.1495 127.744 47.3981 127.744 47.6964C127.744 48.1289 127.901 48.4595 128.214 48.6882C128.532 48.9119 128.935 49.0238 129.422 49.0238ZM137.128 51V39.5455H140.305V51H137.128ZM138.724 38.0689C138.251 38.0689 137.846 37.9123 137.508 37.5991C137.175 37.2809 137.008 36.9006 137.008 36.4581C137.008 36.0206 137.175 35.6452 137.508 35.332C137.846 35.0138 138.251 34.8548 138.724 34.8548C139.196 34.8548 139.599 35.0138 139.932 35.332C140.27 35.6452 140.439 36.0206 140.439 36.4581C140.439 36.9006 140.27 37.2809 139.932 37.5991C139.599 37.9123 139.196 38.0689 138.724 38.0689ZM145.726 35.7273V51H142.549V35.7273H145.726ZM149.932 55.2955C149.53 55.2955 149.152 55.2631 148.799 55.1985C148.451 55.1388 148.162 55.0618 147.934 54.9673L148.65 52.5959C149.023 52.7102 149.358 52.7724 149.656 52.7823C149.96 52.7923 150.221 52.7227 150.439 52.5735C150.663 52.4244 150.845 52.1708 150.984 51.8129L151.17 51.3281L147.061 39.5455H150.402L152.774 47.9574H152.893L155.287 39.5455H158.65L154.198 52.2379C153.984 52.8544 153.693 53.3913 153.325 53.8487C152.963 54.3111 152.503 54.6665 151.946 54.9151C151.389 55.1687 150.718 55.2955 149.932 55.2955ZM167.228 51H163.768L169.04 35.7273H173.202L178.467 51H175.006L171.181 39.2173H171.061L167.228 51ZM167.012 44.9968H175.185V47.5174H167.012V44.9968ZM184.587 51.2237C183.414 51.2237 182.405 50.9751 181.56 50.478C180.719 49.9759 180.073 49.2798 179.621 48.3899C179.173 47.5 178.95 46.4759 178.95 45.3175C178.95 44.1442 179.176 43.1151 179.628 42.2301C180.086 41.3402 180.734 40.6467 181.575 40.1495C182.415 39.6474 183.414 39.3963 184.572 39.3963C185.572 39.3963 186.447 39.5778 187.197 39.9407C187.948 40.3036 188.542 40.8132 188.98 41.4695C189.417 42.1257 189.658 42.8963 189.703 43.7812H186.705C186.621 43.2095 186.397 42.7496 186.034 42.4016C185.676 42.0487 185.206 41.8722 184.625 41.8722C184.132 41.8722 183.702 42.0064 183.334 42.2749C182.972 42.5384 182.688 42.9237 182.484 43.4308C182.281 43.9379 182.179 44.5518 182.179 45.2727C182.179 46.0036 182.278 46.625 182.477 47.1371C182.681 47.6491 182.967 48.0394 183.334 48.3079C183.702 48.5763 184.132 48.7106 184.625 48.7106C184.988 48.7106 185.313 48.636 185.602 48.4869C185.895 48.3377 186.136 48.1214 186.325 47.8381C186.519 47.5497 186.646 47.2042 186.705 46.8015H189.703C189.653 47.6765 189.415 48.4471 188.987 49.1133C188.565 49.7745 187.98 50.2915 187.235 50.6644C186.489 51.0373 185.607 51.2237 184.587 51.2237ZM197.53 39.5455V41.9318H190.632V39.5455H197.53ZM192.198 36.8011H195.375V47.4801C195.375 47.7734 195.419 48.0021 195.509 48.1662C195.598 48.3253 195.723 48.4371 195.882 48.5018C196.046 48.5664 196.235 48.5987 196.448 48.5987C196.598 48.5987 196.747 48.5863 196.896 48.5614C197.045 48.5316 197.159 48.5092 197.239 48.4943L197.739 50.8583C197.579 50.908 197.356 50.9652 197.067 51.0298C196.779 51.0994 196.429 51.1417 196.016 51.1566C195.25 51.1864 194.579 51.0845 194.002 50.8509C193.431 50.6172 192.986 50.2543 192.668 49.7621C192.349 49.2699 192.193 48.6484 192.198 47.8977V36.8011ZM199.299 51V39.5455H202.476V51H199.299ZM200.895 38.0689C200.423 38.0689 200.018 37.9123 199.68 37.5991C199.346 37.2809 199.18 36.9006 199.18 36.4581C199.18 36.0206 199.346 35.6452 199.68 35.332C200.018 35.0138 200.423 34.8548 200.895 34.8548C201.367 34.8548 201.77 35.0138 202.103 35.332C202.441 35.6452 202.61 36.0206 202.61 36.4581C202.61 36.9006 202.441 37.2809 202.103 37.5991C201.77 37.9123 201.367 38.0689 200.895 38.0689ZM215.4 39.5455L211.395 51H207.816L203.811 39.5455H207.167L209.546 47.7411H209.665L212.037 39.5455H215.4ZM216.726 51V39.5455H219.902V51H216.726ZM218.321 38.0689C217.849 38.0689 217.444 37.9123 217.106 37.5991C216.773 37.2809 216.606 36.9006 216.606 36.4581C216.606 36.0206 216.773 35.6452 217.106 35.332C217.444 35.0138 217.849 34.8548 218.321 34.8548C218.794 34.8548 219.196 35.0138 219.53 35.332C219.868 35.6452 220.037 36.0206 220.037 36.4581C220.037 36.9006 219.868 37.2809 219.53 37.5991C219.196 37.9123 218.794 38.0689 218.321 38.0689ZM228.24 39.5455V41.9318H221.342V39.5455H228.24ZM222.908 36.8011H226.085V47.4801C226.085 47.7734 226.129 48.0021 226.219 48.1662C226.308 48.3253 226.433 48.4371 226.592 48.5018C226.756 48.5664 226.945 48.5987 227.159 48.5987C227.308 48.5987 227.457 48.5863 227.606 48.5614C227.755 48.5316 227.87 48.5092 227.949 48.4943L228.449 50.8583C228.29 50.908 228.066 50.9652 227.778 51.0298C227.489 51.0994 227.139 51.1417 226.726 51.1566C225.96 51.1864 225.289 51.0845 224.713 50.8509C224.141 50.6172 223.696 50.2543 223.378 49.7621C223.06 49.2699 222.903 48.6484 222.908 47.8977V36.8011ZM231.971 55.2955C231.568 55.2955 231.19 55.2631 230.837 55.1985C230.489 55.1388 230.201 55.0618 229.972 54.9673L230.688 52.5959C231.061 52.7102 231.396 52.7724 231.695 52.7823C231.998 52.7923 232.259 52.7227 232.478 52.5735C232.701 52.4244 232.883 52.1708 233.022 51.8129L233.209 51.3281L229.1 39.5455H232.44L234.812 47.9574H234.931L237.325 39.5455H240.688L236.236 52.2379C236.022 52.8544 235.732 53.3913 235.364 53.8487C235.001 54.3111 234.541 54.6665 233.984 54.9151C233.427 55.1687 232.756 55.2955 231.971 55.2955Z" fill="#192335"/>
<path d="M110.497 74V61.6364H111.994V72.6719H117.741V74H110.497ZM123.634 74.1932C122.796 74.1932 122.062 73.994 121.43 73.5955C120.802 73.1971 120.311 72.6397 119.957 71.9233C119.607 71.2069 119.432 70.3698 119.432 69.4119C119.432 68.446 119.607 67.6029 119.957 66.8825C120.311 66.162 120.802 65.6026 121.43 65.2042C122.062 64.8058 122.796 64.6065 123.634 64.6065C124.471 64.6065 125.203 64.8058 125.831 65.2042C126.463 65.6026 126.954 66.162 127.304 66.8825C127.658 67.6029 127.835 68.446 127.835 69.4119C127.835 70.3698 127.658 71.2069 127.304 71.9233C126.954 72.6397 126.463 73.1971 125.831 73.5955C125.203 73.994 124.471 74.1932 123.634 74.1932ZM123.634 72.9134C124.269 72.9134 124.793 72.7504 125.203 72.4244C125.614 72.0984 125.917 71.6697 126.115 71.1385C126.312 70.6072 126.411 70.0317 126.411 69.4119C126.411 68.7921 126.312 68.2146 126.115 67.6793C125.917 67.1441 125.614 66.7114 125.203 66.3814C124.793 66.0514 124.269 65.8864 123.634 65.8864C122.998 65.8864 122.474 66.0514 122.064 66.3814C121.653 66.7114 121.35 67.1441 121.152 67.6793C120.955 68.2146 120.857 68.7921 120.857 69.4119C120.857 70.0317 120.955 70.6072 121.152 71.1385C121.35 71.6697 121.653 72.0984 122.064 72.4244C122.474 72.7504 122.998 72.9134 123.634 72.9134ZM130.01 74V64.7273H131.386V66.1278H131.483C131.652 65.669 131.958 65.2968 132.401 65.011C132.843 64.7253 133.342 64.5824 133.898 64.5824C134.002 64.5824 134.133 64.5844 134.29 64.5884C134.447 64.5924 134.566 64.5985 134.646 64.6065V66.0554C134.598 66.0433 134.487 66.0252 134.314 66.0011C134.145 65.9729 133.966 65.9588 133.777 65.9588C133.326 65.9588 132.924 66.0534 132.57 66.2425C132.22 66.4277 131.942 66.6853 131.737 67.0153C131.535 67.3413 131.435 67.7135 131.435 68.1321V74H130.01ZM139.941 74.1932C139.047 74.1932 138.277 73.996 137.629 73.6016C136.985 73.2031 136.488 72.6477 136.138 71.9354C135.791 71.219 135.618 70.3859 135.618 69.4361C135.618 68.4863 135.791 67.6491 136.138 66.9247C136.488 66.1963 136.975 65.6288 137.598 65.2223C138.226 64.8118 138.959 64.6065 139.796 64.6065C140.279 64.6065 140.756 64.687 141.227 64.848C141.698 65.009 142.126 65.2706 142.513 65.6328C142.899 65.991 143.207 66.4659 143.436 67.0575C143.666 67.6491 143.78 68.3776 143.78 69.2429V69.8466H136.633V68.6151H142.331C142.331 68.0919 142.227 67.625 142.017 67.2145C141.812 66.804 141.518 66.48 141.136 66.2425C140.758 66.0051 140.311 65.8864 139.796 65.8864C139.228 65.8864 138.737 66.0272 138.323 66.3089C137.912 66.5866 137.596 66.9489 137.375 67.3956C137.154 67.8423 137.043 68.3213 137.043 68.8324V69.6534C137.043 70.3537 137.164 70.9473 137.405 71.4343C137.651 71.9173 137.991 72.2855 138.426 72.5391C138.86 72.7886 139.365 72.9134 139.941 72.9134C140.315 72.9134 140.653 72.861 140.955 72.7564C141.261 72.6477 141.524 72.4867 141.746 72.2734C141.967 72.0561 142.138 71.7865 142.259 71.4645L143.635 71.8509C143.491 72.3177 143.247 72.7282 142.905 73.0824C142.563 73.4325 142.14 73.7062 141.637 73.9034C141.134 74.0966 140.569 74.1932 139.941 74.1932ZM148.676 74.2173C148.089 74.2173 147.555 74.1067 147.076 73.8853C146.598 73.6599 146.217 73.3359 145.935 72.9134C145.654 72.4867 145.513 71.9716 145.513 71.3679C145.513 70.8366 145.618 70.406 145.827 70.076C146.036 69.742 146.316 69.4804 146.666 69.2912C147.016 69.102 147.402 68.9612 147.825 68.8686C148.252 68.772 148.68 68.6955 149.111 68.6392C149.674 68.5668 150.131 68.5124 150.481 68.4762C150.835 68.436 151.093 68.3696 151.254 68.277C151.419 68.1844 151.502 68.0234 151.502 67.794V67.7457C151.502 67.1501 151.339 66.6873 151.013 66.3572C150.691 66.0272 150.202 65.8622 149.546 65.8622C148.865 65.8622 148.332 66.0111 147.946 66.3089C147.559 66.6068 147.288 66.9247 147.131 67.2628L145.778 66.7798C146.02 66.2164 146.342 65.7777 146.744 65.4638C147.151 65.1458 147.594 64.9245 148.073 64.7997C148.555 64.6709 149.03 64.6065 149.497 64.6065C149.795 64.6065 150.137 64.6428 150.524 64.7152C150.914 64.7836 151.29 64.9265 151.652 65.1438C152.019 65.3612 152.323 65.6892 152.564 66.1278C152.805 66.5665 152.926 67.1541 152.926 67.8906V74H151.502V72.7443H151.429C151.332 72.9455 151.171 73.1609 150.946 73.3903C150.721 73.6197 150.421 73.8149 150.047 73.9759C149.672 74.1368 149.216 74.2173 148.676 74.2173ZM148.894 72.9375C149.457 72.9375 149.932 72.8268 150.318 72.6055C150.709 72.3841 151.002 72.0984 151.2 71.7482C151.401 71.3981 151.502 71.0298 151.502 70.6435V69.3395C151.441 69.4119 151.308 69.4783 151.103 69.5387C150.902 69.5951 150.668 69.6454 150.403 69.6896C150.141 69.7299 149.886 69.7661 149.636 69.7983C149.391 69.8265 149.191 69.8506 149.038 69.8707C148.668 69.919 148.322 69.9975 148 70.1062C147.682 70.2108 147.425 70.3698 147.227 70.5831C147.034 70.7924 146.938 71.0781 146.938 71.4403C146.938 71.9354 147.121 72.3097 147.487 72.5632C147.857 72.8127 148.326 72.9375 148.894 72.9375ZM155.527 74V64.7273H156.903V66.1761H157.024C157.217 65.6811 157.529 65.2968 157.96 65.0231C158.39 64.7454 158.907 64.6065 159.511 64.6065C160.123 64.6065 160.632 64.7454 161.038 65.0231C161.449 65.2968 161.769 65.6811 161.998 66.1761H162.095C162.332 65.6972 162.688 65.3169 163.163 65.0352C163.638 64.7494 164.208 64.6065 164.872 64.6065C165.701 64.6065 166.379 64.8661 166.906 65.3853C167.433 65.9004 167.697 66.7034 167.697 67.794V74H166.272V67.794C166.272 67.1098 166.085 66.6209 165.711 66.3271C165.337 66.0333 164.896 65.8864 164.389 65.8864C163.737 65.8864 163.232 66.0836 162.874 66.478C162.515 66.8684 162.336 67.3634 162.336 67.9631V74H160.887V67.6491C160.887 67.1219 160.716 66.6973 160.374 66.3754C160.032 66.0494 159.592 65.8864 159.052 65.8864C158.682 65.8864 158.336 65.985 158.014 66.1822C157.696 66.3794 157.438 66.6531 157.241 67.0032C157.048 67.3493 156.951 67.7498 156.951 68.2045V74H155.527ZM175.083 74V64.7273H176.508V74H175.083ZM175.808 63.1818C175.53 63.1818 175.291 63.0872 175.089 62.8981C174.892 62.7089 174.794 62.4815 174.794 62.2159C174.794 61.9503 174.892 61.7229 175.089 61.5337C175.291 61.3446 175.53 61.25 175.808 61.25C176.085 61.25 176.323 61.3446 176.52 61.5337C176.721 61.7229 176.822 61.9503 176.822 62.2159C176.822 62.4815 176.721 62.7089 176.52 62.8981C176.323 63.0872 176.085 63.1818 175.808 63.1818ZM185.686 66.804L184.406 67.1662C184.325 66.9529 184.207 66.7456 184.05 66.5444C183.897 66.3391 183.687 66.1701 183.422 66.0373C183.156 65.9045 182.816 65.8381 182.402 65.8381C181.834 65.8381 181.361 65.9689 180.983 66.2305C180.609 66.488 180.421 66.8161 180.421 67.2145C180.421 67.5687 180.55 67.8484 180.808 68.0536C181.065 68.2589 181.468 68.4299 182.015 68.5668L183.392 68.9048C184.221 69.1061 184.838 69.4139 185.245 69.8285C185.651 70.239 185.855 70.7682 185.855 71.4162C185.855 71.9474 185.702 72.4223 185.396 72.8409C185.094 73.2595 184.671 73.5895 184.128 73.831C183.585 74.0724 182.953 74.1932 182.233 74.1932C181.287 74.1932 180.504 73.9879 179.884 73.5774C179.264 73.1669 178.872 72.5672 178.707 71.7784L180.059 71.4403C180.188 71.9394 180.431 72.3137 180.79 72.5632C181.152 72.8127 181.625 72.9375 182.208 72.9375C182.872 72.9375 183.4 72.7966 183.79 72.5149C184.184 72.2292 184.382 71.8871 184.382 71.4886C184.382 71.1667 184.269 70.897 184.044 70.6797C183.818 70.4583 183.472 70.2933 183.005 70.1847L181.46 69.8224C180.611 69.6212 179.987 69.3093 179.588 68.8867C179.194 68.4601 178.997 67.9268 178.997 67.2869C178.997 66.7637 179.144 66.3009 179.437 65.8984C179.735 65.496 180.14 65.18 180.651 64.9506C181.166 64.7212 181.75 64.6065 182.402 64.6065C183.319 64.6065 184.04 64.8078 184.563 65.2102C185.09 65.6127 185.464 66.1439 185.686 66.804ZM192.781 74V64.7273H194.205V74H192.781ZM193.505 63.1818C193.227 63.1818 192.988 63.0872 192.787 62.8981C192.589 62.7089 192.491 62.4815 192.491 62.2159C192.491 61.9503 192.589 61.7229 192.787 61.5337C192.988 61.3446 193.227 61.25 193.505 61.25C193.783 61.25 194.02 61.3446 194.217 61.5337C194.419 61.7229 194.519 61.9503 194.519 62.2159C194.519 62.4815 194.419 62.7089 194.217 62.8981C194.02 63.0872 193.783 63.1818 193.505 63.1818ZM203.383 66.804L202.103 67.1662C202.023 66.9529 201.904 66.7456 201.747 66.5444C201.594 66.3391 201.385 66.1701 201.119 66.0373C200.853 65.9045 200.513 65.8381 200.099 65.8381C199.531 65.8381 199.058 65.9689 198.68 66.2305C198.306 66.488 198.119 66.8161 198.119 67.2145C198.119 67.5687 198.247 67.8484 198.505 68.0536C198.763 68.2589 199.165 68.4299 199.712 68.5668L201.089 68.9048C201.918 69.1061 202.536 69.4139 202.942 69.8285C203.349 70.239 203.552 70.7682 203.552 71.4162C203.552 71.9474 203.399 72.4223 203.093 72.8409C202.791 73.2595 202.369 73.5895 201.825 73.831C201.282 74.0724 200.65 74.1932 199.93 74.1932C198.984 74.1932 198.201 73.9879 197.581 73.5774C196.962 73.1669 196.569 72.5672 196.404 71.7784L197.756 71.4403C197.885 71.9394 198.129 72.3137 198.487 72.5632C198.849 72.8127 199.322 72.9375 199.906 72.9375C200.57 72.9375 201.097 72.7966 201.487 72.5149C201.882 72.2292 202.079 71.8871 202.079 71.4886C202.079 71.1667 201.966 70.897 201.741 70.6797C201.515 70.4583 201.169 70.2933 200.703 70.1847L199.157 69.8224C198.308 69.6212 197.684 69.3093 197.286 68.8867C196.891 68.4601 196.694 67.9268 196.694 67.2869C196.694 66.7637 196.841 66.3009 197.135 65.8984C197.432 65.496 197.837 65.18 198.348 64.9506C198.863 64.7212 199.447 64.6065 200.099 64.6065C201.016 64.6065 201.737 64.8078 202.26 65.2102C202.787 65.6127 203.162 66.1439 203.383 66.804ZM205.697 77.4773V64.7273H207.073V66.2003H207.242C207.347 66.0393 207.492 65.834 207.677 65.5845C207.866 65.331 208.135 65.1056 208.486 64.9084C208.84 64.7071 209.319 64.6065 209.922 64.6065C210.703 64.6065 211.391 64.8017 211.987 65.1921C212.583 65.5825 213.048 66.1359 213.382 66.8523C213.716 67.5687 213.883 68.4138 213.883 69.3878C213.883 70.3698 213.716 71.221 213.382 71.9414C213.048 72.6578 212.585 73.2132 211.993 73.6076C211.401 73.998 210.719 74.1932 209.947 74.1932C209.351 74.1932 208.874 74.0946 208.516 73.8974C208.158 73.6961 207.882 73.4687 207.689 73.2152C207.496 72.9576 207.347 72.7443 207.242 72.5753H207.121V77.4773H205.697ZM207.097 69.3636C207.097 70.0639 207.2 70.6817 207.405 71.217C207.61 71.7482 207.91 72.1648 208.305 72.4666C208.699 72.7644 209.182 72.9134 209.753 72.9134C210.349 72.9134 210.846 72.7564 211.244 72.4425C211.647 72.1245 211.949 71.6979 212.15 71.1626C212.355 70.6233 212.458 70.0237 212.458 69.3636C212.458 68.7116 212.357 68.1241 212.156 67.6009C211.959 67.0736 211.659 66.6571 211.257 66.3512C210.858 66.0413 210.357 65.8864 209.753 65.8864C209.174 65.8864 208.687 66.0333 208.292 66.3271C207.898 66.6168 207.6 67.0233 207.399 67.5465C207.198 68.0657 207.097 68.6714 207.097 69.3636ZM218.785 74.2173C218.197 74.2173 217.664 74.1067 217.185 73.8853C216.706 73.6599 216.326 73.3359 216.044 72.9134C215.762 72.4867 215.621 71.9716 215.621 71.3679C215.621 70.8366 215.726 70.406 215.935 70.076C216.144 69.742 216.424 69.4804 216.774 69.2912C217.124 69.102 217.511 68.9612 217.933 68.8686C218.36 68.772 218.789 68.6955 219.219 68.6392C219.783 68.5668 220.24 68.5124 220.59 68.4762C220.944 68.436 221.201 68.3696 221.362 68.277C221.527 68.1844 221.61 68.0234 221.61 67.794V67.7457C221.61 67.1501 221.447 66.6873 221.121 66.3572C220.799 66.0272 220.31 65.8622 219.654 65.8622C218.974 65.8622 218.441 66.0111 218.054 66.3089C217.668 66.6068 217.396 66.9247 217.239 67.2628L215.887 66.7798C216.128 66.2164 216.45 65.7777 216.853 65.4638C217.259 65.1458 217.702 64.9245 218.181 64.7997C218.664 64.6709 219.139 64.6065 219.606 64.6065C219.903 64.6065 220.246 64.6428 220.632 64.7152C221.022 64.7836 221.399 64.9265 221.761 65.1438C222.127 65.3612 222.431 65.6892 222.672 66.1278C222.914 66.5665 223.035 67.1541 223.035 67.8906V74H221.61V72.7443H221.537C221.441 72.9455 221.28 73.1609 221.055 73.3903C220.829 73.6197 220.529 73.8149 220.155 73.9759C219.781 74.1368 219.324 74.2173 218.785 74.2173ZM219.002 72.9375C219.565 72.9375 220.04 72.8268 220.427 72.6055C220.817 72.3841 221.111 72.0984 221.308 71.7482C221.509 71.3981 221.61 71.0298 221.61 70.6435V69.3395C221.55 69.4119 221.417 69.4783 221.211 69.5387C221.01 69.5951 220.777 69.6454 220.511 69.6896C220.25 69.7299 219.994 69.7661 219.744 69.7983C219.499 69.8265 219.3 69.8506 219.147 69.8707C218.777 69.919 218.43 69.9975 218.108 70.1062C217.791 70.2108 217.533 70.3698 217.336 70.5831C217.143 70.7924 217.046 71.0781 217.046 71.4403C217.046 71.9354 217.229 72.3097 217.595 72.5632C217.966 72.8127 218.434 72.9375 219.002 72.9375ZM225.635 74V64.7273H227.011V66.1761H227.132C227.325 65.6811 227.637 65.2968 228.068 65.0231C228.499 64.7454 229.016 64.6065 229.619 64.6065C230.231 64.6065 230.74 64.7454 231.147 65.0231C231.557 65.2968 231.877 65.6811 232.107 66.1761H232.203C232.441 65.6972 232.797 65.3169 233.272 65.0352C233.747 64.7494 234.316 64.6065 234.98 64.6065C235.809 64.6065 236.487 64.8661 237.015 65.3853C237.542 65.9004 237.805 66.7034 237.805 67.794V74H236.381V67.794C236.381 67.1098 236.194 66.6209 235.819 66.3271C235.445 66.0333 235.004 65.8864 234.497 65.8864C233.845 65.8864 233.34 66.0836 232.982 66.478C232.624 66.8684 232.445 67.3634 232.445 67.9631V74H230.996V67.6491C230.996 67.1219 230.825 66.6973 230.483 66.3754C230.141 66.0494 229.7 65.8864 229.161 65.8864C228.79 65.8864 228.444 65.985 228.122 66.1822C227.804 66.3794 227.547 66.6531 227.35 67.0032C227.156 67.3493 227.06 67.7498 227.06 68.2045V74H225.635Z" fill="#192335"/>
<defs>
<filter id="filter0_dd_8_162" x="0.6" y="0.400001" width="304.8" height="123.8" filterUnits="userSpaceOnUse" color-interpolation-filters="sRGB">
<feFlood flood-opacity="0" result="BackgroundImageFix"/>
<feColorMatrix in="SourceAlpha" type="matrix" values="0 0 0 0 0 0 0 0 0 0 0 0 0 0 0 0 0 0 127 0" result="hardAlpha"/>
<feMorphology radius="2" operator="erode" in="SourceAlpha" result="effect1_dropShadow_8_162"/>
<feOffset dy="4"/>
<feGaussianBlur stdDeviation="6.5"/>
<feColorMatrix type="matrix" values="0 0 0 0 0.0745098 0 0 0 0 0.0627451 0 0 0 0 0.133333 0 0 0 0.06 0"/>
<feBlend mode="normal" in2="BackgroundImageFix" result="effect1_dropShadow_8_162"/>
<feColorMatrix in="SourceAlpha" type="matrix" values="0 0 0 0 0 0 0 0 0 0 0 0 0 0 0 0 0 0 127 0" result="hardAlpha"/>
<feMorphology radius="6" operator="erode" in="SourceAlpha" result="effect2_dropShadow_8_162"/>
<feOffset dy="4.8"/>
<feGaussianBlur stdDeviation="12.2"/>
<feColorMatrix type="matrix" values="0 0 0 0 0.0745098 0 0 0 0 0.0627451 0 0 0 0 0.133333 0 0 0 0.1 0"/>
<feBlend mode="normal" in2="effect1_dropShadow_8_162" result="effect2_dropShadow_8_162"/>
<feBlend mode="normal" in="SourceGraphic" in2="effect2_dropShadow_8_162" result="shape"/>
</filter>
</defs>
</svg>
