<svg width="257" height="131" viewBox="0 0 257 131" fill="none" xmlns="http://www.w3.org/2000/svg">
<g clip-path="url(#clip0_182_415)">
<path d="M235.04 0H21.9604C9.83199 0 0 9.83199 0 21.9604V108.787C0 120.916 9.83199 130.748 21.9604 130.748H235.04C247.168 130.748 257 120.916 257 108.787V21.9604C257 9.83199 247.168 0 235.04 0Z" fill="white"/>
<path d="M42.9659 49.8282C43.0441 49.9063 43.1055 49.9995 43.1465 50.1021C43.1876 50.2047 43.2073 50.3145 43.2046 50.425C43.2163 50.6514 43.1376 50.8732 42.9858 51.0416C42.795 51.1954 42.5542 51.2733 42.3095 51.2604H32.3637C32.1314 51.271 31.9038 51.1928 31.7271 51.0416C31.648 50.961 31.5873 50.864 31.5495 50.7575C31.5117 50.651 31.4977 50.5375 31.5083 50.425C31.5018 50.3158 31.5179 50.2065 31.5556 50.1038C31.5932 50.0011 31.6516 49.9073 31.7271 49.8282C31.8106 49.746 31.9104 49.6823 32.02 49.6412C32.1297 49.6001 32.2468 49.5825 32.3637 49.5895H36.4613V32.0252L32.9206 34.3326C32.8671 34.3815 32.8043 34.419 32.7359 34.4429C32.6676 34.4668 32.5951 34.4767 32.5228 34.4719C32.4029 34.4674 32.2855 34.4366 32.179 34.3816C32.0724 34.3266 31.9792 34.2487 31.9062 34.1536C31.7429 33.958 31.6516 33.7122 31.6476 33.4574C31.6468 33.3139 31.683 33.1727 31.7527 33.0472C31.8224 32.9218 31.9232 32.8164 32.0454 32.7413L36.6603 29.6581C36.8935 29.512 37.161 29.4296 37.436 29.4194C37.5574 29.4146 37.6784 29.4351 37.7915 29.4796C37.9045 29.5241 38.007 29.5917 38.0925 29.678C38.1839 29.7762 38.2541 29.8923 38.2986 30.019C38.3431 30.1456 38.361 30.2801 38.3511 30.414V49.5895H42.3294C42.5647 49.5823 42.7934 49.6681 42.9659 49.8282Z" fill="#233A45"/>
<path d="M62.1806 49.8282C62.2614 49.9053 62.326 49.9978 62.3704 50.1003C62.4148 50.2028 62.4382 50.3132 62.4392 50.4249C62.4392 50.9819 62.1408 51.2604 61.5441 51.2604H49.3306C49.2061 51.2667 49.0816 51.247 48.9652 51.2025C48.8487 51.158 48.7428 51.0896 48.6543 51.0018C48.5777 50.9267 48.5171 50.8369 48.476 50.7377C48.435 50.6386 48.4145 50.5322 48.4156 50.4249C48.4133 50.2885 48.4385 50.153 48.4898 50.0265C48.541 49.9 48.6173 49.7852 48.714 49.6889L56.3126 41.235C57.2343 40.2285 58.0293 39.1129 58.6797 37.9131C59.1555 37.0185 59.408 36.0221 59.4157 35.0089C59.4456 34.4616 59.362 33.9141 59.1703 33.4007C58.9787 32.8872 58.6829 32.4189 58.3018 32.0251C57.4267 31.2879 56.3007 30.9173 55.1589 30.9908C54.1378 30.9833 53.1248 31.1723 52.1751 31.5477C51.1366 32.0071 50.1714 32.6171 49.3107 33.3579C49.1175 33.5431 48.8622 33.6495 48.5946 33.6563C48.5109 33.6533 48.4291 33.63 48.3563 33.5884C48.2836 33.5469 48.222 33.4882 48.1769 33.4176C48.0419 33.2563 47.9711 33.0509 47.978 32.8407C47.9759 32.6716 48.0104 32.5041 48.0791 32.3496C48.1477 32.1952 48.2489 32.0573 48.3758 31.9456C49.2559 31.0872 50.2969 30.4111 51.4391 29.9564C52.6217 29.4816 53.8845 29.2385 55.1589 29.2403C56.7978 29.1538 58.4095 29.6863 59.6743 30.7322C60.2311 31.2581 60.6671 31.8987 60.9522 32.6096C61.2372 33.3205 61.3645 34.0848 61.3253 34.8498C61.3265 36.1067 61.0336 37.3465 60.4699 38.47C59.7144 39.9188 58.764 41.2574 57.6453 42.4484L51.1607 49.5497H61.5839C61.8115 49.5613 62.0255 49.6612 62.1806 49.8282Z" fill="#233A45"/>
<path d="M67.9103 48.6945C66.6533 46.1171 66 43.2872 66 40.4196C66 37.552 66.6533 34.7221 67.9103 32.1447C68.5491 31.2693 69.3857 30.557 70.3518 30.066C71.3179 29.575 72.3863 29.3191 73.4701 29.3191C74.5538 29.3191 75.6222 29.575 76.5883 30.066C77.5545 30.557 78.391 31.2693 79.0298 32.1447C80.2865 34.7187 80.9397 37.5453 80.9397 40.4097C80.9397 43.2741 80.2865 46.1007 79.0298 48.6747C78.3884 49.5464 77.551 50.2551 76.5852 50.7436C75.6194 51.232 74.5523 51.4865 73.4701 51.4865C72.3878 51.4865 71.3207 51.232 70.3549 50.7436C69.3891 50.2551 68.5517 49.5464 67.9103 48.6747V48.6945ZM77.6374 47.5209C79.4149 42.9467 79.4149 37.8726 77.6374 33.2984C77.1923 32.5959 76.5769 32.0173 75.8483 31.6164C75.1198 31.2155 74.3017 31.0052 73.4701 31.0052C72.6385 31.0052 71.8203 31.2155 71.0918 31.6164C70.3632 32.0173 69.7478 32.5959 69.3028 33.2984C68.264 35.5143 67.8054 37.9579 67.97 40.3997C67.8045 42.8437 68.2703 45.2891 69.3227 47.501C69.7652 48.2037 70.3787 48.7827 71.1057 49.184C71.8327 49.5853 72.6496 49.7958 73.48 49.7958C74.3104 49.7958 75.1273 49.5853 75.8543 49.184C76.5813 48.7827 77.1948 48.2037 77.6374 47.501V47.5209Z" fill="#233A45"/>
<path d="M96.2349 38.6494C97.251 39.1957 98.087 40.0248 98.6417 41.0364C99.2154 42.1412 99.5027 43.3723 99.4772 44.6169C99.4969 45.853 99.1953 47.0731 98.602 48.1576C98.0131 49.1875 97.1439 50.0291 96.0956 50.5844C94.968 51.1987 93.6994 51.5073 92.4157 51.4795C91.1285 51.4806 89.8528 51.2376 88.6561 50.7635C87.5265 50.3185 86.5031 49.6408 85.6525 48.7743C85.5224 48.6653 85.4189 48.528 85.3499 48.3728C85.281 48.2177 85.2484 48.0488 85.2547 47.8792C85.2504 47.6726 85.3132 47.4702 85.4337 47.3023C85.4806 47.2289 85.5453 47.1685 85.6219 47.1268C85.6984 47.085 85.7842 47.0633 85.8713 47.0636C86.1293 47.0863 86.3732 47.1908 86.5675 47.362C87.4333 48.1006 88.4057 48.7041 89.4518 49.1522C90.3771 49.5414 91.3721 49.7377 92.3759 49.7291C93.0678 49.7698 93.7606 49.6671 94.411 49.4275C95.0613 49.1879 95.6552 48.8165 96.1553 48.3367C96.6327 47.8308 97.0024 47.2332 97.2418 46.5801C97.4811 45.9269 97.5852 45.232 97.5477 44.5374C97.5764 43.8544 97.4699 43.1724 97.2344 42.5307C96.9989 41.8889 96.6389 41.3 96.1752 40.7977C95.6972 40.3134 95.1223 39.9355 94.4881 39.6887C93.854 39.4419 93.1749 39.3318 92.4952 39.3655C91.5539 39.3351 90.62 39.5413 89.779 39.9652C88.938 40.3892 88.2168 41.0174 87.6815 41.7923C87.5791 41.9463 87.4401 42.0723 87.2769 42.1592C87.1137 42.246 86.9314 42.2908 86.7465 42.2896C86.5341 42.2891 86.329 42.2113 86.1697 42.0708C86.0869 41.992 86.0226 41.8958 85.9813 41.7892C85.9401 41.6826 85.9229 41.5682 85.931 41.4542V30.3944C85.9238 30.1591 86.0095 29.9304 86.1697 29.7579C86.2574 29.669 86.3632 29.6 86.4799 29.5554C86.5965 29.5108 86.7214 29.4917 86.846 29.4993H97.9455C98.1846 29.4835 98.4202 29.5621 98.602 29.7181C98.6847 29.797 98.749 29.8931 98.7903 29.9997C98.8316 30.1063 98.8488 30.2207 98.8407 30.3348C98.8415 30.439 98.8206 30.5423 98.7796 30.6382C98.7385 30.734 98.678 30.8204 98.602 30.8917C98.4233 31.055 98.1873 31.1408 97.9455 31.1304H87.8008V39.7435C88.3743 39.0801 89.0969 38.562 89.9093 38.2317C90.7724 37.8735 91.7002 37.6974 92.6345 37.7145C93.8955 37.7073 95.1366 38.0296 96.2349 38.6494Z" fill="#233A45"/>
<path d="M180.138 42.1702C180.882 43.1604 181.267 44.3736 181.232 45.6114C181.265 46.4397 181.102 47.2641 180.756 48.0175C180.411 48.771 179.892 49.4323 179.243 49.9478C177.538 50.9759 175.585 51.5192 173.594 51.5192C171.603 51.5192 169.649 50.9759 167.944 49.9478C167.295 49.4323 166.777 48.771 166.431 48.0175C166.086 47.2641 165.923 46.4397 165.955 45.6114C165.917 44.3763 166.296 43.1644 167.029 42.1702C167.775 41.1847 168.835 40.483 170.033 40.181C168.978 39.7968 168.063 39.1036 167.407 38.1918C166.76 37.2726 166.419 36.173 166.433 35.049C166.411 34.2451 166.58 33.4475 166.925 32.7214C167.271 31.9953 167.784 31.3615 168.422 30.8717C169.986 29.8596 171.81 29.321 173.673 29.321C175.537 29.321 177.36 29.8596 178.925 30.8717C179.544 31.3718 180.038 32.0102 180.366 32.7356C180.694 33.4611 180.848 34.2534 180.814 35.049C180.828 36.173 180.487 37.2726 179.84 38.1918C179.18 39.0993 178.266 39.7914 177.214 40.181C178.383 40.4992 179.413 41.1994 180.138 42.1702ZM179.303 45.512C179.303 42.6078 177.313 41.1557 173.614 41.1557C169.914 41.1557 167.925 42.6078 167.925 45.512C167.925 48.4161 169.814 49.8484 173.614 49.8484C177.413 49.8484 179.303 48.3565 179.303 45.4722V45.512ZM169.735 38.351C170.893 39.0915 172.239 39.485 173.614 39.485C174.988 39.485 176.334 39.0915 177.492 38.351C177.933 37.9548 178.279 37.4653 178.507 36.9181C178.734 36.3709 178.836 35.7799 178.805 35.1882C178.837 34.6111 178.735 34.0344 178.507 33.5031C178.279 32.9718 177.932 32.5002 177.492 32.1249C176.325 31.4091 174.983 31.0302 173.614 31.0302C172.244 31.0302 170.902 31.4091 169.735 32.1249C169.295 32.5002 168.948 32.9718 168.72 33.5031C168.493 34.0344 168.39 34.6111 168.422 35.1882C168.397 35.7733 168.502 36.3566 168.729 36.8964C168.956 37.4363 169.299 37.9194 169.735 38.3112V38.351Z" fill="#233A45"/>
<path d="M199.991 44.9353C200.136 45.0997 200.214 45.3127 200.21 45.532C200.219 45.6414 200.204 45.7514 200.166 45.8545C200.128 45.9576 200.068 46.0511 199.991 46.1288C199.81 46.2711 199.584 46.3419 199.354 46.3277H196.709V50.4253C196.717 50.6882 196.624 50.9443 196.45 51.1414C196.256 51.3068 196.009 51.3976 195.754 51.3976C195.499 51.3976 195.252 51.3068 195.058 51.1414C194.883 50.9443 194.791 50.6882 194.799 50.4253V46.3277H185.271C185.029 46.3481 184.787 46.2771 184.595 46.1288C184.512 46.0531 184.446 45.9608 184.402 45.858C184.357 45.7552 184.335 45.6441 184.336 45.532C184.347 45.2631 184.445 45.0051 184.614 44.796L194.958 29.8574C195.035 29.7069 195.162 29.5875 195.316 29.5192C195.474 29.4871 195.636 29.4871 195.794 29.5192C196.028 29.5161 196.255 29.6013 196.43 29.7579C196.526 29.8582 196.6 29.977 196.648 30.107C196.696 30.237 196.716 30.3755 196.709 30.5138V44.796H199.354C199.576 44.7588 199.804 44.8086 199.991 44.9353ZM186.643 44.6966H194.799V32.9207L186.643 44.6966Z" fill="#233A45"/>
<path d="M204.944 48.6943C203.687 46.1169 203.033 43.287 203.033 40.4194C203.033 37.5518 203.687 34.7219 204.944 32.1445C205.584 31.2689 206.423 30.5567 207.391 30.0658C208.358 29.5749 209.428 29.3191 210.513 29.3191C211.598 29.3191 212.668 29.5749 213.636 30.0658C214.604 30.5567 215.442 31.2689 216.083 32.1445C217.34 34.7184 217.993 37.5451 217.993 40.4095C217.993 43.2738 217.34 46.1005 216.083 48.6744C215.439 49.5463 214.6 50.255 213.633 50.7433C212.665 51.2317 211.597 51.4861 210.513 51.4861C209.43 51.4861 208.361 51.2317 207.394 50.7433C206.426 50.255 205.587 49.5463 204.944 48.6744V48.6943ZM214.69 47.5207C216.468 42.9465 216.468 37.8724 214.69 33.2982C214.275 32.5671 213.664 31.9659 212.926 31.562C212.189 31.158 211.353 30.9671 210.513 31.0107C209.675 30.9639 208.842 31.1536 208.106 31.5581C207.371 31.9626 206.765 32.5655 206.356 33.2982C204.552 37.8606 204.552 42.9384 206.356 47.5008C206.801 48.2033 207.416 48.7819 208.145 49.1828C208.873 49.5838 209.692 49.794 210.523 49.794C211.355 49.794 212.173 49.5838 212.901 49.1828C213.63 48.7819 214.245 48.2033 214.69 47.5008V47.5207Z" fill="#233A45"/>
<path d="M129.057 25.8591H127.963V104.889H129.057V25.8591Z" fill="#E9E2EF"/>
<path d="M162.276 68.1687C161.739 67.8477 161.315 67.3681 161.062 66.7962C160.505 65.4457 160.505 63.9296 161.062 62.5791C161.315 62.0071 161.739 61.5276 162.276 61.2066C162.844 60.8794 163.49 60.7142 164.146 60.7292C164.628 60.7244 165.108 60.8122 165.558 60.9878C165.976 61.1354 166.356 61.3731 166.672 61.684C166.718 61.7237 166.756 61.7724 166.784 61.827C166.811 61.8817 166.827 61.9413 166.831 62.0023C166.859 62.0726 166.859 62.1508 166.831 62.2211C166.806 62.2334 166.779 62.2397 166.751 62.2397C166.724 62.2397 166.696 62.2334 166.672 62.2211C166.585 62.2071 166.504 62.173 166.433 62.1216C166.116 61.8366 165.753 61.6079 165.359 61.4453C164.995 61.3147 164.612 61.2474 164.225 61.2464C163.848 61.2375 163.473 61.3133 163.129 61.4682C162.785 61.6231 162.48 61.8532 162.236 62.1415C161.711 62.853 161.451 63.7253 161.5 64.6081C161.451 65.497 161.711 66.3754 162.236 67.0945C162.483 67.3771 162.79 67.6019 163.133 67.7531C163.477 67.9043 163.85 67.9783 164.225 67.9698C164.612 67.9787 164.998 67.9111 165.359 67.7708C165.749 67.6087 166.111 67.3872 166.433 67.1144C166.498 67.0507 166.582 67.009 166.672 66.9951C166.697 66.9841 166.724 66.9785 166.751 66.9785C166.779 66.9785 166.806 66.9841 166.831 66.9951C166.844 67.0266 166.851 67.0604 166.851 67.0945C166.851 67.1287 166.844 67.1625 166.831 67.194C166.827 67.255 166.811 67.3146 166.784 67.3692C166.756 67.4239 166.718 67.4725 166.672 67.5123C166.357 67.8293 165.977 68.0737 165.558 68.2284C165.104 68.3879 164.626 68.4686 164.146 68.4671C163.507 68.5372 162.861 68.4341 162.276 68.1687Z" fill="#7C7D93"/>
<path d="M168.959 68.308C168.59 68.0675 168.294 67.7304 168.104 67.3333C167.896 66.878 167.794 66.3816 167.806 65.8813C167.795 65.3746 167.897 64.8718 168.104 64.4093C168.294 64.0122 168.59 63.6751 168.959 63.4346C169.353 63.2096 169.799 63.093 170.252 63.0964C170.706 63.0901 171.153 63.2069 171.545 63.4346C171.919 63.6693 172.216 64.008 172.4 64.4093C172.608 64.8718 172.71 65.3746 172.699 65.8813C172.71 66.3816 172.608 66.878 172.4 67.3333C172.216 67.7346 171.919 68.0733 171.545 68.308C171.153 68.5357 170.706 68.6526 170.252 68.6462C169.799 68.6497 169.353 68.533 168.959 68.308ZM171.545 67.4925C171.856 67.0126 172.021 66.453 172.021 65.8813C172.021 65.3095 171.856 64.7499 171.545 64.27C171.383 64.0875 171.184 63.9415 170.961 63.8415C170.738 63.7414 170.496 63.6897 170.252 63.6897C170.008 63.6897 169.766 63.7414 169.544 63.8415C169.321 63.9415 169.122 64.0875 168.959 64.27C168.629 64.7401 168.468 65.308 168.502 65.8813C168.458 66.4556 168.62 67.0267 168.959 67.4925C169.118 67.6783 169.317 67.8251 169.541 67.9217C169.765 68.0183 170.008 68.062 170.252 68.0494C170.496 68.0605 170.739 68.0161 170.963 67.9197C171.187 67.8232 171.386 67.6771 171.545 67.4925Z" fill="#7C7D93"/>
<path d="M178.627 65.1651V68.2682C178.63 68.3159 178.622 68.3636 178.605 68.4082C178.588 68.4527 178.562 68.4932 178.528 68.5268C178.465 68.59 178.379 68.6254 178.289 68.6254C178.2 68.6254 178.114 68.59 178.051 68.5268C178.03 68.4869 178.019 68.4425 178.019 68.3975C178.019 68.3525 178.03 68.3081 178.051 68.2682V65.2049C178.085 64.7947 177.972 64.3857 177.732 64.0512C177.598 63.9232 177.438 63.8252 177.263 63.7635C177.089 63.7018 176.903 63.6778 176.718 63.6931C176.484 63.6838 176.252 63.7212 176.033 63.8032C175.814 63.8852 175.614 64.0101 175.445 64.1705C175.282 64.3468 175.156 64.5537 175.074 64.7791C174.992 65.0044 174.956 65.2438 174.967 65.4834V68.2682C175.002 68.351 175.002 68.444 174.967 68.5268C174.904 68.5903 174.818 68.626 174.729 68.6263C174.633 68.627 174.541 68.5915 174.47 68.5268C174.436 68.444 174.436 68.351 174.47 68.2682V63.4743C174.436 63.3915 174.436 63.2985 174.47 63.2157C174.541 63.151 174.633 63.1155 174.729 63.1163C174.77 63.1155 174.811 63.124 174.849 63.1412C174.887 63.1584 174.921 63.1839 174.947 63.2157C174.976 63.2927 174.976 63.3775 174.947 63.4544V64.1506C175.097 63.8222 175.348 63.5504 175.664 63.3749C176.004 63.1872 176.388 63.0912 176.777 63.0964C177.891 63.0964 178.627 63.7926 178.627 65.1651Z" fill="#7C7D93"/>
<path d="M181.114 68.5066C180.833 68.4342 180.565 68.3202 180.318 68.1685C180.207 68.0971 180.106 68.01 180.02 67.9099C180 67.8382 180 67.7627 180.02 67.6911C180.007 67.6595 180 67.6257 180 67.5916C180 67.5574 180.007 67.5236 180.02 67.4921C180.071 67.4739 180.128 67.4739 180.179 67.4921C180.311 67.5211 180.434 67.5827 180.537 67.6712C180.739 67.8029 180.952 67.9161 181.174 68.0093C181.45 68.095 181.739 68.1353 182.029 68.1287C182.374 68.1433 182.717 68.0679 183.024 67.9099C183.116 67.8553 183.195 67.7823 183.258 67.6954C183.32 67.6086 183.364 67.5097 183.386 67.4051C183.409 67.3005 183.409 67.1924 183.388 67.0875C183.367 66.9827 183.324 66.8834 183.262 66.7959C183.148 66.6564 182.996 66.5527 182.825 66.4975C182.541 66.3867 182.248 66.3002 181.949 66.239C181.447 66.1669 180.97 65.9759 180.557 65.682C180.42 65.5688 180.311 65.4256 180.239 65.2634C180.166 65.1013 180.132 64.9246 180.139 64.7471C180.134 64.5273 180.183 64.3096 180.28 64.1123C180.376 63.915 180.519 63.7438 180.696 63.6133C181.11 63.3094 181.615 63.1551 182.128 63.1756C182.405 63.1747 182.68 63.215 182.944 63.295C183.185 63.3646 183.413 63.472 183.62 63.6133C183.879 63.7923 183.998 63.9514 183.998 64.1304C184.011 64.1619 184.018 64.1958 184.018 64.2299C184.018 64.264 184.011 64.2978 183.998 64.3294C183.947 64.3476 183.891 64.3476 183.839 64.3294C183.71 64.307 183.592 64.2444 183.501 64.1503C183.315 64.0154 183.115 63.9019 182.904 63.8122C182.669 63.7264 182.419 63.6859 182.168 63.6928C181.843 63.6754 181.521 63.7664 181.253 63.9514C181.144 64.0304 181.055 64.1353 180.996 64.2568C180.937 64.3784 180.909 64.5127 180.915 64.6476C180.912 64.7957 180.953 64.9413 181.034 65.0653C181.14 65.1916 181.277 65.2877 181.432 65.3438C181.686 65.4626 181.953 65.5495 182.228 65.6024C182.629 65.6876 183.021 65.8074 183.401 65.9605C183.629 66.0708 183.827 66.2346 183.978 66.4379C184.107 66.6537 184.17 66.9028 184.157 67.154C184.157 67.3666 184.104 67.576 184.003 67.7633C183.903 67.9507 183.758 68.1103 183.581 68.2281C183.142 68.5253 182.618 68.6719 182.089 68.6458C181.758 68.659 181.428 68.6118 181.114 68.5066Z" fill="#7C7D93"/>
<path d="M189.787 67.5122C189.801 67.54 189.808 67.5706 189.808 67.6017C189.808 67.6328 189.801 67.6634 189.787 67.6912C189.787 67.8503 189.667 68.0095 189.409 68.1686C188.908 68.4826 188.329 68.6482 187.738 68.646C187.373 68.6748 187.006 68.624 186.662 68.4969C186.319 68.3698 186.007 68.1695 185.749 67.91C185.26 67.3658 185.003 66.6519 185.033 65.9209C185.018 65.418 185.127 64.9193 185.351 64.4688C185.537 64.0628 185.843 63.7229 186.226 63.4941C186.62 63.2509 187.076 63.1266 187.539 63.136C187.843 63.1267 188.146 63.1822 188.427 63.2988C188.708 63.4154 188.962 63.5905 189.17 63.8123C189.593 64.3248 189.807 64.9788 189.767 65.6424C189.771 65.7445 189.735 65.8443 189.667 65.9209C189.632 65.9587 189.589 65.9876 189.54 66.0049C189.492 66.0222 189.44 66.0275 189.389 66.0203H185.729C185.709 66.5768 185.893 67.1214 186.246 67.552C186.43 67.7369 186.651 67.8804 186.894 67.9731C187.138 68.0657 187.398 68.1052 187.658 68.089C187.924 68.1002 188.189 68.0526 188.434 67.9498C188.674 67.8611 188.906 67.7547 189.13 67.6315C189.223 67.5406 189.341 67.4784 189.468 67.4525C189.491 67.4306 189.519 67.4144 189.549 67.4053C189.58 67.3963 189.612 67.3946 189.643 67.4004C189.674 67.4062 189.703 67.4195 189.728 67.4389C189.753 67.4583 189.773 67.4835 189.787 67.5122ZM186.465 64.1306C186.131 64.5051 185.934 64.9822 185.908 65.4832H189.309C189.324 64.9953 189.17 64.5172 188.872 64.1306C188.723 63.9698 188.541 63.8436 188.338 63.7611C188.135 63.6786 187.917 63.6418 187.698 63.6532C187.476 63.6305 187.252 63.6542 187.04 63.7227C186.827 63.7911 186.632 63.903 186.465 64.051V64.1306Z" fill="#7C7D93"/>
<path d="M192.154 68.3077C191.774 68.0742 191.47 67.7356 191.278 67.333C191.073 66.8839 190.971 66.3945 190.98 65.9008C190.971 65.3942 191.073 64.8919 191.278 64.4288C191.483 64.029 191.793 63.6922 192.174 63.4541C192.559 63.2082 193.009 63.0835 193.466 63.0961C193.743 63.0952 194.018 63.1354 194.282 63.2154C194.529 63.2849 194.764 63.3923 194.978 63.5337C195.08 63.6102 195.173 63.6968 195.257 63.7923C195.286 63.8761 195.286 63.9671 195.257 64.0509C195.277 64.1157 195.277 64.185 195.257 64.2498C195.205 64.268 195.149 64.268 195.098 64.2498C194.96 64.2234 194.835 64.1537 194.74 64.0509C194.563 63.9182 194.369 63.811 194.163 63.7326C193.948 63.6475 193.718 63.6069 193.486 63.6132C193.231 63.5968 192.976 63.6404 192.741 63.7406C192.506 63.8408 192.298 63.9948 192.134 64.1901C191.791 64.6624 191.622 65.2387 191.656 65.8212C191.621 66.3854 191.791 66.9434 192.134 67.3926C192.297 67.584 192.502 67.7355 192.733 67.8355C192.964 67.9355 193.215 67.9813 193.466 67.9695C193.704 67.9775 193.941 67.9369 194.163 67.8502L194.779 67.512L194.958 67.3926H195.117C195.175 67.3713 195.239 67.3713 195.297 67.3926C195.316 67.4575 195.316 67.5268 195.297 67.5916C195.324 67.6619 195.324 67.7401 195.297 67.8104C195.22 67.9203 195.118 68.0092 194.998 68.069C194.78 68.2208 194.538 68.3351 194.282 68.4071C193.933 68.5264 193.563 68.5703 193.196 68.536C192.83 68.5017 192.474 68.39 192.154 68.2082V68.3077Z" fill="#7C7D93"/>
<path d="M199.155 68.3477C199.17 68.3789 199.177 68.4128 199.177 68.4471C199.177 68.4815 199.17 68.5154 199.155 68.5466C199.052 68.583 198.94 68.583 198.837 68.5466H198.539C198.307 68.5517 198.077 68.5104 197.862 68.425C197.646 68.3396 197.45 68.2118 197.286 68.0493C196.993 67.6467 196.852 67.1534 196.888 66.6569V63.7328H196.052C196.021 63.7471 195.987 63.7545 195.953 63.7545C195.918 63.7545 195.885 63.7471 195.853 63.7328C195.839 63.705 195.832 63.6744 195.832 63.6433C195.832 63.6122 195.839 63.5815 195.853 63.5538C195.853 63.4799 195.883 63.4091 195.935 63.3568C195.987 63.3046 196.058 63.2753 196.132 63.2753H196.967V61.9226C196.965 61.875 196.972 61.8273 196.989 61.7827C197.006 61.7382 197.033 61.6977 197.067 61.6641C197.13 61.6009 197.216 61.5654 197.305 61.5654C197.395 61.5654 197.481 61.6009 197.544 61.6641C197.578 61.6977 197.604 61.7382 197.622 61.7827C197.639 61.8273 197.646 61.875 197.644 61.9226V63.2753H198.976C199.011 63.2605 199.048 63.2529 199.086 63.2529C199.123 63.2529 199.161 63.2605 199.195 63.2753C199.218 63.3396 199.218 63.4099 199.195 63.4742C199.216 63.532 199.216 63.5955 199.195 63.6532C199.161 63.668 199.123 63.6756 199.086 63.6756C199.048 63.6756 199.011 63.668 198.976 63.6532H197.644V66.6171C197.608 66.9564 197.7 67.2968 197.902 67.5719C198.012 67.6814 198.142 67.7678 198.285 67.8259C198.429 67.884 198.583 67.9126 198.738 67.91H199.016C199.056 68.0294 199.155 68.1686 199.155 68.3477Z" fill="#7C7D93"/>
<path d="M204.486 67.512C204.509 67.5694 204.509 67.6336 204.486 67.691C204.486 67.8501 204.367 68.0093 204.108 68.1684C203.607 68.4824 203.028 68.6479 202.437 68.6458C202.072 68.672 201.706 68.6199 201.363 68.4929C201.02 68.366 200.708 68.1672 200.448 67.9098C199.959 67.3655 199.702 66.6517 199.732 65.9206C199.727 65.4188 199.836 64.9223 200.05 64.4686C200.243 64.0666 200.546 63.7283 200.925 63.4939C201.319 63.2507 201.775 63.1264 202.238 63.1358C202.543 63.1252 202.846 63.1802 203.127 63.2968C203.409 63.4135 203.662 63.5892 203.869 63.8121C204.293 64.3246 204.506 64.9786 204.466 65.6422C204.5 65.732 204.5 65.8309 204.466 65.9206C204.466 65.9206 204.327 66.0201 204.188 66.0201H200.508C200.484 66.5806 200.676 67.1289 201.045 67.5517C201.224 67.7362 201.442 67.8796 201.682 67.9723C201.923 68.065 202.18 68.1047 202.437 68.0888C202.709 68.0973 202.98 68.0499 203.233 67.9496C203.466 67.8605 203.692 67.7541 203.909 67.6313C204.005 67.5444 204.121 67.4828 204.247 67.4523C204.289 67.4433 204.332 67.444 204.374 67.4543C204.415 67.4647 204.453 67.4844 204.486 67.512ZM201.144 64.1304C200.81 64.5049 200.614 64.982 200.587 65.483H203.989C204.004 64.9951 203.849 64.517 203.551 64.1304C203.402 63.9696 203.22 63.8434 203.017 63.7609C202.815 63.6784 202.596 63.6416 202.377 63.653C202.14 63.6156 201.897 63.6318 201.666 63.7007C201.435 63.7695 201.223 63.8892 201.045 64.0508L201.144 64.1304Z" fill="#7C7D93"/>
<path d="M208.464 68.3477C208.469 68.387 208.463 68.4269 208.445 68.4623C208.427 68.4977 208.399 68.5271 208.365 68.5466C208.262 68.5865 208.149 68.5865 208.046 68.5466H207.748C207.511 68.5568 207.275 68.516 207.055 68.4267C206.836 68.3375 206.638 68.202 206.475 68.0294C206.172 67.6317 206.03 67.1346 206.077 66.637V63.7129H205.242C205.207 63.7277 205.17 63.7353 205.132 63.7353C205.095 63.7353 205.058 63.7277 205.023 63.7129C205.002 63.6551 205.002 63.5917 205.023 63.5339C205 63.4695 205 63.3993 205.023 63.335C205.058 63.3202 205.095 63.3126 205.132 63.3126C205.17 63.3126 205.207 63.3202 205.242 63.335H206.077V61.9823C206.043 61.8996 206.043 61.8065 206.077 61.7237C206.14 61.6603 206.226 61.6245 206.316 61.6243C206.412 61.6235 206.504 61.6591 206.574 61.7237C206.609 61.8065 206.609 61.8996 206.574 61.9823V63.335H207.907C207.941 63.3175 207.979 63.3084 208.017 63.3084C208.055 63.3084 208.092 63.3175 208.126 63.335C208.14 63.3662 208.148 63.4001 208.148 63.4344C208.148 63.4688 208.14 63.5027 208.126 63.5339C208.14 63.5617 208.147 63.5923 208.147 63.6234C208.147 63.6545 208.14 63.6851 208.126 63.7129C208.092 63.7304 208.055 63.7395 208.017 63.7395C207.979 63.7395 207.941 63.7304 207.907 63.7129H206.574V66.6768C206.545 67.0187 206.644 67.3593 206.853 67.6316C206.957 67.7425 207.084 67.83 207.224 67.8883C207.365 67.9466 207.516 67.9744 207.669 67.9697H207.967C208.298 68.0095 208.464 68.1355 208.464 68.3477Z" fill="#7C7D93"/>
<path d="M213.696 63.2156C213.73 63.2492 213.756 63.2897 213.773 63.3342C213.791 63.3788 213.798 63.4265 213.795 63.4742V68.2681C213.798 68.3157 213.791 68.3634 213.773 68.408C213.756 68.4526 213.73 68.493 213.696 68.5267C213.633 68.5898 213.547 68.6253 213.457 68.6253C213.368 68.6253 213.282 68.5898 213.219 68.5267C213.184 68.4439 213.184 68.3508 213.219 68.2681V67.6116C213.062 67.9304 212.812 68.194 212.502 68.3675C212.175 68.5519 211.805 68.6479 211.428 68.646C211.168 68.6635 210.907 68.6246 210.663 68.5319C210.42 68.4392 210.199 68.2949 210.016 68.1089C209.667 67.6782 209.496 67.1301 209.539 66.5773V63.4742C209.531 63.4262 209.536 63.377 209.554 63.3316C209.571 63.2863 209.6 63.2463 209.638 63.2156C209.701 63.1524 209.787 63.1169 209.877 63.1169C209.966 63.1169 210.052 63.1524 210.116 63.2156C210.149 63.2492 210.176 63.2897 210.193 63.3342C210.21 63.3788 210.218 63.4265 210.215 63.4742V66.5375C210.181 66.9385 210.286 67.3389 210.513 67.6713C210.64 67.8057 210.795 67.9096 210.967 67.9751C211.139 68.0406 211.324 68.0659 211.508 68.0492C211.737 68.0602 211.966 68.0214 212.179 67.9356C212.392 67.8498 212.584 67.7189 212.741 67.552C212.901 67.3783 213.023 67.1743 213.102 66.9522C213.18 66.73 213.213 66.4942 213.199 66.259V63.4742C213.164 63.3914 213.164 63.2984 213.199 63.2156C213.262 63.1524 213.348 63.1169 213.437 63.1169C213.527 63.1169 213.613 63.1524 213.676 63.2156H213.696Z" fill="#7C7D93"/>
<path d="M219.802 67.5122C219.816 67.54 219.824 67.5706 219.824 67.6017C219.824 67.6328 219.816 67.6634 219.802 67.6912C219.802 67.8503 219.683 68.0095 219.424 68.1686C218.924 68.4826 218.344 68.6482 217.754 68.646C217.388 68.6748 217.021 68.624 216.678 68.4969C216.334 68.3698 216.023 68.1695 215.764 67.91C215.275 67.3658 215.018 66.6519 215.048 65.9209C215.033 65.418 215.143 64.9193 215.367 64.4688C215.553 64.0628 215.858 63.7229 216.242 63.4941C216.636 63.2509 217.092 63.1266 217.555 63.136C217.859 63.1267 218.162 63.1822 218.443 63.2988C218.724 63.4154 218.977 63.5905 219.186 63.8123C219.609 64.3248 219.822 64.9788 219.782 65.6424C219.786 65.7445 219.751 65.8443 219.683 65.9209C219.683 65.9209 219.544 66.0203 219.405 66.0203H215.744C215.725 66.5768 215.909 67.1214 216.262 67.552C216.445 67.7369 216.666 67.8804 216.91 67.9731C217.153 68.0657 217.414 68.1052 217.674 68.089C217.94 68.1002 218.205 68.0526 218.45 67.9498C218.689 67.8611 218.922 67.7547 219.146 67.6315C219.239 67.5406 219.356 67.4784 219.484 67.4525C219.507 67.4306 219.535 67.4144 219.565 67.4053C219.595 67.3963 219.627 67.3946 219.659 67.4004C219.69 67.4062 219.719 67.4195 219.744 67.4389C219.769 67.4583 219.789 67.4835 219.802 67.5122ZM216.421 64.051C216.087 64.4255 215.89 64.9026 215.864 65.4037H219.265C219.28 64.9157 219.126 64.4377 218.828 64.051C218.679 63.8902 218.497 63.7641 218.294 63.6816C218.091 63.5991 217.873 63.5622 217.654 63.5736C217.426 63.5614 217.199 63.5977 216.986 63.68C216.774 63.7623 216.581 63.8887 216.421 64.051Z" fill="#7C7D93"/>
<path d="M224.099 63.1757C224.115 63.2099 224.123 63.2473 224.123 63.2851C224.123 63.3229 224.115 63.3602 224.099 63.3945C224.099 63.5934 223.98 63.6929 223.761 63.7128H223.443C223.22 63.7205 223.002 63.7761 222.803 63.8756C222.604 63.9751 222.429 64.1163 222.289 64.2896C222.03 64.6027 221.889 64.997 221.891 65.4035V68.248C221.925 68.3308 221.925 68.4239 221.891 68.5066C221.828 68.5701 221.742 68.6059 221.652 68.6061C221.557 68.6033 221.466 68.5683 221.394 68.5066C221.36 68.4239 221.36 68.3308 221.394 68.248V63.4542C221.36 63.3714 221.36 63.2784 221.394 63.1956C221.466 63.134 221.557 63.0989 221.652 63.0961C221.694 63.0937 221.736 63.1016 221.774 63.1189C221.812 63.1362 221.846 63.1625 221.871 63.1956C221.935 63.2588 221.97 63.3447 221.971 63.4343V64.1504C222.122 63.8369 222.36 63.5731 222.656 63.3899C222.951 63.2067 223.294 63.1117 223.642 63.116H223.801C223.904 63.0996 224.01 63.1207 224.099 63.1757Z" fill="#7C7D93"/>
<path d="M46.4074 68.3277C46.4248 68.3579 46.434 68.3922 46.434 68.4271C46.434 68.4621 46.4248 68.4964 46.4074 68.5266C46.3502 68.5871 46.2717 68.6228 46.1885 68.6261H46.0095C45.9538 68.5871 45.9119 68.5314 45.8902 68.4669L45.0547 66.4778H40.7979L39.9426 68.4669C39.9218 68.53 39.8819 68.5849 39.8284 68.6242C39.775 68.6634 39.7105 68.6849 39.6442 68.6857C39.555 68.6835 39.4699 68.648 39.4055 68.5863C39.3912 68.5551 39.3838 68.5211 39.3838 68.4868C39.3838 68.4525 39.3912 68.4186 39.4055 68.3874C39.4055 68.3874 39.4055 68.2879 39.4055 68.268L42.6081 61.0474C42.6307 60.9722 42.6789 60.9073 42.7442 60.8637C42.8095 60.8202 42.888 60.8007 42.9661 60.8086C43.0436 60.7829 43.1273 60.7829 43.2048 60.8086C43.2662 60.8465 43.3147 60.9019 43.344 60.9678L46.5466 68.1885C46.5204 68.2514 46.4703 68.3015 46.4074 68.3277ZM40.9372 65.9009H44.6967L42.8269 61.6441L40.9372 65.9009Z" fill="#7C7D93"/>
<path d="M52.0969 60.8485C52.1257 60.9323 52.1257 61.0233 52.0969 61.1071V68.2681C52.1279 68.3446 52.1279 68.4303 52.0969 68.5068C52.0129 68.5342 51.9224 68.5342 51.8384 68.5068C51.7614 68.5358 51.6766 68.5358 51.5996 68.5068C51.5687 68.4303 51.5687 68.3446 51.5996 68.2681V67.5321C51.4512 67.8768 51.2015 68.1682 50.8835 68.3676C50.5361 68.5569 50.1454 68.6528 49.7497 68.646C49.3121 68.6527 48.8825 68.528 48.5164 68.288C48.1491 68.0512 47.8588 67.7125 47.681 67.3133C47.4737 66.8508 47.3718 66.348 47.3826 65.8413C47.3737 65.3476 47.4757 64.8582 47.681 64.4091C47.8502 64.0214 48.1281 63.6911 48.4811 63.4581C48.8342 63.2251 49.2472 63.0994 49.6702 63.0963C50.0658 63.0895 50.4565 63.1854 50.804 63.3748C51.1165 63.5804 51.3647 63.8699 51.5201 64.2102V61.1071C51.4913 61.0233 51.4913 60.9323 51.5201 60.8485C51.5966 60.8176 51.6822 60.8176 51.7588 60.8485C51.8117 60.8237 51.8694 60.8108 51.9279 60.8108C51.9863 60.8108 52.044 60.8237 52.0969 60.8485ZM51.0626 67.4724C51.3924 67.0098 51.5539 66.4482 51.5201 65.8811C51.5535 65.3016 51.3925 64.7276 51.0626 64.25C50.897 64.0729 50.6967 63.9317 50.4743 63.8352C50.2519 63.7387 50.0121 63.6889 49.7696 63.6889C49.5272 63.6889 49.2873 63.7387 49.0649 63.8352C48.8425 63.9317 48.6423 64.0729 48.4767 64.25C48.1337 64.707 47.9645 65.271 47.9993 65.8413C47.9619 66.4242 48.1309 67.0017 48.4767 67.4724C48.632 67.663 48.8299 67.8145 49.0545 67.9147C49.2791 68.0149 49.524 68.061 49.7696 68.0493C50.015 68.0594 50.2595 68.0127 50.4838 67.9126C50.7081 67.8125 50.9062 67.6619 51.0626 67.4724Z" fill="#7C7D93"/>
<path d="M53.9265 61.7437C53.882 61.6994 53.8467 61.6467 53.8226 61.5887C53.7985 61.5306 53.7861 61.4684 53.7861 61.4056C53.7861 61.3427 53.7985 61.2805 53.8226 61.2225C53.8467 61.1645 53.882 61.1118 53.9265 61.0674C53.9707 61.0173 54.0263 60.9784 54.0886 60.9542C54.1509 60.93 54.2181 60.921 54.2846 60.9282C54.3473 60.9282 54.4094 60.9405 54.4673 60.9645C54.5252 60.9885 54.5778 61.0237 54.6222 61.068C54.6665 61.1123 54.7017 61.165 54.7257 61.2229C54.7496 61.2808 54.762 61.3429 54.762 61.4056C54.762 61.4683 54.7496 61.5303 54.7257 61.5883C54.7017 61.6462 54.6665 61.6988 54.6222 61.7432C54.5778 61.7875 54.5252 61.8226 54.4673 61.8466C54.4094 61.8706 54.3473 61.883 54.2846 61.883C54.2181 61.8901 54.1509 61.8812 54.0886 61.857C54.0263 61.8327 53.9707 61.7939 53.9265 61.7437ZM53.9265 68.5268C53.8923 68.444 53.8923 68.351 53.9265 68.2682V63.4743C53.8923 63.3915 53.8923 63.2985 53.9265 63.2157C53.997 63.151 54.0895 63.1155 54.1851 63.1163C54.2747 63.1165 54.3606 63.1523 54.4238 63.2157C54.4581 63.2985 54.4581 63.3915 54.4238 63.4743V68.2682C54.4581 68.351 54.4581 68.444 54.4238 68.5268C54.3606 68.5903 54.2747 68.626 54.1851 68.6262C54.1246 68.607 54.0698 68.5728 54.026 68.5268H53.9265Z" fill="#7C7D93"/>
<path d="M60.1122 63.4544C60.4843 63.6856 60.7761 64.026 60.9476 64.4291C61.1549 64.8916 61.2568 65.3944 61.246 65.9011C61.2549 66.3948 61.1529 66.8842 60.9476 67.3333C60.7708 67.7331 60.4802 68.0721 60.1122 68.308C59.7416 68.5357 59.3138 68.653 58.8789 68.6462C58.4895 68.6532 58.1052 68.5571 57.7649 68.3677C57.4426 68.1734 57.1915 67.8805 57.0488 67.5322V70.2574C57.0779 70.3343 57.0779 70.4192 57.0488 70.4961C57.0112 70.5125 56.9706 70.521 56.9295 70.521C56.8884 70.521 56.8478 70.5125 56.8102 70.4961C56.7205 70.4961 56.6345 70.4604 56.571 70.397C56.5076 70.3336 56.472 70.2476 56.472 70.1579V63.3749C56.4377 63.2921 56.4377 63.1991 56.472 63.1163C56.5352 63.0528 56.6211 63.017 56.7107 63.0168C56.7554 63.0144 56.8001 63.0221 56.8414 63.0393C56.8827 63.0566 56.9196 63.0829 56.9494 63.1163C56.9837 63.1991 56.9837 63.2921 56.9494 63.3749V64.1109C57.0978 63.7662 57.3476 63.4748 57.6655 63.2754C58.0057 63.086 58.39 62.9899 58.7794 62.9969C59.2625 62.9953 59.732 63.1564 60.1122 63.4544ZM60.1122 67.4328C60.4553 66.9835 60.6249 66.4256 60.5896 65.8613C60.627 65.2784 60.4579 64.701 60.1122 64.2302C59.959 64.0371 59.7614 63.8839 59.5363 63.7834C59.3112 63.683 59.0652 63.6384 58.8192 63.6534C58.575 63.6377 58.3306 63.68 58.1059 63.7768C57.8812 63.8735 57.6826 64.0221 57.5263 64.2103C57.1963 64.6879 57.0353 65.2619 57.0687 65.8414C57.0292 66.4062 57.1836 66.9676 57.5064 67.4328C57.6627 67.6222 57.8608 67.7728 58.0851 67.8729C58.3095 67.973 58.5539 68.0198 58.7993 68.0096C59.0412 68.0217 59.2827 67.9798 59.5063 67.8869C59.73 67.794 59.9301 67.6525 60.0923 67.4726L60.1122 67.4328Z" fill="#7C7D93"/>
<path d="M62.658 61.7437C62.6135 61.6994 62.5782 61.6467 62.5541 61.5887C62.53 61.5306 62.5176 61.4684 62.5176 61.4056C62.5176 61.3427 62.53 61.2805 62.5541 61.2225C62.5782 61.1645 62.6135 61.1118 62.658 61.0674C62.7022 61.0173 62.7578 60.9784 62.8201 60.9542C62.8824 60.93 62.9496 60.921 63.016 60.9282C63.0787 60.9282 63.1408 60.9405 63.1987 60.9645C63.2567 60.9885 63.3093 61.0237 63.3536 61.068C63.3979 61.1123 63.4331 61.165 63.4571 61.2229C63.4811 61.2808 63.4934 61.3429 63.4934 61.4056C63.4934 61.4683 63.4811 61.5303 63.4571 61.5883C63.4331 61.6462 63.3979 61.6988 63.3536 61.7432C63.3093 61.7875 63.2567 61.8226 63.1987 61.8466C63.1408 61.8706 63.0787 61.883 63.016 61.883C62.9496 61.8901 62.8824 61.8812 62.8201 61.857C62.7578 61.8327 62.7022 61.7939 62.658 61.7437ZM62.658 68.5268C62.6237 68.444 62.6237 68.351 62.658 68.2682V63.4743C62.6237 63.3915 62.6237 63.2985 62.658 63.2157C62.7285 63.151 62.8209 63.1155 62.9166 63.1163C63.0062 63.1165 63.092 63.1523 63.1553 63.2157C63.1895 63.2985 63.1895 63.3915 63.1553 63.4743V68.2682C63.1895 68.351 63.1895 68.444 63.1553 68.5268C63.092 68.5903 63.0062 68.626 62.9166 68.6262C62.856 68.607 62.8013 68.5728 62.7575 68.5268H62.658Z" fill="#7C7D93"/>
<path d="M65.9201 68.5066C65.6457 68.4344 65.384 68.3203 65.1443 68.1685C65.0329 68.0971 64.9325 68.01 64.846 67.9099C64.8183 67.8396 64.8183 67.7614 64.846 67.6911C64.8328 67.6596 64.8261 67.6258 64.8261 67.5916C64.8261 67.5575 64.8328 67.5237 64.846 67.4921C64.8975 67.4739 64.9536 67.4739 65.0051 67.4921C65.1327 67.518 65.2501 67.5802 65.3433 67.6712C65.5537 67.7995 65.7731 67.9125 65.9997 68.0094C66.2693 68.0964 66.5519 68.1368 66.8351 68.1287C67.1867 68.1468 67.5368 68.0713 67.8496 67.9099C67.9627 67.8377 68.0551 67.7375 68.1178 67.6189C68.1806 67.5004 68.2115 67.3676 68.2077 67.2336C68.2136 67.0789 68.172 66.9262 68.0883 66.796C67.9702 66.6609 67.8196 66.5582 67.6507 66.4976C67.3659 66.3895 67.0733 66.3031 66.7755 66.239C66.2725 66.1708 65.7943 65.9795 65.383 65.682C65.2462 65.5689 65.1372 65.4256 65.0648 65.2634C64.9923 65.1013 64.9583 64.9246 64.9653 64.7471C64.9606 64.5273 65.0087 64.3096 65.1056 64.1123C65.2025 63.915 65.3454 63.7439 65.5223 63.6133C65.9302 63.3123 66.4279 63.1581 66.9346 63.1757C67.2174 63.1748 67.4988 63.215 67.77 63.295C68.0066 63.3597 68.2291 63.4676 68.4265 63.6133C68.6851 63.7923 68.8243 63.9514 68.8243 64.1305C68.8374 64.162 68.8442 64.1958 68.8442 64.2299C68.8442 64.2641 68.8374 64.2979 68.8243 64.3294C68.7728 64.3476 68.7167 64.3476 68.6652 64.3294C68.5312 64.305 68.407 64.2429 68.3071 64.1504C68.1314 64.0116 67.9372 63.8978 67.7303 63.8122C67.4946 63.7264 67.2449 63.6859 66.9943 63.6929C66.6687 63.6723 66.3459 63.7636 66.0792 63.9514C65.9669 64.0277 65.8765 64.1322 65.8171 64.2544C65.7578 64.3765 65.7316 64.5122 65.7411 64.6477C65.7379 64.7957 65.7795 64.9413 65.8604 65.0654C65.958 65.1916 66.0889 65.2881 66.2384 65.3438C66.499 65.4622 66.7728 65.549 67.0539 65.6024C67.454 65.6905 67.8464 65.8103 68.2275 65.9605C68.4555 66.0708 68.6534 66.2346 68.8044 66.4379C68.9335 66.6537 68.9958 66.9029 68.9834 67.154C68.983 67.3667 68.9302 67.576 68.8296 67.7633C68.7289 67.9507 68.5836 68.1104 68.4066 68.2282C67.9677 68.5253 67.4441 68.6719 66.9147 68.6459C66.5775 68.6588 66.2408 68.6117 65.9201 68.5066Z" fill="#7C7D93"/>
<path d="M71.2117 68.3081C70.8367 68.0687 70.5342 67.7318 70.3364 67.3333C70.1311 66.8843 70.0292 66.3949 70.0381 65.9011C70.0256 65.3922 70.1347 64.8876 70.3563 64.4292C70.5478 64.0266 70.8518 63.688 71.2316 63.4545C71.6195 63.214 72.0682 63.0897 72.5245 63.0964C72.8008 63.0956 73.0756 63.1358 73.3401 63.2158C73.5921 63.289 73.8329 63.3961 74.0562 63.5341L74.3347 63.7926C74.3549 63.8776 74.3549 63.9662 74.3347 64.0512C74.3478 64.0828 74.3545 64.1166 74.3545 64.1507C74.3545 64.1848 74.3478 64.2187 74.3347 64.2502C74.2832 64.2684 74.227 64.2684 74.1755 64.2502C74.1755 64.2502 73.9965 64.2502 73.8175 64.0512C73.6454 63.923 73.4584 63.8161 73.2605 63.733C73.0385 63.6479 72.802 63.6073 72.5643 63.6136C72.3123 63.5971 72.06 63.6409 71.8283 63.7412C71.5965 63.8415 71.392 63.9955 71.2316 64.1905C70.8739 64.6561 70.6973 65.2356 70.7343 65.8216C70.699 66.3858 70.8685 66.9438 71.2117 67.393C71.3761 67.5833 71.5813 67.7339 71.8121 67.8338C72.0428 67.9337 72.2932 67.9802 72.5444 67.9699C72.7575 68.0312 72.9802 68.0514 73.2008 68.0296C73.4162 67.9359 73.6226 67.8227 73.8175 67.6914L74.0164 67.5721H74.1556C74.2134 67.5508 74.2769 67.5508 74.3347 67.5721C74.3546 67.6369 74.3546 67.7062 74.3347 67.771C74.3624 67.8413 74.3624 67.9195 74.3347 67.9898C74.2614 68.0949 74.1664 68.1831 74.0562 68.2484C73.8329 68.404 73.5837 68.5185 73.3202 68.5865C73.0519 68.6812 72.7692 68.7283 72.4847 68.7258C72.0309 68.7017 71.5915 68.5576 71.2117 68.3081Z" fill="#7C7D93"/>
<path d="M75.5682 61.7437C75.5012 61.677 75.4555 61.5918 75.437 61.499C75.4185 61.4063 75.4279 61.3101 75.4641 61.2227C75.5004 61.1354 75.5617 61.0607 75.6405 61.0083C75.7192 60.9558 75.8117 60.9279 75.9063 60.9282C75.9728 60.921 76.04 60.93 76.1023 60.9542C76.1646 60.9784 76.2202 61.0173 76.2644 61.0674C76.3089 61.1118 76.3442 61.1645 76.3683 61.2225C76.3924 61.2805 76.4048 61.3427 76.4048 61.4056C76.4048 61.4684 76.3924 61.5306 76.3683 61.5887C76.3442 61.6467 76.3089 61.6994 76.2644 61.7437C76.2202 61.7939 76.1646 61.8327 76.1023 61.857C76.04 61.8812 75.9728 61.8901 75.9063 61.883C75.8431 61.8869 75.7798 61.8765 75.7212 61.8523C75.6626 61.8282 75.6103 61.7911 75.5682 61.7437ZM75.5682 68.5268C75.5339 68.444 75.5339 68.351 75.5682 68.2682V63.4743C75.5339 63.3915 75.5339 63.2985 75.5682 63.2157C75.6314 63.1523 75.7172 63.1165 75.8068 63.1163C75.8545 63.1136 75.9022 63.1211 75.9468 63.1383C75.9914 63.1554 76.0318 63.1818 76.0654 63.2157C76.0997 63.2985 76.0997 63.3915 76.0654 63.4743V68.2682C76.0997 68.351 76.0997 68.444 76.0654 68.5268C76.0318 68.5607 75.9914 68.5871 75.9468 68.6042C75.9022 68.6214 75.8545 68.6289 75.8068 68.6262C75.7527 68.6056 75.7047 68.5713 75.6676 68.5268H75.5682Z" fill="#7C7D93"/>
<path d="M82.4307 65.1651V68.2681C82.4649 68.3509 82.4649 68.444 82.4307 68.5268C82.3673 68.5899 82.2814 68.6254 82.192 68.6254C82.1025 68.6254 82.0166 68.5899 81.9533 68.5268C81.919 68.444 81.919 68.3509 81.9533 68.2681V65.2048C81.9878 64.7947 81.8749 64.3856 81.635 64.0511C81.5015 63.9221 81.3418 63.8234 81.1668 63.7616C80.9917 63.6998 80.8054 63.6765 80.6205 63.6931C80.3901 63.683 80.1601 63.7201 79.9446 63.8022C79.7291 63.8843 79.5326 64.0096 79.3673 64.1705C79.2048 64.3468 79.0788 64.5536 78.9969 64.779C78.9149 65.0044 78.8786 65.2438 78.8899 65.4833V68.2681C78.8926 68.3158 78.8851 68.3635 78.8679 68.4081C78.8508 68.4527 78.8244 68.4931 78.7905 68.5268C78.7271 68.5899 78.6413 68.6254 78.5518 68.6254C78.4623 68.6254 78.3765 68.5899 78.3131 68.5268C78.2922 68.4869 78.2812 68.4425 78.2812 68.3974C78.2812 68.3524 78.2922 68.308 78.3131 68.2681V63.4743C78.2922 63.4344 78.2812 63.39 78.2812 63.345C78.2812 63.2999 78.2922 63.2556 78.3131 63.2157C78.3765 63.1525 78.4623 63.117 78.5518 63.117C78.6413 63.117 78.7271 63.1525 78.7905 63.2157C78.8215 63.2922 78.8215 63.3778 78.7905 63.4544V64.1506C78.9478 63.8208 79.2054 63.5492 79.5265 63.3748C79.8605 63.1879 80.2378 63.0919 80.6205 63.0963C81.7941 63.0963 82.4307 63.7925 82.4307 65.1651Z" fill="#7C7D93"/>
<path d="M88.6569 63.2157C88.6911 63.2985 88.6911 63.3915 88.6569 63.4743V68.2483C88.7012 68.8909 88.4944 69.5255 88.08 70.0187C87.8512 70.2304 87.5812 70.3926 87.2869 70.4953C86.9925 70.598 86.6802 70.6389 86.3694 70.6154C86.0143 70.6208 85.66 70.5807 85.3151 70.4961C85.008 70.4183 84.7134 70.2978 84.4399 70.138C84.1813 69.9789 84.042 69.8198 84.042 69.6805C84.0277 69.6493 84.0203 69.6154 84.0203 69.5811C84.0203 69.5467 84.0277 69.5128 84.042 69.4816C84.0698 69.4676 84.1005 69.4603 84.1316 69.4603C84.1626 69.4603 84.1933 69.4676 84.2211 69.4816H84.4001H84.5592C84.7976 69.6225 85.0512 69.736 85.3151 69.8197C85.6361 69.9232 85.9726 69.9703 86.3097 69.959C86.5266 69.9746 86.7444 69.9456 86.9497 69.8738C87.155 69.8019 87.3434 69.6887 87.5032 69.5413C87.802 69.187 87.9517 68.7306 87.9209 68.2682V67.2139C87.7725 67.5586 87.5227 67.85 87.2048 68.0494C86.8569 68.2577 86.4564 68.3613 86.0511 68.3478C85.61 68.354 85.176 68.2369 84.7979 68.0096C84.4364 67.7835 84.1466 67.4593 83.9625 67.0747C83.7664 66.6402 83.665 66.1689 83.665 65.6922C83.665 65.2155 83.7664 64.7443 83.9625 64.3098C84.1466 63.9252 84.4364 63.601 84.7979 63.3749C85.176 63.1476 85.61 63.0305 86.0511 63.0367C86.4468 63.0299 86.8374 63.1259 87.1849 63.3152C87.5028 63.5146 87.7526 63.806 87.901 64.1506V63.4146C87.8668 63.3318 87.8668 63.2389 87.901 63.1561C87.9644 63.0929 88.0502 63.0574 88.1397 63.0574C88.2292 63.0574 88.315 63.0929 88.3784 63.1561L88.6569 63.2157ZM87.6225 67.1941C87.9466 66.7589 88.1084 66.2242 88.08 65.6823C88.1124 65.1429 87.9421 64.6109 87.6026 64.1904C87.4463 64.0022 87.2477 63.8536 87.023 63.7569C86.7983 63.6601 86.5538 63.6178 86.3097 63.6334C86.0675 63.6185 85.8251 63.6591 85.601 63.7521C85.3769 63.8452 85.177 63.9883 85.0167 64.1705C84.6809 64.6006 84.5114 65.1374 84.5393 65.6823C84.5039 66.2282 84.6742 66.7675 85.0167 67.1941C85.1731 67.3823 85.3717 67.5308 85.5964 67.6276C85.8211 67.7244 86.0655 67.7667 86.3097 67.751C86.5515 67.7683 86.7942 67.7328 87.0209 67.6469C87.2476 67.5611 87.4529 67.4269 87.6225 67.2537V67.1941Z" fill="#7C7D93"/>
<path d="M208.862 104.291C205.063 104.291 202.676 100.313 200.348 96.3348C198.359 92.9333 196.171 89.3926 193.565 89.5915C191.735 89.7109 190.104 91.899 188.493 94.0075C186.882 96.116 185.211 98.3638 183.043 98.6422C180.874 98.9207 179.064 96.7724 177.314 94.6639C176.081 93.2118 174.569 91.4017 173.554 91.4216C171.764 91.4216 169.675 94.3456 167.826 96.8719C165.558 99.975 163.211 103.197 160.306 103.217C157.84 103.217 155.533 101.228 153.086 99.239C150.639 97.2498 148.212 95.2607 145.726 95.0419C145.434 95.0264 145.16 94.8967 144.963 94.6809C144.765 94.4651 144.661 94.1803 144.672 93.8881C144.701 93.6033 144.836 93.3396 145.049 93.1485C145.262 92.9573 145.539 92.8522 145.825 92.8538C149.048 92.993 151.952 95.4198 154.498 97.5482C156.627 99.3185 158.636 100.989 160.287 100.989C161.938 100.989 164.265 98.1052 166.055 95.559C168.303 92.4758 170.61 89.2932 173.475 89.2136C175.464 89.1141 177.294 91.2028 178.985 93.1919C180.238 94.6838 181.829 96.5536 182.764 96.4144C184.017 96.2354 185.41 94.4252 186.743 92.6151C188.553 90.2281 190.582 87.5427 193.406 87.3239C197.385 87.0653 199.851 91.163 202.238 95.1612C204.227 98.5627 206.435 102.123 209.041 101.964C211.309 101.845 212.423 98.5229 213.517 95.3203C214.611 92.1178 215.725 88.7959 218.311 88.0997C220.3 87.5228 222.508 89.3528 224.557 91.1232C225.603 92.2056 226.863 93.0591 228.256 93.6295C229.45 93.7887 231.459 92.2769 233.249 90.9243C234.676 89.6982 236.287 88.7047 238.023 87.9803C238.16 87.9371 238.305 87.9214 238.448 87.934C238.591 87.9467 238.73 87.9874 238.858 88.0539C238.985 88.1204 239.098 88.2114 239.191 88.3216C239.283 88.4319 239.353 88.5592 239.396 88.6964C239.442 88.8335 239.46 88.9784 239.448 89.1225C239.437 89.2666 239.397 89.4069 239.33 89.535C239.263 89.6632 239.171 89.7765 239.059 89.8683C238.947 89.96 238.818 90.0283 238.68 90.0689C237.191 90.7388 235.805 91.6161 234.562 92.6747C232.255 94.4252 230.066 96.0961 227.958 95.7977C226.112 95.237 224.445 94.2012 223.124 92.7941C221.652 91.521 219.822 89.9496 218.907 90.2082C217.435 90.606 216.5 93.371 215.605 96.0166C214.332 99.7562 212.9 103.973 209.16 104.152L208.862 104.291Z" fill="#33E7D2"/>
<path d="M30.533 102.462H30.1948C25.7192 102.283 23.929 98.2051 22.3376 94.6047C21.1441 91.8796 20.0103 89.3135 18.0012 88.8759C17.8606 88.8477 17.727 88.7915 17.6083 88.7108C17.4897 88.63 17.3885 88.5263 17.3106 88.4058C17.2327 88.2853 17.1798 88.1504 17.1549 88.009C17.1301 87.8677 17.1338 87.7229 17.1658 87.583C17.1943 87.4418 17.2503 87.3076 17.3308 87.1881C17.4112 87.0687 17.5145 86.9662 17.6346 86.8868C17.7548 86.8073 17.8894 86.7524 18.0308 86.725C18.1722 86.6977 18.3177 86.6986 18.4588 86.7276C21.5619 87.3841 22.9742 90.6065 24.4263 93.7096C25.8783 96.8127 27.2708 100.135 30.3937 100.254C33.9941 100.413 36.5999 97.0713 39.345 93.5306C42.09 89.9899 45.3125 85.7529 50.1262 86.0115C53.4879 86.1906 56.0937 88.7765 58.2619 91.064C60.0721 92.9139 61.7827 94.6644 63.5531 94.8434C65.3235 95.0224 66.9148 93.272 68.7249 91.621C70.5351 89.97 72.8823 87.6427 75.329 87.8018C78.7304 87.8018 81.6147 90.9248 84.4194 93.8886C86.9059 96.5342 89.4918 99.2594 92.018 99.2793C94.5443 99.2992 96.8915 97.6084 99.6365 95.838C102.799 93.8488 106.4 91.4817 110.318 91.3425C110.463 91.3345 110.607 91.3556 110.743 91.4047C110.879 91.4538 111.004 91.5299 111.11 91.6283C111.215 91.7268 111.3 91.8456 111.359 91.9776C111.418 92.1097 111.45 92.2522 111.452 92.3968C111.458 92.6856 111.351 92.9652 111.154 93.1767C110.958 93.3883 110.686 93.5152 110.398 93.5306C107.096 93.6499 103.893 95.6988 100.83 97.6879C97.7667 99.6771 94.8625 101.467 92.018 101.467C88.5569 101.467 85.6328 98.3642 82.8082 95.3805C80.3218 92.7548 77.7557 90.0495 75.2693 89.9899C73.7774 89.9899 71.9673 91.621 70.1969 93.2322C68.0287 95.2214 65.8208 97.2105 63.3343 97.0315C60.8478 96.8525 58.6995 94.6445 56.6905 92.5957C54.6814 90.5468 52.5132 88.3389 50.0069 88.1996C46.4463 88.0007 43.8206 91.3425 41.0755 94.8832C38.3305 98.4239 35.0882 102.462 30.533 102.462Z" fill="#FFBC3F"/>
</g>
<defs>
<clipPath id="clip0_182_415">
<rect width="257" height="130.748" fill="white"/>
</clipPath>
</defs>
</svg>
